G04 #@! TF.GenerationSoftware,KiCad,Pcbnew,(5.1.5)-3*
G04 #@! TF.CreationDate,2020-05-24T22:51:02+02:00*
G04 #@! TF.ProjectId,controller,636f6e74-726f-46c6-9c65-722e6b696361,rev?*
G04 #@! TF.SameCoordinates,Original*
G04 #@! TF.FileFunction,Legend,Top*
G04 #@! TF.FilePolarity,Positive*
%FSLAX46Y46*%
G04 Gerber Fmt 4.6, Leading zero omitted, Abs format (unit mm)*
G04 Created by KiCad (PCBNEW (5.1.5)-3) date 2020-05-24 22:51:02*
%MOMM*%
%LPD*%
G04 APERTURE LIST*
%ADD10C,0.150000*%
%ADD11C,0.107950*%
%ADD12C,0.050000*%
%ADD13C,0.120000*%
G04 APERTURE END LIST*
D10*
X122721714Y-66855619D02*
X123531238Y-66855619D01*
X123626476Y-66903238D01*
X123674095Y-66950857D01*
X123721714Y-67046095D01*
X123721714Y-67188952D01*
X123674095Y-67284190D01*
X123340761Y-66855619D02*
X123388380Y-66950857D01*
X123388380Y-67141333D01*
X123340761Y-67236571D01*
X123293142Y-67284190D01*
X123197904Y-67331809D01*
X122912190Y-67331809D01*
X122816952Y-67284190D01*
X122769333Y-67236571D01*
X122721714Y-67141333D01*
X122721714Y-66950857D01*
X122769333Y-66855619D01*
X123388380Y-66379428D02*
X122721714Y-66379428D01*
X122388380Y-66379428D02*
X122436000Y-66427047D01*
X122483619Y-66379428D01*
X122436000Y-66331809D01*
X122388380Y-66379428D01*
X122483619Y-66379428D01*
X122721714Y-66046095D02*
X122721714Y-65665142D01*
X122388380Y-65903238D02*
X123245523Y-65903238D01*
X123340761Y-65855619D01*
X123388380Y-65760380D01*
X123388380Y-65665142D01*
X123388380Y-65331809D02*
X122388380Y-65331809D01*
X123388380Y-64903238D02*
X122864571Y-64903238D01*
X122769333Y-64950857D01*
X122721714Y-65046095D01*
X122721714Y-65188952D01*
X122769333Y-65284190D01*
X122816952Y-65331809D01*
X122721714Y-63998476D02*
X123388380Y-63998476D01*
X122721714Y-64427047D02*
X123245523Y-64427047D01*
X123340761Y-64379428D01*
X123388380Y-64284190D01*
X123388380Y-64141333D01*
X123340761Y-64046095D01*
X123293142Y-63998476D01*
X123388380Y-63522285D02*
X122388380Y-63522285D01*
X122769333Y-63522285D02*
X122721714Y-63427047D01*
X122721714Y-63236571D01*
X122769333Y-63141333D01*
X122816952Y-63093714D01*
X122912190Y-63046095D01*
X123197904Y-63046095D01*
X123293142Y-63093714D01*
X123340761Y-63141333D01*
X123388380Y-63236571D01*
X123388380Y-63427047D01*
X123340761Y-63522285D01*
X123293142Y-62617523D02*
X123340761Y-62569904D01*
X123388380Y-62617523D01*
X123340761Y-62665142D01*
X123293142Y-62617523D01*
X123388380Y-62617523D01*
X123340761Y-61712761D02*
X123388380Y-61808000D01*
X123388380Y-61998476D01*
X123340761Y-62093714D01*
X123293142Y-62141333D01*
X123197904Y-62188952D01*
X122912190Y-62188952D01*
X122816952Y-62141333D01*
X122769333Y-62093714D01*
X122721714Y-61998476D01*
X122721714Y-61808000D01*
X122769333Y-61712761D01*
X123388380Y-61141333D02*
X123340761Y-61236571D01*
X123293142Y-61284190D01*
X123197904Y-61331809D01*
X122912190Y-61331809D01*
X122816952Y-61284190D01*
X122769333Y-61236571D01*
X122721714Y-61141333D01*
X122721714Y-60998476D01*
X122769333Y-60903238D01*
X122816952Y-60855619D01*
X122912190Y-60808000D01*
X123197904Y-60808000D01*
X123293142Y-60855619D01*
X123340761Y-60903238D01*
X123388380Y-60998476D01*
X123388380Y-61141333D01*
X123388380Y-60379428D02*
X122721714Y-60379428D01*
X122816952Y-60379428D02*
X122769333Y-60331809D01*
X122721714Y-60236571D01*
X122721714Y-60093714D01*
X122769333Y-59998476D01*
X122864571Y-59950857D01*
X123388380Y-59950857D01*
X122864571Y-59950857D02*
X122769333Y-59903238D01*
X122721714Y-59808000D01*
X122721714Y-59665142D01*
X122769333Y-59569904D01*
X122864571Y-59522285D01*
X123388380Y-59522285D01*
X122340761Y-58331809D02*
X123626476Y-59188952D01*
X123388380Y-57998476D02*
X122388380Y-57998476D01*
X122388380Y-57760380D01*
X122436000Y-57617523D01*
X122531238Y-57522285D01*
X122626476Y-57474666D01*
X122816952Y-57427047D01*
X122959809Y-57427047D01*
X123150285Y-57474666D01*
X123245523Y-57522285D01*
X123340761Y-57617523D01*
X123388380Y-57760380D01*
X123388380Y-57998476D01*
X123388380Y-56855619D02*
X123340761Y-56950857D01*
X123293142Y-56998476D01*
X123197904Y-57046095D01*
X122912190Y-57046095D01*
X122816952Y-56998476D01*
X122769333Y-56950857D01*
X122721714Y-56855619D01*
X122721714Y-56712761D01*
X122769333Y-56617523D01*
X122816952Y-56569904D01*
X122912190Y-56522285D01*
X123197904Y-56522285D01*
X123293142Y-56569904D01*
X123340761Y-56617523D01*
X123388380Y-56712761D01*
X123388380Y-56855619D01*
X123340761Y-55665142D02*
X123388380Y-55760380D01*
X123388380Y-55950857D01*
X123340761Y-56046095D01*
X123293142Y-56093714D01*
X123197904Y-56141333D01*
X122912190Y-56141333D01*
X122816952Y-56093714D01*
X122769333Y-56046095D01*
X122721714Y-55950857D01*
X122721714Y-55760380D01*
X122769333Y-55665142D01*
X123007428Y-55236571D02*
X123007428Y-54474666D01*
X123388380Y-53427047D02*
X122912190Y-53760380D01*
X123388380Y-53998476D02*
X122388380Y-53998476D01*
X122388380Y-53617523D01*
X122436000Y-53522285D01*
X122483619Y-53474666D01*
X122578857Y-53427047D01*
X122721714Y-53427047D01*
X122816952Y-53474666D01*
X122864571Y-53522285D01*
X122912190Y-53617523D01*
X122912190Y-53998476D01*
X123388380Y-52569904D02*
X122864571Y-52569904D01*
X122769333Y-52617523D01*
X122721714Y-52712761D01*
X122721714Y-52903238D01*
X122769333Y-52998476D01*
X123340761Y-52569904D02*
X123388380Y-52665142D01*
X123388380Y-52903238D01*
X123340761Y-52998476D01*
X123245523Y-53046095D01*
X123150285Y-53046095D01*
X123055047Y-52998476D01*
X123007428Y-52903238D01*
X123007428Y-52665142D01*
X122959809Y-52569904D01*
X122721714Y-52093714D02*
X123721714Y-52093714D01*
X122769333Y-52093714D02*
X122721714Y-51998476D01*
X122721714Y-51808000D01*
X122769333Y-51712761D01*
X122816952Y-51665142D01*
X122912190Y-51617523D01*
X123197904Y-51617523D01*
X123293142Y-51665142D01*
X123340761Y-51712761D01*
X123388380Y-51808000D01*
X123388380Y-51998476D01*
X123340761Y-52093714D01*
X122721714Y-51331809D02*
X122721714Y-50950857D01*
X122388380Y-51188952D02*
X123245523Y-51188952D01*
X123340761Y-51141333D01*
X123388380Y-51046095D01*
X123388380Y-50950857D01*
X123388380Y-50474666D02*
X123340761Y-50569904D01*
X123293142Y-50617523D01*
X123197904Y-50665142D01*
X122912190Y-50665142D01*
X122816952Y-50617523D01*
X122769333Y-50569904D01*
X122721714Y-50474666D01*
X122721714Y-50331809D01*
X122769333Y-50236571D01*
X122816952Y-50188952D01*
X122912190Y-50141333D01*
X123197904Y-50141333D01*
X123293142Y-50188952D01*
X123340761Y-50236571D01*
X123388380Y-50331809D01*
X123388380Y-50474666D01*
X123388380Y-49712761D02*
X122721714Y-49712761D01*
X122912190Y-49712761D02*
X122816952Y-49665142D01*
X122769333Y-49617523D01*
X122721714Y-49522285D01*
X122721714Y-49427047D01*
X122340761Y-48379428D02*
X123626476Y-49236571D01*
X123388380Y-47617523D02*
X122388380Y-47617523D01*
X123340761Y-47617523D02*
X123388380Y-47712761D01*
X123388380Y-47903238D01*
X123340761Y-47998476D01*
X123293142Y-48046095D01*
X123197904Y-48093714D01*
X122912190Y-48093714D01*
X122816952Y-48046095D01*
X122769333Y-47998476D01*
X122721714Y-47903238D01*
X122721714Y-47712761D01*
X122769333Y-47617523D01*
X123388380Y-47141333D02*
X122721714Y-47141333D01*
X122912190Y-47141333D02*
X122816952Y-47093714D01*
X122769333Y-47046095D01*
X122721714Y-46950857D01*
X122721714Y-46855619D01*
X123388380Y-46093714D02*
X122864571Y-46093714D01*
X122769333Y-46141333D01*
X122721714Y-46236571D01*
X122721714Y-46427047D01*
X122769333Y-46522285D01*
X123340761Y-46093714D02*
X123388380Y-46188952D01*
X123388380Y-46427047D01*
X123340761Y-46522285D01*
X123245523Y-46569904D01*
X123150285Y-46569904D01*
X123055047Y-46522285D01*
X123007428Y-46427047D01*
X123007428Y-46188952D01*
X122959809Y-46093714D01*
X122721714Y-45188952D02*
X123531238Y-45188952D01*
X123626476Y-45236571D01*
X123674095Y-45284190D01*
X123721714Y-45379428D01*
X123721714Y-45522285D01*
X123674095Y-45617523D01*
X123340761Y-45188952D02*
X123388380Y-45284190D01*
X123388380Y-45474666D01*
X123340761Y-45569904D01*
X123293142Y-45617523D01*
X123197904Y-45665142D01*
X122912190Y-45665142D01*
X122816952Y-45617523D01*
X122769333Y-45569904D01*
X122721714Y-45474666D01*
X122721714Y-45284190D01*
X122769333Y-45188952D01*
X123388380Y-44569904D02*
X123340761Y-44665142D01*
X123293142Y-44712761D01*
X123197904Y-44760380D01*
X122912190Y-44760380D01*
X122816952Y-44712761D01*
X122769333Y-44665142D01*
X122721714Y-44569904D01*
X122721714Y-44427047D01*
X122769333Y-44331809D01*
X122816952Y-44284190D01*
X122912190Y-44236571D01*
X123197904Y-44236571D01*
X123293142Y-44284190D01*
X123340761Y-44331809D01*
X123388380Y-44427047D01*
X123388380Y-44569904D01*
X122721714Y-43808000D02*
X123388380Y-43808000D01*
X122816952Y-43808000D02*
X122769333Y-43760380D01*
X122721714Y-43665142D01*
X122721714Y-43522285D01*
X122769333Y-43427047D01*
X122864571Y-43379428D01*
X123388380Y-43379428D01*
X123483619Y-43141333D02*
X123483619Y-42379428D01*
X123340761Y-41712761D02*
X123388380Y-41808000D01*
X123388380Y-41998476D01*
X123340761Y-42093714D01*
X123293142Y-42141333D01*
X123197904Y-42188952D01*
X122912190Y-42188952D01*
X122816952Y-42141333D01*
X122769333Y-42093714D01*
X122721714Y-41998476D01*
X122721714Y-41808000D01*
X122769333Y-41712761D01*
X123388380Y-41141333D02*
X123340761Y-41236571D01*
X123293142Y-41284190D01*
X123197904Y-41331809D01*
X122912190Y-41331809D01*
X122816952Y-41284190D01*
X122769333Y-41236571D01*
X122721714Y-41141333D01*
X122721714Y-40998476D01*
X122769333Y-40903238D01*
X122816952Y-40855619D01*
X122912190Y-40808000D01*
X123197904Y-40808000D01*
X123293142Y-40855619D01*
X123340761Y-40903238D01*
X123388380Y-40998476D01*
X123388380Y-41141333D01*
X122721714Y-40379428D02*
X123388380Y-40379428D01*
X122816952Y-40379428D02*
X122769333Y-40331809D01*
X122721714Y-40236571D01*
X122721714Y-40093714D01*
X122769333Y-39998476D01*
X122864571Y-39950857D01*
X123388380Y-39950857D01*
X122721714Y-39617523D02*
X122721714Y-39236571D01*
X122388380Y-39474666D02*
X123245523Y-39474666D01*
X123340761Y-39427047D01*
X123388380Y-39331809D01*
X123388380Y-39236571D01*
X123388380Y-38903238D02*
X122721714Y-38903238D01*
X122912190Y-38903238D02*
X122816952Y-38855619D01*
X122769333Y-38808000D01*
X122721714Y-38712761D01*
X122721714Y-38617523D01*
X123388380Y-38141333D02*
X123340761Y-38236571D01*
X123293142Y-38284190D01*
X123197904Y-38331809D01*
X122912190Y-38331809D01*
X122816952Y-38284190D01*
X122769333Y-38236571D01*
X122721714Y-38141333D01*
X122721714Y-37998476D01*
X122769333Y-37903238D01*
X122816952Y-37855619D01*
X122912190Y-37808000D01*
X123197904Y-37808000D01*
X123293142Y-37855619D01*
X123340761Y-37903238D01*
X123388380Y-37998476D01*
X123388380Y-38141333D01*
X123388380Y-37236571D02*
X123340761Y-37331809D01*
X123245523Y-37379428D01*
X122388380Y-37379428D01*
X123388380Y-36712761D02*
X123340761Y-36808000D01*
X123245523Y-36855619D01*
X122388380Y-36855619D01*
X123340761Y-35950857D02*
X123388380Y-36046095D01*
X123388380Y-36236571D01*
X123340761Y-36331809D01*
X123245523Y-36379428D01*
X122864571Y-36379428D01*
X122769333Y-36331809D01*
X122721714Y-36236571D01*
X122721714Y-36046095D01*
X122769333Y-35950857D01*
X122864571Y-35903238D01*
X122959809Y-35903238D01*
X123055047Y-36379428D01*
X123388380Y-35474666D02*
X122721714Y-35474666D01*
X122912190Y-35474666D02*
X122816952Y-35427047D01*
X122769333Y-35379428D01*
X122721714Y-35284190D01*
X122721714Y-35188952D01*
X112936261Y-75903666D02*
X113571261Y-75480333D01*
X112936261Y-75480333D02*
X113571261Y-75903666D01*
X117635261Y-106661857D02*
X117000261Y-106661857D01*
X117453833Y-106450190D01*
X117000261Y-106238523D01*
X117635261Y-106238523D01*
X117000261Y-105815190D02*
X117000261Y-105694238D01*
X117030500Y-105633761D01*
X117090976Y-105573285D01*
X117211928Y-105543047D01*
X117423595Y-105543047D01*
X117544547Y-105573285D01*
X117605023Y-105633761D01*
X117635261Y-105694238D01*
X117635261Y-105815190D01*
X117605023Y-105875666D01*
X117544547Y-105936142D01*
X117423595Y-105966380D01*
X117211928Y-105966380D01*
X117090976Y-105936142D01*
X117030500Y-105875666D01*
X117000261Y-105815190D01*
X117605023Y-105301142D02*
X117635261Y-105210428D01*
X117635261Y-105059238D01*
X117605023Y-104998761D01*
X117574785Y-104968523D01*
X117514309Y-104938285D01*
X117453833Y-104938285D01*
X117393357Y-104968523D01*
X117363119Y-104998761D01*
X117332880Y-105059238D01*
X117302642Y-105180190D01*
X117272404Y-105240666D01*
X117242166Y-105270904D01*
X117181690Y-105301142D01*
X117121214Y-105301142D01*
X117060738Y-105270904D01*
X117030500Y-105240666D01*
X117000261Y-105180190D01*
X117000261Y-105029000D01*
X117030500Y-104938285D01*
X117635261Y-104666142D02*
X117000261Y-104666142D01*
X117635261Y-103613857D02*
X117000261Y-103613857D01*
X117453833Y-103402190D01*
X117000261Y-103190523D01*
X117635261Y-103190523D01*
X117635261Y-102888142D02*
X117000261Y-102888142D01*
X117605023Y-102616000D02*
X117635261Y-102525285D01*
X117635261Y-102374095D01*
X117605023Y-102313619D01*
X117574785Y-102283380D01*
X117514309Y-102253142D01*
X117453833Y-102253142D01*
X117393357Y-102283380D01*
X117363119Y-102313619D01*
X117332880Y-102374095D01*
X117302642Y-102495047D01*
X117272404Y-102555523D01*
X117242166Y-102585761D01*
X117181690Y-102616000D01*
X117121214Y-102616000D01*
X117060738Y-102585761D01*
X117030500Y-102555523D01*
X117000261Y-102495047D01*
X117000261Y-102343857D01*
X117030500Y-102253142D01*
X117000261Y-101860047D02*
X117000261Y-101739095D01*
X117030500Y-101678619D01*
X117090976Y-101618142D01*
X117211928Y-101587904D01*
X117423595Y-101587904D01*
X117544547Y-101618142D01*
X117605023Y-101678619D01*
X117635261Y-101739095D01*
X117635261Y-101860047D01*
X117605023Y-101920523D01*
X117544547Y-101981000D01*
X117423595Y-102011238D01*
X117211928Y-102011238D01*
X117090976Y-101981000D01*
X117030500Y-101920523D01*
X117000261Y-101860047D01*
X117605023Y-100384428D02*
X117635261Y-100293714D01*
X117635261Y-100142523D01*
X117605023Y-100082047D01*
X117574785Y-100051809D01*
X117514309Y-100021571D01*
X117453833Y-100021571D01*
X117393357Y-100051809D01*
X117363119Y-100082047D01*
X117332880Y-100142523D01*
X117302642Y-100263476D01*
X117272404Y-100323952D01*
X117242166Y-100354190D01*
X117181690Y-100384428D01*
X117121214Y-100384428D01*
X117060738Y-100354190D01*
X117030500Y-100323952D01*
X117000261Y-100263476D01*
X117000261Y-100112285D01*
X117030500Y-100021571D01*
X117574785Y-99386571D02*
X117605023Y-99416809D01*
X117635261Y-99507523D01*
X117635261Y-99568000D01*
X117605023Y-99658714D01*
X117544547Y-99719190D01*
X117484071Y-99749428D01*
X117363119Y-99779666D01*
X117272404Y-99779666D01*
X117151452Y-99749428D01*
X117090976Y-99719190D01*
X117030500Y-99658714D01*
X117000261Y-99568000D01*
X117000261Y-99507523D01*
X117030500Y-99416809D01*
X117060738Y-99386571D01*
X117635261Y-99114428D02*
X117000261Y-99114428D01*
X117635261Y-98751571D02*
X117272404Y-99023714D01*
X117000261Y-98751571D02*
X117363119Y-99114428D01*
D11*
X90140366Y-53309157D02*
X90202052Y-53329719D01*
X90222614Y-53350280D01*
X90243176Y-53391404D01*
X90243176Y-53453090D01*
X90222614Y-53494214D01*
X90202052Y-53514776D01*
X90160928Y-53535338D01*
X89996433Y-53535338D01*
X89996433Y-53103538D01*
X90140366Y-53103538D01*
X90181490Y-53124100D01*
X90202052Y-53144661D01*
X90222614Y-53185785D01*
X90222614Y-53226909D01*
X90202052Y-53268033D01*
X90181490Y-53288595D01*
X90140366Y-53309157D01*
X89996433Y-53309157D01*
X90510480Y-53103538D02*
X90592728Y-53103538D01*
X90633852Y-53124100D01*
X90674976Y-53165223D01*
X90695538Y-53247471D01*
X90695538Y-53391404D01*
X90674976Y-53473652D01*
X90633852Y-53514776D01*
X90592728Y-53535338D01*
X90510480Y-53535338D01*
X90469357Y-53514776D01*
X90428233Y-53473652D01*
X90407671Y-53391404D01*
X90407671Y-53247471D01*
X90428233Y-53165223D01*
X90469357Y-53124100D01*
X90510480Y-53103538D01*
X90962842Y-53103538D02*
X91045090Y-53103538D01*
X91086214Y-53124100D01*
X91127338Y-53165223D01*
X91147900Y-53247471D01*
X91147900Y-53391404D01*
X91127338Y-53473652D01*
X91086214Y-53514776D01*
X91045090Y-53535338D01*
X90962842Y-53535338D01*
X90921719Y-53514776D01*
X90880595Y-53473652D01*
X90860033Y-53391404D01*
X90860033Y-53247471D01*
X90880595Y-53165223D01*
X90921719Y-53124100D01*
X90962842Y-53103538D01*
X91271271Y-53103538D02*
X91518014Y-53103538D01*
X91394642Y-53535338D02*
X91394642Y-53103538D01*
X91888128Y-53535338D02*
X91641385Y-53535338D01*
X91764757Y-53535338D02*
X91764757Y-53103538D01*
X91723633Y-53165223D01*
X91682509Y-53206347D01*
X91641385Y-53226909D01*
D10*
X26399333Y-67597180D02*
X26399333Y-66597180D01*
X26399333Y-67073371D02*
X26970761Y-67073371D01*
X26970761Y-67597180D02*
X26970761Y-66597180D01*
X27637428Y-66597180D02*
X27827904Y-66597180D01*
X27923142Y-66644800D01*
X28018380Y-66740038D01*
X28066000Y-66930514D01*
X28066000Y-67263847D01*
X28018380Y-67454323D01*
X27923142Y-67549561D01*
X27827904Y-67597180D01*
X27637428Y-67597180D01*
X27542190Y-67549561D01*
X27446952Y-67454323D01*
X27399333Y-67263847D01*
X27399333Y-66930514D01*
X27446952Y-66740038D01*
X27542190Y-66644800D01*
X27637428Y-66597180D01*
X28351714Y-66597180D02*
X28923142Y-66597180D01*
X28637428Y-67597180D02*
X28637428Y-66597180D01*
X29256476Y-67073371D02*
X29589809Y-67073371D01*
X29732666Y-67597180D02*
X29256476Y-67597180D01*
X29256476Y-66597180D01*
X29732666Y-66597180D01*
X30161238Y-67597180D02*
X30161238Y-66597180D01*
X30732666Y-67597180D01*
X30732666Y-66597180D01*
X31208857Y-67597180D02*
X31208857Y-66597180D01*
X31446952Y-66597180D01*
X31589809Y-66644800D01*
X31685047Y-66740038D01*
X31732666Y-66835276D01*
X31780285Y-67025752D01*
X31780285Y-67168609D01*
X31732666Y-67359085D01*
X31685047Y-67454323D01*
X31589809Y-67549561D01*
X31446952Y-67597180D01*
X31208857Y-67597180D01*
X33068000Y-113736380D02*
X33068000Y-112736380D01*
X33068000Y-113212571D02*
X33639428Y-113212571D01*
X33639428Y-113736380D02*
X33639428Y-112736380D01*
X34115619Y-113212571D02*
X34448952Y-113212571D01*
X34591809Y-113736380D02*
X34115619Y-113736380D01*
X34115619Y-112736380D01*
X34591809Y-112736380D01*
X34972761Y-113450666D02*
X35448952Y-113450666D01*
X34877523Y-113736380D02*
X35210857Y-112736380D01*
X35544190Y-113736380D01*
X35734666Y-112736380D02*
X36306095Y-112736380D01*
X36020380Y-113736380D02*
X36020380Y-112736380D01*
X36972761Y-113212571D02*
X37115619Y-113260190D01*
X37163238Y-113307809D01*
X37210857Y-113403047D01*
X37210857Y-113545904D01*
X37163238Y-113641142D01*
X37115619Y-113688761D01*
X37020380Y-113736380D01*
X36639428Y-113736380D01*
X36639428Y-112736380D01*
X36972761Y-112736380D01*
X37068000Y-112784000D01*
X37115619Y-112831619D01*
X37163238Y-112926857D01*
X37163238Y-113022095D01*
X37115619Y-113117333D01*
X37068000Y-113164952D01*
X36972761Y-113212571D01*
X36639428Y-113212571D01*
X37639428Y-113212571D02*
X37972761Y-113212571D01*
X38115619Y-113736380D02*
X37639428Y-113736380D01*
X37639428Y-112736380D01*
X38115619Y-112736380D01*
X38544190Y-113736380D02*
X38544190Y-112736380D01*
X38782285Y-112736380D01*
X38925142Y-112784000D01*
X39020380Y-112879238D01*
X39068000Y-112974476D01*
X39115619Y-113164952D01*
X39115619Y-113307809D01*
X39068000Y-113498285D01*
X39020380Y-113593523D01*
X38925142Y-113688761D01*
X38782285Y-113736380D01*
X38544190Y-113736380D01*
X122832761Y-103893809D02*
X122880380Y-103750952D01*
X122880380Y-103512857D01*
X122832761Y-103417619D01*
X122785142Y-103370000D01*
X122689904Y-103322380D01*
X122594666Y-103322380D01*
X122499428Y-103370000D01*
X122451809Y-103417619D01*
X122404190Y-103512857D01*
X122356571Y-103703333D01*
X122308952Y-103798571D01*
X122261333Y-103846190D01*
X122166095Y-103893809D01*
X122070857Y-103893809D01*
X121975619Y-103846190D01*
X121928000Y-103798571D01*
X121880380Y-103703333D01*
X121880380Y-103465238D01*
X121928000Y-103322380D01*
X122880380Y-102893809D02*
X121880380Y-102893809D01*
X121880380Y-102512857D01*
X121928000Y-102417619D01*
X121975619Y-102370000D01*
X122070857Y-102322380D01*
X122213714Y-102322380D01*
X122308952Y-102370000D01*
X122356571Y-102417619D01*
X122404190Y-102512857D01*
X122404190Y-102893809D01*
X122880380Y-101893809D02*
X121880380Y-101893809D01*
X88852380Y-94448380D02*
X88947619Y-94448380D01*
X89042857Y-94496000D01*
X89090476Y-94543619D01*
X89138095Y-94638857D01*
X89185714Y-94829333D01*
X89185714Y-95067428D01*
X89138095Y-95257904D01*
X89090476Y-95353142D01*
X89042857Y-95400761D01*
X88947619Y-95448380D01*
X88852380Y-95448380D01*
X88757142Y-95400761D01*
X88709523Y-95353142D01*
X88661904Y-95257904D01*
X88614285Y-95067428D01*
X88614285Y-94829333D01*
X88661904Y-94638857D01*
X88709523Y-94543619D01*
X88757142Y-94496000D01*
X88852380Y-94448380D01*
X94265714Y-95448380D02*
X93694285Y-95448380D01*
X93980000Y-95448380D02*
X93980000Y-94448380D01*
X93884761Y-94591238D01*
X93789523Y-94686476D01*
X93694285Y-94734095D01*
X89479714Y-100309371D02*
X89622571Y-100356990D01*
X89670190Y-100404609D01*
X89717809Y-100499847D01*
X89717809Y-100642704D01*
X89670190Y-100737942D01*
X89622571Y-100785561D01*
X89527333Y-100833180D01*
X89146380Y-100833180D01*
X89146380Y-99833180D01*
X89479714Y-99833180D01*
X89574952Y-99880800D01*
X89622571Y-99928419D01*
X89670190Y-100023657D01*
X89670190Y-100118895D01*
X89622571Y-100214133D01*
X89574952Y-100261752D01*
X89479714Y-100309371D01*
X89146380Y-100309371D01*
X90336857Y-99833180D02*
X90527333Y-99833180D01*
X90622571Y-99880800D01*
X90717809Y-99976038D01*
X90765428Y-100166514D01*
X90765428Y-100499847D01*
X90717809Y-100690323D01*
X90622571Y-100785561D01*
X90527333Y-100833180D01*
X90336857Y-100833180D01*
X90241619Y-100785561D01*
X90146380Y-100690323D01*
X90098761Y-100499847D01*
X90098761Y-100166514D01*
X90146380Y-99976038D01*
X90241619Y-99880800D01*
X90336857Y-99833180D01*
X91384476Y-99833180D02*
X91574952Y-99833180D01*
X91670190Y-99880800D01*
X91765428Y-99976038D01*
X91813047Y-100166514D01*
X91813047Y-100499847D01*
X91765428Y-100690323D01*
X91670190Y-100785561D01*
X91574952Y-100833180D01*
X91384476Y-100833180D01*
X91289238Y-100785561D01*
X91194000Y-100690323D01*
X91146380Y-100499847D01*
X91146380Y-100166514D01*
X91194000Y-99976038D01*
X91289238Y-99880800D01*
X91384476Y-99833180D01*
X92098761Y-99833180D02*
X92670190Y-99833180D01*
X92384476Y-100833180D02*
X92384476Y-99833180D01*
X93955904Y-99833180D02*
X94051142Y-99833180D01*
X94146380Y-99880800D01*
X94194000Y-99928419D01*
X94241619Y-100023657D01*
X94289238Y-100214133D01*
X94289238Y-100452228D01*
X94241619Y-100642704D01*
X94194000Y-100737942D01*
X94146380Y-100785561D01*
X94051142Y-100833180D01*
X93955904Y-100833180D01*
X93860666Y-100785561D01*
X93813047Y-100737942D01*
X93765428Y-100642704D01*
X93717809Y-100452228D01*
X93717809Y-100214133D01*
X93765428Y-100023657D01*
X93813047Y-99928419D01*
X93860666Y-99880800D01*
X93955904Y-99833180D01*
X87376000Y-84455000D02*
X87460666Y-84539666D01*
X87376000Y-84624333D01*
X87291333Y-84539666D01*
X87376000Y-84455000D01*
X87376000Y-84624333D01*
X107721447Y-87599828D02*
X108483352Y-87599828D01*
X71374047Y-109926428D02*
X72135952Y-109926428D01*
X71374047Y-112466428D02*
X72135952Y-112466428D01*
X97409047Y-112466428D02*
X98170952Y-112466428D01*
X97409047Y-115133428D02*
X98170952Y-115133428D01*
X97790000Y-115514380D02*
X97790000Y-114752476D01*
X100711047Y-102687428D02*
X101472952Y-102687428D01*
X100838047Y-109291428D02*
X101599952Y-109291428D01*
X101219000Y-109672380D02*
X101219000Y-108910476D01*
X100838047Y-110307428D02*
X101599952Y-110307428D01*
X100965047Y-117165428D02*
X101726952Y-117165428D01*
X101346000Y-117546380D02*
X101346000Y-116784476D01*
X107696047Y-90114428D02*
X108457952Y-90114428D01*
X108077000Y-90495380D02*
X108077000Y-89733476D01*
X63754095Y-84135980D02*
X64325523Y-84135980D01*
X64039809Y-85135980D02*
X64039809Y-84135980D01*
X64563619Y-84135980D02*
X65230285Y-85135980D01*
X65230285Y-84135980D02*
X64563619Y-85135980D01*
X64349333Y-87777580D02*
X64016000Y-87301390D01*
X63777904Y-87777580D02*
X63777904Y-86777580D01*
X64158857Y-86777580D01*
X64254095Y-86825200D01*
X64301714Y-86872819D01*
X64349333Y-86968057D01*
X64349333Y-87110914D01*
X64301714Y-87206152D01*
X64254095Y-87253771D01*
X64158857Y-87301390D01*
X63777904Y-87301390D01*
X64682666Y-86777580D02*
X65349333Y-87777580D01*
X65349333Y-86777580D02*
X64682666Y-87777580D01*
X64439847Y-89631828D02*
X65201752Y-89631828D01*
X61833333Y-92324228D02*
X62595238Y-92324228D01*
X62214285Y-92705180D02*
X62214285Y-91943276D01*
X64309523Y-91705180D02*
X63833333Y-91705180D01*
X63785714Y-92181371D01*
X63833333Y-92133752D01*
X63928571Y-92086133D01*
X64166666Y-92086133D01*
X64261904Y-92133752D01*
X64309523Y-92181371D01*
X64357142Y-92276609D01*
X64357142Y-92514704D01*
X64309523Y-92609942D01*
X64261904Y-92657561D01*
X64166666Y-92705180D01*
X63928571Y-92705180D01*
X63833333Y-92657561D01*
X63785714Y-92609942D01*
X64642857Y-91705180D02*
X64976190Y-92705180D01*
X65309523Y-91705180D01*
X69353180Y-89631638D02*
X70162704Y-89631638D01*
X70257942Y-89584019D01*
X70305561Y-89536400D01*
X70353180Y-89441161D01*
X70353180Y-89250685D01*
X70305561Y-89155447D01*
X70257942Y-89107828D01*
X70162704Y-89060209D01*
X69353180Y-89060209D01*
X70067466Y-88631638D02*
X70067466Y-88155447D01*
X70353180Y-88726876D02*
X69353180Y-88393542D01*
X70353180Y-88060209D01*
X70353180Y-87155447D02*
X69876990Y-87488780D01*
X70353180Y-87726876D02*
X69353180Y-87726876D01*
X69353180Y-87345923D01*
X69400800Y-87250685D01*
X69448419Y-87203066D01*
X69543657Y-87155447D01*
X69686514Y-87155447D01*
X69781752Y-87203066D01*
X69829371Y-87250685D01*
X69876990Y-87345923D01*
X69876990Y-87726876D01*
X69353180Y-86869733D02*
X69353180Y-86298304D01*
X70353180Y-86584019D02*
X69353180Y-86584019D01*
X72652142Y-117181380D02*
X73223571Y-117181380D01*
X72937857Y-118181380D02*
X72937857Y-117181380D01*
X73556904Y-118181380D02*
X73556904Y-117181380D01*
X73556904Y-117657571D02*
X74128333Y-117657571D01*
X74128333Y-118181380D02*
X74128333Y-117181380D01*
X74366428Y-118276619D02*
X75128333Y-118276619D01*
X75366428Y-117657571D02*
X75699761Y-117657571D01*
X75842619Y-118181380D02*
X75366428Y-118181380D01*
X75366428Y-117181380D01*
X75842619Y-117181380D01*
X77684523Y-117181380D02*
X78255952Y-117181380D01*
X77970238Y-118181380D02*
X77970238Y-117181380D01*
X78589285Y-118181380D02*
X78589285Y-117181380D01*
X78589285Y-117657571D02*
X79160714Y-117657571D01*
X79160714Y-118181380D02*
X79160714Y-117181380D01*
X80732142Y-117657571D02*
X80875000Y-117705190D01*
X80922619Y-117752809D01*
X80970238Y-117848047D01*
X80970238Y-117990904D01*
X80922619Y-118086142D01*
X80875000Y-118133761D01*
X80779761Y-118181380D01*
X80398809Y-118181380D01*
X80398809Y-117181380D01*
X80732142Y-117181380D01*
X80827380Y-117229000D01*
X80875000Y-117276619D01*
X80922619Y-117371857D01*
X80922619Y-117467095D01*
X80875000Y-117562333D01*
X80827380Y-117609952D01*
X80732142Y-117657571D01*
X80398809Y-117657571D01*
X83756619Y-117181380D02*
X84423285Y-118181380D01*
X84423285Y-117181380D02*
X83756619Y-118181380D01*
X84804238Y-117800428D02*
X85566142Y-117800428D01*
X89423952Y-117705190D02*
X89423952Y-118181380D01*
X89090619Y-117181380D02*
X89423952Y-117705190D01*
X89757285Y-117181380D01*
X90090619Y-117800428D02*
X90852523Y-117800428D01*
X94297619Y-117181380D02*
X94964285Y-117181380D01*
X94297619Y-118181380D01*
X94964285Y-118181380D01*
X95345238Y-117800428D02*
X96107142Y-117800428D01*
X108453180Y-82101819D02*
X107453180Y-82101819D01*
X108167466Y-81768485D01*
X107453180Y-81435152D01*
X108453180Y-81435152D01*
X108167466Y-81006580D02*
X108167466Y-80530390D01*
X108453180Y-81101819D02*
X107453180Y-80768485D01*
X108453180Y-80435152D01*
X107453180Y-80197057D02*
X108453180Y-79530390D01*
X107453180Y-79530390D02*
X108453180Y-80197057D01*
X107405561Y-78435152D02*
X108691276Y-79292295D01*
X108167466Y-78149438D02*
X108167466Y-77673247D01*
X108453180Y-78244676D02*
X107453180Y-77911342D01*
X108453180Y-77578009D01*
X107453180Y-77244676D02*
X108262704Y-77244676D01*
X108357942Y-77197057D01*
X108405561Y-77149438D01*
X108453180Y-77054200D01*
X108453180Y-76863723D01*
X108405561Y-76768485D01*
X108357942Y-76720866D01*
X108262704Y-76673247D01*
X107453180Y-76673247D01*
X107453180Y-76292295D02*
X108453180Y-75625628D01*
X107453180Y-75625628D02*
X108453180Y-76292295D01*
X107786514Y-74054200D02*
X108453180Y-74054200D01*
X107405561Y-74292295D02*
X108119847Y-74530390D01*
X108119847Y-73911342D01*
X109648714Y-95908761D02*
X109791571Y-95956380D01*
X110029666Y-95956380D01*
X110124904Y-95908761D01*
X110172523Y-95861142D01*
X110220142Y-95765904D01*
X110220142Y-95670666D01*
X110172523Y-95575428D01*
X110124904Y-95527809D01*
X110029666Y-95480190D01*
X109839190Y-95432571D01*
X109743952Y-95384952D01*
X109696333Y-95337333D01*
X109648714Y-95242095D01*
X109648714Y-95146857D01*
X109696333Y-95051619D01*
X109743952Y-95004000D01*
X109839190Y-94956380D01*
X110077285Y-94956380D01*
X110220142Y-95004000D01*
X110505857Y-94956380D02*
X110839190Y-95956380D01*
X111172523Y-94956380D01*
X35687047Y-108783428D02*
X36448952Y-108783428D01*
X36195047Y-100147428D02*
X36956952Y-100147428D01*
X36576000Y-100528380D02*
X36576000Y-99766476D01*
X34163047Y-89479428D02*
X34924952Y-89479428D01*
X36195047Y-83688228D02*
X36956952Y-83688228D01*
X36576000Y-84069180D02*
X36576000Y-83307276D01*
X25222247Y-71191428D02*
X25984152Y-71191428D01*
X25222247Y-76423828D02*
X25984152Y-76423828D01*
X25603200Y-76804780D02*
X25603200Y-76042876D01*
X37129980Y-82562533D02*
X36129980Y-82562533D01*
X36129980Y-82181580D01*
X36177600Y-82086342D01*
X36225219Y-82038723D01*
X36320457Y-81991104D01*
X36463314Y-81991104D01*
X36558552Y-82038723D01*
X36606171Y-82086342D01*
X36653790Y-82181580D01*
X36653790Y-82562533D01*
X36129980Y-81657771D02*
X37129980Y-81419676D01*
X36415695Y-81229200D01*
X37129980Y-81038723D01*
X36129980Y-80800628D01*
X37129980Y-79848247D02*
X36653790Y-80181580D01*
X37129980Y-80419676D02*
X36129980Y-80419676D01*
X36129980Y-80038723D01*
X36177600Y-79943485D01*
X36225219Y-79895866D01*
X36320457Y-79848247D01*
X36463314Y-79848247D01*
X36558552Y-79895866D01*
X36606171Y-79943485D01*
X36653790Y-80038723D01*
X36653790Y-80419676D01*
X43394380Y-30670333D02*
X44394380Y-30337000D01*
X43394380Y-30003666D01*
X44394380Y-29670333D02*
X43394380Y-29670333D01*
X43394380Y-29432238D01*
X43442000Y-29289380D01*
X43537238Y-29194142D01*
X43632476Y-29146523D01*
X43822952Y-29098904D01*
X43965809Y-29098904D01*
X44156285Y-29146523D01*
X44251523Y-29194142D01*
X44346761Y-29289380D01*
X44394380Y-29432238D01*
X44394380Y-29670333D01*
X44394380Y-28670333D02*
X43394380Y-28670333D01*
X43394380Y-28432238D01*
X43442000Y-28289380D01*
X43537238Y-28194142D01*
X43632476Y-28146523D01*
X43822952Y-28098904D01*
X43965809Y-28098904D01*
X44156285Y-28146523D01*
X44251523Y-28194142D01*
X44346761Y-28289380D01*
X44394380Y-28432238D01*
X44394380Y-28670333D01*
X37592047Y-32456428D02*
X38353952Y-32456428D01*
X37973000Y-32837380D02*
X37973000Y-32075476D01*
X40259047Y-32583428D02*
X41020952Y-32583428D01*
X43997571Y-35734523D02*
X43997571Y-36067857D01*
X44521380Y-36067857D02*
X43521380Y-36067857D01*
X43521380Y-35591666D01*
X44235666Y-35258333D02*
X44235666Y-34782142D01*
X44521380Y-35353571D02*
X43521380Y-35020238D01*
X44521380Y-34686904D01*
X44521380Y-34353571D02*
X43521380Y-34353571D01*
X44521380Y-33782142D01*
X43521380Y-33782142D01*
X40259047Y-26868428D02*
X41020952Y-26868428D01*
X37592047Y-26868428D02*
X38353952Y-26868428D01*
X37973000Y-27249380D02*
X37973000Y-26487476D01*
X53162247Y-66822628D02*
X53924152Y-66822628D01*
X53543200Y-67203580D02*
X53543200Y-66441676D01*
X50215847Y-66873428D02*
X50977752Y-66873428D01*
X47612323Y-68845180D02*
X47136133Y-68845180D01*
X47088514Y-69321371D01*
X47136133Y-69273752D01*
X47231371Y-69226133D01*
X47469466Y-69226133D01*
X47564704Y-69273752D01*
X47612323Y-69321371D01*
X47659942Y-69416609D01*
X47659942Y-69654704D01*
X47612323Y-69749942D01*
X47564704Y-69797561D01*
X47469466Y-69845180D01*
X47231371Y-69845180D01*
X47136133Y-69797561D01*
X47088514Y-69749942D01*
X47945657Y-68845180D02*
X48278990Y-69845180D01*
X48612323Y-68845180D01*
X66421047Y-69794428D02*
X67182952Y-69794428D01*
X66421047Y-67254428D02*
X67182952Y-67254428D01*
X66802000Y-67635380D02*
X66802000Y-66873476D01*
X71334380Y-70056190D02*
X71334380Y-69437142D01*
X71715333Y-69770476D01*
X71715333Y-69627619D01*
X71762952Y-69532380D01*
X71810571Y-69484761D01*
X71905809Y-69437142D01*
X72143904Y-69437142D01*
X72239142Y-69484761D01*
X72286761Y-69532380D01*
X72334380Y-69627619D01*
X72334380Y-69913333D01*
X72286761Y-70008571D01*
X72239142Y-70056190D01*
X72239142Y-69008571D02*
X72286761Y-68960952D01*
X72334380Y-69008571D01*
X72286761Y-69056190D01*
X72239142Y-69008571D01*
X72334380Y-69008571D01*
X71334380Y-68627619D02*
X71334380Y-68008571D01*
X71715333Y-68341904D01*
X71715333Y-68199047D01*
X71762952Y-68103809D01*
X71810571Y-68056190D01*
X71905809Y-68008571D01*
X72143904Y-68008571D01*
X72239142Y-68056190D01*
X72286761Y-68103809D01*
X72334380Y-68199047D01*
X72334380Y-68484761D01*
X72286761Y-68580000D01*
X72239142Y-68627619D01*
X71334380Y-67722857D02*
X72334380Y-67389523D01*
X71334380Y-67056190D01*
X115482666Y-69659238D02*
X115482666Y-69183047D01*
X115768380Y-69754476D02*
X114768380Y-69421142D01*
X115768380Y-69087809D01*
X114768380Y-68754476D02*
X115577904Y-68754476D01*
X115673142Y-68706857D01*
X115720761Y-68659238D01*
X115768380Y-68564000D01*
X115768380Y-68373523D01*
X115720761Y-68278285D01*
X115673142Y-68230666D01*
X115577904Y-68183047D01*
X114768380Y-68183047D01*
X114768380Y-67802095D02*
X115768380Y-67135428D01*
X114768380Y-67135428D02*
X115768380Y-67802095D01*
X114768380Y-65516380D02*
X114768380Y-65992571D01*
X115244571Y-66040190D01*
X115196952Y-65992571D01*
X115149333Y-65897333D01*
X115149333Y-65659238D01*
X115196952Y-65564000D01*
X115244571Y-65516380D01*
X115339809Y-65468761D01*
X115577904Y-65468761D01*
X115673142Y-65516380D01*
X115720761Y-65564000D01*
X115768380Y-65659238D01*
X115768380Y-65897333D01*
X115720761Y-65992571D01*
X115673142Y-66040190D01*
X106743761Y-101766666D02*
X107219952Y-101766666D01*
X106648523Y-102052380D02*
X106981857Y-101052380D01*
X107315190Y-102052380D01*
X107648523Y-101052380D02*
X107648523Y-101861904D01*
X107696142Y-101957142D01*
X107743761Y-102004761D01*
X107839000Y-102052380D01*
X108029476Y-102052380D01*
X108124714Y-102004761D01*
X108172333Y-101957142D01*
X108219952Y-101861904D01*
X108219952Y-101052380D01*
X108600904Y-101052380D02*
X109267571Y-102052380D01*
X109267571Y-101052380D02*
X108600904Y-102052380D01*
X110362809Y-101147619D02*
X110410428Y-101100000D01*
X110505666Y-101052380D01*
X110743761Y-101052380D01*
X110839000Y-101100000D01*
X110886619Y-101147619D01*
X110934238Y-101242857D01*
X110934238Y-101338095D01*
X110886619Y-101480952D01*
X110315190Y-102052380D01*
X110934238Y-102052380D01*
X106362761Y-118530666D02*
X106838952Y-118530666D01*
X106267523Y-118816380D02*
X106600857Y-117816380D01*
X106934190Y-118816380D01*
X107267523Y-117816380D02*
X107267523Y-118625904D01*
X107315142Y-118721142D01*
X107362761Y-118768761D01*
X107458000Y-118816380D01*
X107648476Y-118816380D01*
X107743714Y-118768761D01*
X107791333Y-118721142D01*
X107838952Y-118625904D01*
X107838952Y-117816380D01*
X108219904Y-117816380D02*
X108886571Y-118816380D01*
X108886571Y-117816380D02*
X108219904Y-118816380D01*
X110553238Y-118816380D02*
X109981809Y-118816380D01*
X110267523Y-118816380D02*
X110267523Y-117816380D01*
X110172285Y-117959238D01*
X110077047Y-118054476D01*
X109981809Y-118102095D01*
X73342761Y-96686666D02*
X73818952Y-96686666D01*
X73247523Y-96972380D02*
X73580857Y-95972380D01*
X73914190Y-96972380D01*
X74247523Y-95972380D02*
X74247523Y-96781904D01*
X74295142Y-96877142D01*
X74342761Y-96924761D01*
X74438000Y-96972380D01*
X74628476Y-96972380D01*
X74723714Y-96924761D01*
X74771333Y-96877142D01*
X74818952Y-96781904D01*
X74818952Y-95972380D01*
X75199904Y-95972380D02*
X75866571Y-96972380D01*
X75866571Y-95972380D02*
X75199904Y-96972380D01*
X76914190Y-95972380D02*
X77533238Y-95972380D01*
X77199904Y-96353333D01*
X77342761Y-96353333D01*
X77438000Y-96400952D01*
X77485619Y-96448571D01*
X77533238Y-96543809D01*
X77533238Y-96781904D01*
X77485619Y-96877142D01*
X77438000Y-96924761D01*
X77342761Y-96972380D01*
X77057047Y-96972380D01*
X76961809Y-96924761D01*
X76914190Y-96877142D01*
X102632047Y-32115142D02*
X103298714Y-32115142D01*
X103584428Y-33162761D02*
X102632047Y-33162761D01*
X102632047Y-31162761D01*
X103584428Y-31162761D01*
X104822523Y-31162761D02*
X105013000Y-31162761D01*
X105203476Y-31258000D01*
X105298714Y-31353238D01*
X105393952Y-31543714D01*
X105489190Y-31924666D01*
X105489190Y-32400857D01*
X105393952Y-32781809D01*
X105298714Y-32972285D01*
X105203476Y-33067523D01*
X105013000Y-33162761D01*
X104822523Y-33162761D01*
X104632047Y-33067523D01*
X104536809Y-32972285D01*
X104441571Y-32781809D01*
X104346333Y-32400857D01*
X104346333Y-31924666D01*
X104441571Y-31543714D01*
X104536809Y-31353238D01*
X104632047Y-31258000D01*
X104822523Y-31162761D01*
X90201952Y-31035761D02*
X91535285Y-31035761D01*
X90201952Y-33035761D01*
X91535285Y-33035761D01*
X92201952Y-31226238D02*
X92297190Y-31131000D01*
X92487666Y-31035761D01*
X92963857Y-31035761D01*
X93154333Y-31131000D01*
X93249571Y-31226238D01*
X93344809Y-31416714D01*
X93344809Y-31607190D01*
X93249571Y-31892904D01*
X92106714Y-33035761D01*
X93344809Y-33035761D01*
X77247952Y-31035761D02*
X78581285Y-31035761D01*
X77247952Y-33035761D01*
X78581285Y-33035761D01*
X80390809Y-33035761D02*
X79247952Y-33035761D01*
X79819380Y-33035761D02*
X79819380Y-31035761D01*
X79628904Y-31321476D01*
X79438428Y-31511952D01*
X79247952Y-31607190D01*
X66040000Y-32083380D02*
X66040000Y-33035761D01*
X65373333Y-31035761D02*
X66040000Y-32083380D01*
X66706666Y-31035761D01*
X52292333Y-31035761D02*
X53625666Y-33035761D01*
X53625666Y-31035761D02*
X52292333Y-33035761D01*
D12*
X125000000Y-25000000D02*
X125000000Y-120000000D01*
X25000000Y-120000000D02*
X125000000Y-120000000D01*
X25000000Y-25000000D02*
X25000000Y-120000000D01*
X25000000Y-25000000D02*
X125000000Y-25000000D01*
D13*
X36240800Y-100030000D02*
X36240800Y-100630000D01*
X35640800Y-100330000D02*
X36240800Y-100030000D01*
X36240800Y-100630000D02*
X35640800Y-100330000D01*
X28330800Y-110960000D02*
X28330800Y-109950000D01*
X33630800Y-110960000D02*
X28330800Y-110960000D01*
X33630800Y-97320000D02*
X33630800Y-110960000D01*
X28330800Y-97320000D02*
X33630800Y-97320000D01*
X28330800Y-98330000D02*
X28330800Y-97320000D01*
X28330800Y-102330000D02*
X28330800Y-105950000D01*
X33630800Y-108950000D02*
X33630800Y-106950000D01*
X35440800Y-108950000D02*
X33630800Y-108950000D01*
X35440800Y-106950000D02*
X35440800Y-108950000D01*
X33630800Y-106950000D02*
X35440800Y-106950000D01*
X33630800Y-101330000D02*
X33630800Y-99330000D01*
X35440800Y-101330000D02*
X33630800Y-101330000D01*
X35440800Y-99330000D02*
X35440800Y-101330000D01*
X33630800Y-99330000D02*
X35440800Y-99330000D01*
X34630800Y-101330000D02*
X34630800Y-106950000D01*
X34630800Y-111870000D02*
X34630800Y-109060000D01*
X34630800Y-96410000D02*
X34630800Y-99220000D01*
X35440800Y-111870000D02*
X35440800Y-96410000D01*
X26620800Y-111870000D02*
X35440800Y-111870000D01*
X26620800Y-96410000D02*
X26620800Y-111870000D01*
X35440800Y-96410000D02*
X26620800Y-96410000D01*
X28314979Y-109936841D02*
G75*
G02X28330800Y-105950000I1665821J1986841D01*
G01*
X28314979Y-102316841D02*
G75*
G02X28330800Y-98330000I1665821J1986841D01*
G01*
X25786000Y-91689200D02*
X25786000Y-91089200D01*
X26386000Y-91389200D02*
X25786000Y-91689200D01*
X25786000Y-91089200D02*
X26386000Y-91389200D01*
X33696000Y-80759200D02*
X33696000Y-81769200D01*
X28396000Y-80759200D02*
X33696000Y-80759200D01*
X28396000Y-94399200D02*
X28396000Y-80759200D01*
X33696000Y-94399200D02*
X28396000Y-94399200D01*
X33696000Y-93389200D02*
X33696000Y-94399200D01*
X33696000Y-89389200D02*
X33696000Y-85769200D01*
X28396000Y-82769200D02*
X28396000Y-84769200D01*
X26586000Y-82769200D02*
X28396000Y-82769200D01*
X26586000Y-84769200D02*
X26586000Y-82769200D01*
X28396000Y-84769200D02*
X26586000Y-84769200D01*
X28396000Y-90389200D02*
X28396000Y-92389200D01*
X26586000Y-90389200D02*
X28396000Y-90389200D01*
X26586000Y-92389200D02*
X26586000Y-90389200D01*
X28396000Y-92389200D02*
X26586000Y-92389200D01*
X27396000Y-90389200D02*
X27396000Y-84769200D01*
X27396000Y-79849200D02*
X27396000Y-82659200D01*
X27396000Y-95309200D02*
X27396000Y-92499200D01*
X26586000Y-79849200D02*
X26586000Y-95309200D01*
X35406000Y-79849200D02*
X26586000Y-79849200D01*
X35406000Y-95309200D02*
X35406000Y-79849200D01*
X26586000Y-95309200D02*
X35406000Y-95309200D01*
X33711821Y-81782359D02*
G75*
G02X33696000Y-85769200I-1665821J-1986841D01*
G01*
X33711821Y-89402359D02*
G75*
G02X33696000Y-93389200I-1665821J-1986841D01*
G01*
X118405600Y-98796800D02*
X119735600Y-98796800D01*
X118405600Y-100126800D02*
X118405600Y-98796800D01*
X118405600Y-101396800D02*
X121065600Y-101396800D01*
X121065600Y-101396800D02*
X121065600Y-106536800D01*
X118405600Y-101396800D02*
X118405600Y-106536800D01*
X118405600Y-106536800D02*
X121065600Y-106536800D01*
X88574400Y-84881200D02*
X89914400Y-84881200D01*
X88574400Y-85831200D02*
X88574400Y-84881200D01*
X87624400Y-85831200D02*
X88574400Y-85831200D01*
X78354400Y-85831200D02*
X78354400Y-84881200D01*
X79304400Y-85831200D02*
X78354400Y-85831200D01*
X88574400Y-75611200D02*
X88574400Y-76561200D01*
X87624400Y-75611200D02*
X88574400Y-75611200D01*
X78354400Y-75611200D02*
X78354400Y-76561200D01*
X79304400Y-75611200D02*
X78354400Y-75611200D01*
X93500800Y-82598800D02*
X93500800Y-88348800D01*
X97100800Y-82598800D02*
X93500800Y-82598800D01*
X97100800Y-88348800D02*
X97100800Y-82598800D01*
X80370000Y-103537936D02*
X80370000Y-104742064D01*
X82190000Y-103537936D02*
X82190000Y-104742064D01*
X74020000Y-103537936D02*
X74020000Y-104742064D01*
X75840000Y-103537936D02*
X75840000Y-104742064D01*
X60292064Y-102849000D02*
X59087936Y-102849000D01*
X60292064Y-104669000D02*
X59087936Y-104669000D01*
X60292064Y-107929000D02*
X59087936Y-107929000D01*
X60292064Y-109749000D02*
X59087936Y-109749000D01*
X58971264Y-74578800D02*
X57767136Y-74578800D01*
X58971264Y-76398800D02*
X57767136Y-76398800D01*
X58971264Y-78490400D02*
X57767136Y-78490400D01*
X58971264Y-80310400D02*
X57767136Y-80310400D01*
X45360000Y-43147064D02*
X45360000Y-41942936D01*
X43540000Y-43147064D02*
X43540000Y-41942936D01*
X36797064Y-40365000D02*
X35592936Y-40365000D01*
X36797064Y-42185000D02*
X35592936Y-42185000D01*
X49482800Y-73826000D02*
X50582800Y-73826000D01*
X49482800Y-72016000D02*
X49482800Y-73826000D01*
X47982800Y-72016000D02*
X49482800Y-72016000D01*
X49482800Y-80606000D02*
X54607800Y-80606000D01*
X49482800Y-82416000D02*
X49482800Y-80606000D01*
X47982800Y-82416000D02*
X49482800Y-82416000D01*
X42220000Y-41150000D02*
X42220000Y-42610000D01*
X39060000Y-41150000D02*
X39060000Y-43310000D01*
X39060000Y-41150000D02*
X39990000Y-41150000D01*
X42220000Y-41150000D02*
X41290000Y-41150000D01*
X51413200Y-102883600D02*
X52513200Y-102883600D01*
X51413200Y-101073600D02*
X51413200Y-102883600D01*
X49913200Y-101073600D02*
X51413200Y-101073600D01*
X51413200Y-109663600D02*
X56538200Y-109663600D01*
X51413200Y-111473600D02*
X51413200Y-109663600D01*
X49913200Y-111473600D02*
X51413200Y-111473600D01*
X99000000Y-30540000D02*
X99000000Y-29210000D01*
X100330000Y-30540000D02*
X99000000Y-30540000D01*
X101600000Y-30540000D02*
X101600000Y-27880000D01*
X101600000Y-27880000D02*
X109280000Y-27880000D01*
X101600000Y-30540000D02*
X109280000Y-30540000D01*
X109280000Y-30540000D02*
X109280000Y-27880000D01*
X74990000Y-51495000D02*
X73660000Y-51495000D01*
X74990000Y-50165000D02*
X74990000Y-51495000D01*
X72390000Y-51495000D02*
X69790000Y-51495000D01*
X72390000Y-48895000D02*
X72390000Y-51495000D01*
X74990000Y-48895000D02*
X72390000Y-48895000D01*
X69790000Y-51495000D02*
X69790000Y-43755000D01*
X74990000Y-48895000D02*
X74990000Y-43755000D01*
X74990000Y-43755000D02*
X69790000Y-43755000D01*
X59115000Y-51495000D02*
X57785000Y-51495000D01*
X59115000Y-50165000D02*
X59115000Y-51495000D01*
X56515000Y-51495000D02*
X53915000Y-51495000D01*
X56515000Y-48895000D02*
X56515000Y-51495000D01*
X59115000Y-48895000D02*
X56515000Y-48895000D01*
X53915000Y-51495000D02*
X53915000Y-43755000D01*
X59115000Y-48895000D02*
X59115000Y-43755000D01*
X59115000Y-43755000D02*
X53915000Y-43755000D01*
X106740000Y-51495000D02*
X105410000Y-51495000D01*
X106740000Y-50165000D02*
X106740000Y-51495000D01*
X104140000Y-51495000D02*
X101540000Y-51495000D01*
X104140000Y-48895000D02*
X104140000Y-51495000D01*
X106740000Y-48895000D02*
X104140000Y-48895000D01*
X101540000Y-51495000D02*
X101540000Y-43755000D01*
X106740000Y-48895000D02*
X106740000Y-43755000D01*
X106740000Y-43755000D02*
X101540000Y-43755000D01*
X90865000Y-51495000D02*
X89535000Y-51495000D01*
X90865000Y-50165000D02*
X90865000Y-51495000D01*
X88265000Y-51495000D02*
X85665000Y-51495000D01*
X88265000Y-48895000D02*
X88265000Y-51495000D01*
X90865000Y-48895000D02*
X88265000Y-48895000D01*
X85665000Y-51495000D02*
X85665000Y-43755000D01*
X90865000Y-48895000D02*
X90865000Y-43755000D01*
X90865000Y-43755000D02*
X85665000Y-43755000D01*
X67885000Y-65980000D02*
X69215000Y-65980000D01*
X67885000Y-67310000D02*
X67885000Y-65980000D01*
X67885000Y-68580000D02*
X70545000Y-68580000D01*
X70545000Y-68580000D02*
X70545000Y-71180000D01*
X67885000Y-68580000D02*
X67885000Y-71180000D01*
X67885000Y-71180000D02*
X70545000Y-71180000D01*
X54720800Y-67961200D02*
X54720800Y-69291200D01*
X53390800Y-67961200D02*
X54720800Y-67961200D01*
X52120800Y-67961200D02*
X52120800Y-70621200D01*
X52120800Y-70621200D02*
X49520800Y-70621200D01*
X52120800Y-67961200D02*
X49520800Y-67961200D01*
X49520800Y-67961200D02*
X49520800Y-70621200D01*
X73600000Y-30540000D02*
X73600000Y-29210000D01*
X74930000Y-30540000D02*
X73600000Y-30540000D01*
X76200000Y-30540000D02*
X76200000Y-27880000D01*
X76200000Y-27880000D02*
X83880000Y-27880000D01*
X76200000Y-30540000D02*
X83880000Y-30540000D01*
X83880000Y-30540000D02*
X83880000Y-27880000D01*
X36770000Y-30540000D02*
X36770000Y-29210000D01*
X38100000Y-30540000D02*
X36770000Y-30540000D01*
X39370000Y-30540000D02*
X39370000Y-27880000D01*
X39370000Y-27880000D02*
X41970000Y-27880000D01*
X39370000Y-30540000D02*
X41970000Y-30540000D01*
X41970000Y-30540000D02*
X41970000Y-27880000D01*
X60900000Y-30540000D02*
X60900000Y-29210000D01*
X62230000Y-30540000D02*
X60900000Y-30540000D01*
X63500000Y-30540000D02*
X63500000Y-27880000D01*
X63500000Y-27880000D02*
X71180000Y-27880000D01*
X63500000Y-30540000D02*
X71180000Y-30540000D01*
X71180000Y-30540000D02*
X71180000Y-27880000D01*
X48200000Y-30540000D02*
X48200000Y-29210000D01*
X49530000Y-30540000D02*
X48200000Y-30540000D01*
X50800000Y-30540000D02*
X50800000Y-27880000D01*
X50800000Y-27880000D02*
X58480000Y-27880000D01*
X50800000Y-30540000D02*
X58480000Y-30540000D01*
X58480000Y-30540000D02*
X58480000Y-27880000D01*
X68690800Y-93582800D02*
X67360800Y-93582800D01*
X68690800Y-92252800D02*
X68690800Y-93582800D01*
X68690800Y-90982800D02*
X66030800Y-90982800D01*
X66030800Y-90982800D02*
X66030800Y-83302800D01*
X68690800Y-90982800D02*
X68690800Y-83302800D01*
X68690800Y-83302800D02*
X66030800Y-83302800D01*
X102175000Y-108645000D02*
X102175000Y-107315000D01*
X103505000Y-108645000D02*
X102175000Y-108645000D01*
X102175000Y-106045000D02*
X102175000Y-103445000D01*
X104775000Y-106045000D02*
X102175000Y-106045000D01*
X104775000Y-108645000D02*
X104775000Y-106045000D01*
X102175000Y-103445000D02*
X114995000Y-103445000D01*
X104775000Y-108645000D02*
X114995000Y-108645000D01*
X114995000Y-108645000D02*
X114995000Y-103445000D01*
X102175000Y-116265000D02*
X102175000Y-114935000D01*
X103505000Y-116265000D02*
X102175000Y-116265000D01*
X102175000Y-113665000D02*
X102175000Y-111065000D01*
X104775000Y-113665000D02*
X102175000Y-113665000D01*
X104775000Y-116265000D02*
X104775000Y-113665000D01*
X102175000Y-111065000D02*
X114995000Y-111065000D01*
X104775000Y-116265000D02*
X114995000Y-116265000D01*
X114995000Y-116265000D02*
X114995000Y-111065000D01*
X116780000Y-57725000D02*
X118110000Y-57725000D01*
X116780000Y-59055000D02*
X116780000Y-57725000D01*
X116780000Y-60325000D02*
X119440000Y-60325000D01*
X119440000Y-60325000D02*
X119440000Y-75625000D01*
X116780000Y-60325000D02*
X116780000Y-75625000D01*
X116780000Y-75625000D02*
X119440000Y-75625000D01*
X83390000Y-108500000D02*
X84720000Y-108500000D01*
X83390000Y-109830000D02*
X83390000Y-108500000D01*
X83390000Y-111100000D02*
X86050000Y-111100000D01*
X86050000Y-111100000D02*
X86050000Y-116240000D01*
X83390000Y-111100000D02*
X83390000Y-116240000D01*
X83390000Y-116240000D02*
X86050000Y-116240000D01*
X109363200Y-74311200D02*
X110693200Y-74311200D01*
X109363200Y-75641200D02*
X109363200Y-74311200D01*
X109363200Y-76911200D02*
X112023200Y-76911200D01*
X112023200Y-76911200D02*
X112023200Y-82051200D01*
X109363200Y-76911200D02*
X109363200Y-82051200D01*
X109363200Y-82051200D02*
X112023200Y-82051200D01*
X88675000Y-108500000D02*
X90005000Y-108500000D01*
X88675000Y-109830000D02*
X88675000Y-108500000D01*
X88675000Y-111100000D02*
X91335000Y-111100000D01*
X91335000Y-111100000D02*
X91335000Y-116240000D01*
X88675000Y-111100000D02*
X88675000Y-116240000D01*
X88675000Y-116240000D02*
X91335000Y-116240000D01*
X71466400Y-94954400D02*
X71466400Y-93624400D01*
X72796400Y-94954400D02*
X71466400Y-94954400D01*
X74066400Y-94954400D02*
X74066400Y-92294400D01*
X74066400Y-92294400D02*
X79206400Y-92294400D01*
X74066400Y-94954400D02*
X79206400Y-94954400D01*
X79206400Y-94954400D02*
X79206400Y-92294400D01*
X93920000Y-108525000D02*
X95250000Y-108525000D01*
X93920000Y-109855000D02*
X93920000Y-108525000D01*
X93920000Y-111125000D02*
X96580000Y-111125000D01*
X96580000Y-111125000D02*
X96580000Y-116265000D01*
X93920000Y-111125000D02*
X93920000Y-116265000D01*
X93920000Y-116265000D02*
X96580000Y-116265000D01*
X87722400Y-99018400D02*
X87722400Y-97688400D01*
X89052400Y-99018400D02*
X87722400Y-99018400D01*
X90322400Y-99018400D02*
X90322400Y-96358400D01*
X90322400Y-96358400D02*
X95462400Y-96358400D01*
X90322400Y-99018400D02*
X95462400Y-99018400D01*
X95462400Y-99018400D02*
X95462400Y-96358400D01*
X86300000Y-30540000D02*
X86300000Y-29210000D01*
X87630000Y-30540000D02*
X86300000Y-30540000D01*
X88900000Y-30540000D02*
X88900000Y-27880000D01*
X88900000Y-27880000D02*
X96580000Y-27880000D01*
X88900000Y-30540000D02*
X96580000Y-30540000D01*
X96580000Y-30540000D02*
X96580000Y-27880000D01*
X36770000Y-36255000D02*
X36770000Y-34925000D01*
X38100000Y-36255000D02*
X36770000Y-36255000D01*
X39370000Y-36255000D02*
X39370000Y-33595000D01*
X39370000Y-33595000D02*
X41970000Y-33595000D01*
X39370000Y-36255000D02*
X41970000Y-36255000D01*
X41970000Y-36255000D02*
X41970000Y-33595000D01*
X109160000Y-86300000D02*
X110490000Y-86300000D01*
X109160000Y-87630000D02*
X109160000Y-86300000D01*
X109160000Y-88900000D02*
X111820000Y-88900000D01*
X111820000Y-88900000D02*
X111820000Y-94040000D01*
X109160000Y-88900000D02*
X109160000Y-94040000D01*
X109160000Y-94040000D02*
X111820000Y-94040000D01*
X78045000Y-108525000D02*
X79375000Y-108525000D01*
X78045000Y-109855000D02*
X78045000Y-108525000D01*
X78045000Y-111125000D02*
X80705000Y-111125000D01*
X80705000Y-111125000D02*
X80705000Y-116265000D01*
X78045000Y-111125000D02*
X78045000Y-116265000D01*
X78045000Y-116265000D02*
X80705000Y-116265000D01*
X26188800Y-79189200D02*
X26188800Y-77189200D01*
X27438800Y-79189200D02*
X26188800Y-79189200D01*
X33188800Y-69569200D02*
X33188800Y-70319200D01*
X28888800Y-69569200D02*
X33188800Y-69569200D01*
X28888800Y-70319200D02*
X28888800Y-69569200D01*
X28538800Y-70319200D02*
X28888800Y-70319200D01*
X28538800Y-69819200D02*
X28538800Y-70319200D01*
X27538800Y-69569200D02*
X28538800Y-69819200D01*
X27538800Y-72569200D02*
X27538800Y-69569200D01*
X28538800Y-72319200D02*
X27538800Y-72569200D01*
X28538800Y-71819200D02*
X28538800Y-72319200D01*
X28888800Y-71819200D02*
X28538800Y-71819200D01*
X28888800Y-72569200D02*
X28888800Y-71819200D01*
X33188800Y-72569200D02*
X28888800Y-72569200D01*
X33188800Y-71819200D02*
X33188800Y-72569200D01*
X33188800Y-74649200D02*
X33188800Y-75399200D01*
X28888800Y-74649200D02*
X33188800Y-74649200D01*
X28888800Y-75399200D02*
X28888800Y-74649200D01*
X28538800Y-75399200D02*
X28888800Y-75399200D01*
X28538800Y-74899200D02*
X28538800Y-75399200D01*
X27538800Y-74649200D02*
X28538800Y-74899200D01*
X27538800Y-77649200D02*
X27538800Y-74649200D01*
X28538800Y-77399200D02*
X27538800Y-77649200D01*
X28538800Y-76899200D02*
X28538800Y-77399200D01*
X28888800Y-76899200D02*
X28538800Y-76899200D01*
X28888800Y-77649200D02*
X28888800Y-76899200D01*
X33188800Y-77649200D02*
X28888800Y-77649200D01*
X33188800Y-76899200D02*
X33188800Y-77649200D01*
X26578800Y-68419200D02*
X26578800Y-78799200D01*
X34048800Y-68419200D02*
X26578800Y-68419200D01*
X34048800Y-78799200D02*
X34048800Y-68419200D01*
X26578800Y-78799200D02*
X34048800Y-78799200D01*
X33188645Y-70319553D02*
G75*
G03X33188800Y-71819200I1700155J-749647D01*
G01*
X33188645Y-75399553D02*
G75*
G03X33188800Y-76899200I1700155J-749647D01*
G01*
X72965000Y-108525000D02*
X74295000Y-108525000D01*
X72965000Y-109855000D02*
X72965000Y-108525000D01*
X72965000Y-111125000D02*
X75625000Y-111125000D01*
X75625000Y-111125000D02*
X75625000Y-116265000D01*
X72965000Y-111125000D02*
X72965000Y-116265000D01*
X72965000Y-116265000D02*
X75625000Y-116265000D01*
X51828400Y-92840400D02*
X56408400Y-92840400D01*
X42618400Y-92840400D02*
X50188400Y-92840400D01*
X36408400Y-98840400D02*
X36408400Y-92840400D01*
X56408400Y-98840400D02*
X36408400Y-98840400D01*
X56408400Y-92840400D02*
X56408400Y-98840400D01*
X36408400Y-92840400D02*
X40998400Y-92840400D01*
X51828400Y-85322000D02*
X56408400Y-85322000D01*
X42618400Y-85322000D02*
X50188400Y-85322000D01*
X36408400Y-91322000D02*
X36408400Y-85322000D01*
X56408400Y-91322000D02*
X36408400Y-91322000D01*
X56408400Y-85322000D02*
X56408400Y-91322000D01*
X36408400Y-85322000D02*
X40998400Y-85322000D01*
X39658800Y-102499600D02*
X39658800Y-106399600D01*
X37658800Y-102499600D02*
X37658800Y-106399600D01*
X39658800Y-102499600D02*
X37658800Y-102499600D01*
X35525200Y-77484800D02*
X35525200Y-73584800D01*
X37525200Y-77484800D02*
X37525200Y-73584800D01*
X35525200Y-77484800D02*
X37525200Y-77484800D01*
X37120000Y-37100000D02*
X41020000Y-37100000D01*
X37120000Y-39100000D02*
X41020000Y-39100000D01*
X37120000Y-37100000D02*
X37120000Y-39100000D01*
X100628750Y-42143750D02*
X101416250Y-42143750D01*
X101022500Y-42537500D02*
X101022500Y-41750000D01*
X105215563Y-41510000D02*
X106280000Y-40445563D01*
X100524437Y-41510000D02*
X99460000Y-40445563D01*
X100524437Y-41510000D02*
X101810000Y-41510000D01*
X105215563Y-41510000D02*
X103930000Y-41510000D01*
X106280000Y-40445563D02*
X106280000Y-34690000D01*
X99460000Y-40445563D02*
X99460000Y-34690000D01*
X99460000Y-34690000D02*
X101810000Y-34690000D01*
X106280000Y-34690000D02*
X103930000Y-34690000D01*
X84753750Y-42303750D02*
X85541250Y-42303750D01*
X85147500Y-42697500D02*
X85147500Y-41910000D01*
X89340563Y-41670000D02*
X90405000Y-40605563D01*
X84649437Y-41670000D02*
X83585000Y-40605563D01*
X84649437Y-41670000D02*
X85935000Y-41670000D01*
X89340563Y-41670000D02*
X88055000Y-41670000D01*
X90405000Y-40605563D02*
X90405000Y-34850000D01*
X83585000Y-40605563D02*
X83585000Y-34850000D01*
X83585000Y-34850000D02*
X85935000Y-34850000D01*
X90405000Y-34850000D02*
X88055000Y-34850000D01*
X68878750Y-42143750D02*
X69666250Y-42143750D01*
X69272500Y-42537500D02*
X69272500Y-41750000D01*
X73465563Y-41510000D02*
X74530000Y-40445563D01*
X68774437Y-41510000D02*
X67710000Y-40445563D01*
X68774437Y-41510000D02*
X70060000Y-41510000D01*
X73465563Y-41510000D02*
X72180000Y-41510000D01*
X74530000Y-40445563D02*
X74530000Y-34690000D01*
X67710000Y-40445563D02*
X67710000Y-34690000D01*
X67710000Y-34690000D02*
X70060000Y-34690000D01*
X74530000Y-34690000D02*
X72180000Y-34690000D01*
X53003750Y-42143750D02*
X53791250Y-42143750D01*
X53397500Y-42537500D02*
X53397500Y-41750000D01*
X57590563Y-41510000D02*
X58655000Y-40445563D01*
X52899437Y-41510000D02*
X51835000Y-40445563D01*
X52899437Y-41510000D02*
X54185000Y-41510000D01*
X57590563Y-41510000D02*
X56305000Y-41510000D01*
X58655000Y-40445563D02*
X58655000Y-34690000D01*
X51835000Y-40445563D02*
X51835000Y-34690000D01*
X51835000Y-34690000D02*
X54185000Y-34690000D01*
X58655000Y-34690000D02*
X56305000Y-34690000D01*
X59087936Y-87905000D02*
X60292064Y-87905000D01*
X59087936Y-86085000D02*
X60292064Y-86085000D01*
X99222779Y-84732400D02*
X98897221Y-84732400D01*
X99222779Y-85752400D02*
X98897221Y-85752400D01*
X79650000Y-104742064D02*
X79650000Y-103537936D01*
X77830000Y-104742064D02*
X77830000Y-103537936D01*
X73300000Y-104742064D02*
X73300000Y-103537936D01*
X71480000Y-104742064D02*
X71480000Y-103537936D01*
X99222779Y-86358000D02*
X98897221Y-86358000D01*
X99222779Y-87378000D02*
X98897221Y-87378000D01*
X93123936Y-80716800D02*
X94328064Y-80716800D01*
X93123936Y-78896800D02*
X94328064Y-78896800D01*
X92807022Y-74420800D02*
X93324178Y-74420800D01*
X92807022Y-73000800D02*
X93324178Y-73000800D01*
X92920736Y-77110000D02*
X94124864Y-77110000D01*
X92920736Y-75290000D02*
X94124864Y-75290000D01*
X79100000Y-69959136D02*
X79100000Y-71163264D01*
X80920000Y-69959136D02*
X80920000Y-71163264D01*
X86415200Y-70111536D02*
X86415200Y-71315664D01*
X88235200Y-70111536D02*
X88235200Y-71315664D01*
X73108736Y-87930400D02*
X74312864Y-87930400D01*
X73108736Y-86110400D02*
X74312864Y-86110400D01*
X73029536Y-85339600D02*
X74233664Y-85339600D01*
X73029536Y-83519600D02*
X74233664Y-83519600D01*
X88032000Y-91584864D02*
X88032000Y-90380736D01*
X86212000Y-91584864D02*
X86212000Y-90380736D01*
X110620000Y-33525000D02*
X97790000Y-33525000D01*
X110620000Y-54105000D02*
X110620000Y-33525000D01*
X95120000Y-54105000D02*
X110620000Y-54105000D01*
X95120000Y-36195000D02*
X95120000Y-54105000D01*
X97790000Y-36195000D02*
X95120000Y-36195000D01*
X97790000Y-33525000D02*
X97790000Y-36195000D01*
X95120000Y-33525000D02*
X95120000Y-34925000D01*
X96520000Y-33525000D02*
X95120000Y-33525000D01*
X97790000Y-36195000D02*
X97790000Y-54105000D01*
X107950000Y-33525000D02*
X107950000Y-54105000D01*
X94745000Y-33525000D02*
X81915000Y-33525000D01*
X94745000Y-54105000D02*
X94745000Y-33525000D01*
X79245000Y-54105000D02*
X94745000Y-54105000D01*
X79245000Y-36195000D02*
X79245000Y-54105000D01*
X81915000Y-36195000D02*
X79245000Y-36195000D01*
X81915000Y-33525000D02*
X81915000Y-36195000D01*
X79245000Y-33525000D02*
X79245000Y-34925000D01*
X80645000Y-33525000D02*
X79245000Y-33525000D01*
X81915000Y-36195000D02*
X81915000Y-54105000D01*
X92075000Y-33525000D02*
X92075000Y-54105000D01*
X78870000Y-33525000D02*
X66040000Y-33525000D01*
X78870000Y-54105000D02*
X78870000Y-33525000D01*
X63370000Y-54105000D02*
X78870000Y-54105000D01*
X63370000Y-36195000D02*
X63370000Y-54105000D01*
X66040000Y-36195000D02*
X63370000Y-36195000D01*
X66040000Y-33525000D02*
X66040000Y-36195000D01*
X63370000Y-33525000D02*
X63370000Y-34925000D01*
X64770000Y-33525000D02*
X63370000Y-33525000D01*
X66040000Y-36195000D02*
X66040000Y-54105000D01*
X76200000Y-33525000D02*
X76200000Y-54105000D01*
X62995000Y-33525000D02*
X50165000Y-33525000D01*
X62995000Y-54105000D02*
X62995000Y-33525000D01*
X47495000Y-54105000D02*
X62995000Y-54105000D01*
X47495000Y-36195000D02*
X47495000Y-54105000D01*
X50165000Y-36195000D02*
X47495000Y-36195000D01*
X50165000Y-33525000D02*
X50165000Y-36195000D01*
X47495000Y-33525000D02*
X47495000Y-34925000D01*
X48895000Y-33525000D02*
X47495000Y-33525000D01*
X50165000Y-36195000D02*
X50165000Y-54105000D01*
X60325000Y-33525000D02*
X60325000Y-54105000D01*
X97345600Y-78236800D02*
X101485600Y-78236800D01*
X101485600Y-81076800D02*
X101485600Y-81376800D01*
X101485600Y-81376800D02*
X97345600Y-81376800D01*
X97345600Y-78536800D02*
X97345600Y-78236800D01*
X97345600Y-81376800D02*
X97345600Y-81076800D01*
X101485600Y-78236800D02*
X101485600Y-78536800D01*
X41397600Y-60952464D02*
X41397600Y-59748336D01*
X39577600Y-60952464D02*
X39577600Y-59748336D01*
X36825600Y-65437936D02*
X36825600Y-66642064D01*
X35005600Y-65437936D02*
X35005600Y-66642064D01*
X55170000Y-64562222D02*
X55170000Y-65079378D01*
X56590000Y-64562222D02*
X56590000Y-65079378D01*
X64057600Y-66492622D02*
X64057600Y-67009778D01*
X62637600Y-66492622D02*
X62637600Y-67009778D01*
X37340000Y-54853621D02*
X37340000Y-55179179D01*
X36320000Y-54853621D02*
X36320000Y-55179179D01*
X46474464Y-67000800D02*
X45270336Y-67000800D01*
X46474464Y-65180800D02*
X45270336Y-65180800D01*
X42290000Y-63706800D02*
X38990000Y-63706800D01*
X38990000Y-63706800D02*
X38990000Y-69106800D01*
X42290000Y-63706800D02*
X42290000Y-69106800D01*
X47157052Y-62416000D02*
X44384548Y-62416000D01*
X47157052Y-58996000D02*
X44384548Y-58996000D01*
X35250800Y-54363536D02*
X35250800Y-55567664D01*
X33430800Y-54363536D02*
X33430800Y-55567664D01*
X32707664Y-58068800D02*
X31503536Y-58068800D01*
X32707664Y-59888800D02*
X31503536Y-59888800D01*
X35423200Y-59806000D02*
X35423200Y-61606000D01*
X38643200Y-61606000D02*
X38643200Y-59156000D01*
X58588000Y-63971600D02*
X58588000Y-65771600D01*
X61808000Y-65771600D02*
X61808000Y-63321600D01*
X31082064Y-63453600D02*
X29877936Y-63453600D01*
X31082064Y-65273600D02*
X29877936Y-65273600D01*
X104553936Y-82402000D02*
X105758064Y-82402000D01*
X104553936Y-84222000D02*
X105758064Y-84222000D01*
D10*
X35983180Y-104949523D02*
X36697466Y-104949523D01*
X36840323Y-104997142D01*
X36935561Y-105092380D01*
X36983180Y-105235238D01*
X36983180Y-105330476D01*
X36983180Y-103949523D02*
X36983180Y-104520952D01*
X36983180Y-104235238D02*
X35983180Y-104235238D01*
X36126038Y-104330476D01*
X36221276Y-104425714D01*
X36268895Y-104520952D01*
X35983180Y-103330476D02*
X35983180Y-103235238D01*
X36030800Y-103140000D01*
X36078419Y-103092380D01*
X36173657Y-103044761D01*
X36364133Y-102997142D01*
X36602228Y-102997142D01*
X36792704Y-103044761D01*
X36887942Y-103092380D01*
X36935561Y-103140000D01*
X36983180Y-103235238D01*
X36983180Y-103330476D01*
X36935561Y-103425714D01*
X36887942Y-103473333D01*
X36792704Y-103520952D01*
X36602228Y-103568571D01*
X36364133Y-103568571D01*
X36173657Y-103520952D01*
X36078419Y-103473333D01*
X36030800Y-103425714D01*
X35983180Y-103330476D01*
X24948380Y-87912533D02*
X25662666Y-87912533D01*
X25805523Y-87960152D01*
X25900761Y-88055390D01*
X25948380Y-88198247D01*
X25948380Y-88293485D01*
X24948380Y-87531580D02*
X24948380Y-86912533D01*
X25329333Y-87245866D01*
X25329333Y-87103009D01*
X25376952Y-87007771D01*
X25424571Y-86960152D01*
X25519809Y-86912533D01*
X25757904Y-86912533D01*
X25853142Y-86960152D01*
X25900761Y-87007771D01*
X25948380Y-87103009D01*
X25948380Y-87388723D01*
X25900761Y-87483961D01*
X25853142Y-87531580D01*
X119402266Y-97249180D02*
X119402266Y-97963466D01*
X119354647Y-98106323D01*
X119259409Y-98201561D01*
X119116552Y-98249180D01*
X119021314Y-98249180D01*
X120402266Y-98249180D02*
X119830838Y-98249180D01*
X120116552Y-98249180D02*
X120116552Y-97249180D01*
X120021314Y-97392038D01*
X119926076Y-97487276D01*
X119830838Y-97534895D01*
X82702495Y-87573580D02*
X82702495Y-88383104D01*
X82750114Y-88478342D01*
X82797733Y-88525961D01*
X82892971Y-88573580D01*
X83083447Y-88573580D01*
X83178685Y-88525961D01*
X83226304Y-88478342D01*
X83273923Y-88383104D01*
X83273923Y-87573580D01*
X83702495Y-87668819D02*
X83750114Y-87621200D01*
X83845352Y-87573580D01*
X84083447Y-87573580D01*
X84178685Y-87621200D01*
X84226304Y-87668819D01*
X84273923Y-87764057D01*
X84273923Y-87859295D01*
X84226304Y-88002152D01*
X83654876Y-88573580D01*
X84273923Y-88573580D01*
X96496190Y-90138190D02*
X96972380Y-90138190D01*
X95972380Y-90471523D02*
X96496190Y-90138190D01*
X95972380Y-89804857D01*
X96972380Y-88947714D02*
X96972380Y-89519142D01*
X96972380Y-89233428D02*
X95972380Y-89233428D01*
X96115238Y-89328666D01*
X96210476Y-89423904D01*
X96258095Y-89519142D01*
X83552380Y-104782857D02*
X83076190Y-105116190D01*
X83552380Y-105354285D02*
X82552380Y-105354285D01*
X82552380Y-104973333D01*
X82600000Y-104878095D01*
X82647619Y-104830476D01*
X82742857Y-104782857D01*
X82885714Y-104782857D01*
X82980952Y-104830476D01*
X83028571Y-104878095D01*
X83076190Y-104973333D01*
X83076190Y-105354285D01*
X82647619Y-104401904D02*
X82600000Y-104354285D01*
X82552380Y-104259047D01*
X82552380Y-104020952D01*
X82600000Y-103925714D01*
X82647619Y-103878095D01*
X82742857Y-103830476D01*
X82838095Y-103830476D01*
X82980952Y-103878095D01*
X83552380Y-104449523D01*
X83552380Y-103830476D01*
X82647619Y-103449523D02*
X82600000Y-103401904D01*
X82552380Y-103306666D01*
X82552380Y-103068571D01*
X82600000Y-102973333D01*
X82647619Y-102925714D01*
X82742857Y-102878095D01*
X82838095Y-102878095D01*
X82980952Y-102925714D01*
X83552380Y-103497142D01*
X83552380Y-102878095D01*
X75382380Y-100972857D02*
X74906190Y-101306190D01*
X75382380Y-101544285D02*
X74382380Y-101544285D01*
X74382380Y-101163333D01*
X74430000Y-101068095D01*
X74477619Y-101020476D01*
X74572857Y-100972857D01*
X74715714Y-100972857D01*
X74810952Y-101020476D01*
X74858571Y-101068095D01*
X74906190Y-101163333D01*
X74906190Y-101544285D01*
X74477619Y-100591904D02*
X74430000Y-100544285D01*
X74382380Y-100449047D01*
X74382380Y-100210952D01*
X74430000Y-100115714D01*
X74477619Y-100068095D01*
X74572857Y-100020476D01*
X74668095Y-100020476D01*
X74810952Y-100068095D01*
X75382380Y-100639523D01*
X75382380Y-100020476D01*
X75382380Y-99068095D02*
X75382380Y-99639523D01*
X75382380Y-99353809D02*
X74382380Y-99353809D01*
X74525238Y-99449047D01*
X74620476Y-99544285D01*
X74668095Y-99639523D01*
X59047142Y-106031380D02*
X58713809Y-105555190D01*
X58475714Y-106031380D02*
X58475714Y-105031380D01*
X58856666Y-105031380D01*
X58951904Y-105079000D01*
X58999523Y-105126619D01*
X59047142Y-105221857D01*
X59047142Y-105364714D01*
X58999523Y-105459952D01*
X58951904Y-105507571D01*
X58856666Y-105555190D01*
X58475714Y-105555190D01*
X59999523Y-106031380D02*
X59428095Y-106031380D01*
X59713809Y-106031380D02*
X59713809Y-105031380D01*
X59618571Y-105174238D01*
X59523333Y-105269476D01*
X59428095Y-105317095D01*
X60570952Y-105459952D02*
X60475714Y-105412333D01*
X60428095Y-105364714D01*
X60380476Y-105269476D01*
X60380476Y-105221857D01*
X60428095Y-105126619D01*
X60475714Y-105079000D01*
X60570952Y-105031380D01*
X60761428Y-105031380D01*
X60856666Y-105079000D01*
X60904285Y-105126619D01*
X60951904Y-105221857D01*
X60951904Y-105269476D01*
X60904285Y-105364714D01*
X60856666Y-105412333D01*
X60761428Y-105459952D01*
X60570952Y-105459952D01*
X60475714Y-105507571D01*
X60428095Y-105555190D01*
X60380476Y-105650428D01*
X60380476Y-105840904D01*
X60428095Y-105936142D01*
X60475714Y-105983761D01*
X60570952Y-106031380D01*
X60761428Y-106031380D01*
X60856666Y-105983761D01*
X60904285Y-105936142D01*
X60951904Y-105840904D01*
X60951904Y-105650428D01*
X60904285Y-105555190D01*
X60856666Y-105507571D01*
X60761428Y-105459952D01*
X59047142Y-111111380D02*
X58713809Y-110635190D01*
X58475714Y-111111380D02*
X58475714Y-110111380D01*
X58856666Y-110111380D01*
X58951904Y-110159000D01*
X58999523Y-110206619D01*
X59047142Y-110301857D01*
X59047142Y-110444714D01*
X58999523Y-110539952D01*
X58951904Y-110587571D01*
X58856666Y-110635190D01*
X58475714Y-110635190D01*
X59999523Y-111111380D02*
X59428095Y-111111380D01*
X59713809Y-111111380D02*
X59713809Y-110111380D01*
X59618571Y-110254238D01*
X59523333Y-110349476D01*
X59428095Y-110397095D01*
X60332857Y-110111380D02*
X60999523Y-110111380D01*
X60570952Y-111111380D01*
X57726342Y-77761180D02*
X57393009Y-77284990D01*
X57154914Y-77761180D02*
X57154914Y-76761180D01*
X57535866Y-76761180D01*
X57631104Y-76808800D01*
X57678723Y-76856419D01*
X57726342Y-76951657D01*
X57726342Y-77094514D01*
X57678723Y-77189752D01*
X57631104Y-77237371D01*
X57535866Y-77284990D01*
X57154914Y-77284990D01*
X58678723Y-77761180D02*
X58107295Y-77761180D01*
X58393009Y-77761180D02*
X58393009Y-76761180D01*
X58297771Y-76904038D01*
X58202533Y-76999276D01*
X58107295Y-77046895D01*
X59059676Y-76856419D02*
X59107295Y-76808800D01*
X59202533Y-76761180D01*
X59440628Y-76761180D01*
X59535866Y-76808800D01*
X59583485Y-76856419D01*
X59631104Y-76951657D01*
X59631104Y-77046895D01*
X59583485Y-77189752D01*
X59012057Y-77761180D01*
X59631104Y-77761180D01*
X57726342Y-81672780D02*
X57393009Y-81196590D01*
X57154914Y-81672780D02*
X57154914Y-80672780D01*
X57535866Y-80672780D01*
X57631104Y-80720400D01*
X57678723Y-80768019D01*
X57726342Y-80863257D01*
X57726342Y-81006114D01*
X57678723Y-81101352D01*
X57631104Y-81148971D01*
X57535866Y-81196590D01*
X57154914Y-81196590D01*
X58678723Y-81672780D02*
X58107295Y-81672780D01*
X58393009Y-81672780D02*
X58393009Y-80672780D01*
X58297771Y-80815638D01*
X58202533Y-80910876D01*
X58107295Y-80958495D01*
X59631104Y-81672780D02*
X59059676Y-81672780D01*
X59345390Y-81672780D02*
X59345390Y-80672780D01*
X59250152Y-80815638D01*
X59154914Y-80910876D01*
X59059676Y-80958495D01*
X44902380Y-38901666D02*
X44426190Y-39235000D01*
X44902380Y-39473095D02*
X43902380Y-39473095D01*
X43902380Y-39092142D01*
X43950000Y-38996904D01*
X43997619Y-38949285D01*
X44092857Y-38901666D01*
X44235714Y-38901666D01*
X44330952Y-38949285D01*
X44378571Y-38996904D01*
X44426190Y-39092142D01*
X44426190Y-39473095D01*
X43902380Y-38568333D02*
X43902380Y-37949285D01*
X44283333Y-38282619D01*
X44283333Y-38139761D01*
X44330952Y-38044523D01*
X44378571Y-37996904D01*
X44473809Y-37949285D01*
X44711904Y-37949285D01*
X44807142Y-37996904D01*
X44854761Y-38044523D01*
X44902380Y-38139761D01*
X44902380Y-38425476D01*
X44854761Y-38520714D01*
X44807142Y-38568333D01*
X36028333Y-43547380D02*
X35695000Y-43071190D01*
X35456904Y-43547380D02*
X35456904Y-42547380D01*
X35837857Y-42547380D01*
X35933095Y-42595000D01*
X35980714Y-42642619D01*
X36028333Y-42737857D01*
X36028333Y-42880714D01*
X35980714Y-42975952D01*
X35933095Y-43023571D01*
X35837857Y-43071190D01*
X35456904Y-43071190D01*
X36409285Y-42642619D02*
X36456904Y-42595000D01*
X36552142Y-42547380D01*
X36790238Y-42547380D01*
X36885476Y-42595000D01*
X36933095Y-42642619D01*
X36980714Y-42737857D01*
X36980714Y-42833095D01*
X36933095Y-42975952D01*
X36361666Y-43547380D01*
X36980714Y-43547380D01*
X36480761Y-79287619D02*
X36385523Y-79240000D01*
X36290285Y-79144761D01*
X36147428Y-79001904D01*
X36052190Y-78954285D01*
X35956952Y-78954285D01*
X36004571Y-79192380D02*
X35909333Y-79144761D01*
X35814095Y-79049523D01*
X35766476Y-78859047D01*
X35766476Y-78525714D01*
X35814095Y-78335238D01*
X35909333Y-78240000D01*
X36004571Y-78192380D01*
X36195047Y-78192380D01*
X36290285Y-78240000D01*
X36385523Y-78335238D01*
X36433142Y-78525714D01*
X36433142Y-78859047D01*
X36385523Y-79049523D01*
X36290285Y-79144761D01*
X36195047Y-79192380D01*
X36004571Y-79192380D01*
X36766476Y-78192380D02*
X37385523Y-78192380D01*
X37052190Y-78573333D01*
X37195047Y-78573333D01*
X37290285Y-78620952D01*
X37337904Y-78668571D01*
X37385523Y-78763809D01*
X37385523Y-79001904D01*
X37337904Y-79097142D01*
X37290285Y-79144761D01*
X37195047Y-79192380D01*
X36909333Y-79192380D01*
X36814095Y-79144761D01*
X36766476Y-79097142D01*
X40544761Y-44997619D02*
X40449523Y-44950000D01*
X40354285Y-44854761D01*
X40211428Y-44711904D01*
X40116190Y-44664285D01*
X40020952Y-44664285D01*
X40068571Y-44902380D02*
X39973333Y-44854761D01*
X39878095Y-44759523D01*
X39830476Y-44569047D01*
X39830476Y-44235714D01*
X39878095Y-44045238D01*
X39973333Y-43950000D01*
X40068571Y-43902380D01*
X40259047Y-43902380D01*
X40354285Y-43950000D01*
X40449523Y-44045238D01*
X40497142Y-44235714D01*
X40497142Y-44569047D01*
X40449523Y-44759523D01*
X40354285Y-44854761D01*
X40259047Y-44902380D01*
X40068571Y-44902380D01*
X40878095Y-43997619D02*
X40925714Y-43950000D01*
X41020952Y-43902380D01*
X41259047Y-43902380D01*
X41354285Y-43950000D01*
X41401904Y-43997619D01*
X41449523Y-44092857D01*
X41449523Y-44188095D01*
X41401904Y-44330952D01*
X40830476Y-44902380D01*
X41449523Y-44902380D01*
X48367961Y-113471219D02*
X48272723Y-113423600D01*
X48177485Y-113328361D01*
X48034628Y-113185504D01*
X47939390Y-113137885D01*
X47844152Y-113137885D01*
X47891771Y-113375980D02*
X47796533Y-113328361D01*
X47701295Y-113233123D01*
X47653676Y-113042647D01*
X47653676Y-112709314D01*
X47701295Y-112518838D01*
X47796533Y-112423600D01*
X47891771Y-112375980D01*
X48082247Y-112375980D01*
X48177485Y-112423600D01*
X48272723Y-112518838D01*
X48320342Y-112709314D01*
X48320342Y-113042647D01*
X48272723Y-113233123D01*
X48177485Y-113328361D01*
X48082247Y-113375980D01*
X47891771Y-113375980D01*
X49272723Y-113375980D02*
X48701295Y-113375980D01*
X48987009Y-113375980D02*
X48987009Y-112375980D01*
X48891771Y-112518838D01*
X48796533Y-112614076D01*
X48701295Y-112661695D01*
X97452380Y-30019523D02*
X98166666Y-30019523D01*
X98309523Y-30067142D01*
X98404761Y-30162380D01*
X98452380Y-30305238D01*
X98452380Y-30400476D01*
X97452380Y-29114761D02*
X97452380Y-29305238D01*
X97500000Y-29400476D01*
X97547619Y-29448095D01*
X97690476Y-29543333D01*
X97880952Y-29590952D01*
X98261904Y-29590952D01*
X98357142Y-29543333D01*
X98404761Y-29495714D01*
X98452380Y-29400476D01*
X98452380Y-29210000D01*
X98404761Y-29114761D01*
X98357142Y-29067142D01*
X98261904Y-29019523D01*
X98023809Y-29019523D01*
X97928571Y-29067142D01*
X97880952Y-29114761D01*
X97833333Y-29210000D01*
X97833333Y-29400476D01*
X97880952Y-29495714D01*
X97928571Y-29543333D01*
X98023809Y-29590952D01*
X97452380Y-28400476D02*
X97452380Y-28305238D01*
X97500000Y-28210000D01*
X97547619Y-28162380D01*
X97642857Y-28114761D01*
X97833333Y-28067142D01*
X98071428Y-28067142D01*
X98261904Y-28114761D01*
X98357142Y-28162380D01*
X98404761Y-28210000D01*
X98452380Y-28305238D01*
X98452380Y-28400476D01*
X98404761Y-28495714D01*
X98357142Y-28543333D01*
X98261904Y-28590952D01*
X98071428Y-28638571D01*
X97833333Y-28638571D01*
X97642857Y-28590952D01*
X97547619Y-28543333D01*
X97500000Y-28495714D01*
X97452380Y-28400476D01*
X71580476Y-51947380D02*
X71580476Y-52661666D01*
X71532857Y-52804523D01*
X71437619Y-52899761D01*
X71294761Y-52947380D01*
X71199523Y-52947380D01*
X72532857Y-51947380D02*
X72056666Y-51947380D01*
X72009047Y-52423571D01*
X72056666Y-52375952D01*
X72151904Y-52328333D01*
X72390000Y-52328333D01*
X72485238Y-52375952D01*
X72532857Y-52423571D01*
X72580476Y-52518809D01*
X72580476Y-52756904D01*
X72532857Y-52852142D01*
X72485238Y-52899761D01*
X72390000Y-52947380D01*
X72151904Y-52947380D01*
X72056666Y-52899761D01*
X72009047Y-52852142D01*
X72961428Y-52042619D02*
X73009047Y-51995000D01*
X73104285Y-51947380D01*
X73342380Y-51947380D01*
X73437619Y-51995000D01*
X73485238Y-52042619D01*
X73532857Y-52137857D01*
X73532857Y-52233095D01*
X73485238Y-52375952D01*
X72913809Y-52947380D01*
X73532857Y-52947380D01*
X55705476Y-51947380D02*
X55705476Y-52661666D01*
X55657857Y-52804523D01*
X55562619Y-52899761D01*
X55419761Y-52947380D01*
X55324523Y-52947380D01*
X56657857Y-51947380D02*
X56181666Y-51947380D01*
X56134047Y-52423571D01*
X56181666Y-52375952D01*
X56276904Y-52328333D01*
X56515000Y-52328333D01*
X56610238Y-52375952D01*
X56657857Y-52423571D01*
X56705476Y-52518809D01*
X56705476Y-52756904D01*
X56657857Y-52852142D01*
X56610238Y-52899761D01*
X56515000Y-52947380D01*
X56276904Y-52947380D01*
X56181666Y-52899761D01*
X56134047Y-52852142D01*
X57657857Y-52947380D02*
X57086428Y-52947380D01*
X57372142Y-52947380D02*
X57372142Y-51947380D01*
X57276904Y-52090238D01*
X57181666Y-52185476D01*
X57086428Y-52233095D01*
X103330476Y-51947380D02*
X103330476Y-52661666D01*
X103282857Y-52804523D01*
X103187619Y-52899761D01*
X103044761Y-52947380D01*
X102949523Y-52947380D01*
X104282857Y-51947380D02*
X103806666Y-51947380D01*
X103759047Y-52423571D01*
X103806666Y-52375952D01*
X103901904Y-52328333D01*
X104140000Y-52328333D01*
X104235238Y-52375952D01*
X104282857Y-52423571D01*
X104330476Y-52518809D01*
X104330476Y-52756904D01*
X104282857Y-52852142D01*
X104235238Y-52899761D01*
X104140000Y-52947380D01*
X103901904Y-52947380D01*
X103806666Y-52899761D01*
X103759047Y-52852142D01*
X104949523Y-51947380D02*
X105044761Y-51947380D01*
X105140000Y-51995000D01*
X105187619Y-52042619D01*
X105235238Y-52137857D01*
X105282857Y-52328333D01*
X105282857Y-52566428D01*
X105235238Y-52756904D01*
X105187619Y-52852142D01*
X105140000Y-52899761D01*
X105044761Y-52947380D01*
X104949523Y-52947380D01*
X104854285Y-52899761D01*
X104806666Y-52852142D01*
X104759047Y-52756904D01*
X104711428Y-52566428D01*
X104711428Y-52328333D01*
X104759047Y-52137857D01*
X104806666Y-52042619D01*
X104854285Y-51995000D01*
X104949523Y-51947380D01*
X87455476Y-51947380D02*
X87455476Y-52661666D01*
X87407857Y-52804523D01*
X87312619Y-52899761D01*
X87169761Y-52947380D01*
X87074523Y-52947380D01*
X88360238Y-52280714D02*
X88360238Y-52947380D01*
X88122142Y-51899761D02*
X87884047Y-52614047D01*
X88503095Y-52614047D01*
X88931666Y-52947380D02*
X89122142Y-52947380D01*
X89217380Y-52899761D01*
X89265000Y-52852142D01*
X89360238Y-52709285D01*
X89407857Y-52518809D01*
X89407857Y-52137857D01*
X89360238Y-52042619D01*
X89312619Y-51995000D01*
X89217380Y-51947380D01*
X89026904Y-51947380D01*
X88931666Y-51995000D01*
X88884047Y-52042619D01*
X88836428Y-52137857D01*
X88836428Y-52375952D01*
X88884047Y-52471190D01*
X88931666Y-52518809D01*
X89026904Y-52566428D01*
X89217380Y-52566428D01*
X89312619Y-52518809D01*
X89360238Y-52471190D01*
X89407857Y-52375952D01*
X68405476Y-64432380D02*
X68405476Y-65146666D01*
X68357857Y-65289523D01*
X68262619Y-65384761D01*
X68119761Y-65432380D01*
X68024523Y-65432380D01*
X69310238Y-64765714D02*
X69310238Y-65432380D01*
X69072142Y-64384761D02*
X68834047Y-65099047D01*
X69453095Y-65099047D01*
X70262619Y-64432380D02*
X70072142Y-64432380D01*
X69976904Y-64480000D01*
X69929285Y-64527619D01*
X69834047Y-64670476D01*
X69786428Y-64860952D01*
X69786428Y-65241904D01*
X69834047Y-65337142D01*
X69881666Y-65384761D01*
X69976904Y-65432380D01*
X70167380Y-65432380D01*
X70262619Y-65384761D01*
X70310238Y-65337142D01*
X70357857Y-65241904D01*
X70357857Y-65003809D01*
X70310238Y-64908571D01*
X70262619Y-64860952D01*
X70167380Y-64813333D01*
X69976904Y-64813333D01*
X69881666Y-64860952D01*
X69834047Y-64908571D01*
X69786428Y-65003809D01*
X55173180Y-70100723D02*
X55887466Y-70100723D01*
X56030323Y-70148342D01*
X56125561Y-70243580D01*
X56173180Y-70386438D01*
X56173180Y-70481676D01*
X55506514Y-69195961D02*
X56173180Y-69195961D01*
X55125561Y-69434057D02*
X55839847Y-69672152D01*
X55839847Y-69053104D01*
X55173180Y-68195961D02*
X55173180Y-68672152D01*
X55649371Y-68719771D01*
X55601752Y-68672152D01*
X55554133Y-68576914D01*
X55554133Y-68338819D01*
X55601752Y-68243580D01*
X55649371Y-68195961D01*
X55744609Y-68148342D01*
X55982704Y-68148342D01*
X56077942Y-68195961D01*
X56125561Y-68243580D01*
X56173180Y-68338819D01*
X56173180Y-68576914D01*
X56125561Y-68672152D01*
X56077942Y-68719771D01*
X72052380Y-30019523D02*
X72766666Y-30019523D01*
X72909523Y-30067142D01*
X73004761Y-30162380D01*
X73052380Y-30305238D01*
X73052380Y-30400476D01*
X72385714Y-29114761D02*
X73052380Y-29114761D01*
X72004761Y-29352857D02*
X72719047Y-29590952D01*
X72719047Y-28971904D01*
X72385714Y-28162380D02*
X73052380Y-28162380D01*
X72004761Y-28400476D02*
X72719047Y-28638571D01*
X72719047Y-28019523D01*
X35222380Y-30019523D02*
X35936666Y-30019523D01*
X36079523Y-30067142D01*
X36174761Y-30162380D01*
X36222380Y-30305238D01*
X36222380Y-30400476D01*
X35555714Y-29114761D02*
X36222380Y-29114761D01*
X35174761Y-29352857D02*
X35889047Y-29590952D01*
X35889047Y-28971904D01*
X35222380Y-28686190D02*
X35222380Y-28067142D01*
X35603333Y-28400476D01*
X35603333Y-28257619D01*
X35650952Y-28162380D01*
X35698571Y-28114761D01*
X35793809Y-28067142D01*
X36031904Y-28067142D01*
X36127142Y-28114761D01*
X36174761Y-28162380D01*
X36222380Y-28257619D01*
X36222380Y-28543333D01*
X36174761Y-28638571D01*
X36127142Y-28686190D01*
X59142380Y-30019523D02*
X59856666Y-30019523D01*
X59999523Y-30067142D01*
X60094761Y-30162380D01*
X60142380Y-30305238D01*
X60142380Y-30400476D01*
X59142380Y-29638571D02*
X59142380Y-29019523D01*
X59523333Y-29352857D01*
X59523333Y-29210000D01*
X59570952Y-29114761D01*
X59618571Y-29067142D01*
X59713809Y-29019523D01*
X59951904Y-29019523D01*
X60047142Y-29067142D01*
X60094761Y-29114761D01*
X60142380Y-29210000D01*
X60142380Y-29495714D01*
X60094761Y-29590952D01*
X60047142Y-29638571D01*
X60142380Y-28543333D02*
X60142380Y-28352857D01*
X60094761Y-28257619D01*
X60047142Y-28210000D01*
X59904285Y-28114761D01*
X59713809Y-28067142D01*
X59332857Y-28067142D01*
X59237619Y-28114761D01*
X59190000Y-28162380D01*
X59142380Y-28257619D01*
X59142380Y-28448095D01*
X59190000Y-28543333D01*
X59237619Y-28590952D01*
X59332857Y-28638571D01*
X59570952Y-28638571D01*
X59666190Y-28590952D01*
X59713809Y-28543333D01*
X59761428Y-28448095D01*
X59761428Y-28257619D01*
X59713809Y-28162380D01*
X59666190Y-28114761D01*
X59570952Y-28067142D01*
X46652380Y-30019523D02*
X47366666Y-30019523D01*
X47509523Y-30067142D01*
X47604761Y-30162380D01*
X47652380Y-30305238D01*
X47652380Y-30400476D01*
X46652380Y-29638571D02*
X46652380Y-29019523D01*
X47033333Y-29352857D01*
X47033333Y-29210000D01*
X47080952Y-29114761D01*
X47128571Y-29067142D01*
X47223809Y-29019523D01*
X47461904Y-29019523D01*
X47557142Y-29067142D01*
X47604761Y-29114761D01*
X47652380Y-29210000D01*
X47652380Y-29495714D01*
X47604761Y-29590952D01*
X47557142Y-29638571D01*
X46652380Y-28686190D02*
X46652380Y-28067142D01*
X47033333Y-28400476D01*
X47033333Y-28257619D01*
X47080952Y-28162380D01*
X47128571Y-28114761D01*
X47223809Y-28067142D01*
X47461904Y-28067142D01*
X47557142Y-28114761D01*
X47604761Y-28162380D01*
X47652380Y-28257619D01*
X47652380Y-28543333D01*
X47604761Y-28638571D01*
X47557142Y-28686190D01*
X66551276Y-94035180D02*
X66551276Y-94749466D01*
X66503657Y-94892323D01*
X66408419Y-94987561D01*
X66265561Y-95035180D01*
X66170323Y-95035180D01*
X66932228Y-94035180D02*
X67551276Y-94035180D01*
X67217942Y-94416133D01*
X67360800Y-94416133D01*
X67456038Y-94463752D01*
X67503657Y-94511371D01*
X67551276Y-94606609D01*
X67551276Y-94844704D01*
X67503657Y-94939942D01*
X67456038Y-94987561D01*
X67360800Y-95035180D01*
X67075085Y-95035180D01*
X66979847Y-94987561D01*
X66932228Y-94939942D01*
X68503657Y-95035180D02*
X67932228Y-95035180D01*
X68217942Y-95035180D02*
X68217942Y-94035180D01*
X68122704Y-94178038D01*
X68027466Y-94273276D01*
X67932228Y-94320895D01*
X100627380Y-106854523D02*
X101341666Y-106854523D01*
X101484523Y-106902142D01*
X101579761Y-106997380D01*
X101627380Y-107140238D01*
X101627380Y-107235476D01*
X100627380Y-106473571D02*
X100627380Y-105854523D01*
X101008333Y-106187857D01*
X101008333Y-106045000D01*
X101055952Y-105949761D01*
X101103571Y-105902142D01*
X101198809Y-105854523D01*
X101436904Y-105854523D01*
X101532142Y-105902142D01*
X101579761Y-105949761D01*
X101627380Y-106045000D01*
X101627380Y-106330714D01*
X101579761Y-106425952D01*
X101532142Y-106473571D01*
X100627380Y-105235476D02*
X100627380Y-105140238D01*
X100675000Y-105045000D01*
X100722619Y-104997380D01*
X100817857Y-104949761D01*
X101008333Y-104902142D01*
X101246428Y-104902142D01*
X101436904Y-104949761D01*
X101532142Y-104997380D01*
X101579761Y-105045000D01*
X101627380Y-105140238D01*
X101627380Y-105235476D01*
X101579761Y-105330714D01*
X101532142Y-105378333D01*
X101436904Y-105425952D01*
X101246428Y-105473571D01*
X101008333Y-105473571D01*
X100817857Y-105425952D01*
X100722619Y-105378333D01*
X100675000Y-105330714D01*
X100627380Y-105235476D01*
X100627380Y-114474523D02*
X101341666Y-114474523D01*
X101484523Y-114522142D01*
X101579761Y-114617380D01*
X101627380Y-114760238D01*
X101627380Y-114855476D01*
X100722619Y-114045952D02*
X100675000Y-113998333D01*
X100627380Y-113903095D01*
X100627380Y-113665000D01*
X100675000Y-113569761D01*
X100722619Y-113522142D01*
X100817857Y-113474523D01*
X100913095Y-113474523D01*
X101055952Y-113522142D01*
X101627380Y-114093571D01*
X101627380Y-113474523D01*
X101627380Y-112998333D02*
X101627380Y-112807857D01*
X101579761Y-112712619D01*
X101532142Y-112665000D01*
X101389285Y-112569761D01*
X101198809Y-112522142D01*
X100817857Y-112522142D01*
X100722619Y-112569761D01*
X100675000Y-112617380D01*
X100627380Y-112712619D01*
X100627380Y-112903095D01*
X100675000Y-112998333D01*
X100722619Y-113045952D01*
X100817857Y-113093571D01*
X101055952Y-113093571D01*
X101151190Y-113045952D01*
X101198809Y-112998333D01*
X101246428Y-112903095D01*
X101246428Y-112712619D01*
X101198809Y-112617380D01*
X101151190Y-112569761D01*
X101055952Y-112522142D01*
X117300476Y-56177380D02*
X117300476Y-56891666D01*
X117252857Y-57034523D01*
X117157619Y-57129761D01*
X117014761Y-57177380D01*
X116919523Y-57177380D01*
X117729047Y-56272619D02*
X117776666Y-56225000D01*
X117871904Y-56177380D01*
X118110000Y-56177380D01*
X118205238Y-56225000D01*
X118252857Y-56272619D01*
X118300476Y-56367857D01*
X118300476Y-56463095D01*
X118252857Y-56605952D01*
X117681428Y-57177380D01*
X118300476Y-57177380D01*
X118871904Y-56605952D02*
X118776666Y-56558333D01*
X118729047Y-56510714D01*
X118681428Y-56415476D01*
X118681428Y-56367857D01*
X118729047Y-56272619D01*
X118776666Y-56225000D01*
X118871904Y-56177380D01*
X119062380Y-56177380D01*
X119157619Y-56225000D01*
X119205238Y-56272619D01*
X119252857Y-56367857D01*
X119252857Y-56415476D01*
X119205238Y-56510714D01*
X119157619Y-56558333D01*
X119062380Y-56605952D01*
X118871904Y-56605952D01*
X118776666Y-56653571D01*
X118729047Y-56701190D01*
X118681428Y-56796428D01*
X118681428Y-56986904D01*
X118729047Y-57082142D01*
X118776666Y-57129761D01*
X118871904Y-57177380D01*
X119062380Y-57177380D01*
X119157619Y-57129761D01*
X119205238Y-57082142D01*
X119252857Y-56986904D01*
X119252857Y-56796428D01*
X119205238Y-56701190D01*
X119157619Y-56653571D01*
X119062380Y-56605952D01*
X83910476Y-106952380D02*
X83910476Y-107666666D01*
X83862857Y-107809523D01*
X83767619Y-107904761D01*
X83624761Y-107952380D01*
X83529523Y-107952380D01*
X84910476Y-107952380D02*
X84339047Y-107952380D01*
X84624761Y-107952380D02*
X84624761Y-106952380D01*
X84529523Y-107095238D01*
X84434285Y-107190476D01*
X84339047Y-107238095D01*
X85243809Y-106952380D02*
X85910476Y-106952380D01*
X85481904Y-107952380D01*
X109883676Y-72763580D02*
X109883676Y-73477866D01*
X109836057Y-73620723D01*
X109740819Y-73715961D01*
X109597961Y-73763580D01*
X109502723Y-73763580D01*
X110883676Y-73763580D02*
X110312247Y-73763580D01*
X110597961Y-73763580D02*
X110597961Y-72763580D01*
X110502723Y-72906438D01*
X110407485Y-73001676D01*
X110312247Y-73049295D01*
X111740819Y-72763580D02*
X111550342Y-72763580D01*
X111455104Y-72811200D01*
X111407485Y-72858819D01*
X111312247Y-73001676D01*
X111264628Y-73192152D01*
X111264628Y-73573104D01*
X111312247Y-73668342D01*
X111359866Y-73715961D01*
X111455104Y-73763580D01*
X111645580Y-73763580D01*
X111740819Y-73715961D01*
X111788438Y-73668342D01*
X111836057Y-73573104D01*
X111836057Y-73335009D01*
X111788438Y-73239771D01*
X111740819Y-73192152D01*
X111645580Y-73144533D01*
X111455104Y-73144533D01*
X111359866Y-73192152D01*
X111312247Y-73239771D01*
X111264628Y-73335009D01*
X89195476Y-106952380D02*
X89195476Y-107666666D01*
X89147857Y-107809523D01*
X89052619Y-107904761D01*
X88909761Y-107952380D01*
X88814523Y-107952380D01*
X90195476Y-107952380D02*
X89624047Y-107952380D01*
X89909761Y-107952380D02*
X89909761Y-106952380D01*
X89814523Y-107095238D01*
X89719285Y-107190476D01*
X89624047Y-107238095D01*
X91100238Y-106952380D02*
X90624047Y-106952380D01*
X90576428Y-107428571D01*
X90624047Y-107380952D01*
X90719285Y-107333333D01*
X90957380Y-107333333D01*
X91052619Y-107380952D01*
X91100238Y-107428571D01*
X91147857Y-107523809D01*
X91147857Y-107761904D01*
X91100238Y-107857142D01*
X91052619Y-107904761D01*
X90957380Y-107952380D01*
X90719285Y-107952380D01*
X90624047Y-107904761D01*
X90576428Y-107857142D01*
X69918780Y-94433923D02*
X70633066Y-94433923D01*
X70775923Y-94481542D01*
X70871161Y-94576780D01*
X70918780Y-94719638D01*
X70918780Y-94814876D01*
X70918780Y-93433923D02*
X70918780Y-94005352D01*
X70918780Y-93719638D02*
X69918780Y-93719638D01*
X70061638Y-93814876D01*
X70156876Y-93910114D01*
X70204495Y-94005352D01*
X70252114Y-92576780D02*
X70918780Y-92576780D01*
X69871161Y-92814876D02*
X70585447Y-93052971D01*
X70585447Y-92433923D01*
X94440476Y-106977380D02*
X94440476Y-107691666D01*
X94392857Y-107834523D01*
X94297619Y-107929761D01*
X94154761Y-107977380D01*
X94059523Y-107977380D01*
X95440476Y-107977380D02*
X94869047Y-107977380D01*
X95154761Y-107977380D02*
X95154761Y-106977380D01*
X95059523Y-107120238D01*
X94964285Y-107215476D01*
X94869047Y-107263095D01*
X95773809Y-106977380D02*
X96392857Y-106977380D01*
X96059523Y-107358333D01*
X96202380Y-107358333D01*
X96297619Y-107405952D01*
X96345238Y-107453571D01*
X96392857Y-107548809D01*
X96392857Y-107786904D01*
X96345238Y-107882142D01*
X96297619Y-107929761D01*
X96202380Y-107977380D01*
X95916666Y-107977380D01*
X95821428Y-107929761D01*
X95773809Y-107882142D01*
X86174780Y-98497923D02*
X86889066Y-98497923D01*
X87031923Y-98545542D01*
X87127161Y-98640780D01*
X87174780Y-98783638D01*
X87174780Y-98878876D01*
X87174780Y-97497923D02*
X87174780Y-98069352D01*
X87174780Y-97783638D02*
X86174780Y-97783638D01*
X86317638Y-97878876D01*
X86412876Y-97974114D01*
X86460495Y-98069352D01*
X86270019Y-97116971D02*
X86222400Y-97069352D01*
X86174780Y-96974114D01*
X86174780Y-96736019D01*
X86222400Y-96640780D01*
X86270019Y-96593161D01*
X86365257Y-96545542D01*
X86460495Y-96545542D01*
X86603352Y-96593161D01*
X87174780Y-97164590D01*
X87174780Y-96545542D01*
X84752380Y-29543333D02*
X85466666Y-29543333D01*
X85609523Y-29590952D01*
X85704761Y-29686190D01*
X85752380Y-29829047D01*
X85752380Y-29924285D01*
X85752380Y-29019523D02*
X85752380Y-28829047D01*
X85704761Y-28733809D01*
X85657142Y-28686190D01*
X85514285Y-28590952D01*
X85323809Y-28543333D01*
X84942857Y-28543333D01*
X84847619Y-28590952D01*
X84800000Y-28638571D01*
X84752380Y-28733809D01*
X84752380Y-28924285D01*
X84800000Y-29019523D01*
X84847619Y-29067142D01*
X84942857Y-29114761D01*
X85180952Y-29114761D01*
X85276190Y-29067142D01*
X85323809Y-29019523D01*
X85371428Y-28924285D01*
X85371428Y-28733809D01*
X85323809Y-28638571D01*
X85276190Y-28590952D01*
X85180952Y-28543333D01*
X35222380Y-35258333D02*
X35936666Y-35258333D01*
X36079523Y-35305952D01*
X36174761Y-35401190D01*
X36222380Y-35544047D01*
X36222380Y-35639285D01*
X35650952Y-34639285D02*
X35603333Y-34734523D01*
X35555714Y-34782142D01*
X35460476Y-34829761D01*
X35412857Y-34829761D01*
X35317619Y-34782142D01*
X35270000Y-34734523D01*
X35222380Y-34639285D01*
X35222380Y-34448809D01*
X35270000Y-34353571D01*
X35317619Y-34305952D01*
X35412857Y-34258333D01*
X35460476Y-34258333D01*
X35555714Y-34305952D01*
X35603333Y-34353571D01*
X35650952Y-34448809D01*
X35650952Y-34639285D01*
X35698571Y-34734523D01*
X35746190Y-34782142D01*
X35841428Y-34829761D01*
X36031904Y-34829761D01*
X36127142Y-34782142D01*
X36174761Y-34734523D01*
X36222380Y-34639285D01*
X36222380Y-34448809D01*
X36174761Y-34353571D01*
X36127142Y-34305952D01*
X36031904Y-34258333D01*
X35841428Y-34258333D01*
X35746190Y-34305952D01*
X35698571Y-34353571D01*
X35650952Y-34448809D01*
X110156666Y-84752380D02*
X110156666Y-85466666D01*
X110109047Y-85609523D01*
X110013809Y-85704761D01*
X109870952Y-85752380D01*
X109775714Y-85752380D01*
X110537619Y-84752380D02*
X111204285Y-84752380D01*
X110775714Y-85752380D01*
X79041666Y-106977380D02*
X79041666Y-107691666D01*
X78994047Y-107834523D01*
X78898809Y-107929761D01*
X78755952Y-107977380D01*
X78660714Y-107977380D01*
X79946428Y-106977380D02*
X79755952Y-106977380D01*
X79660714Y-107025000D01*
X79613095Y-107072619D01*
X79517857Y-107215476D01*
X79470238Y-107405952D01*
X79470238Y-107786904D01*
X79517857Y-107882142D01*
X79565476Y-107929761D01*
X79660714Y-107977380D01*
X79851190Y-107977380D01*
X79946428Y-107929761D01*
X79994047Y-107882142D01*
X80041666Y-107786904D01*
X80041666Y-107548809D01*
X79994047Y-107453571D01*
X79946428Y-107405952D01*
X79851190Y-107358333D01*
X79660714Y-107358333D01*
X79565476Y-107405952D01*
X79517857Y-107453571D01*
X79470238Y-107548809D01*
X34504380Y-69929333D02*
X35218666Y-69929333D01*
X35361523Y-69976952D01*
X35456761Y-70072190D01*
X35504380Y-70215047D01*
X35504380Y-70310285D01*
X34504380Y-68976952D02*
X34504380Y-69453142D01*
X34980571Y-69500761D01*
X34932952Y-69453142D01*
X34885333Y-69357904D01*
X34885333Y-69119809D01*
X34932952Y-69024571D01*
X34980571Y-68976952D01*
X35075809Y-68929333D01*
X35313904Y-68929333D01*
X35409142Y-68976952D01*
X35456761Y-69024571D01*
X35504380Y-69119809D01*
X35504380Y-69357904D01*
X35456761Y-69453142D01*
X35409142Y-69500761D01*
X73961666Y-106977380D02*
X73961666Y-107691666D01*
X73914047Y-107834523D01*
X73818809Y-107929761D01*
X73675952Y-107977380D01*
X73580714Y-107977380D01*
X74390238Y-107072619D02*
X74437857Y-107025000D01*
X74533095Y-106977380D01*
X74771190Y-106977380D01*
X74866428Y-107025000D01*
X74914047Y-107072619D01*
X74961666Y-107167857D01*
X74961666Y-107263095D01*
X74914047Y-107405952D01*
X74342619Y-107977380D01*
X74961666Y-107977380D01*
X57629466Y-96448571D02*
X57296133Y-96448571D01*
X57296133Y-96972380D02*
X57296133Y-95972380D01*
X57772323Y-95972380D01*
X58105657Y-96067619D02*
X58153276Y-96020000D01*
X58248514Y-95972380D01*
X58486609Y-95972380D01*
X58581847Y-96020000D01*
X58629466Y-96067619D01*
X58677085Y-96162857D01*
X58677085Y-96258095D01*
X58629466Y-96400952D01*
X58058038Y-96972380D01*
X58677085Y-96972380D01*
X57426266Y-85678971D02*
X57092933Y-85678971D01*
X57092933Y-86202780D02*
X57092933Y-85202780D01*
X57569123Y-85202780D01*
X58473885Y-86202780D02*
X57902457Y-86202780D01*
X58188171Y-86202780D02*
X58188171Y-85202780D01*
X58092933Y-85345638D01*
X57997695Y-85440876D01*
X57902457Y-85488495D01*
X39111180Y-102153885D02*
X38111180Y-102153885D01*
X38111180Y-101915790D01*
X38158800Y-101772933D01*
X38254038Y-101677695D01*
X38349276Y-101630076D01*
X38539752Y-101582457D01*
X38682609Y-101582457D01*
X38873085Y-101630076D01*
X38968323Y-101677695D01*
X39063561Y-101772933D01*
X39111180Y-101915790D01*
X39111180Y-102153885D01*
X39111180Y-100630076D02*
X39111180Y-101201504D01*
X39111180Y-100915790D02*
X38111180Y-100915790D01*
X38254038Y-101011028D01*
X38349276Y-101106266D01*
X38396895Y-101201504D01*
X39111180Y-99677695D02*
X39111180Y-100249123D01*
X39111180Y-99963409D02*
X38111180Y-99963409D01*
X38254038Y-100058647D01*
X38349276Y-100153885D01*
X38396895Y-100249123D01*
X36977580Y-72162895D02*
X35977580Y-72162895D01*
X35977580Y-71924800D01*
X36025200Y-71781942D01*
X36120438Y-71686704D01*
X36215676Y-71639085D01*
X36406152Y-71591466D01*
X36549009Y-71591466D01*
X36739485Y-71639085D01*
X36834723Y-71686704D01*
X36929961Y-71781942D01*
X36977580Y-71924800D01*
X36977580Y-72162895D01*
X36406152Y-71020038D02*
X36358533Y-71115276D01*
X36310914Y-71162895D01*
X36215676Y-71210514D01*
X36168057Y-71210514D01*
X36072819Y-71162895D01*
X36025200Y-71115276D01*
X35977580Y-71020038D01*
X35977580Y-70829561D01*
X36025200Y-70734323D01*
X36072819Y-70686704D01*
X36168057Y-70639085D01*
X36215676Y-70639085D01*
X36310914Y-70686704D01*
X36358533Y-70734323D01*
X36406152Y-70829561D01*
X36406152Y-71020038D01*
X36453771Y-71115276D01*
X36501390Y-71162895D01*
X36596628Y-71210514D01*
X36787104Y-71210514D01*
X36882342Y-71162895D01*
X36929961Y-71115276D01*
X36977580Y-71020038D01*
X36977580Y-70829561D01*
X36929961Y-70734323D01*
X36882342Y-70686704D01*
X36787104Y-70639085D01*
X36596628Y-70639085D01*
X36501390Y-70686704D01*
X36453771Y-70734323D01*
X36406152Y-70829561D01*
X34821904Y-38552380D02*
X34821904Y-37552380D01*
X35060000Y-37552380D01*
X35202857Y-37600000D01*
X35298095Y-37695238D01*
X35345714Y-37790476D01*
X35393333Y-37980952D01*
X35393333Y-38123809D01*
X35345714Y-38314285D01*
X35298095Y-38409523D01*
X35202857Y-38504761D01*
X35060000Y-38552380D01*
X34821904Y-38552380D01*
X35774285Y-37647619D02*
X35821904Y-37600000D01*
X35917142Y-37552380D01*
X36155238Y-37552380D01*
X36250476Y-37600000D01*
X36298095Y-37647619D01*
X36345714Y-37742857D01*
X36345714Y-37838095D01*
X36298095Y-37980952D01*
X35726666Y-38552380D01*
X36345714Y-38552380D01*
X98877142Y-38742857D02*
X98924761Y-38790476D01*
X98972380Y-38933333D01*
X98972380Y-39028571D01*
X98924761Y-39171428D01*
X98829523Y-39266666D01*
X98734285Y-39314285D01*
X98543809Y-39361904D01*
X98400952Y-39361904D01*
X98210476Y-39314285D01*
X98115238Y-39266666D01*
X98020000Y-39171428D01*
X97972380Y-39028571D01*
X97972380Y-38933333D01*
X98020000Y-38790476D01*
X98067619Y-38742857D01*
X98067619Y-38361904D02*
X98020000Y-38314285D01*
X97972380Y-38219047D01*
X97972380Y-37980952D01*
X98020000Y-37885714D01*
X98067619Y-37838095D01*
X98162857Y-37790476D01*
X98258095Y-37790476D01*
X98400952Y-37838095D01*
X98972380Y-38409523D01*
X98972380Y-37790476D01*
X97972380Y-36933333D02*
X97972380Y-37123809D01*
X98020000Y-37219047D01*
X98067619Y-37266666D01*
X98210476Y-37361904D01*
X98400952Y-37409523D01*
X98781904Y-37409523D01*
X98877142Y-37361904D01*
X98924761Y-37314285D01*
X98972380Y-37219047D01*
X98972380Y-37028571D01*
X98924761Y-36933333D01*
X98877142Y-36885714D01*
X98781904Y-36838095D01*
X98543809Y-36838095D01*
X98448571Y-36885714D01*
X98400952Y-36933333D01*
X98353333Y-37028571D01*
X98353333Y-37219047D01*
X98400952Y-37314285D01*
X98448571Y-37361904D01*
X98543809Y-37409523D01*
X83002142Y-38902857D02*
X83049761Y-38950476D01*
X83097380Y-39093333D01*
X83097380Y-39188571D01*
X83049761Y-39331428D01*
X82954523Y-39426666D01*
X82859285Y-39474285D01*
X82668809Y-39521904D01*
X82525952Y-39521904D01*
X82335476Y-39474285D01*
X82240238Y-39426666D01*
X82145000Y-39331428D01*
X82097380Y-39188571D01*
X82097380Y-39093333D01*
X82145000Y-38950476D01*
X82192619Y-38902857D01*
X82192619Y-38521904D02*
X82145000Y-38474285D01*
X82097380Y-38379047D01*
X82097380Y-38140952D01*
X82145000Y-38045714D01*
X82192619Y-37998095D01*
X82287857Y-37950476D01*
X82383095Y-37950476D01*
X82525952Y-37998095D01*
X83097380Y-38569523D01*
X83097380Y-37950476D01*
X82430714Y-37093333D02*
X83097380Y-37093333D01*
X82049761Y-37331428D02*
X82764047Y-37569523D01*
X82764047Y-36950476D01*
X67127142Y-38742857D02*
X67174761Y-38790476D01*
X67222380Y-38933333D01*
X67222380Y-39028571D01*
X67174761Y-39171428D01*
X67079523Y-39266666D01*
X66984285Y-39314285D01*
X66793809Y-39361904D01*
X66650952Y-39361904D01*
X66460476Y-39314285D01*
X66365238Y-39266666D01*
X66270000Y-39171428D01*
X66222380Y-39028571D01*
X66222380Y-38933333D01*
X66270000Y-38790476D01*
X66317619Y-38742857D01*
X66317619Y-38361904D02*
X66270000Y-38314285D01*
X66222380Y-38219047D01*
X66222380Y-37980952D01*
X66270000Y-37885714D01*
X66317619Y-37838095D01*
X66412857Y-37790476D01*
X66508095Y-37790476D01*
X66650952Y-37838095D01*
X67222380Y-38409523D01*
X67222380Y-37790476D01*
X66317619Y-37409523D02*
X66270000Y-37361904D01*
X66222380Y-37266666D01*
X66222380Y-37028571D01*
X66270000Y-36933333D01*
X66317619Y-36885714D01*
X66412857Y-36838095D01*
X66508095Y-36838095D01*
X66650952Y-36885714D01*
X67222380Y-37457142D01*
X67222380Y-36838095D01*
X51252142Y-38742857D02*
X51299761Y-38790476D01*
X51347380Y-38933333D01*
X51347380Y-39028571D01*
X51299761Y-39171428D01*
X51204523Y-39266666D01*
X51109285Y-39314285D01*
X50918809Y-39361904D01*
X50775952Y-39361904D01*
X50585476Y-39314285D01*
X50490238Y-39266666D01*
X50395000Y-39171428D01*
X50347380Y-39028571D01*
X50347380Y-38933333D01*
X50395000Y-38790476D01*
X50442619Y-38742857D01*
X50442619Y-38361904D02*
X50395000Y-38314285D01*
X50347380Y-38219047D01*
X50347380Y-37980952D01*
X50395000Y-37885714D01*
X50442619Y-37838095D01*
X50537857Y-37790476D01*
X50633095Y-37790476D01*
X50775952Y-37838095D01*
X51347380Y-38409523D01*
X51347380Y-37790476D01*
X50347380Y-37171428D02*
X50347380Y-37076190D01*
X50395000Y-36980952D01*
X50442619Y-36933333D01*
X50537857Y-36885714D01*
X50728333Y-36838095D01*
X50966428Y-36838095D01*
X51156904Y-36885714D01*
X51252142Y-36933333D01*
X51299761Y-36980952D01*
X51347380Y-37076190D01*
X51347380Y-37171428D01*
X51299761Y-37266666D01*
X51252142Y-37314285D01*
X51156904Y-37361904D01*
X50966428Y-37409523D01*
X50728333Y-37409523D01*
X50537857Y-37361904D01*
X50442619Y-37314285D01*
X50395000Y-37266666D01*
X50347380Y-37171428D01*
X59047142Y-89257142D02*
X58999523Y-89304761D01*
X58856666Y-89352380D01*
X58761428Y-89352380D01*
X58618571Y-89304761D01*
X58523333Y-89209523D01*
X58475714Y-89114285D01*
X58428095Y-88923809D01*
X58428095Y-88780952D01*
X58475714Y-88590476D01*
X58523333Y-88495238D01*
X58618571Y-88400000D01*
X58761428Y-88352380D01*
X58856666Y-88352380D01*
X58999523Y-88400000D01*
X59047142Y-88447619D01*
X59999523Y-89352380D02*
X59428095Y-89352380D01*
X59713809Y-89352380D02*
X59713809Y-88352380D01*
X59618571Y-88495238D01*
X59523333Y-88590476D01*
X59428095Y-88638095D01*
X60570952Y-88780952D02*
X60475714Y-88733333D01*
X60428095Y-88685714D01*
X60380476Y-88590476D01*
X60380476Y-88542857D01*
X60428095Y-88447619D01*
X60475714Y-88400000D01*
X60570952Y-88352380D01*
X60761428Y-88352380D01*
X60856666Y-88400000D01*
X60904285Y-88447619D01*
X60951904Y-88542857D01*
X60951904Y-88590476D01*
X60904285Y-88685714D01*
X60856666Y-88733333D01*
X60761428Y-88780952D01*
X60570952Y-88780952D01*
X60475714Y-88828571D01*
X60428095Y-88876190D01*
X60380476Y-88971428D01*
X60380476Y-89161904D01*
X60428095Y-89257142D01*
X60475714Y-89304761D01*
X60570952Y-89352380D01*
X60761428Y-89352380D01*
X60856666Y-89304761D01*
X60904285Y-89257142D01*
X60951904Y-89161904D01*
X60951904Y-88971428D01*
X60904285Y-88876190D01*
X60856666Y-88828571D01*
X60761428Y-88780952D01*
X101363542Y-85650342D02*
X101315923Y-85697961D01*
X101173066Y-85745580D01*
X101077828Y-85745580D01*
X100934971Y-85697961D01*
X100839733Y-85602723D01*
X100792114Y-85507485D01*
X100744495Y-85317009D01*
X100744495Y-85174152D01*
X100792114Y-84983676D01*
X100839733Y-84888438D01*
X100934971Y-84793200D01*
X101077828Y-84745580D01*
X101173066Y-84745580D01*
X101315923Y-84793200D01*
X101363542Y-84840819D01*
X102315923Y-85745580D02*
X101744495Y-85745580D01*
X102030209Y-85745580D02*
X102030209Y-84745580D01*
X101934971Y-84888438D01*
X101839733Y-84983676D01*
X101744495Y-85031295D01*
X102649257Y-84745580D02*
X103315923Y-84745580D01*
X102887352Y-85745580D01*
X79097142Y-100972857D02*
X79144761Y-101020476D01*
X79192380Y-101163333D01*
X79192380Y-101258571D01*
X79144761Y-101401428D01*
X79049523Y-101496666D01*
X78954285Y-101544285D01*
X78763809Y-101591904D01*
X78620952Y-101591904D01*
X78430476Y-101544285D01*
X78335238Y-101496666D01*
X78240000Y-101401428D01*
X78192380Y-101258571D01*
X78192380Y-101163333D01*
X78240000Y-101020476D01*
X78287619Y-100972857D01*
X79192380Y-100020476D02*
X79192380Y-100591904D01*
X79192380Y-100306190D02*
X78192380Y-100306190D01*
X78335238Y-100401428D01*
X78430476Y-100496666D01*
X78478095Y-100591904D01*
X78192380Y-99163333D02*
X78192380Y-99353809D01*
X78240000Y-99449047D01*
X78287619Y-99496666D01*
X78430476Y-99591904D01*
X78620952Y-99639523D01*
X79001904Y-99639523D01*
X79097142Y-99591904D01*
X79144761Y-99544285D01*
X79192380Y-99449047D01*
X79192380Y-99258571D01*
X79144761Y-99163333D01*
X79097142Y-99115714D01*
X79001904Y-99068095D01*
X78763809Y-99068095D01*
X78668571Y-99115714D01*
X78620952Y-99163333D01*
X78573333Y-99258571D01*
X78573333Y-99449047D01*
X78620952Y-99544285D01*
X78668571Y-99591904D01*
X78763809Y-99639523D01*
X70842142Y-104782857D02*
X70889761Y-104830476D01*
X70937380Y-104973333D01*
X70937380Y-105068571D01*
X70889761Y-105211428D01*
X70794523Y-105306666D01*
X70699285Y-105354285D01*
X70508809Y-105401904D01*
X70365952Y-105401904D01*
X70175476Y-105354285D01*
X70080238Y-105306666D01*
X69985000Y-105211428D01*
X69937380Y-105068571D01*
X69937380Y-104973333D01*
X69985000Y-104830476D01*
X70032619Y-104782857D01*
X70937380Y-103830476D02*
X70937380Y-104401904D01*
X70937380Y-104116190D02*
X69937380Y-104116190D01*
X70080238Y-104211428D01*
X70175476Y-104306666D01*
X70223095Y-104401904D01*
X69937380Y-102925714D02*
X69937380Y-103401904D01*
X70413571Y-103449523D01*
X70365952Y-103401904D01*
X70318333Y-103306666D01*
X70318333Y-103068571D01*
X70365952Y-102973333D01*
X70413571Y-102925714D01*
X70508809Y-102878095D01*
X70746904Y-102878095D01*
X70842142Y-102925714D01*
X70889761Y-102973333D01*
X70937380Y-103068571D01*
X70937380Y-103306666D01*
X70889761Y-103401904D01*
X70842142Y-103449523D01*
X101414342Y-87326742D02*
X101366723Y-87374361D01*
X101223866Y-87421980D01*
X101128628Y-87421980D01*
X100985771Y-87374361D01*
X100890533Y-87279123D01*
X100842914Y-87183885D01*
X100795295Y-86993409D01*
X100795295Y-86850552D01*
X100842914Y-86660076D01*
X100890533Y-86564838D01*
X100985771Y-86469600D01*
X101128628Y-86421980D01*
X101223866Y-86421980D01*
X101366723Y-86469600D01*
X101414342Y-86517219D01*
X102366723Y-87421980D02*
X101795295Y-87421980D01*
X102081009Y-87421980D02*
X102081009Y-86421980D01*
X101985771Y-86564838D01*
X101890533Y-86660076D01*
X101795295Y-86707695D01*
X103223866Y-86755314D02*
X103223866Y-87421980D01*
X102985771Y-86374361D02*
X102747676Y-87088647D01*
X103366723Y-87088647D01*
X92930742Y-78385942D02*
X92883123Y-78433561D01*
X92740266Y-78481180D01*
X92645028Y-78481180D01*
X92502171Y-78433561D01*
X92406933Y-78338323D01*
X92359314Y-78243085D01*
X92311695Y-78052609D01*
X92311695Y-77909752D01*
X92359314Y-77719276D01*
X92406933Y-77624038D01*
X92502171Y-77528800D01*
X92645028Y-77481180D01*
X92740266Y-77481180D01*
X92883123Y-77528800D01*
X92930742Y-77576419D01*
X93883123Y-78481180D02*
X93311695Y-78481180D01*
X93597409Y-78481180D02*
X93597409Y-77481180D01*
X93502171Y-77624038D01*
X93406933Y-77719276D01*
X93311695Y-77766895D01*
X94216457Y-77481180D02*
X94835504Y-77481180D01*
X94502171Y-77862133D01*
X94645028Y-77862133D01*
X94740266Y-77909752D01*
X94787885Y-77957371D01*
X94835504Y-78052609D01*
X94835504Y-78290704D01*
X94787885Y-78385942D01*
X94740266Y-78433561D01*
X94645028Y-78481180D01*
X94359314Y-78481180D01*
X94264076Y-78433561D01*
X94216457Y-78385942D01*
X92422742Y-72417942D02*
X92375123Y-72465561D01*
X92232266Y-72513180D01*
X92137028Y-72513180D01*
X91994171Y-72465561D01*
X91898933Y-72370323D01*
X91851314Y-72275085D01*
X91803695Y-72084609D01*
X91803695Y-71941752D01*
X91851314Y-71751276D01*
X91898933Y-71656038D01*
X91994171Y-71560800D01*
X92137028Y-71513180D01*
X92232266Y-71513180D01*
X92375123Y-71560800D01*
X92422742Y-71608419D01*
X93375123Y-72513180D02*
X92803695Y-72513180D01*
X93089409Y-72513180D02*
X93089409Y-71513180D01*
X92994171Y-71656038D01*
X92898933Y-71751276D01*
X92803695Y-71798895D01*
X93756076Y-71608419D02*
X93803695Y-71560800D01*
X93898933Y-71513180D01*
X94137028Y-71513180D01*
X94232266Y-71560800D01*
X94279885Y-71608419D01*
X94327504Y-71703657D01*
X94327504Y-71798895D01*
X94279885Y-71941752D01*
X93708457Y-72513180D01*
X94327504Y-72513180D01*
X96740742Y-76658742D02*
X96693123Y-76706361D01*
X96550266Y-76753980D01*
X96455028Y-76753980D01*
X96312171Y-76706361D01*
X96216933Y-76611123D01*
X96169314Y-76515885D01*
X96121695Y-76325409D01*
X96121695Y-76182552D01*
X96169314Y-75992076D01*
X96216933Y-75896838D01*
X96312171Y-75801600D01*
X96455028Y-75753980D01*
X96550266Y-75753980D01*
X96693123Y-75801600D01*
X96740742Y-75849219D01*
X97693123Y-76753980D02*
X97121695Y-76753980D01*
X97407409Y-76753980D02*
X97407409Y-75753980D01*
X97312171Y-75896838D01*
X97216933Y-75992076D01*
X97121695Y-76039695D01*
X98645504Y-76753980D02*
X98074076Y-76753980D01*
X98359790Y-76753980D02*
X98359790Y-75753980D01*
X98264552Y-75896838D01*
X98169314Y-75992076D01*
X98074076Y-76039695D01*
X82187142Y-71204057D02*
X82234761Y-71251676D01*
X82282380Y-71394533D01*
X82282380Y-71489771D01*
X82234761Y-71632628D01*
X82139523Y-71727866D01*
X82044285Y-71775485D01*
X81853809Y-71823104D01*
X81710952Y-71823104D01*
X81520476Y-71775485D01*
X81425238Y-71727866D01*
X81330000Y-71632628D01*
X81282380Y-71489771D01*
X81282380Y-71394533D01*
X81330000Y-71251676D01*
X81377619Y-71204057D01*
X82282380Y-70251676D02*
X82282380Y-70823104D01*
X82282380Y-70537390D02*
X81282380Y-70537390D01*
X81425238Y-70632628D01*
X81520476Y-70727866D01*
X81568095Y-70823104D01*
X81282380Y-69632628D02*
X81282380Y-69537390D01*
X81330000Y-69442152D01*
X81377619Y-69394533D01*
X81472857Y-69346914D01*
X81663333Y-69299295D01*
X81901428Y-69299295D01*
X82091904Y-69346914D01*
X82187142Y-69394533D01*
X82234761Y-69442152D01*
X82282380Y-69537390D01*
X82282380Y-69632628D01*
X82234761Y-69727866D01*
X82187142Y-69775485D01*
X82091904Y-69823104D01*
X81901428Y-69870723D01*
X81663333Y-69870723D01*
X81472857Y-69823104D01*
X81377619Y-69775485D01*
X81330000Y-69727866D01*
X81282380Y-69632628D01*
X89502342Y-70880266D02*
X89549961Y-70927885D01*
X89597580Y-71070742D01*
X89597580Y-71165980D01*
X89549961Y-71308838D01*
X89454723Y-71404076D01*
X89359485Y-71451695D01*
X89169009Y-71499314D01*
X89026152Y-71499314D01*
X88835676Y-71451695D01*
X88740438Y-71404076D01*
X88645200Y-71308838D01*
X88597580Y-71165980D01*
X88597580Y-71070742D01*
X88645200Y-70927885D01*
X88692819Y-70880266D01*
X89597580Y-70404076D02*
X89597580Y-70213600D01*
X89549961Y-70118361D01*
X89502342Y-70070742D01*
X89359485Y-69975504D01*
X89169009Y-69927885D01*
X88788057Y-69927885D01*
X88692819Y-69975504D01*
X88645200Y-70023123D01*
X88597580Y-70118361D01*
X88597580Y-70308838D01*
X88645200Y-70404076D01*
X88692819Y-70451695D01*
X88788057Y-70499314D01*
X89026152Y-70499314D01*
X89121390Y-70451695D01*
X89169009Y-70404076D01*
X89216628Y-70308838D01*
X89216628Y-70118361D01*
X89169009Y-70023123D01*
X89121390Y-69975504D01*
X89026152Y-69927885D01*
X73544133Y-89358742D02*
X73496514Y-89406361D01*
X73353657Y-89453980D01*
X73258419Y-89453980D01*
X73115561Y-89406361D01*
X73020323Y-89311123D01*
X72972704Y-89215885D01*
X72925085Y-89025409D01*
X72925085Y-88882552D01*
X72972704Y-88692076D01*
X73020323Y-88596838D01*
X73115561Y-88501600D01*
X73258419Y-88453980D01*
X73353657Y-88453980D01*
X73496514Y-88501600D01*
X73544133Y-88549219D01*
X74115561Y-88882552D02*
X74020323Y-88834933D01*
X73972704Y-88787314D01*
X73925085Y-88692076D01*
X73925085Y-88644457D01*
X73972704Y-88549219D01*
X74020323Y-88501600D01*
X74115561Y-88453980D01*
X74306038Y-88453980D01*
X74401276Y-88501600D01*
X74448895Y-88549219D01*
X74496514Y-88644457D01*
X74496514Y-88692076D01*
X74448895Y-88787314D01*
X74401276Y-88834933D01*
X74306038Y-88882552D01*
X74115561Y-88882552D01*
X74020323Y-88930171D01*
X73972704Y-88977790D01*
X73925085Y-89073028D01*
X73925085Y-89263504D01*
X73972704Y-89358742D01*
X74020323Y-89406361D01*
X74115561Y-89453980D01*
X74306038Y-89453980D01*
X74401276Y-89406361D01*
X74448895Y-89358742D01*
X74496514Y-89263504D01*
X74496514Y-89073028D01*
X74448895Y-88977790D01*
X74401276Y-88930171D01*
X74306038Y-88882552D01*
X73464933Y-82966742D02*
X73417314Y-83014361D01*
X73274457Y-83061980D01*
X73179219Y-83061980D01*
X73036361Y-83014361D01*
X72941123Y-82919123D01*
X72893504Y-82823885D01*
X72845885Y-82633409D01*
X72845885Y-82490552D01*
X72893504Y-82300076D01*
X72941123Y-82204838D01*
X73036361Y-82109600D01*
X73179219Y-82061980D01*
X73274457Y-82061980D01*
X73417314Y-82109600D01*
X73464933Y-82157219D01*
X73798266Y-82061980D02*
X74464933Y-82061980D01*
X74036361Y-83061980D01*
X87479142Y-94324466D02*
X87526761Y-94372085D01*
X87574380Y-94514942D01*
X87574380Y-94610180D01*
X87526761Y-94753038D01*
X87431523Y-94848276D01*
X87336285Y-94895895D01*
X87145809Y-94943514D01*
X87002952Y-94943514D01*
X86812476Y-94895895D01*
X86717238Y-94848276D01*
X86622000Y-94753038D01*
X86574380Y-94610180D01*
X86574380Y-94514942D01*
X86622000Y-94372085D01*
X86669619Y-94324466D01*
X86574380Y-93467323D02*
X86574380Y-93657800D01*
X86622000Y-93753038D01*
X86669619Y-93800657D01*
X86812476Y-93895895D01*
X87002952Y-93943514D01*
X87383904Y-93943514D01*
X87479142Y-93895895D01*
X87526761Y-93848276D01*
X87574380Y-93753038D01*
X87574380Y-93562561D01*
X87526761Y-93467323D01*
X87479142Y-93419704D01*
X87383904Y-93372085D01*
X87145809Y-93372085D01*
X87050571Y-93419704D01*
X87002952Y-93467323D01*
X86955333Y-93562561D01*
X86955333Y-93753038D01*
X87002952Y-93848276D01*
X87050571Y-93895895D01*
X87145809Y-93943514D01*
X98091714Y-32932666D02*
X98567904Y-32932666D01*
X97996476Y-33218380D02*
X98329809Y-32218380D01*
X98663142Y-33218380D01*
X99425047Y-32551714D02*
X99425047Y-33218380D01*
X99186952Y-32170761D02*
X98948857Y-32885047D01*
X99567904Y-32885047D01*
X86280714Y-32551666D02*
X86756904Y-32551666D01*
X86185476Y-32837380D02*
X86518809Y-31837380D01*
X86852142Y-32837380D01*
X87090238Y-31837380D02*
X87709285Y-31837380D01*
X87375952Y-32218333D01*
X87518809Y-32218333D01*
X87614047Y-32265952D01*
X87661666Y-32313571D01*
X87709285Y-32408809D01*
X87709285Y-32646904D01*
X87661666Y-32742142D01*
X87614047Y-32789761D01*
X87518809Y-32837380D01*
X87233095Y-32837380D01*
X87137857Y-32789761D01*
X87090238Y-32742142D01*
X70405714Y-32551666D02*
X70881904Y-32551666D01*
X70310476Y-32837380D02*
X70643809Y-31837380D01*
X70977142Y-32837380D01*
X71262857Y-31932619D02*
X71310476Y-31885000D01*
X71405714Y-31837380D01*
X71643809Y-31837380D01*
X71739047Y-31885000D01*
X71786666Y-31932619D01*
X71834285Y-32027857D01*
X71834285Y-32123095D01*
X71786666Y-32265952D01*
X71215238Y-32837380D01*
X71834285Y-32837380D01*
X58721714Y-33059666D02*
X59197904Y-33059666D01*
X58626476Y-33345380D02*
X58959809Y-32345380D01*
X59293142Y-33345380D01*
X60150285Y-33345380D02*
X59578857Y-33345380D01*
X59864571Y-33345380D02*
X59864571Y-32345380D01*
X59769333Y-32488238D01*
X59674095Y-32583476D01*
X59578857Y-32631095D01*
X32258095Y-27122380D02*
X32258095Y-26122380D01*
X32258095Y-26598571D02*
X32829523Y-26598571D01*
X32829523Y-27122380D02*
X32829523Y-26122380D01*
X33829523Y-27122380D02*
X33258095Y-27122380D01*
X33543809Y-27122380D02*
X33543809Y-26122380D01*
X33448571Y-26265238D01*
X33353333Y-26360476D01*
X33258095Y-26408095D01*
X114300095Y-29789380D02*
X114300095Y-28789380D01*
X114300095Y-29265571D02*
X114871523Y-29265571D01*
X114871523Y-29789380D02*
X114871523Y-28789380D01*
X115300095Y-28884619D02*
X115347714Y-28837000D01*
X115442952Y-28789380D01*
X115681047Y-28789380D01*
X115776285Y-28837000D01*
X115823904Y-28884619D01*
X115871523Y-28979857D01*
X115871523Y-29075095D01*
X115823904Y-29217952D01*
X115252476Y-29789380D01*
X115871523Y-29789380D01*
X33629695Y-118663980D02*
X33629695Y-117663980D01*
X33629695Y-118140171D02*
X34201123Y-118140171D01*
X34201123Y-118663980D02*
X34201123Y-117663980D01*
X34582076Y-117663980D02*
X35201123Y-117663980D01*
X34867790Y-118044933D01*
X35010647Y-118044933D01*
X35105885Y-118092552D01*
X35153504Y-118140171D01*
X35201123Y-118235409D01*
X35201123Y-118473504D01*
X35153504Y-118568742D01*
X35105885Y-118616361D01*
X35010647Y-118663980D01*
X34724933Y-118663980D01*
X34629695Y-118616361D01*
X34582076Y-118568742D01*
X119888095Y-111902380D02*
X119888095Y-110902380D01*
X119888095Y-111378571D02*
X120459523Y-111378571D01*
X120459523Y-111902380D02*
X120459523Y-110902380D01*
X121364285Y-111235714D02*
X121364285Y-111902380D01*
X121126190Y-110854761D02*
X120888095Y-111569047D01*
X121507142Y-111569047D01*
X103477961Y-81241733D02*
X103525580Y-81098876D01*
X103525580Y-80860780D01*
X103477961Y-80765542D01*
X103430342Y-80717923D01*
X103335104Y-80670304D01*
X103239866Y-80670304D01*
X103144628Y-80717923D01*
X103097009Y-80765542D01*
X103049390Y-80860780D01*
X103001771Y-81051257D01*
X102954152Y-81146495D01*
X102906533Y-81194114D01*
X102811295Y-81241733D01*
X102716057Y-81241733D01*
X102620819Y-81194114D01*
X102573200Y-81146495D01*
X102525580Y-81051257D01*
X102525580Y-80813161D01*
X102573200Y-80670304D01*
X102525580Y-80336971D02*
X103525580Y-80098876D01*
X102811295Y-79908400D01*
X103525580Y-79717923D01*
X102525580Y-79479828D01*
X103525580Y-78575066D02*
X103525580Y-79146495D01*
X103525580Y-78860780D02*
X102525580Y-78860780D01*
X102668438Y-78956019D01*
X102763676Y-79051257D01*
X102811295Y-79146495D01*
X40590742Y-56503866D02*
X40638361Y-56551485D01*
X40685980Y-56694342D01*
X40685980Y-56789580D01*
X40638361Y-56932438D01*
X40543123Y-57027676D01*
X40447885Y-57075295D01*
X40257409Y-57122914D01*
X40114552Y-57122914D01*
X39924076Y-57075295D01*
X39828838Y-57027676D01*
X39733600Y-56932438D01*
X39685980Y-56789580D01*
X39685980Y-56694342D01*
X39733600Y-56551485D01*
X39781219Y-56503866D01*
X40685980Y-55551485D02*
X40685980Y-56122914D01*
X40685980Y-55837200D02*
X39685980Y-55837200D01*
X39828838Y-55932438D01*
X39924076Y-56027676D01*
X39971695Y-56122914D01*
X38092742Y-66206666D02*
X38140361Y-66254285D01*
X38187980Y-66397142D01*
X38187980Y-66492380D01*
X38140361Y-66635238D01*
X38045123Y-66730476D01*
X37949885Y-66778095D01*
X37759409Y-66825714D01*
X37616552Y-66825714D01*
X37426076Y-66778095D01*
X37330838Y-66730476D01*
X37235600Y-66635238D01*
X37187980Y-66492380D01*
X37187980Y-66397142D01*
X37235600Y-66254285D01*
X37283219Y-66206666D01*
X37283219Y-65825714D02*
X37235600Y-65778095D01*
X37187980Y-65682857D01*
X37187980Y-65444761D01*
X37235600Y-65349523D01*
X37283219Y-65301904D01*
X37378457Y-65254285D01*
X37473695Y-65254285D01*
X37616552Y-65301904D01*
X38187980Y-65873333D01*
X38187980Y-65254285D01*
X57887142Y-64987466D02*
X57934761Y-65035085D01*
X57982380Y-65177942D01*
X57982380Y-65273180D01*
X57934761Y-65416038D01*
X57839523Y-65511276D01*
X57744285Y-65558895D01*
X57553809Y-65606514D01*
X57410952Y-65606514D01*
X57220476Y-65558895D01*
X57125238Y-65511276D01*
X57030000Y-65416038D01*
X56982380Y-65273180D01*
X56982380Y-65177942D01*
X57030000Y-65035085D01*
X57077619Y-64987466D01*
X56982380Y-64654133D02*
X56982380Y-64035085D01*
X57363333Y-64368419D01*
X57363333Y-64225561D01*
X57410952Y-64130323D01*
X57458571Y-64082704D01*
X57553809Y-64035085D01*
X57791904Y-64035085D01*
X57887142Y-64082704D01*
X57934761Y-64130323D01*
X57982380Y-64225561D01*
X57982380Y-64511276D01*
X57934761Y-64606514D01*
X57887142Y-64654133D01*
X65354742Y-66917866D02*
X65402361Y-66965485D01*
X65449980Y-67108342D01*
X65449980Y-67203580D01*
X65402361Y-67346438D01*
X65307123Y-67441676D01*
X65211885Y-67489295D01*
X65021409Y-67536914D01*
X64878552Y-67536914D01*
X64688076Y-67489295D01*
X64592838Y-67441676D01*
X64497600Y-67346438D01*
X64449980Y-67203580D01*
X64449980Y-67108342D01*
X64497600Y-66965485D01*
X64545219Y-66917866D01*
X64783314Y-66060723D02*
X65449980Y-66060723D01*
X64402361Y-66298819D02*
X65116647Y-66536914D01*
X65116647Y-65917866D01*
X38617142Y-55183066D02*
X38664761Y-55230685D01*
X38712380Y-55373542D01*
X38712380Y-55468780D01*
X38664761Y-55611638D01*
X38569523Y-55706876D01*
X38474285Y-55754495D01*
X38283809Y-55802114D01*
X38140952Y-55802114D01*
X37950476Y-55754495D01*
X37855238Y-55706876D01*
X37760000Y-55611638D01*
X37712380Y-55468780D01*
X37712380Y-55373542D01*
X37760000Y-55230685D01*
X37807619Y-55183066D01*
X37712380Y-54278304D02*
X37712380Y-54754495D01*
X38188571Y-54802114D01*
X38140952Y-54754495D01*
X38093333Y-54659257D01*
X38093333Y-54421161D01*
X38140952Y-54325923D01*
X38188571Y-54278304D01*
X38283809Y-54230685D01*
X38521904Y-54230685D01*
X38617142Y-54278304D01*
X38664761Y-54325923D01*
X38712380Y-54421161D01*
X38712380Y-54659257D01*
X38664761Y-54754495D01*
X38617142Y-54802114D01*
X45229542Y-68267942D02*
X45181923Y-68315561D01*
X45039066Y-68363180D01*
X44943828Y-68363180D01*
X44800971Y-68315561D01*
X44705733Y-68220323D01*
X44658114Y-68125085D01*
X44610495Y-67934609D01*
X44610495Y-67791752D01*
X44658114Y-67601276D01*
X44705733Y-67506038D01*
X44800971Y-67410800D01*
X44943828Y-67363180D01*
X45039066Y-67363180D01*
X45181923Y-67410800D01*
X45229542Y-67458419D01*
X46181923Y-68363180D02*
X45610495Y-68363180D01*
X45896209Y-68363180D02*
X45896209Y-67363180D01*
X45800971Y-67506038D01*
X45705733Y-67601276D01*
X45610495Y-67648895D01*
X46658114Y-68363180D02*
X46848590Y-68363180D01*
X46943828Y-68315561D01*
X46991447Y-68267942D01*
X47086685Y-68125085D01*
X47134304Y-67934609D01*
X47134304Y-67553657D01*
X47086685Y-67458419D01*
X47039066Y-67410800D01*
X46943828Y-67363180D01*
X46753352Y-67363180D01*
X46658114Y-67410800D01*
X46610495Y-67458419D01*
X46562876Y-67553657D01*
X46562876Y-67791752D01*
X46610495Y-67886990D01*
X46658114Y-67934609D01*
X46753352Y-67982228D01*
X46943828Y-67982228D01*
X47039066Y-67934609D01*
X47086685Y-67886990D01*
X47134304Y-67791752D01*
X43592380Y-67844895D02*
X42592380Y-67844895D01*
X42592380Y-67606800D01*
X42640000Y-67463942D01*
X42735238Y-67368704D01*
X42830476Y-67321085D01*
X43020952Y-67273466D01*
X43163809Y-67273466D01*
X43354285Y-67321085D01*
X43449523Y-67368704D01*
X43544761Y-67463942D01*
X43592380Y-67606800D01*
X43592380Y-67844895D01*
X43592380Y-66321085D02*
X43592380Y-66892514D01*
X43592380Y-66606800D02*
X42592380Y-66606800D01*
X42735238Y-66702038D01*
X42830476Y-66797276D01*
X42878095Y-66892514D01*
X45604133Y-63808380D02*
X45127942Y-63808380D01*
X45127942Y-62808380D01*
X46461276Y-63808380D02*
X45889847Y-63808380D01*
X46175561Y-63808380D02*
X46175561Y-62808380D01*
X46080323Y-62951238D01*
X45985085Y-63046476D01*
X45889847Y-63094095D01*
X32710380Y-55132266D02*
X32234190Y-55465600D01*
X32710380Y-55703695D02*
X31710380Y-55703695D01*
X31710380Y-55322742D01*
X31758000Y-55227504D01*
X31805619Y-55179885D01*
X31900857Y-55132266D01*
X32043714Y-55132266D01*
X32138952Y-55179885D01*
X32186571Y-55227504D01*
X32234190Y-55322742D01*
X32234190Y-55703695D01*
X32710380Y-54179885D02*
X32710380Y-54751314D01*
X32710380Y-54465600D02*
X31710380Y-54465600D01*
X31853238Y-54560838D01*
X31948476Y-54656076D01*
X31996095Y-54751314D01*
X30516533Y-57602380D02*
X30183200Y-57126190D01*
X29945104Y-57602380D02*
X29945104Y-56602380D01*
X30326057Y-56602380D01*
X30421295Y-56650000D01*
X30468914Y-56697619D01*
X30516533Y-56792857D01*
X30516533Y-56935714D01*
X30468914Y-57030952D01*
X30421295Y-57078571D01*
X30326057Y-57126190D01*
X29945104Y-57126190D01*
X31373676Y-56935714D02*
X31373676Y-57602380D01*
X31135580Y-56554761D02*
X30897485Y-57269047D01*
X31516533Y-57269047D01*
X36576095Y-57415180D02*
X36576095Y-58224704D01*
X36623714Y-58319942D01*
X36671333Y-58367561D01*
X36766571Y-58415180D01*
X36957047Y-58415180D01*
X37052285Y-58367561D01*
X37099904Y-58319942D01*
X37147523Y-58224704D01*
X37147523Y-57415180D01*
X38147523Y-58415180D02*
X37576095Y-58415180D01*
X37861809Y-58415180D02*
X37861809Y-57415180D01*
X37766571Y-57558038D01*
X37671333Y-57653276D01*
X37576095Y-57700895D01*
X62550380Y-65633504D02*
X63359904Y-65633504D01*
X63455142Y-65585885D01*
X63502761Y-65538266D01*
X63550380Y-65443028D01*
X63550380Y-65252552D01*
X63502761Y-65157314D01*
X63455142Y-65109695D01*
X63359904Y-65062076D01*
X62550380Y-65062076D01*
X62550380Y-64681123D02*
X62550380Y-64062076D01*
X62931333Y-64395409D01*
X62931333Y-64252552D01*
X62978952Y-64157314D01*
X63026571Y-64109695D01*
X63121809Y-64062076D01*
X63359904Y-64062076D01*
X63455142Y-64109695D01*
X63502761Y-64157314D01*
X63550380Y-64252552D01*
X63550380Y-64538266D01*
X63502761Y-64633504D01*
X63455142Y-64681123D01*
X30313333Y-62936380D02*
X29980000Y-62460190D01*
X29741904Y-62936380D02*
X29741904Y-61936380D01*
X30122857Y-61936380D01*
X30218095Y-61984000D01*
X30265714Y-62031619D01*
X30313333Y-62126857D01*
X30313333Y-62269714D01*
X30265714Y-62364952D01*
X30218095Y-62412571D01*
X30122857Y-62460190D01*
X29741904Y-62460190D01*
X31218095Y-61936380D02*
X30741904Y-61936380D01*
X30694285Y-62412571D01*
X30741904Y-62364952D01*
X30837142Y-62317333D01*
X31075238Y-62317333D01*
X31170476Y-62364952D01*
X31218095Y-62412571D01*
X31265714Y-62507809D01*
X31265714Y-62745904D01*
X31218095Y-62841142D01*
X31170476Y-62888761D01*
X31075238Y-62936380D01*
X30837142Y-62936380D01*
X30741904Y-62888761D01*
X30694285Y-62841142D01*
X104989333Y-81944380D02*
X104656000Y-81468190D01*
X104417904Y-81944380D02*
X104417904Y-80944380D01*
X104798857Y-80944380D01*
X104894095Y-80992000D01*
X104941714Y-81039619D01*
X104989333Y-81134857D01*
X104989333Y-81277714D01*
X104941714Y-81372952D01*
X104894095Y-81420571D01*
X104798857Y-81468190D01*
X104417904Y-81468190D01*
X105322666Y-80944380D02*
X105989333Y-80944380D01*
X105560761Y-81944380D01*
M02*
