M48
; DRILL file {KiCad (5.1.5)-3} date 24.05.2020 22:51:05
; FORMAT={-:-/ absolute / inch / decimal}
; #@! TF.CreationDate,2020-05-24T22:51:05+02:00
; #@! TF.GenerationSoftware,Kicad,Pcbnew,(5.1.5)-3
FMAT,2
INCH
T1C0.0157
T2C0.0315
T3C0.0394
T4C0.0472
T5C0.0551
T6C0.0787
T7C0.0945
T8C0.1260
%
G90
G05
T1
X1.22Y-2.074
X1.2229Y-2.1429
X1.405Y-2.135
X1.65Y-2.05
X1.8862Y-2.4898
X2.49Y-3.794
X2.538Y-3.194
X2.626Y-2.996
X2.728Y-2.3
X2.792Y-2.35
X2.864Y-2.396
X2.958Y-2.276
X3.0Y-2.292
X3.026Y-3.39
X3.0363Y-3.8703
X3.0451Y-2.7229
X3.05Y-2.25
X3.05Y-3.925
X3.092Y-3.384
X3.1482Y-3.0158
X3.218Y-3.338
X3.226Y-3.15
X3.226Y-3.544
X3.258Y-3.312
X3.2762Y-3.0198
X3.322Y-3.244
X3.334Y-3.306
X3.336Y-3.598
X3.342Y-3.548
X3.352Y-3.796
X3.358Y-3.468
X3.358Y-3.9
X3.36Y-3.51
X3.3609Y-3.6371
X3.38Y-3.168
X3.3818Y-2.7782
X3.398Y-3.216
X3.398Y-3.304
X3.402Y-3.876
X3.428Y-3.128
X3.44Y-3.046
X3.4597Y-4.1437
X3.482Y-2.922
X3.51Y-3.716
X3.512Y-3.6
X3.514Y-2.964
X3.524Y-2.25
X3.528Y-3.374
X3.552Y-3.636
X3.574Y-3.034
X3.582Y-3.362
X3.596Y-3.486
X3.616Y-3.528
X3.6269Y-2.9471
X3.63Y-2.27
X3.675Y-2.25
X3.716Y-3.716
X3.722Y-3.96
X3.786Y-3.536
X3.796Y-4.132
X3.798Y-3.606
X3.838Y-3.644
X3.87Y-3.536
X3.9Y-3.92
X3.908Y-4.302
X3.95Y-3.26
X3.95Y-3.92
X3.97Y-3.506
X4.0Y-3.875
X4.022Y-3.406
X4.064Y-3.784
X4.072Y-3.636
X4.125Y-2.275
X4.462Y-2.516
X4.5Y-2.86
X4.5Y-3.02
X4.65Y-4.262
X4.65Y-4.328
X4.85Y-3.475
T2
X2.55Y-1.375
X2.55Y-1.475
X2.55Y-1.575
X2.55Y-1.675
X2.55Y-1.775
X2.55Y-1.875
X2.55Y-1.975
X2.55Y-2.075
X3.05Y-1.375
X3.05Y-1.475
X3.05Y-1.575
X3.05Y-1.675
X3.05Y-1.775
X3.05Y-1.875
X3.05Y-1.975
X3.05Y-2.075
X3.8Y-1.375
X3.8Y-1.475
X3.8Y-1.575
X3.8Y-1.675
X3.8Y-1.775
X3.8Y-1.875
X3.8Y-1.975
X3.8Y-2.075
X4.3Y-1.375
X4.3Y-1.475
X4.3Y-1.575
X4.3Y-1.675
X4.3Y-1.775
X4.3Y-1.875
X4.3Y-1.975
X4.3Y-2.075
X3.175Y-1.375
X3.175Y-1.475
X3.175Y-1.575
X3.175Y-1.675
X3.175Y-1.775
X3.175Y-1.875
X3.175Y-1.975
X3.175Y-2.075
X3.675Y-1.375
X3.675Y-1.475
X3.675Y-1.575
X3.675Y-1.675
X3.675Y-1.775
X3.675Y-1.875
X3.675Y-1.975
X3.675Y-2.075
X1.925Y-1.375
X1.925Y-1.475
X1.925Y-1.575
X1.925Y-1.675
X1.925Y-1.775
X1.925Y-1.875
X1.925Y-1.975
X1.925Y-2.075
X2.425Y-1.375
X2.425Y-1.475
X2.425Y-1.575
X2.425Y-1.675
X2.425Y-1.775
X2.425Y-1.875
X2.425Y-1.975
X2.425Y-2.075
T3
X4.075Y-4.425
X4.075Y-4.525
X4.175Y-4.425
X4.175Y-4.525
X4.275Y-4.425
X4.275Y-4.525
X4.375Y-4.425
X4.375Y-4.525
X4.475Y-4.425
X4.475Y-4.525
X3.45Y-1.15
X3.55Y-1.15
X3.65Y-1.15
X3.75Y-1.15
X2.002Y-2.728
X2.102Y-2.728
X3.3354Y-4.324
X3.3354Y-4.424
X3.3354Y-4.524
X4.714Y-3.942
X4.714Y-4.042
X4.714Y-4.142
X4.35Y-3.45
X4.35Y-3.55
X4.35Y-3.65
X1.5Y-1.15
X1.6Y-1.15
X4.358Y-2.978
X4.358Y-3.078
X4.358Y-3.178
X2.8Y-1.775
X2.8Y-1.875
X2.8Y-1.975
X2.9Y-1.775
X2.9Y-1.875
X2.9Y-1.975
X1.95Y-1.15
X2.05Y-1.15
X2.15Y-1.15
X2.25Y-1.15
X2.866Y-3.686
X2.966Y-3.686
X3.066Y-3.686
X4.05Y-1.775
X4.05Y-1.875
X4.05Y-1.975
X4.15Y-1.775
X4.15Y-1.875
X4.15Y-1.975
X4.075Y-4.125
X4.075Y-4.225
X4.175Y-4.125
X4.175Y-4.225
X4.275Y-4.125
X4.275Y-4.225
X4.375Y-4.125
X4.375Y-4.225
X4.475Y-4.125
X4.475Y-4.225
X3.506Y-3.846
X3.606Y-3.846
X3.706Y-3.846
X2.725Y-2.65
X2.725Y-2.75
X4.65Y-2.325
X4.65Y-2.425
X4.65Y-2.525
X4.65Y-2.625
X4.65Y-2.725
X4.65Y-2.825
X4.65Y-2.925
X1.5Y-1.375
X1.6Y-1.375
X2.95Y-1.15
X3.05Y-1.15
X3.15Y-1.15
X3.25Y-1.15
X3.95Y-1.15
X4.05Y-1.15
X4.15Y-1.15
X4.25Y-1.15
X3.125Y-4.325
X3.125Y-4.425
X3.125Y-4.525
X2.45Y-1.15
X2.55Y-1.15
X2.65Y-1.15
X2.75Y-1.15
X3.5435Y-4.324
X3.5435Y-4.424
X3.5435Y-4.524
X2.175Y-1.775
X2.175Y-1.875
X2.175Y-1.975
X2.275Y-1.775
X2.275Y-1.875
X2.275Y-1.975
X2.925Y-4.325
X2.925Y-4.425
X2.925Y-4.525
X2.652Y-3.332
X2.652Y-3.432
X2.652Y-3.532
X2.652Y-3.632
X3.75Y-4.325
X3.75Y-4.425
X3.75Y-4.525
X3.425Y-1.775
X3.425Y-1.875
X3.425Y-1.975
X3.525Y-1.775
X3.525Y-1.875
X3.525Y-1.975
T4
X1.222Y-2.798
X1.222Y-2.998
T5
X1.24Y-3.298
X1.24Y-3.598
X1.202Y-3.95
X1.202Y-4.25
T6
X1.646Y-3.43
X2.0082Y-3.43
X1.646Y-3.726
X2.0082Y-3.726
T7
X1.8271Y-3.4772
X1.8271Y-3.7732
T8
X4.75Y-1.1555
X4.75Y-4.5531
X1.1555Y-1.1555
X1.1555Y-4.5531
T0
M30
