G04 #@! TF.GenerationSoftware,KiCad,Pcbnew,(5.1.2)-1*
G04 #@! TF.CreationDate,2019-12-10T17:40:30+01:00*
G04 #@! TF.ProjectId,controller,636f6e74-726f-46c6-9c65-722e6b696361,rev?*
G04 #@! TF.SameCoordinates,Original*
G04 #@! TF.FileFunction,Legend,Top*
G04 #@! TF.FilePolarity,Positive*
%FSLAX46Y46*%
G04 Gerber Fmt 4.6, Leading zero omitted, Abs format (unit mm)*
G04 Created by KiCad (PCBNEW (5.1.2)-1) date 2019-12-10 17:40:30*
%MOMM*%
%LPD*%
G04 APERTURE LIST*
%ADD10C,0.150000*%
%ADD11C,0.050000*%
%ADD12C,0.120000*%
G04 APERTURE END LIST*
D10*
X36147857Y-71207380D02*
X36719285Y-71207380D01*
X36433571Y-72207380D02*
X36433571Y-71207380D01*
X37052619Y-72207380D02*
X37052619Y-71207380D01*
X37052619Y-71683571D02*
X37624047Y-71683571D01*
X37624047Y-72207380D02*
X37624047Y-71207380D01*
X38100238Y-71683571D02*
X38433571Y-71683571D01*
X38576428Y-72207380D02*
X38100238Y-72207380D01*
X38100238Y-71207380D01*
X38576428Y-71207380D01*
X39576428Y-72207380D02*
X39243095Y-71731190D01*
X39005000Y-72207380D02*
X39005000Y-71207380D01*
X39385952Y-71207380D01*
X39481190Y-71255000D01*
X39528809Y-71302619D01*
X39576428Y-71397857D01*
X39576428Y-71540714D01*
X39528809Y-71635952D01*
X39481190Y-71683571D01*
X39385952Y-71731190D01*
X39005000Y-71731190D01*
X40005000Y-72207380D02*
X40005000Y-71207380D01*
X40338333Y-71921666D01*
X40671666Y-71207380D01*
X40671666Y-72207380D01*
X41147857Y-72112142D02*
X41195476Y-72159761D01*
X41147857Y-72207380D01*
X41100238Y-72159761D01*
X41147857Y-72112142D01*
X41147857Y-72207380D01*
X42862142Y-72207380D02*
X42385952Y-72207380D01*
X42385952Y-71207380D01*
X43195476Y-72207380D02*
X43195476Y-71207380D01*
X43576428Y-71207380D01*
X43671666Y-71255000D01*
X43719285Y-71302619D01*
X43766904Y-71397857D01*
X43766904Y-71540714D01*
X43719285Y-71635952D01*
X43671666Y-71683571D01*
X43576428Y-71731190D01*
X43195476Y-71731190D01*
X75509523Y-70413571D02*
X75176190Y-70413571D01*
X75176190Y-70937380D02*
X75176190Y-69937380D01*
X75652380Y-69937380D01*
X76033333Y-70413571D02*
X76366666Y-70413571D01*
X76509523Y-70937380D02*
X76033333Y-70937380D01*
X76033333Y-69937380D01*
X76509523Y-69937380D01*
X76795238Y-69937380D02*
X77366666Y-69937380D01*
X77080952Y-70937380D02*
X77080952Y-69937380D01*
X113752380Y-72707380D02*
X114752380Y-72040714D01*
X113752380Y-72040714D02*
X114752380Y-72707380D01*
X114371428Y-71659761D02*
X114371428Y-70897857D01*
X114752380Y-71278809D02*
X113990476Y-71278809D01*
X113752380Y-68897380D02*
X114752380Y-68230714D01*
X113752380Y-68230714D02*
X114752380Y-68897380D01*
X114371428Y-67849761D02*
X114371428Y-67087857D01*
X114276190Y-65389047D02*
X114752380Y-65389047D01*
X113752380Y-65722380D02*
X114276190Y-65389047D01*
X113752380Y-65055714D01*
X114371428Y-64722380D02*
X114371428Y-63960476D01*
X114752380Y-64341428D02*
X113990476Y-64341428D01*
X114276190Y-61579047D02*
X114752380Y-61579047D01*
X113752380Y-61912380D02*
X114276190Y-61579047D01*
X113752380Y-61245714D01*
X114371428Y-60912380D02*
X114371428Y-60150476D01*
X113752380Y-58102380D02*
X113752380Y-57435714D01*
X114752380Y-58102380D01*
X114752380Y-57435714D01*
X114371428Y-57054761D02*
X114371428Y-56292857D01*
X114752380Y-56673809D02*
X113990476Y-56673809D01*
X113752380Y-54292380D02*
X113752380Y-53625714D01*
X114752380Y-54292380D01*
X114752380Y-53625714D01*
X114371428Y-53244761D02*
X114371428Y-52482857D01*
X96345714Y-51363571D02*
X96679047Y-51363571D01*
X96821904Y-51887380D02*
X96345714Y-51887380D01*
X96345714Y-50887380D01*
X96821904Y-50887380D01*
X97250476Y-51220714D02*
X97250476Y-51887380D01*
X97250476Y-51315952D02*
X97298095Y-51268333D01*
X97393333Y-51220714D01*
X97536190Y-51220714D01*
X97631428Y-51268333D01*
X97679047Y-51363571D01*
X97679047Y-51887380D01*
X98583809Y-51887380D02*
X98583809Y-50887380D01*
X98583809Y-51839761D02*
X98488571Y-51887380D01*
X98298095Y-51887380D01*
X98202857Y-51839761D01*
X98155238Y-51792142D01*
X98107619Y-51696904D01*
X98107619Y-51411190D01*
X98155238Y-51315952D01*
X98202857Y-51268333D01*
X98298095Y-51220714D01*
X98488571Y-51220714D01*
X98583809Y-51268333D01*
X99012380Y-51839761D02*
X99107619Y-51887380D01*
X99298095Y-51887380D01*
X99393333Y-51839761D01*
X99440952Y-51744523D01*
X99440952Y-51696904D01*
X99393333Y-51601666D01*
X99298095Y-51554047D01*
X99155238Y-51554047D01*
X99060000Y-51506428D01*
X99012380Y-51411190D01*
X99012380Y-51363571D01*
X99060000Y-51268333D01*
X99155238Y-51220714D01*
X99298095Y-51220714D01*
X99393333Y-51268333D01*
X99726666Y-51220714D02*
X100107619Y-51220714D01*
X99869523Y-50887380D02*
X99869523Y-51744523D01*
X99917142Y-51839761D01*
X100012380Y-51887380D01*
X100107619Y-51887380D01*
X100583809Y-51887380D02*
X100488571Y-51839761D01*
X100440952Y-51792142D01*
X100393333Y-51696904D01*
X100393333Y-51411190D01*
X100440952Y-51315952D01*
X100488571Y-51268333D01*
X100583809Y-51220714D01*
X100726666Y-51220714D01*
X100821904Y-51268333D01*
X100869523Y-51315952D01*
X100917142Y-51411190D01*
X100917142Y-51696904D01*
X100869523Y-51792142D01*
X100821904Y-51839761D01*
X100726666Y-51887380D01*
X100583809Y-51887380D01*
X101345714Y-51220714D02*
X101345714Y-52220714D01*
X101345714Y-51268333D02*
X101440952Y-51220714D01*
X101631428Y-51220714D01*
X101726666Y-51268333D01*
X101774285Y-51315952D01*
X101821904Y-51411190D01*
X101821904Y-51696904D01*
X101774285Y-51792142D01*
X101726666Y-51839761D01*
X101631428Y-51887380D01*
X101440952Y-51887380D01*
X101345714Y-51839761D01*
X27074761Y-55800476D02*
X27122380Y-55657619D01*
X27122380Y-55419523D01*
X27074761Y-55324285D01*
X27027142Y-55276666D01*
X26931904Y-55229047D01*
X26836666Y-55229047D01*
X26741428Y-55276666D01*
X26693809Y-55324285D01*
X26646190Y-55419523D01*
X26598571Y-55610000D01*
X26550952Y-55705238D01*
X26503333Y-55752857D01*
X26408095Y-55800476D01*
X26312857Y-55800476D01*
X26217619Y-55752857D01*
X26170000Y-55705238D01*
X26122380Y-55610000D01*
X26122380Y-55371904D01*
X26170000Y-55229047D01*
X26122380Y-54943333D02*
X27122380Y-54610000D01*
X26122380Y-54276666D01*
X26455714Y-53514761D02*
X27122380Y-53514761D01*
X26074761Y-53752857D02*
X26789047Y-53990952D01*
X26789047Y-53371904D01*
X27074761Y-59610476D02*
X27122380Y-59467619D01*
X27122380Y-59229523D01*
X27074761Y-59134285D01*
X27027142Y-59086666D01*
X26931904Y-59039047D01*
X26836666Y-59039047D01*
X26741428Y-59086666D01*
X26693809Y-59134285D01*
X26646190Y-59229523D01*
X26598571Y-59420000D01*
X26550952Y-59515238D01*
X26503333Y-59562857D01*
X26408095Y-59610476D01*
X26312857Y-59610476D01*
X26217619Y-59562857D01*
X26170000Y-59515238D01*
X26122380Y-59420000D01*
X26122380Y-59181904D01*
X26170000Y-59039047D01*
X26122380Y-58753333D02*
X27122380Y-58420000D01*
X26122380Y-58086666D01*
X26122380Y-57848571D02*
X26122380Y-57229523D01*
X26503333Y-57562857D01*
X26503333Y-57420000D01*
X26550952Y-57324761D01*
X26598571Y-57277142D01*
X26693809Y-57229523D01*
X26931904Y-57229523D01*
X27027142Y-57277142D01*
X27074761Y-57324761D01*
X27122380Y-57420000D01*
X27122380Y-57705714D01*
X27074761Y-57800952D01*
X27027142Y-57848571D01*
X27074761Y-63420476D02*
X27122380Y-63277619D01*
X27122380Y-63039523D01*
X27074761Y-62944285D01*
X27027142Y-62896666D01*
X26931904Y-62849047D01*
X26836666Y-62849047D01*
X26741428Y-62896666D01*
X26693809Y-62944285D01*
X26646190Y-63039523D01*
X26598571Y-63230000D01*
X26550952Y-63325238D01*
X26503333Y-63372857D01*
X26408095Y-63420476D01*
X26312857Y-63420476D01*
X26217619Y-63372857D01*
X26170000Y-63325238D01*
X26122380Y-63230000D01*
X26122380Y-62991904D01*
X26170000Y-62849047D01*
X26122380Y-62563333D02*
X27122380Y-62230000D01*
X26122380Y-61896666D01*
X26217619Y-61610952D02*
X26170000Y-61563333D01*
X26122380Y-61468095D01*
X26122380Y-61230000D01*
X26170000Y-61134761D01*
X26217619Y-61087142D01*
X26312857Y-61039523D01*
X26408095Y-61039523D01*
X26550952Y-61087142D01*
X27122380Y-61658571D01*
X27122380Y-61039523D01*
X27074761Y-67230476D02*
X27122380Y-67087619D01*
X27122380Y-66849523D01*
X27074761Y-66754285D01*
X27027142Y-66706666D01*
X26931904Y-66659047D01*
X26836666Y-66659047D01*
X26741428Y-66706666D01*
X26693809Y-66754285D01*
X26646190Y-66849523D01*
X26598571Y-67040000D01*
X26550952Y-67135238D01*
X26503333Y-67182857D01*
X26408095Y-67230476D01*
X26312857Y-67230476D01*
X26217619Y-67182857D01*
X26170000Y-67135238D01*
X26122380Y-67040000D01*
X26122380Y-66801904D01*
X26170000Y-66659047D01*
X26122380Y-66373333D02*
X27122380Y-66040000D01*
X26122380Y-65706666D01*
X27122380Y-64849523D02*
X27122380Y-65420952D01*
X27122380Y-65135238D02*
X26122380Y-65135238D01*
X26265238Y-65230476D01*
X26360476Y-65325714D01*
X26408095Y-65420952D01*
X33424761Y-61039285D02*
X33472380Y-60896428D01*
X33472380Y-60658333D01*
X33424761Y-60563095D01*
X33377142Y-60515476D01*
X33281904Y-60467857D01*
X33186666Y-60467857D01*
X33091428Y-60515476D01*
X33043809Y-60563095D01*
X32996190Y-60658333D01*
X32948571Y-60848809D01*
X32900952Y-60944047D01*
X32853333Y-60991666D01*
X32758095Y-61039285D01*
X32662857Y-61039285D01*
X32567619Y-60991666D01*
X32520000Y-60944047D01*
X32472380Y-60848809D01*
X32472380Y-60610714D01*
X32520000Y-60467857D01*
X32472380Y-60182142D02*
X33472380Y-59848809D01*
X32472380Y-59515476D01*
X15748095Y-80732380D02*
X16319523Y-80732380D01*
X16033809Y-81732380D02*
X16033809Y-80732380D01*
X17081428Y-81065714D02*
X17081428Y-81732380D01*
X16843333Y-80684761D02*
X16605238Y-81399047D01*
X17224285Y-81399047D01*
X15748095Y-78192380D02*
X16319523Y-78192380D01*
X16033809Y-79192380D02*
X16033809Y-78192380D01*
X16557619Y-78192380D02*
X17176666Y-78192380D01*
X16843333Y-78573333D01*
X16986190Y-78573333D01*
X17081428Y-78620952D01*
X17129047Y-78668571D01*
X17176666Y-78763809D01*
X17176666Y-79001904D01*
X17129047Y-79097142D01*
X17081428Y-79144761D01*
X16986190Y-79192380D01*
X16700476Y-79192380D01*
X16605238Y-79144761D01*
X16557619Y-79097142D01*
X15748095Y-75652380D02*
X16319523Y-75652380D01*
X16033809Y-76652380D02*
X16033809Y-75652380D01*
X16605238Y-75747619D02*
X16652857Y-75700000D01*
X16748095Y-75652380D01*
X16986190Y-75652380D01*
X17081428Y-75700000D01*
X17129047Y-75747619D01*
X17176666Y-75842857D01*
X17176666Y-75938095D01*
X17129047Y-76080952D01*
X16557619Y-76652380D01*
X17176666Y-76652380D01*
X15748095Y-73112380D02*
X16319523Y-73112380D01*
X16033809Y-74112380D02*
X16033809Y-73112380D01*
X17176666Y-74112380D02*
X16605238Y-74112380D01*
X16890952Y-74112380D02*
X16890952Y-73112380D01*
X16795714Y-73255238D01*
X16700476Y-73350476D01*
X16605238Y-73398095D01*
X63928809Y-67397380D02*
X64547857Y-67397380D01*
X64214523Y-67778333D01*
X64357380Y-67778333D01*
X64452619Y-67825952D01*
X64500238Y-67873571D01*
X64547857Y-67968809D01*
X64547857Y-68206904D01*
X64500238Y-68302142D01*
X64452619Y-68349761D01*
X64357380Y-68397380D01*
X64071666Y-68397380D01*
X63976428Y-68349761D01*
X63928809Y-68302142D01*
X64976428Y-68302142D02*
X65024047Y-68349761D01*
X64976428Y-68397380D01*
X64928809Y-68349761D01*
X64976428Y-68302142D01*
X64976428Y-68397380D01*
X65357380Y-67397380D02*
X65976428Y-67397380D01*
X65643095Y-67778333D01*
X65785952Y-67778333D01*
X65881190Y-67825952D01*
X65928809Y-67873571D01*
X65976428Y-67968809D01*
X65976428Y-68206904D01*
X65928809Y-68302142D01*
X65881190Y-68349761D01*
X65785952Y-68397380D01*
X65500238Y-68397380D01*
X65405000Y-68349761D01*
X65357380Y-68302142D01*
X66262142Y-67397380D02*
X66595476Y-68397380D01*
X66928809Y-67397380D01*
X56324523Y-67397380D02*
X55848333Y-67397380D01*
X55800714Y-67873571D01*
X55848333Y-67825952D01*
X55943571Y-67778333D01*
X56181666Y-67778333D01*
X56276904Y-67825952D01*
X56324523Y-67873571D01*
X56372142Y-67968809D01*
X56372142Y-68206904D01*
X56324523Y-68302142D01*
X56276904Y-68349761D01*
X56181666Y-68397380D01*
X55943571Y-68397380D01*
X55848333Y-68349761D01*
X55800714Y-68302142D01*
X56657857Y-67397380D02*
X56991190Y-68397380D01*
X57324523Y-67397380D01*
X56769047Y-71191428D02*
X57530952Y-71191428D01*
X64071666Y-70572380D02*
X64405000Y-71572380D01*
X64738333Y-70572380D01*
X65071666Y-71572380D02*
X65071666Y-70572380D01*
X65309761Y-70572380D01*
X65452619Y-70620000D01*
X65547857Y-70715238D01*
X65595476Y-70810476D01*
X65643095Y-71000952D01*
X65643095Y-71143809D01*
X65595476Y-71334285D01*
X65547857Y-71429523D01*
X65452619Y-71524761D01*
X65309761Y-71572380D01*
X65071666Y-71572380D01*
X66071666Y-71572380D02*
X66071666Y-70572380D01*
X66309761Y-70572380D01*
X66452619Y-70620000D01*
X66547857Y-70715238D01*
X66595476Y-70810476D01*
X66643095Y-71000952D01*
X66643095Y-71143809D01*
X66595476Y-71334285D01*
X66547857Y-71429523D01*
X66452619Y-71524761D01*
X66309761Y-71572380D01*
X66071666Y-71572380D01*
X16764047Y-103576428D02*
X17525952Y-103576428D01*
X21209047Y-103576428D02*
X21970952Y-103576428D01*
X21590000Y-103957380D02*
X21590000Y-103195476D01*
X18923095Y-103433571D02*
X18589761Y-103433571D01*
X18589761Y-103957380D02*
X18589761Y-102957380D01*
X19065952Y-102957380D01*
X19875476Y-103957380D02*
X19875476Y-103433571D01*
X19827857Y-103338333D01*
X19732619Y-103290714D01*
X19542142Y-103290714D01*
X19446904Y-103338333D01*
X19875476Y-103909761D02*
X19780238Y-103957380D01*
X19542142Y-103957380D01*
X19446904Y-103909761D01*
X19399285Y-103814523D01*
X19399285Y-103719285D01*
X19446904Y-103624047D01*
X19542142Y-103576428D01*
X19780238Y-103576428D01*
X19875476Y-103528809D01*
X20351666Y-103290714D02*
X20351666Y-103957380D01*
X20351666Y-103385952D02*
X20399285Y-103338333D01*
X20494523Y-103290714D01*
X20637380Y-103290714D01*
X20732619Y-103338333D01*
X20780238Y-103433571D01*
X20780238Y-103957380D01*
X33147380Y-113482380D02*
X33147380Y-112482380D01*
X33528333Y-112482380D01*
X33623571Y-112530000D01*
X33671190Y-112577619D01*
X33718809Y-112672857D01*
X33718809Y-112815714D01*
X33671190Y-112910952D01*
X33623571Y-112958571D01*
X33528333Y-113006190D01*
X33147380Y-113006190D01*
X34290238Y-113482380D02*
X34195000Y-113434761D01*
X34147380Y-113387142D01*
X34099761Y-113291904D01*
X34099761Y-113006190D01*
X34147380Y-112910952D01*
X34195000Y-112863333D01*
X34290238Y-112815714D01*
X34433095Y-112815714D01*
X34528333Y-112863333D01*
X34575952Y-112910952D01*
X34623571Y-113006190D01*
X34623571Y-113291904D01*
X34575952Y-113387142D01*
X34528333Y-113434761D01*
X34433095Y-113482380D01*
X34290238Y-113482380D01*
X34956904Y-112815714D02*
X35147380Y-113482380D01*
X35337857Y-113006190D01*
X35528333Y-113482380D01*
X35718809Y-112815714D01*
X36480714Y-113434761D02*
X36385476Y-113482380D01*
X36195000Y-113482380D01*
X36099761Y-113434761D01*
X36052142Y-113339523D01*
X36052142Y-112958571D01*
X36099761Y-112863333D01*
X36195000Y-112815714D01*
X36385476Y-112815714D01*
X36480714Y-112863333D01*
X36528333Y-112958571D01*
X36528333Y-113053809D01*
X36052142Y-113149047D01*
X36956904Y-113482380D02*
X36956904Y-112815714D01*
X36956904Y-113006190D02*
X37004523Y-112910952D01*
X37052142Y-112863333D01*
X37147380Y-112815714D01*
X37242619Y-112815714D01*
X38337857Y-113482380D02*
X38337857Y-112482380D01*
X38814047Y-112815714D02*
X38814047Y-113482380D01*
X38814047Y-112910952D02*
X38861666Y-112863333D01*
X38956904Y-112815714D01*
X39099761Y-112815714D01*
X39195000Y-112863333D01*
X39242619Y-112958571D01*
X39242619Y-113482380D01*
X24384047Y-111196428D02*
X25145952Y-111196428D01*
X24765000Y-111577380D02*
X24765000Y-110815476D01*
X37719047Y-110561428D02*
X38480952Y-110561428D01*
X106069285Y-76017380D02*
X106069285Y-75017380D01*
X106069285Y-75493571D02*
X106640714Y-75493571D01*
X106640714Y-76017380D02*
X106640714Y-75017380D01*
X107497857Y-75969761D02*
X107402619Y-76017380D01*
X107212142Y-76017380D01*
X107116904Y-75969761D01*
X107069285Y-75874523D01*
X107069285Y-75493571D01*
X107116904Y-75398333D01*
X107212142Y-75350714D01*
X107402619Y-75350714D01*
X107497857Y-75398333D01*
X107545476Y-75493571D01*
X107545476Y-75588809D01*
X107069285Y-75684047D01*
X108402619Y-76017380D02*
X108402619Y-75493571D01*
X108355000Y-75398333D01*
X108259761Y-75350714D01*
X108069285Y-75350714D01*
X107974047Y-75398333D01*
X108402619Y-75969761D02*
X108307380Y-76017380D01*
X108069285Y-76017380D01*
X107974047Y-75969761D01*
X107926428Y-75874523D01*
X107926428Y-75779285D01*
X107974047Y-75684047D01*
X108069285Y-75636428D01*
X108307380Y-75636428D01*
X108402619Y-75588809D01*
X108735952Y-75350714D02*
X109116904Y-75350714D01*
X108878809Y-75017380D02*
X108878809Y-75874523D01*
X108926428Y-75969761D01*
X109021666Y-76017380D01*
X109116904Y-76017380D01*
X109450238Y-76017380D02*
X109450238Y-75017380D01*
X109450238Y-75398333D02*
X109545476Y-75350714D01*
X109735952Y-75350714D01*
X109831190Y-75398333D01*
X109878809Y-75445952D01*
X109926428Y-75541190D01*
X109926428Y-75826904D01*
X109878809Y-75922142D01*
X109831190Y-75969761D01*
X109735952Y-76017380D01*
X109545476Y-76017380D01*
X109450238Y-75969761D01*
X110355000Y-75922142D02*
X110402619Y-75969761D01*
X110355000Y-76017380D01*
X110307380Y-75969761D01*
X110355000Y-75922142D01*
X110355000Y-76017380D01*
X111783571Y-75017380D02*
X111974047Y-75017380D01*
X112069285Y-75065000D01*
X112164523Y-75160238D01*
X112212142Y-75350714D01*
X112212142Y-75684047D01*
X112164523Y-75874523D01*
X112069285Y-75969761D01*
X111974047Y-76017380D01*
X111783571Y-76017380D01*
X111688333Y-75969761D01*
X111593095Y-75874523D01*
X111545476Y-75684047D01*
X111545476Y-75350714D01*
X111593095Y-75160238D01*
X111688333Y-75065000D01*
X111783571Y-75017380D01*
X113069285Y-75350714D02*
X113069285Y-76017380D01*
X112640714Y-75350714D02*
X112640714Y-75874523D01*
X112688333Y-75969761D01*
X112783571Y-76017380D01*
X112926428Y-76017380D01*
X113021666Y-75969761D01*
X113069285Y-75922142D01*
X113402619Y-75350714D02*
X113783571Y-75350714D01*
X113545476Y-75017380D02*
X113545476Y-75874523D01*
X113593095Y-75969761D01*
X113688333Y-76017380D01*
X113783571Y-76017380D01*
X102862619Y-106497380D02*
X102862619Y-105497380D01*
X102862619Y-105973571D02*
X103434047Y-105973571D01*
X103434047Y-106497380D02*
X103434047Y-105497380D01*
X104291190Y-106449761D02*
X104195952Y-106497380D01*
X104005476Y-106497380D01*
X103910238Y-106449761D01*
X103862619Y-106354523D01*
X103862619Y-105973571D01*
X103910238Y-105878333D01*
X104005476Y-105830714D01*
X104195952Y-105830714D01*
X104291190Y-105878333D01*
X104338809Y-105973571D01*
X104338809Y-106068809D01*
X103862619Y-106164047D01*
X105195952Y-106497380D02*
X105195952Y-105973571D01*
X105148333Y-105878333D01*
X105053095Y-105830714D01*
X104862619Y-105830714D01*
X104767380Y-105878333D01*
X105195952Y-106449761D02*
X105100714Y-106497380D01*
X104862619Y-106497380D01*
X104767380Y-106449761D01*
X104719761Y-106354523D01*
X104719761Y-106259285D01*
X104767380Y-106164047D01*
X104862619Y-106116428D01*
X105100714Y-106116428D01*
X105195952Y-106068809D01*
X105529285Y-105830714D02*
X105910238Y-105830714D01*
X105672142Y-105497380D02*
X105672142Y-106354523D01*
X105719761Y-106449761D01*
X105815000Y-106497380D01*
X105910238Y-106497380D01*
X106243571Y-106497380D02*
X106243571Y-105497380D01*
X106243571Y-105878333D02*
X106338809Y-105830714D01*
X106529285Y-105830714D01*
X106624523Y-105878333D01*
X106672142Y-105925952D01*
X106719761Y-106021190D01*
X106719761Y-106306904D01*
X106672142Y-106402142D01*
X106624523Y-106449761D01*
X106529285Y-106497380D01*
X106338809Y-106497380D01*
X106243571Y-106449761D01*
X107529285Y-106449761D02*
X107434047Y-106497380D01*
X107243571Y-106497380D01*
X107148333Y-106449761D01*
X107100714Y-106354523D01*
X107100714Y-105973571D01*
X107148333Y-105878333D01*
X107243571Y-105830714D01*
X107434047Y-105830714D01*
X107529285Y-105878333D01*
X107576904Y-105973571D01*
X107576904Y-106068809D01*
X107100714Y-106164047D01*
X108434047Y-106497380D02*
X108434047Y-105497380D01*
X108434047Y-106449761D02*
X108338809Y-106497380D01*
X108148333Y-106497380D01*
X108053095Y-106449761D01*
X108005476Y-106402142D01*
X107957857Y-106306904D01*
X107957857Y-106021190D01*
X108005476Y-105925952D01*
X108053095Y-105878333D01*
X108148333Y-105830714D01*
X108338809Y-105830714D01*
X108434047Y-105878333D01*
X108672142Y-106592619D02*
X109434047Y-106592619D01*
X109672142Y-105830714D02*
X109672142Y-106830714D01*
X109672142Y-105878333D02*
X109767380Y-105830714D01*
X109957857Y-105830714D01*
X110053095Y-105878333D01*
X110100714Y-105925952D01*
X110148333Y-106021190D01*
X110148333Y-106306904D01*
X110100714Y-106402142D01*
X110053095Y-106449761D01*
X109957857Y-106497380D01*
X109767380Y-106497380D01*
X109672142Y-106449761D01*
X110481666Y-105830714D02*
X110672142Y-106497380D01*
X110862619Y-106021190D01*
X111053095Y-106497380D01*
X111243571Y-105830714D01*
X111624523Y-106497380D02*
X111624523Y-105830714D01*
X111624523Y-106021190D02*
X111672142Y-105925952D01*
X111719761Y-105878333D01*
X111815000Y-105830714D01*
X111910238Y-105830714D01*
X113284047Y-106116428D02*
X114045952Y-106116428D01*
X113665000Y-106497380D02*
X113665000Y-105735476D01*
X113284047Y-93416428D02*
X114045952Y-93416428D01*
X90511666Y-113482380D02*
X90511666Y-112482380D01*
X90892619Y-112482380D01*
X90987857Y-112530000D01*
X91035476Y-112577619D01*
X91083095Y-112672857D01*
X91083095Y-112815714D01*
X91035476Y-112910952D01*
X90987857Y-112958571D01*
X90892619Y-113006190D01*
X90511666Y-113006190D01*
X91654523Y-113482380D02*
X91559285Y-113434761D01*
X91511666Y-113387142D01*
X91464047Y-113291904D01*
X91464047Y-113006190D01*
X91511666Y-112910952D01*
X91559285Y-112863333D01*
X91654523Y-112815714D01*
X91797380Y-112815714D01*
X91892619Y-112863333D01*
X91940238Y-112910952D01*
X91987857Y-113006190D01*
X91987857Y-113291904D01*
X91940238Y-113387142D01*
X91892619Y-113434761D01*
X91797380Y-113482380D01*
X91654523Y-113482380D01*
X92321190Y-112815714D02*
X92511666Y-113482380D01*
X92702142Y-113006190D01*
X92892619Y-113482380D01*
X93083095Y-112815714D01*
X93845000Y-113434761D02*
X93749761Y-113482380D01*
X93559285Y-113482380D01*
X93464047Y-113434761D01*
X93416428Y-113339523D01*
X93416428Y-112958571D01*
X93464047Y-112863333D01*
X93559285Y-112815714D01*
X93749761Y-112815714D01*
X93845000Y-112863333D01*
X93892619Y-112958571D01*
X93892619Y-113053809D01*
X93416428Y-113149047D01*
X94321190Y-113482380D02*
X94321190Y-112815714D01*
X94321190Y-113006190D02*
X94368809Y-112910952D01*
X94416428Y-112863333D01*
X94511666Y-112815714D01*
X94606904Y-112815714D01*
X95606904Y-112482380D02*
X96225952Y-112482380D01*
X95892619Y-112863333D01*
X96035476Y-112863333D01*
X96130714Y-112910952D01*
X96178333Y-112958571D01*
X96225952Y-113053809D01*
X96225952Y-113291904D01*
X96178333Y-113387142D01*
X96130714Y-113434761D01*
X96035476Y-113482380D01*
X95749761Y-113482380D01*
X95654523Y-113434761D01*
X95606904Y-113387142D01*
X76541666Y-113482380D02*
X76541666Y-112482380D01*
X76922619Y-112482380D01*
X77017857Y-112530000D01*
X77065476Y-112577619D01*
X77113095Y-112672857D01*
X77113095Y-112815714D01*
X77065476Y-112910952D01*
X77017857Y-112958571D01*
X76922619Y-113006190D01*
X76541666Y-113006190D01*
X77684523Y-113482380D02*
X77589285Y-113434761D01*
X77541666Y-113387142D01*
X77494047Y-113291904D01*
X77494047Y-113006190D01*
X77541666Y-112910952D01*
X77589285Y-112863333D01*
X77684523Y-112815714D01*
X77827380Y-112815714D01*
X77922619Y-112863333D01*
X77970238Y-112910952D01*
X78017857Y-113006190D01*
X78017857Y-113291904D01*
X77970238Y-113387142D01*
X77922619Y-113434761D01*
X77827380Y-113482380D01*
X77684523Y-113482380D01*
X78351190Y-112815714D02*
X78541666Y-113482380D01*
X78732142Y-113006190D01*
X78922619Y-113482380D01*
X79113095Y-112815714D01*
X79875000Y-113434761D02*
X79779761Y-113482380D01*
X79589285Y-113482380D01*
X79494047Y-113434761D01*
X79446428Y-113339523D01*
X79446428Y-112958571D01*
X79494047Y-112863333D01*
X79589285Y-112815714D01*
X79779761Y-112815714D01*
X79875000Y-112863333D01*
X79922619Y-112958571D01*
X79922619Y-113053809D01*
X79446428Y-113149047D01*
X80351190Y-113482380D02*
X80351190Y-112815714D01*
X80351190Y-113006190D02*
X80398809Y-112910952D01*
X80446428Y-112863333D01*
X80541666Y-112815714D01*
X80636904Y-112815714D01*
X81684523Y-112577619D02*
X81732142Y-112530000D01*
X81827380Y-112482380D01*
X82065476Y-112482380D01*
X82160714Y-112530000D01*
X82208333Y-112577619D01*
X82255952Y-112672857D01*
X82255952Y-112768095D01*
X82208333Y-112910952D01*
X81636904Y-113482380D01*
X82255952Y-113482380D01*
X61936666Y-113482380D02*
X61936666Y-112482380D01*
X62317619Y-112482380D01*
X62412857Y-112530000D01*
X62460476Y-112577619D01*
X62508095Y-112672857D01*
X62508095Y-112815714D01*
X62460476Y-112910952D01*
X62412857Y-112958571D01*
X62317619Y-113006190D01*
X61936666Y-113006190D01*
X63079523Y-113482380D02*
X62984285Y-113434761D01*
X62936666Y-113387142D01*
X62889047Y-113291904D01*
X62889047Y-113006190D01*
X62936666Y-112910952D01*
X62984285Y-112863333D01*
X63079523Y-112815714D01*
X63222380Y-112815714D01*
X63317619Y-112863333D01*
X63365238Y-112910952D01*
X63412857Y-113006190D01*
X63412857Y-113291904D01*
X63365238Y-113387142D01*
X63317619Y-113434761D01*
X63222380Y-113482380D01*
X63079523Y-113482380D01*
X63746190Y-112815714D02*
X63936666Y-113482380D01*
X64127142Y-113006190D01*
X64317619Y-113482380D01*
X64508095Y-112815714D01*
X65270000Y-113434761D02*
X65174761Y-113482380D01*
X64984285Y-113482380D01*
X64889047Y-113434761D01*
X64841428Y-113339523D01*
X64841428Y-112958571D01*
X64889047Y-112863333D01*
X64984285Y-112815714D01*
X65174761Y-112815714D01*
X65270000Y-112863333D01*
X65317619Y-112958571D01*
X65317619Y-113053809D01*
X64841428Y-113149047D01*
X65746190Y-113482380D02*
X65746190Y-112815714D01*
X65746190Y-113006190D02*
X65793809Y-112910952D01*
X65841428Y-112863333D01*
X65936666Y-112815714D01*
X66031904Y-112815714D01*
X67650952Y-113482380D02*
X67079523Y-113482380D01*
X67365238Y-113482380D02*
X67365238Y-112482380D01*
X67270000Y-112625238D01*
X67174761Y-112720476D01*
X67079523Y-112768095D01*
X96822142Y-20883571D02*
X97155476Y-20883571D01*
X97298333Y-21407380D02*
X96822142Y-21407380D01*
X96822142Y-20407380D01*
X97298333Y-20407380D01*
X97679285Y-20502619D02*
X97726904Y-20455000D01*
X97822142Y-20407380D01*
X98060238Y-20407380D01*
X98155476Y-20455000D01*
X98203095Y-20502619D01*
X98250714Y-20597857D01*
X98250714Y-20693095D01*
X98203095Y-20835952D01*
X97631666Y-21407380D01*
X98250714Y-21407380D01*
X98679285Y-21026428D02*
X99441190Y-21026428D01*
X99869761Y-21359761D02*
X100012619Y-21407380D01*
X100250714Y-21407380D01*
X100345952Y-21359761D01*
X100393571Y-21312142D01*
X100441190Y-21216904D01*
X100441190Y-21121666D01*
X100393571Y-21026428D01*
X100345952Y-20978809D01*
X100250714Y-20931190D01*
X100060238Y-20883571D01*
X99965000Y-20835952D01*
X99917380Y-20788333D01*
X99869761Y-20693095D01*
X99869761Y-20597857D01*
X99917380Y-20502619D01*
X99965000Y-20455000D01*
X100060238Y-20407380D01*
X100298333Y-20407380D01*
X100441190Y-20455000D01*
X100726904Y-20740714D02*
X101107857Y-20740714D01*
X100869761Y-20407380D02*
X100869761Y-21264523D01*
X100917380Y-21359761D01*
X101012619Y-21407380D01*
X101107857Y-21407380D01*
X101822142Y-21359761D02*
X101726904Y-21407380D01*
X101536428Y-21407380D01*
X101441190Y-21359761D01*
X101393571Y-21264523D01*
X101393571Y-20883571D01*
X101441190Y-20788333D01*
X101536428Y-20740714D01*
X101726904Y-20740714D01*
X101822142Y-20788333D01*
X101869761Y-20883571D01*
X101869761Y-20978809D01*
X101393571Y-21074047D01*
X102298333Y-20740714D02*
X102298333Y-21740714D01*
X102298333Y-20788333D02*
X102393571Y-20740714D01*
X102584047Y-20740714D01*
X102679285Y-20788333D01*
X102726904Y-20835952D01*
X102774523Y-20931190D01*
X102774523Y-21216904D01*
X102726904Y-21312142D01*
X102679285Y-21359761D01*
X102584047Y-21407380D01*
X102393571Y-21407380D01*
X102298333Y-21359761D01*
X103203095Y-20740714D02*
X103203095Y-21740714D01*
X103203095Y-20788333D02*
X103298333Y-20740714D01*
X103488809Y-20740714D01*
X103584047Y-20788333D01*
X103631666Y-20835952D01*
X103679285Y-20931190D01*
X103679285Y-21216904D01*
X103631666Y-21312142D01*
X103584047Y-21359761D01*
X103488809Y-21407380D01*
X103298333Y-21407380D01*
X103203095Y-21359761D01*
X104488809Y-21359761D02*
X104393571Y-21407380D01*
X104203095Y-21407380D01*
X104107857Y-21359761D01*
X104060238Y-21264523D01*
X104060238Y-20883571D01*
X104107857Y-20788333D01*
X104203095Y-20740714D01*
X104393571Y-20740714D01*
X104488809Y-20788333D01*
X104536428Y-20883571D01*
X104536428Y-20978809D01*
X104060238Y-21074047D01*
X104965000Y-21407380D02*
X104965000Y-20740714D01*
X104965000Y-20931190D02*
X105012619Y-20835952D01*
X105060238Y-20788333D01*
X105155476Y-20740714D01*
X105250714Y-20740714D01*
X82852142Y-20883571D02*
X83185476Y-20883571D01*
X83328333Y-21407380D02*
X82852142Y-21407380D01*
X82852142Y-20407380D01*
X83328333Y-20407380D01*
X84280714Y-21407380D02*
X83709285Y-21407380D01*
X83995000Y-21407380D02*
X83995000Y-20407380D01*
X83899761Y-20550238D01*
X83804523Y-20645476D01*
X83709285Y-20693095D01*
X84709285Y-21026428D02*
X85471190Y-21026428D01*
X85899761Y-21359761D02*
X86042619Y-21407380D01*
X86280714Y-21407380D01*
X86375952Y-21359761D01*
X86423571Y-21312142D01*
X86471190Y-21216904D01*
X86471190Y-21121666D01*
X86423571Y-21026428D01*
X86375952Y-20978809D01*
X86280714Y-20931190D01*
X86090238Y-20883571D01*
X85995000Y-20835952D01*
X85947380Y-20788333D01*
X85899761Y-20693095D01*
X85899761Y-20597857D01*
X85947380Y-20502619D01*
X85995000Y-20455000D01*
X86090238Y-20407380D01*
X86328333Y-20407380D01*
X86471190Y-20455000D01*
X86756904Y-20740714D02*
X87137857Y-20740714D01*
X86899761Y-20407380D02*
X86899761Y-21264523D01*
X86947380Y-21359761D01*
X87042619Y-21407380D01*
X87137857Y-21407380D01*
X87852142Y-21359761D02*
X87756904Y-21407380D01*
X87566428Y-21407380D01*
X87471190Y-21359761D01*
X87423571Y-21264523D01*
X87423571Y-20883571D01*
X87471190Y-20788333D01*
X87566428Y-20740714D01*
X87756904Y-20740714D01*
X87852142Y-20788333D01*
X87899761Y-20883571D01*
X87899761Y-20978809D01*
X87423571Y-21074047D01*
X88328333Y-20740714D02*
X88328333Y-21740714D01*
X88328333Y-20788333D02*
X88423571Y-20740714D01*
X88614047Y-20740714D01*
X88709285Y-20788333D01*
X88756904Y-20835952D01*
X88804523Y-20931190D01*
X88804523Y-21216904D01*
X88756904Y-21312142D01*
X88709285Y-21359761D01*
X88614047Y-21407380D01*
X88423571Y-21407380D01*
X88328333Y-21359761D01*
X89233095Y-20740714D02*
X89233095Y-21740714D01*
X89233095Y-20788333D02*
X89328333Y-20740714D01*
X89518809Y-20740714D01*
X89614047Y-20788333D01*
X89661666Y-20835952D01*
X89709285Y-20931190D01*
X89709285Y-21216904D01*
X89661666Y-21312142D01*
X89614047Y-21359761D01*
X89518809Y-21407380D01*
X89328333Y-21407380D01*
X89233095Y-21359761D01*
X90518809Y-21359761D02*
X90423571Y-21407380D01*
X90233095Y-21407380D01*
X90137857Y-21359761D01*
X90090238Y-21264523D01*
X90090238Y-20883571D01*
X90137857Y-20788333D01*
X90233095Y-20740714D01*
X90423571Y-20740714D01*
X90518809Y-20788333D01*
X90566428Y-20883571D01*
X90566428Y-20978809D01*
X90090238Y-21074047D01*
X90995000Y-21407380D02*
X90995000Y-20740714D01*
X90995000Y-20931190D02*
X91042619Y-20835952D01*
X91090238Y-20788333D01*
X91185476Y-20740714D01*
X91280714Y-20740714D01*
X68882142Y-20883571D02*
X69215476Y-20883571D01*
X69358333Y-21407380D02*
X68882142Y-21407380D01*
X68882142Y-20407380D01*
X69358333Y-20407380D01*
X69977380Y-20407380D02*
X70072619Y-20407380D01*
X70167857Y-20455000D01*
X70215476Y-20502619D01*
X70263095Y-20597857D01*
X70310714Y-20788333D01*
X70310714Y-21026428D01*
X70263095Y-21216904D01*
X70215476Y-21312142D01*
X70167857Y-21359761D01*
X70072619Y-21407380D01*
X69977380Y-21407380D01*
X69882142Y-21359761D01*
X69834523Y-21312142D01*
X69786904Y-21216904D01*
X69739285Y-21026428D01*
X69739285Y-20788333D01*
X69786904Y-20597857D01*
X69834523Y-20502619D01*
X69882142Y-20455000D01*
X69977380Y-20407380D01*
X70739285Y-21026428D02*
X71501190Y-21026428D01*
X71929761Y-21359761D02*
X72072619Y-21407380D01*
X72310714Y-21407380D01*
X72405952Y-21359761D01*
X72453571Y-21312142D01*
X72501190Y-21216904D01*
X72501190Y-21121666D01*
X72453571Y-21026428D01*
X72405952Y-20978809D01*
X72310714Y-20931190D01*
X72120238Y-20883571D01*
X72025000Y-20835952D01*
X71977380Y-20788333D01*
X71929761Y-20693095D01*
X71929761Y-20597857D01*
X71977380Y-20502619D01*
X72025000Y-20455000D01*
X72120238Y-20407380D01*
X72358333Y-20407380D01*
X72501190Y-20455000D01*
X72786904Y-20740714D02*
X73167857Y-20740714D01*
X72929761Y-20407380D02*
X72929761Y-21264523D01*
X72977380Y-21359761D01*
X73072619Y-21407380D01*
X73167857Y-21407380D01*
X73882142Y-21359761D02*
X73786904Y-21407380D01*
X73596428Y-21407380D01*
X73501190Y-21359761D01*
X73453571Y-21264523D01*
X73453571Y-20883571D01*
X73501190Y-20788333D01*
X73596428Y-20740714D01*
X73786904Y-20740714D01*
X73882142Y-20788333D01*
X73929761Y-20883571D01*
X73929761Y-20978809D01*
X73453571Y-21074047D01*
X74358333Y-20740714D02*
X74358333Y-21740714D01*
X74358333Y-20788333D02*
X74453571Y-20740714D01*
X74644047Y-20740714D01*
X74739285Y-20788333D01*
X74786904Y-20835952D01*
X74834523Y-20931190D01*
X74834523Y-21216904D01*
X74786904Y-21312142D01*
X74739285Y-21359761D01*
X74644047Y-21407380D01*
X74453571Y-21407380D01*
X74358333Y-21359761D01*
X75263095Y-20740714D02*
X75263095Y-21740714D01*
X75263095Y-20788333D02*
X75358333Y-20740714D01*
X75548809Y-20740714D01*
X75644047Y-20788333D01*
X75691666Y-20835952D01*
X75739285Y-20931190D01*
X75739285Y-21216904D01*
X75691666Y-21312142D01*
X75644047Y-21359761D01*
X75548809Y-21407380D01*
X75358333Y-21407380D01*
X75263095Y-21359761D01*
X76548809Y-21359761D02*
X76453571Y-21407380D01*
X76263095Y-21407380D01*
X76167857Y-21359761D01*
X76120238Y-21264523D01*
X76120238Y-20883571D01*
X76167857Y-20788333D01*
X76263095Y-20740714D01*
X76453571Y-20740714D01*
X76548809Y-20788333D01*
X76596428Y-20883571D01*
X76596428Y-20978809D01*
X76120238Y-21074047D01*
X77025000Y-21407380D02*
X77025000Y-20740714D01*
X77025000Y-20931190D02*
X77072619Y-20835952D01*
X77120238Y-20788333D01*
X77215476Y-20740714D01*
X77310714Y-20740714D01*
X54634285Y-20407380D02*
X55300952Y-20407380D01*
X54634285Y-21407380D01*
X55300952Y-21407380D01*
X55681904Y-21026428D02*
X56443809Y-21026428D01*
X56872380Y-21359761D02*
X57015238Y-21407380D01*
X57253333Y-21407380D01*
X57348571Y-21359761D01*
X57396190Y-21312142D01*
X57443809Y-21216904D01*
X57443809Y-21121666D01*
X57396190Y-21026428D01*
X57348571Y-20978809D01*
X57253333Y-20931190D01*
X57062857Y-20883571D01*
X56967619Y-20835952D01*
X56920000Y-20788333D01*
X56872380Y-20693095D01*
X56872380Y-20597857D01*
X56920000Y-20502619D01*
X56967619Y-20455000D01*
X57062857Y-20407380D01*
X57300952Y-20407380D01*
X57443809Y-20455000D01*
X57729523Y-20740714D02*
X58110476Y-20740714D01*
X57872380Y-20407380D02*
X57872380Y-21264523D01*
X57920000Y-21359761D01*
X58015238Y-21407380D01*
X58110476Y-21407380D01*
X58824761Y-21359761D02*
X58729523Y-21407380D01*
X58539047Y-21407380D01*
X58443809Y-21359761D01*
X58396190Y-21264523D01*
X58396190Y-20883571D01*
X58443809Y-20788333D01*
X58539047Y-20740714D01*
X58729523Y-20740714D01*
X58824761Y-20788333D01*
X58872380Y-20883571D01*
X58872380Y-20978809D01*
X58396190Y-21074047D01*
X59300952Y-20740714D02*
X59300952Y-21740714D01*
X59300952Y-20788333D02*
X59396190Y-20740714D01*
X59586666Y-20740714D01*
X59681904Y-20788333D01*
X59729523Y-20835952D01*
X59777142Y-20931190D01*
X59777142Y-21216904D01*
X59729523Y-21312142D01*
X59681904Y-21359761D01*
X59586666Y-21407380D01*
X59396190Y-21407380D01*
X59300952Y-21359761D01*
X60205714Y-20740714D02*
X60205714Y-21740714D01*
X60205714Y-20788333D02*
X60300952Y-20740714D01*
X60491428Y-20740714D01*
X60586666Y-20788333D01*
X60634285Y-20835952D01*
X60681904Y-20931190D01*
X60681904Y-21216904D01*
X60634285Y-21312142D01*
X60586666Y-21359761D01*
X60491428Y-21407380D01*
X60300952Y-21407380D01*
X60205714Y-21359761D01*
X61491428Y-21359761D02*
X61396190Y-21407380D01*
X61205714Y-21407380D01*
X61110476Y-21359761D01*
X61062857Y-21264523D01*
X61062857Y-20883571D01*
X61110476Y-20788333D01*
X61205714Y-20740714D01*
X61396190Y-20740714D01*
X61491428Y-20788333D01*
X61539047Y-20883571D01*
X61539047Y-20978809D01*
X61062857Y-21074047D01*
X61967619Y-21407380D02*
X61967619Y-20740714D01*
X61967619Y-20931190D02*
X62015238Y-20835952D01*
X62062857Y-20788333D01*
X62158095Y-20740714D01*
X62253333Y-20740714D01*
X40362619Y-20931190D02*
X40362619Y-21407380D01*
X40029285Y-20407380D02*
X40362619Y-20931190D01*
X40695952Y-20407380D01*
X41029285Y-21026428D02*
X41791190Y-21026428D01*
X42219761Y-21359761D02*
X42362619Y-21407380D01*
X42600714Y-21407380D01*
X42695952Y-21359761D01*
X42743571Y-21312142D01*
X42791190Y-21216904D01*
X42791190Y-21121666D01*
X42743571Y-21026428D01*
X42695952Y-20978809D01*
X42600714Y-20931190D01*
X42410238Y-20883571D01*
X42315000Y-20835952D01*
X42267380Y-20788333D01*
X42219761Y-20693095D01*
X42219761Y-20597857D01*
X42267380Y-20502619D01*
X42315000Y-20455000D01*
X42410238Y-20407380D01*
X42648333Y-20407380D01*
X42791190Y-20455000D01*
X43076904Y-20740714D02*
X43457857Y-20740714D01*
X43219761Y-20407380D02*
X43219761Y-21264523D01*
X43267380Y-21359761D01*
X43362619Y-21407380D01*
X43457857Y-21407380D01*
X44172142Y-21359761D02*
X44076904Y-21407380D01*
X43886428Y-21407380D01*
X43791190Y-21359761D01*
X43743571Y-21264523D01*
X43743571Y-20883571D01*
X43791190Y-20788333D01*
X43886428Y-20740714D01*
X44076904Y-20740714D01*
X44172142Y-20788333D01*
X44219761Y-20883571D01*
X44219761Y-20978809D01*
X43743571Y-21074047D01*
X44648333Y-20740714D02*
X44648333Y-21740714D01*
X44648333Y-20788333D02*
X44743571Y-20740714D01*
X44934047Y-20740714D01*
X45029285Y-20788333D01*
X45076904Y-20835952D01*
X45124523Y-20931190D01*
X45124523Y-21216904D01*
X45076904Y-21312142D01*
X45029285Y-21359761D01*
X44934047Y-21407380D01*
X44743571Y-21407380D01*
X44648333Y-21359761D01*
X45553095Y-20740714D02*
X45553095Y-21740714D01*
X45553095Y-20788333D02*
X45648333Y-20740714D01*
X45838809Y-20740714D01*
X45934047Y-20788333D01*
X45981666Y-20835952D01*
X46029285Y-20931190D01*
X46029285Y-21216904D01*
X45981666Y-21312142D01*
X45934047Y-21359761D01*
X45838809Y-21407380D01*
X45648333Y-21407380D01*
X45553095Y-21359761D01*
X46838809Y-21359761D02*
X46743571Y-21407380D01*
X46553095Y-21407380D01*
X46457857Y-21359761D01*
X46410238Y-21264523D01*
X46410238Y-20883571D01*
X46457857Y-20788333D01*
X46553095Y-20740714D01*
X46743571Y-20740714D01*
X46838809Y-20788333D01*
X46886428Y-20883571D01*
X46886428Y-20978809D01*
X46410238Y-21074047D01*
X47315000Y-21407380D02*
X47315000Y-20740714D01*
X47315000Y-20931190D02*
X47362619Y-20835952D01*
X47410238Y-20788333D01*
X47505476Y-20740714D01*
X47600714Y-20740714D01*
X25424285Y-20407380D02*
X26090952Y-21407380D01*
X26090952Y-20407380D02*
X25424285Y-21407380D01*
X26471904Y-21026428D02*
X27233809Y-21026428D01*
X27662380Y-21359761D02*
X27805238Y-21407380D01*
X28043333Y-21407380D01*
X28138571Y-21359761D01*
X28186190Y-21312142D01*
X28233809Y-21216904D01*
X28233809Y-21121666D01*
X28186190Y-21026428D01*
X28138571Y-20978809D01*
X28043333Y-20931190D01*
X27852857Y-20883571D01*
X27757619Y-20835952D01*
X27710000Y-20788333D01*
X27662380Y-20693095D01*
X27662380Y-20597857D01*
X27710000Y-20502619D01*
X27757619Y-20455000D01*
X27852857Y-20407380D01*
X28090952Y-20407380D01*
X28233809Y-20455000D01*
X28519523Y-20740714D02*
X28900476Y-20740714D01*
X28662380Y-20407380D02*
X28662380Y-21264523D01*
X28710000Y-21359761D01*
X28805238Y-21407380D01*
X28900476Y-21407380D01*
X29614761Y-21359761D02*
X29519523Y-21407380D01*
X29329047Y-21407380D01*
X29233809Y-21359761D01*
X29186190Y-21264523D01*
X29186190Y-20883571D01*
X29233809Y-20788333D01*
X29329047Y-20740714D01*
X29519523Y-20740714D01*
X29614761Y-20788333D01*
X29662380Y-20883571D01*
X29662380Y-20978809D01*
X29186190Y-21074047D01*
X30090952Y-20740714D02*
X30090952Y-21740714D01*
X30090952Y-20788333D02*
X30186190Y-20740714D01*
X30376666Y-20740714D01*
X30471904Y-20788333D01*
X30519523Y-20835952D01*
X30567142Y-20931190D01*
X30567142Y-21216904D01*
X30519523Y-21312142D01*
X30471904Y-21359761D01*
X30376666Y-21407380D01*
X30186190Y-21407380D01*
X30090952Y-21359761D01*
X30995714Y-20740714D02*
X30995714Y-21740714D01*
X30995714Y-20788333D02*
X31090952Y-20740714D01*
X31281428Y-20740714D01*
X31376666Y-20788333D01*
X31424285Y-20835952D01*
X31471904Y-20931190D01*
X31471904Y-21216904D01*
X31424285Y-21312142D01*
X31376666Y-21359761D01*
X31281428Y-21407380D01*
X31090952Y-21407380D01*
X30995714Y-21359761D01*
X32281428Y-21359761D02*
X32186190Y-21407380D01*
X31995714Y-21407380D01*
X31900476Y-21359761D01*
X31852857Y-21264523D01*
X31852857Y-20883571D01*
X31900476Y-20788333D01*
X31995714Y-20740714D01*
X32186190Y-20740714D01*
X32281428Y-20788333D01*
X32329047Y-20883571D01*
X32329047Y-20978809D01*
X31852857Y-21074047D01*
X32757619Y-21407380D02*
X32757619Y-20740714D01*
X32757619Y-20931190D02*
X32805238Y-20835952D01*
X32852857Y-20788333D01*
X32948095Y-20740714D01*
X33043333Y-20740714D01*
D11*
X20320000Y-115062000D02*
X15240000Y-109220000D01*
X15240000Y-109220000D02*
X15240000Y-15240000D01*
X115062000Y-115062000D02*
X20320000Y-115062000D01*
X115062000Y-15240000D02*
X115062000Y-115062000D01*
X15240000Y-15240000D02*
X115062000Y-15240000D01*
D12*
X30632400Y-24152400D02*
X30632400Y-44732400D01*
X20472400Y-26822400D02*
X20472400Y-44732400D01*
X19202400Y-24152400D02*
X17802400Y-24152400D01*
X17802400Y-24152400D02*
X17802400Y-25552400D01*
X20472400Y-24152400D02*
X20472400Y-26822400D01*
X20472400Y-26822400D02*
X17802400Y-26822400D01*
X17802400Y-26822400D02*
X17802400Y-44732400D01*
X17802400Y-44732400D02*
X33302400Y-44732400D01*
X33302400Y-44732400D02*
X33302400Y-24152400D01*
X33302400Y-24152400D02*
X20472400Y-24152400D01*
X46634400Y-24152400D02*
X46634400Y-44732400D01*
X36474400Y-26822400D02*
X36474400Y-44732400D01*
X35204400Y-24152400D02*
X33804400Y-24152400D01*
X33804400Y-24152400D02*
X33804400Y-25552400D01*
X36474400Y-24152400D02*
X36474400Y-26822400D01*
X36474400Y-26822400D02*
X33804400Y-26822400D01*
X33804400Y-26822400D02*
X33804400Y-44732400D01*
X33804400Y-44732400D02*
X49304400Y-44732400D01*
X49304400Y-44732400D02*
X49304400Y-24152400D01*
X49304400Y-24152400D02*
X36474400Y-24152400D01*
X62687200Y-24177800D02*
X62687200Y-44757800D01*
X52527200Y-26847800D02*
X52527200Y-44757800D01*
X51257200Y-24177800D02*
X49857200Y-24177800D01*
X49857200Y-24177800D02*
X49857200Y-25577800D01*
X52527200Y-24177800D02*
X52527200Y-26847800D01*
X52527200Y-26847800D02*
X49857200Y-26847800D01*
X49857200Y-26847800D02*
X49857200Y-44757800D01*
X49857200Y-44757800D02*
X65357200Y-44757800D01*
X65357200Y-44757800D02*
X65357200Y-24177800D01*
X65357200Y-24177800D02*
X52527200Y-24177800D01*
X81384600Y-24203200D02*
X68554600Y-24203200D01*
X81384600Y-44783200D02*
X81384600Y-24203200D01*
X65884600Y-44783200D02*
X81384600Y-44783200D01*
X65884600Y-26873200D02*
X65884600Y-44783200D01*
X68554600Y-26873200D02*
X65884600Y-26873200D01*
X68554600Y-24203200D02*
X68554600Y-26873200D01*
X65884600Y-24203200D02*
X65884600Y-25603200D01*
X67284600Y-24203200D02*
X65884600Y-24203200D01*
X68554600Y-26873200D02*
X68554600Y-44783200D01*
X78714600Y-24203200D02*
X78714600Y-44783200D01*
X97335800Y-24203200D02*
X84505800Y-24203200D01*
X97335800Y-44783200D02*
X97335800Y-24203200D01*
X81835800Y-44783200D02*
X97335800Y-44783200D01*
X81835800Y-26873200D02*
X81835800Y-44783200D01*
X84505800Y-26873200D02*
X81835800Y-26873200D01*
X84505800Y-24203200D02*
X84505800Y-26873200D01*
X81835800Y-24203200D02*
X81835800Y-25603200D01*
X83235800Y-24203200D02*
X81835800Y-24203200D01*
X84505800Y-26873200D02*
X84505800Y-44783200D01*
X94665800Y-24203200D02*
X94665800Y-44783200D01*
X113363200Y-24203200D02*
X100533200Y-24203200D01*
X113363200Y-44783200D02*
X113363200Y-24203200D01*
X97863200Y-44783200D02*
X113363200Y-44783200D01*
X97863200Y-26873200D02*
X97863200Y-44783200D01*
X100533200Y-26873200D02*
X97863200Y-26873200D01*
X100533200Y-24203200D02*
X100533200Y-26873200D01*
X97863200Y-24203200D02*
X97863200Y-25603200D01*
X99263200Y-24203200D02*
X97863200Y-24203200D01*
X100533200Y-26873200D02*
X100533200Y-44783200D01*
X110693200Y-24203200D02*
X110693200Y-44783200D01*
X26054000Y-87776000D02*
X26054000Y-90126000D01*
X26054000Y-94596000D02*
X26054000Y-92246000D01*
X31809563Y-94596000D02*
X26054000Y-94596000D01*
X31809563Y-87776000D02*
X26054000Y-87776000D01*
X32874000Y-88840437D02*
X32874000Y-90126000D01*
X32874000Y-93531563D02*
X32874000Y-92246000D01*
X32874000Y-93531563D02*
X31809563Y-94596000D01*
X32874000Y-88840437D02*
X31809563Y-87776000D01*
X33901500Y-93033500D02*
X33114000Y-93033500D01*
X33507750Y-93427250D02*
X33507750Y-92639750D01*
X57430000Y-80746000D02*
X53580000Y-80746000D01*
X46710000Y-80746000D02*
X50560000Y-80746000D01*
X46710000Y-90401563D02*
X46710000Y-80746000D01*
X57430000Y-90401563D02*
X57430000Y-80746000D01*
X56365563Y-91466000D02*
X53580000Y-91466000D01*
X47774437Y-91466000D02*
X50560000Y-91466000D01*
X47774437Y-91466000D02*
X46710000Y-90401563D01*
X56365563Y-91466000D02*
X57430000Y-90401563D01*
X49310000Y-92956000D02*
X49310000Y-91706000D01*
X48685000Y-92331000D02*
X49935000Y-92331000D01*
X55351750Y-76663250D02*
X55351750Y-75875750D01*
X55745500Y-76269500D02*
X54958000Y-76269500D01*
X54718000Y-72076437D02*
X53653563Y-71012000D01*
X54718000Y-76767563D02*
X53653563Y-77832000D01*
X54718000Y-76767563D02*
X54718000Y-75482000D01*
X54718000Y-72076437D02*
X54718000Y-73362000D01*
X53653563Y-71012000D02*
X47898000Y-71012000D01*
X53653563Y-77832000D02*
X47898000Y-77832000D01*
X47898000Y-77832000D02*
X47898000Y-75482000D01*
X47898000Y-71012000D02*
X47898000Y-73362000D01*
X38246000Y-53486000D02*
X38246000Y-55836000D01*
X38246000Y-60306000D02*
X38246000Y-57956000D01*
X44001563Y-60306000D02*
X38246000Y-60306000D01*
X44001563Y-53486000D02*
X38246000Y-53486000D01*
X45066000Y-54550437D02*
X45066000Y-55836000D01*
X45066000Y-59241563D02*
X45066000Y-57956000D01*
X45066000Y-59241563D02*
X44001563Y-60306000D01*
X45066000Y-54550437D02*
X44001563Y-53486000D01*
X46093500Y-58743500D02*
X45306000Y-58743500D01*
X45699750Y-59137250D02*
X45699750Y-58349750D01*
X43016000Y-63913936D02*
X43016000Y-65118064D01*
X40296000Y-63913936D02*
X40296000Y-65118064D01*
X39972064Y-104304000D02*
X38767936Y-104304000D01*
X39972064Y-107024000D02*
X38767936Y-107024000D01*
X32290936Y-82968000D02*
X33495064Y-82968000D01*
X32290936Y-85688000D02*
X33495064Y-85688000D01*
X32290936Y-81116000D02*
X33495064Y-81116000D01*
X32290936Y-78396000D02*
X33495064Y-78396000D01*
X32290936Y-73824000D02*
X33495064Y-73824000D01*
X32290936Y-76544000D02*
X33495064Y-76544000D01*
X32293936Y-71972000D02*
X33498064Y-71972000D01*
X32293936Y-69252000D02*
X33498064Y-69252000D01*
X29013200Y-24428400D02*
X26663200Y-24428400D01*
X22193200Y-24428400D02*
X24543200Y-24428400D01*
X22193200Y-30183963D02*
X22193200Y-24428400D01*
X29013200Y-30183963D02*
X29013200Y-24428400D01*
X27948763Y-31248400D02*
X26663200Y-31248400D01*
X23257637Y-31248400D02*
X24543200Y-31248400D01*
X23257637Y-31248400D02*
X22193200Y-30183963D01*
X27948763Y-31248400D02*
X29013200Y-30183963D01*
X23755700Y-32275900D02*
X23755700Y-31488400D01*
X23361950Y-31882150D02*
X24149450Y-31882150D01*
X39363950Y-31889750D02*
X40151450Y-31889750D01*
X39757700Y-32283500D02*
X39757700Y-31496000D01*
X43950763Y-31256000D02*
X45015200Y-30191563D01*
X39259637Y-31256000D02*
X38195200Y-30191563D01*
X39259637Y-31256000D02*
X40545200Y-31256000D01*
X43950763Y-31256000D02*
X42665200Y-31256000D01*
X45015200Y-30191563D02*
X45015200Y-24436000D01*
X38195200Y-30191563D02*
X38195200Y-24436000D01*
X38195200Y-24436000D02*
X40545200Y-24436000D01*
X45015200Y-24436000D02*
X42665200Y-24436000D01*
X61118800Y-24504600D02*
X58768800Y-24504600D01*
X54298800Y-24504600D02*
X56648800Y-24504600D01*
X54298800Y-30260163D02*
X54298800Y-24504600D01*
X61118800Y-30260163D02*
X61118800Y-24504600D01*
X60054363Y-31324600D02*
X58768800Y-31324600D01*
X55363237Y-31324600D02*
X56648800Y-31324600D01*
X55363237Y-31324600D02*
X54298800Y-30260163D01*
X60054363Y-31324600D02*
X61118800Y-30260163D01*
X55861300Y-32352100D02*
X55861300Y-31564600D01*
X55467550Y-31958350D02*
X56255050Y-31958350D01*
X71418750Y-31983750D02*
X72206250Y-31983750D01*
X71812500Y-32377500D02*
X71812500Y-31590000D01*
X76005563Y-31350000D02*
X77070000Y-30285563D01*
X71314437Y-31350000D02*
X70250000Y-30285563D01*
X71314437Y-31350000D02*
X72600000Y-31350000D01*
X76005563Y-31350000D02*
X74720000Y-31350000D01*
X77070000Y-30285563D02*
X77070000Y-24530000D01*
X70250000Y-30285563D02*
X70250000Y-24530000D01*
X70250000Y-24530000D02*
X72600000Y-24530000D01*
X77070000Y-24530000D02*
X74720000Y-24530000D01*
X92945000Y-24530000D02*
X90595000Y-24530000D01*
X86125000Y-24530000D02*
X88475000Y-24530000D01*
X86125000Y-30285563D02*
X86125000Y-24530000D01*
X92945000Y-30285563D02*
X92945000Y-24530000D01*
X91880563Y-31350000D02*
X90595000Y-31350000D01*
X87189437Y-31350000D02*
X88475000Y-31350000D01*
X87189437Y-31350000D02*
X86125000Y-30285563D01*
X91880563Y-31350000D02*
X92945000Y-30285563D01*
X87687500Y-32377500D02*
X87687500Y-31590000D01*
X87293750Y-31983750D02*
X88081250Y-31983750D01*
X103422750Y-31983750D02*
X104210250Y-31983750D01*
X103816500Y-32377500D02*
X103816500Y-31590000D01*
X108009563Y-31350000D02*
X109074000Y-30285563D01*
X103318437Y-31350000D02*
X102254000Y-30285563D01*
X103318437Y-31350000D02*
X104604000Y-31350000D01*
X108009563Y-31350000D02*
X106724000Y-31350000D01*
X109074000Y-30285563D02*
X109074000Y-24530000D01*
X102254000Y-30285563D02*
X102254000Y-24530000D01*
X102254000Y-24530000D02*
X104604000Y-24530000D01*
X109074000Y-24530000D02*
X106724000Y-24530000D01*
X40168000Y-83582000D02*
X44068000Y-83582000D01*
X40168000Y-85582000D02*
X44068000Y-85582000D01*
X40168000Y-83582000D02*
X40168000Y-85582000D01*
X21935000Y-97520000D02*
X18035000Y-97520000D01*
X21935000Y-95520000D02*
X18035000Y-95520000D01*
X21935000Y-97520000D02*
X21935000Y-95520000D01*
X81498000Y-101330000D02*
X81498000Y-99330000D01*
X81498000Y-99330000D02*
X77598000Y-99330000D01*
X81498000Y-101330000D02*
X77598000Y-101330000D01*
X94706000Y-101584000D02*
X90806000Y-101584000D01*
X94706000Y-99584000D02*
X90806000Y-99584000D01*
X94706000Y-101584000D02*
X94706000Y-99584000D01*
X66766000Y-101203000D02*
X66766000Y-99203000D01*
X66766000Y-99203000D02*
X62866000Y-99203000D01*
X66766000Y-101203000D02*
X62866000Y-101203000D01*
X113375000Y-91728800D02*
X113375000Y-89728800D01*
X113375000Y-89728800D02*
X109475000Y-89728800D01*
X113375000Y-91728800D02*
X109475000Y-91728800D01*
X39456000Y-96568000D02*
X44036000Y-96568000D01*
X30246000Y-96568000D02*
X37816000Y-96568000D01*
X24036000Y-102568000D02*
X24036000Y-96568000D01*
X44036000Y-102568000D02*
X24036000Y-102568000D01*
X44036000Y-96568000D02*
X44036000Y-102568000D01*
X24036000Y-96568000D02*
X28626000Y-96568000D01*
X99546000Y-102936000D02*
X99546000Y-98346000D01*
X99546000Y-82936000D02*
X105546000Y-82936000D01*
X105546000Y-82936000D02*
X105546000Y-102936000D01*
X105546000Y-102936000D02*
X99546000Y-102936000D01*
X99546000Y-96726000D02*
X99546000Y-89156000D01*
X99546000Y-87516000D02*
X99546000Y-82936000D01*
X58360000Y-72450000D02*
X63560000Y-72450000D01*
X58360000Y-69850000D02*
X58360000Y-72450000D01*
X63560000Y-67250000D02*
X63560000Y-72450000D01*
X58360000Y-69850000D02*
X60960000Y-69850000D01*
X60960000Y-69850000D02*
X60960000Y-67250000D01*
X60960000Y-67250000D02*
X63560000Y-67250000D01*
X58360000Y-68580000D02*
X58360000Y-67250000D01*
X58360000Y-67250000D02*
X59690000Y-67250000D01*
X36822000Y-112292000D02*
X34822000Y-112292000D01*
X36822000Y-111042000D02*
X36822000Y-112292000D01*
X27202000Y-105292000D02*
X27952000Y-105292000D01*
X27202000Y-109592000D02*
X27202000Y-105292000D01*
X27952000Y-109592000D02*
X27202000Y-109592000D01*
X27952000Y-109942000D02*
X27952000Y-109592000D01*
X27452000Y-109942000D02*
X27952000Y-109942000D01*
X27202000Y-110942000D02*
X27452000Y-109942000D01*
X30202000Y-110942000D02*
X27202000Y-110942000D01*
X29952000Y-109942000D02*
X30202000Y-110942000D01*
X29452000Y-109942000D02*
X29952000Y-109942000D01*
X29452000Y-109592000D02*
X29452000Y-109942000D01*
X30202000Y-109592000D02*
X29452000Y-109592000D01*
X30202000Y-105292000D02*
X30202000Y-109592000D01*
X29452000Y-105292000D02*
X30202000Y-105292000D01*
X32282000Y-105292000D02*
X33032000Y-105292000D01*
X32282000Y-109592000D02*
X32282000Y-105292000D01*
X33032000Y-109592000D02*
X32282000Y-109592000D01*
X33032000Y-109942000D02*
X33032000Y-109592000D01*
X32532000Y-109942000D02*
X33032000Y-109942000D01*
X32282000Y-110942000D02*
X32532000Y-109942000D01*
X35282000Y-110942000D02*
X32282000Y-110942000D01*
X35032000Y-109942000D02*
X35282000Y-110942000D01*
X34532000Y-109942000D02*
X35032000Y-109942000D01*
X34532000Y-109592000D02*
X34532000Y-109942000D01*
X35282000Y-109592000D02*
X34532000Y-109592000D01*
X35282000Y-105292000D02*
X35282000Y-109592000D01*
X34532000Y-105292000D02*
X35282000Y-105292000D01*
X26052000Y-111902000D02*
X36432000Y-111902000D01*
X26052000Y-104432000D02*
X26052000Y-111902000D01*
X36432000Y-104432000D02*
X26052000Y-104432000D01*
X36432000Y-111902000D02*
X36432000Y-104432000D01*
X27952353Y-105292155D02*
G75*
G03X29452000Y-105292000I749647J1700155D01*
G01*
X33032353Y-105292155D02*
G75*
G03X34532000Y-105292000I749647J1700155D01*
G01*
X107755955Y-98107847D02*
G75*
G03X107755800Y-96608200I-1700155J749647D01*
G01*
X107755955Y-103187847D02*
G75*
G03X107755800Y-101688200I-1700155J749647D01*
G01*
X114365800Y-94708200D02*
X106895800Y-94708200D01*
X106895800Y-94708200D02*
X106895800Y-105088200D01*
X106895800Y-105088200D02*
X114365800Y-105088200D01*
X114365800Y-105088200D02*
X114365800Y-94708200D01*
X107755800Y-96608200D02*
X107755800Y-95858200D01*
X107755800Y-95858200D02*
X112055800Y-95858200D01*
X112055800Y-95858200D02*
X112055800Y-96608200D01*
X112055800Y-96608200D02*
X112405800Y-96608200D01*
X112405800Y-96608200D02*
X112405800Y-96108200D01*
X112405800Y-96108200D02*
X113405800Y-95858200D01*
X113405800Y-95858200D02*
X113405800Y-98858200D01*
X113405800Y-98858200D02*
X112405800Y-98608200D01*
X112405800Y-98608200D02*
X112405800Y-98108200D01*
X112405800Y-98108200D02*
X112055800Y-98108200D01*
X112055800Y-98108200D02*
X112055800Y-98858200D01*
X112055800Y-98858200D02*
X107755800Y-98858200D01*
X107755800Y-98858200D02*
X107755800Y-98108200D01*
X107755800Y-101688200D02*
X107755800Y-100938200D01*
X107755800Y-100938200D02*
X112055800Y-100938200D01*
X112055800Y-100938200D02*
X112055800Y-101688200D01*
X112055800Y-101688200D02*
X112405800Y-101688200D01*
X112405800Y-101688200D02*
X112405800Y-101188200D01*
X112405800Y-101188200D02*
X113405800Y-100938200D01*
X113405800Y-100938200D02*
X113405800Y-103938200D01*
X113405800Y-103938200D02*
X112405800Y-103688200D01*
X112405800Y-103688200D02*
X112405800Y-103188200D01*
X112405800Y-103188200D02*
X112055800Y-103188200D01*
X112055800Y-103188200D02*
X112055800Y-103938200D01*
X112055800Y-103938200D02*
X107755800Y-103938200D01*
X107755800Y-103938200D02*
X107755800Y-103188200D01*
X113505800Y-94318200D02*
X114755800Y-94318200D01*
X114755800Y-94318200D02*
X114755800Y-96318200D01*
X66560353Y-104403155D02*
G75*
G03X68060000Y-104403000I749647J1700155D01*
G01*
X61480353Y-104403155D02*
G75*
G03X62980000Y-104403000I749647J1700155D01*
G01*
X69960000Y-111013000D02*
X69960000Y-103543000D01*
X69960000Y-103543000D02*
X59580000Y-103543000D01*
X59580000Y-103543000D02*
X59580000Y-111013000D01*
X59580000Y-111013000D02*
X69960000Y-111013000D01*
X68060000Y-104403000D02*
X68810000Y-104403000D01*
X68810000Y-104403000D02*
X68810000Y-108703000D01*
X68810000Y-108703000D02*
X68060000Y-108703000D01*
X68060000Y-108703000D02*
X68060000Y-109053000D01*
X68060000Y-109053000D02*
X68560000Y-109053000D01*
X68560000Y-109053000D02*
X68810000Y-110053000D01*
X68810000Y-110053000D02*
X65810000Y-110053000D01*
X65810000Y-110053000D02*
X66060000Y-109053000D01*
X66060000Y-109053000D02*
X66560000Y-109053000D01*
X66560000Y-109053000D02*
X66560000Y-108703000D01*
X66560000Y-108703000D02*
X65810000Y-108703000D01*
X65810000Y-108703000D02*
X65810000Y-104403000D01*
X65810000Y-104403000D02*
X66560000Y-104403000D01*
X62980000Y-104403000D02*
X63730000Y-104403000D01*
X63730000Y-104403000D02*
X63730000Y-108703000D01*
X63730000Y-108703000D02*
X62980000Y-108703000D01*
X62980000Y-108703000D02*
X62980000Y-109053000D01*
X62980000Y-109053000D02*
X63480000Y-109053000D01*
X63480000Y-109053000D02*
X63730000Y-110053000D01*
X63730000Y-110053000D02*
X60730000Y-110053000D01*
X60730000Y-110053000D02*
X60980000Y-109053000D01*
X60980000Y-109053000D02*
X61480000Y-109053000D01*
X61480000Y-109053000D02*
X61480000Y-108703000D01*
X61480000Y-108703000D02*
X60730000Y-108703000D01*
X60730000Y-108703000D02*
X60730000Y-104403000D01*
X60730000Y-104403000D02*
X61480000Y-104403000D01*
X70350000Y-110153000D02*
X70350000Y-111403000D01*
X70350000Y-111403000D02*
X68350000Y-111403000D01*
X84828000Y-111403000D02*
X82828000Y-111403000D01*
X84828000Y-110153000D02*
X84828000Y-111403000D01*
X75208000Y-104403000D02*
X75958000Y-104403000D01*
X75208000Y-108703000D02*
X75208000Y-104403000D01*
X75958000Y-108703000D02*
X75208000Y-108703000D01*
X75958000Y-109053000D02*
X75958000Y-108703000D01*
X75458000Y-109053000D02*
X75958000Y-109053000D01*
X75208000Y-110053000D02*
X75458000Y-109053000D01*
X78208000Y-110053000D02*
X75208000Y-110053000D01*
X77958000Y-109053000D02*
X78208000Y-110053000D01*
X77458000Y-109053000D02*
X77958000Y-109053000D01*
X77458000Y-108703000D02*
X77458000Y-109053000D01*
X78208000Y-108703000D02*
X77458000Y-108703000D01*
X78208000Y-104403000D02*
X78208000Y-108703000D01*
X77458000Y-104403000D02*
X78208000Y-104403000D01*
X80288000Y-104403000D02*
X81038000Y-104403000D01*
X80288000Y-108703000D02*
X80288000Y-104403000D01*
X81038000Y-108703000D02*
X80288000Y-108703000D01*
X81038000Y-109053000D02*
X81038000Y-108703000D01*
X80538000Y-109053000D02*
X81038000Y-109053000D01*
X80288000Y-110053000D02*
X80538000Y-109053000D01*
X83288000Y-110053000D02*
X80288000Y-110053000D01*
X83038000Y-109053000D02*
X83288000Y-110053000D01*
X82538000Y-109053000D02*
X83038000Y-109053000D01*
X82538000Y-108703000D02*
X82538000Y-109053000D01*
X83288000Y-108703000D02*
X82538000Y-108703000D01*
X83288000Y-104403000D02*
X83288000Y-108703000D01*
X82538000Y-104403000D02*
X83288000Y-104403000D01*
X74058000Y-111013000D02*
X84438000Y-111013000D01*
X74058000Y-103543000D02*
X74058000Y-111013000D01*
X84438000Y-103543000D02*
X74058000Y-103543000D01*
X84438000Y-111013000D02*
X84438000Y-103543000D01*
X75958353Y-104403155D02*
G75*
G03X77458000Y-104403000I749647J1700155D01*
G01*
X81038353Y-104403155D02*
G75*
G03X82538000Y-104403000I749647J1700155D01*
G01*
X98798000Y-111403000D02*
X96798000Y-111403000D01*
X98798000Y-110153000D02*
X98798000Y-111403000D01*
X89178000Y-104403000D02*
X89928000Y-104403000D01*
X89178000Y-108703000D02*
X89178000Y-104403000D01*
X89928000Y-108703000D02*
X89178000Y-108703000D01*
X89928000Y-109053000D02*
X89928000Y-108703000D01*
X89428000Y-109053000D02*
X89928000Y-109053000D01*
X89178000Y-110053000D02*
X89428000Y-109053000D01*
X92178000Y-110053000D02*
X89178000Y-110053000D01*
X91928000Y-109053000D02*
X92178000Y-110053000D01*
X91428000Y-109053000D02*
X91928000Y-109053000D01*
X91428000Y-108703000D02*
X91428000Y-109053000D01*
X92178000Y-108703000D02*
X91428000Y-108703000D01*
X92178000Y-104403000D02*
X92178000Y-108703000D01*
X91428000Y-104403000D02*
X92178000Y-104403000D01*
X94258000Y-104403000D02*
X95008000Y-104403000D01*
X94258000Y-108703000D02*
X94258000Y-104403000D01*
X95008000Y-108703000D02*
X94258000Y-108703000D01*
X95008000Y-109053000D02*
X95008000Y-108703000D01*
X94508000Y-109053000D02*
X95008000Y-109053000D01*
X94258000Y-110053000D02*
X94508000Y-109053000D01*
X97258000Y-110053000D02*
X94258000Y-110053000D01*
X97008000Y-109053000D02*
X97258000Y-110053000D01*
X96508000Y-109053000D02*
X97008000Y-109053000D01*
X96508000Y-108703000D02*
X96508000Y-109053000D01*
X97258000Y-108703000D02*
X96508000Y-108703000D01*
X97258000Y-104403000D02*
X97258000Y-108703000D01*
X96508000Y-104403000D02*
X97258000Y-104403000D01*
X88028000Y-111013000D02*
X98408000Y-111013000D01*
X88028000Y-103543000D02*
X88028000Y-111013000D01*
X98408000Y-103543000D02*
X88028000Y-103543000D01*
X98408000Y-111013000D02*
X98408000Y-103543000D01*
X89928353Y-104403155D02*
G75*
G03X91428000Y-104403000I749647J1700155D01*
G01*
X95008353Y-104403155D02*
G75*
G03X96508000Y-104403000I749647J1700155D01*
G01*
X16958000Y-99508000D02*
X16958000Y-102168000D01*
X19558000Y-99508000D02*
X16958000Y-99508000D01*
X19558000Y-102168000D02*
X16958000Y-102168000D01*
X19558000Y-99508000D02*
X19558000Y-102168000D01*
X20828000Y-99508000D02*
X22158000Y-99508000D01*
X22158000Y-99508000D02*
X22158000Y-100838000D01*
X26254400Y-34357000D02*
X27584400Y-34357000D01*
X26254400Y-35687000D02*
X26254400Y-34357000D01*
X26254400Y-36957000D02*
X28914400Y-36957000D01*
X28914400Y-36957000D02*
X28914400Y-42097000D01*
X26254400Y-36957000D02*
X26254400Y-42097000D01*
X26254400Y-42097000D02*
X28914400Y-42097000D01*
X107578155Y-80251647D02*
G75*
G03X107578000Y-78752000I-1700155J749647D01*
G01*
X107578155Y-85331647D02*
G75*
G03X107578000Y-83832000I-1700155J749647D01*
G01*
X114188000Y-76852000D02*
X106718000Y-76852000D01*
X106718000Y-76852000D02*
X106718000Y-87232000D01*
X106718000Y-87232000D02*
X114188000Y-87232000D01*
X114188000Y-87232000D02*
X114188000Y-76852000D01*
X107578000Y-78752000D02*
X107578000Y-78002000D01*
X107578000Y-78002000D02*
X111878000Y-78002000D01*
X111878000Y-78002000D02*
X111878000Y-78752000D01*
X111878000Y-78752000D02*
X112228000Y-78752000D01*
X112228000Y-78752000D02*
X112228000Y-78252000D01*
X112228000Y-78252000D02*
X113228000Y-78002000D01*
X113228000Y-78002000D02*
X113228000Y-81002000D01*
X113228000Y-81002000D02*
X112228000Y-80752000D01*
X112228000Y-80752000D02*
X112228000Y-80252000D01*
X112228000Y-80252000D02*
X111878000Y-80252000D01*
X111878000Y-80252000D02*
X111878000Y-81002000D01*
X111878000Y-81002000D02*
X107578000Y-81002000D01*
X107578000Y-81002000D02*
X107578000Y-80252000D01*
X107578000Y-83832000D02*
X107578000Y-83082000D01*
X107578000Y-83082000D02*
X111878000Y-83082000D01*
X111878000Y-83082000D02*
X111878000Y-83832000D01*
X111878000Y-83832000D02*
X112228000Y-83832000D01*
X112228000Y-83832000D02*
X112228000Y-83332000D01*
X112228000Y-83332000D02*
X113228000Y-83082000D01*
X113228000Y-83082000D02*
X113228000Y-86082000D01*
X113228000Y-86082000D02*
X112228000Y-85832000D01*
X112228000Y-85832000D02*
X112228000Y-85332000D01*
X112228000Y-85332000D02*
X111878000Y-85332000D01*
X111878000Y-85332000D02*
X111878000Y-86082000D01*
X111878000Y-86082000D02*
X107578000Y-86082000D01*
X107578000Y-86082000D02*
X107578000Y-85332000D01*
X113328000Y-76462000D02*
X114578000Y-76462000D01*
X114578000Y-76462000D02*
X114578000Y-78462000D01*
X23714400Y-42097000D02*
X26374400Y-42097000D01*
X23714400Y-36957000D02*
X23714400Y-42097000D01*
X26374400Y-36957000D02*
X26374400Y-42097000D01*
X23714400Y-36957000D02*
X26374400Y-36957000D01*
X23714400Y-35687000D02*
X23714400Y-34357000D01*
X23714400Y-34357000D02*
X25044400Y-34357000D01*
X105553200Y-58581600D02*
X105553200Y-57251600D01*
X106883200Y-58581600D02*
X105553200Y-58581600D01*
X108153200Y-58581600D02*
X108153200Y-55921600D01*
X108153200Y-55921600D02*
X113293200Y-55921600D01*
X108153200Y-58581600D02*
X113293200Y-58581600D01*
X113293200Y-58581600D02*
X113293200Y-55921600D01*
X105553200Y-54898600D02*
X105553200Y-53568600D01*
X106883200Y-54898600D02*
X105553200Y-54898600D01*
X108153200Y-54898600D02*
X108153200Y-52238600D01*
X108153200Y-52238600D02*
X113293200Y-52238600D01*
X108153200Y-54898600D02*
X113293200Y-54898600D01*
X113293200Y-54898600D02*
X113293200Y-52238600D01*
X113293200Y-65947600D02*
X113293200Y-63287600D01*
X108153200Y-65947600D02*
X113293200Y-65947600D01*
X108153200Y-63287600D02*
X113293200Y-63287600D01*
X108153200Y-65947600D02*
X108153200Y-63287600D01*
X106883200Y-65947600D02*
X105553200Y-65947600D01*
X105553200Y-65947600D02*
X105553200Y-64617600D01*
X105553200Y-62264600D02*
X105553200Y-60934600D01*
X106883200Y-62264600D02*
X105553200Y-62264600D01*
X108153200Y-62264600D02*
X108153200Y-59604600D01*
X108153200Y-59604600D02*
X113293200Y-59604600D01*
X108153200Y-62264600D02*
X113293200Y-62264600D01*
X113293200Y-62264600D02*
X113293200Y-59604600D01*
X105553200Y-73313600D02*
X105553200Y-71983600D01*
X106883200Y-73313600D02*
X105553200Y-73313600D01*
X108153200Y-73313600D02*
X108153200Y-70653600D01*
X108153200Y-70653600D02*
X113293200Y-70653600D01*
X108153200Y-73313600D02*
X113293200Y-73313600D01*
X113293200Y-73313600D02*
X113293200Y-70653600D01*
X113293200Y-69630600D02*
X113293200Y-66970600D01*
X108153200Y-69630600D02*
X113293200Y-69630600D01*
X108153200Y-66970600D02*
X113293200Y-66970600D01*
X108153200Y-69630600D02*
X108153200Y-66970600D01*
X106883200Y-69630600D02*
X105553200Y-69630600D01*
X105553200Y-69630600D02*
X105553200Y-68300600D01*
X23428000Y-72330000D02*
X18228000Y-72330000D01*
X23428000Y-80010000D02*
X23428000Y-72330000D01*
X18228000Y-82610000D02*
X18228000Y-72330000D01*
X23428000Y-80010000D02*
X20828000Y-80010000D01*
X20828000Y-80010000D02*
X20828000Y-82610000D01*
X20828000Y-82610000D02*
X18228000Y-82610000D01*
X23428000Y-81280000D02*
X23428000Y-82610000D01*
X23428000Y-82610000D02*
X22098000Y-82610000D01*
X32064000Y-55439000D02*
X29404000Y-55439000D01*
X32064000Y-63119000D02*
X32064000Y-55439000D01*
X29404000Y-63119000D02*
X29404000Y-55439000D01*
X32064000Y-63119000D02*
X29404000Y-63119000D01*
X32064000Y-64389000D02*
X32064000Y-65719000D01*
X32064000Y-65719000D02*
X30734000Y-65719000D01*
X42408800Y-34407800D02*
X43738800Y-34407800D01*
X42408800Y-35737800D02*
X42408800Y-34407800D01*
X42408800Y-37007800D02*
X45068800Y-37007800D01*
X45068800Y-37007800D02*
X45068800Y-42147800D01*
X42408800Y-37007800D02*
X42408800Y-42147800D01*
X42408800Y-42147800D02*
X45068800Y-42147800D01*
X42478000Y-72584000D02*
X37278000Y-72584000D01*
X42478000Y-77724000D02*
X42478000Y-72584000D01*
X37278000Y-80324000D02*
X37278000Y-72584000D01*
X42478000Y-77724000D02*
X39878000Y-77724000D01*
X39878000Y-77724000D02*
X39878000Y-80324000D01*
X39878000Y-80324000D02*
X37278000Y-80324000D01*
X42478000Y-78994000D02*
X42478000Y-80324000D01*
X42478000Y-80324000D02*
X41148000Y-80324000D01*
X25508001Y-67497000D02*
X25508001Y-64837000D01*
X20368001Y-67497000D02*
X25508001Y-67497000D01*
X20368001Y-64837000D02*
X25508001Y-64837000D01*
X20368001Y-67497000D02*
X20368001Y-64837000D01*
X19098001Y-67497000D02*
X17768001Y-67497000D01*
X17768001Y-67497000D02*
X17768001Y-66167000D01*
X25508001Y-56448000D02*
X25508001Y-53788000D01*
X20368001Y-56448000D02*
X25508001Y-56448000D01*
X20368001Y-53788000D02*
X25508001Y-53788000D01*
X20368001Y-56448000D02*
X20368001Y-53788000D01*
X19098001Y-56448000D02*
X17768001Y-56448000D01*
X17768001Y-56448000D02*
X17768001Y-55118000D01*
X17768001Y-60131000D02*
X17768001Y-58801000D01*
X19098001Y-60131000D02*
X17768001Y-60131000D01*
X20368001Y-60131000D02*
X20368001Y-57471000D01*
X20368001Y-57471000D02*
X25508001Y-57471000D01*
X20368001Y-60131000D02*
X25508001Y-60131000D01*
X25508001Y-60131000D02*
X25508001Y-57471000D01*
X25508001Y-63799999D02*
X25508001Y-61139999D01*
X20368001Y-63799999D02*
X25508001Y-63799999D01*
X20368001Y-61139999D02*
X25508001Y-61139999D01*
X20368001Y-63799999D02*
X20368001Y-61139999D01*
X19098001Y-63799999D02*
X17768001Y-63799999D01*
X17768001Y-63799999D02*
X17768001Y-62469999D01*
X39868800Y-42147800D02*
X42528800Y-42147800D01*
X39868800Y-37007800D02*
X39868800Y-42147800D01*
X42528800Y-37007800D02*
X42528800Y-42147800D01*
X39868800Y-37007800D02*
X42528800Y-37007800D01*
X39868800Y-35737800D02*
X39868800Y-34407800D01*
X39868800Y-34407800D02*
X41198800Y-34407800D01*
X81975000Y-74355000D02*
X81975000Y-71695000D01*
X71755000Y-74355000D02*
X81975000Y-74355000D01*
X71755000Y-71695000D02*
X81975000Y-71695000D01*
X71755000Y-74355000D02*
X71755000Y-71695000D01*
X70485000Y-74355000D02*
X69155000Y-74355000D01*
X69155000Y-74355000D02*
X69155000Y-73025000D01*
X101914000Y-60664400D02*
X100584000Y-60664400D01*
X101914000Y-59334400D02*
X101914000Y-60664400D01*
X99314000Y-60664400D02*
X96714000Y-60664400D01*
X99314000Y-58064400D02*
X99314000Y-60664400D01*
X101914000Y-58064400D02*
X99314000Y-58064400D01*
X96714000Y-60664400D02*
X96714000Y-52924400D01*
X101914000Y-58064400D02*
X101914000Y-52924400D01*
X101914000Y-52924400D02*
X96714000Y-52924400D01*
X58487000Y-34382400D02*
X59817000Y-34382400D01*
X58487000Y-35712400D02*
X58487000Y-34382400D01*
X58487000Y-36982400D02*
X61147000Y-36982400D01*
X61147000Y-36982400D02*
X61147000Y-42122400D01*
X58487000Y-36982400D02*
X58487000Y-42122400D01*
X58487000Y-42122400D02*
X61147000Y-42122400D01*
X55947000Y-42122400D02*
X58607000Y-42122400D01*
X55947000Y-36982400D02*
X55947000Y-42122400D01*
X58607000Y-36982400D02*
X58607000Y-42122400D01*
X55947000Y-36982400D02*
X58607000Y-36982400D01*
X55947000Y-35712400D02*
X55947000Y-34382400D01*
X55947000Y-34382400D02*
X57277000Y-34382400D01*
X74514400Y-34433200D02*
X75844400Y-34433200D01*
X74514400Y-35763200D02*
X74514400Y-34433200D01*
X74514400Y-37033200D02*
X77174400Y-37033200D01*
X77174400Y-37033200D02*
X77174400Y-42173200D01*
X74514400Y-37033200D02*
X74514400Y-42173200D01*
X74514400Y-42173200D02*
X77174400Y-42173200D01*
X71974400Y-42173200D02*
X74634400Y-42173200D01*
X71974400Y-37033200D02*
X71974400Y-42173200D01*
X74634400Y-37033200D02*
X74634400Y-42173200D01*
X71974400Y-37033200D02*
X74634400Y-37033200D01*
X71974400Y-35763200D02*
X71974400Y-34433200D01*
X71974400Y-34433200D02*
X73304400Y-34433200D01*
X24070000Y-19872000D02*
X24070000Y-18542000D01*
X25400000Y-19872000D02*
X24070000Y-19872000D01*
X26670000Y-19872000D02*
X26670000Y-17212000D01*
X26670000Y-17212000D02*
X34350000Y-17212000D01*
X26670000Y-19872000D02*
X34350000Y-19872000D01*
X34350000Y-19872000D02*
X34350000Y-17212000D01*
X44764000Y-46930000D02*
X44764000Y-48260000D01*
X43434000Y-46930000D02*
X44764000Y-46930000D01*
X42164000Y-46930000D02*
X42164000Y-49590000D01*
X42164000Y-49590000D02*
X37024000Y-49590000D01*
X42164000Y-46930000D02*
X37024000Y-46930000D01*
X37024000Y-46930000D02*
X37024000Y-49590000D01*
X90110000Y-34433200D02*
X91440000Y-34433200D01*
X90110000Y-35763200D02*
X90110000Y-34433200D01*
X90110000Y-37033200D02*
X92770000Y-37033200D01*
X92770000Y-37033200D02*
X92770000Y-42173200D01*
X90110000Y-37033200D02*
X90110000Y-42173200D01*
X90110000Y-42173200D02*
X92770000Y-42173200D01*
X61020000Y-46930000D02*
X61020000Y-48260000D01*
X59690000Y-46930000D02*
X61020000Y-46930000D01*
X58420000Y-46930000D02*
X58420000Y-49590000D01*
X58420000Y-49590000D02*
X53280000Y-49590000D01*
X58420000Y-46930000D02*
X53280000Y-46930000D01*
X53280000Y-46930000D02*
X53280000Y-49590000D01*
X87570000Y-42173200D02*
X90230000Y-42173200D01*
X87570000Y-37033200D02*
X87570000Y-42173200D01*
X90230000Y-37033200D02*
X90230000Y-42173200D01*
X87570000Y-37033200D02*
X90230000Y-37033200D01*
X87570000Y-35763200D02*
X87570000Y-34433200D01*
X87570000Y-34433200D02*
X88900000Y-34433200D01*
X106467600Y-34433200D02*
X107797600Y-34433200D01*
X106467600Y-35763200D02*
X106467600Y-34433200D01*
X106467600Y-37033200D02*
X109127600Y-37033200D01*
X109127600Y-37033200D02*
X109127600Y-42173200D01*
X106467600Y-37033200D02*
X106467600Y-42173200D01*
X106467600Y-42173200D02*
X109127600Y-42173200D01*
X48955000Y-19872000D02*
X48955000Y-17212000D01*
X41275000Y-19872000D02*
X48955000Y-19872000D01*
X41275000Y-17212000D02*
X48955000Y-17212000D01*
X41275000Y-19872000D02*
X41275000Y-17212000D01*
X40005000Y-19872000D02*
X38675000Y-19872000D01*
X38675000Y-19872000D02*
X38675000Y-18542000D01*
X103927600Y-42173200D02*
X106587600Y-42173200D01*
X103927600Y-37033200D02*
X103927600Y-42173200D01*
X106587600Y-37033200D02*
X106587600Y-42173200D01*
X103927600Y-37033200D02*
X106587600Y-37033200D01*
X103927600Y-35763200D02*
X103927600Y-34433200D01*
X103927600Y-34433200D02*
X105257600Y-34433200D01*
X21022000Y-46930000D02*
X21022000Y-49590000D01*
X26162000Y-46930000D02*
X21022000Y-46930000D01*
X26162000Y-49590000D02*
X21022000Y-49590000D01*
X26162000Y-46930000D02*
X26162000Y-49590000D01*
X27432000Y-46930000D02*
X28762000Y-46930000D01*
X28762000Y-46930000D02*
X28762000Y-48260000D01*
X63560000Y-19872000D02*
X63560000Y-17212000D01*
X55880000Y-19872000D02*
X63560000Y-19872000D01*
X55880000Y-17212000D02*
X63560000Y-17212000D01*
X55880000Y-19872000D02*
X55880000Y-17212000D01*
X54610000Y-19872000D02*
X53280000Y-19872000D01*
X53280000Y-19872000D02*
X53280000Y-18542000D01*
X92770000Y-46930000D02*
X92770000Y-48260000D01*
X91440000Y-46930000D02*
X92770000Y-46930000D01*
X90170000Y-46930000D02*
X90170000Y-49590000D01*
X90170000Y-49590000D02*
X85030000Y-49590000D01*
X90170000Y-46930000D02*
X85030000Y-46930000D01*
X85030000Y-46930000D02*
X85030000Y-49590000D01*
X81855000Y-19872000D02*
X81855000Y-18542000D01*
X83185000Y-19872000D02*
X81855000Y-19872000D01*
X84455000Y-19872000D02*
X84455000Y-17212000D01*
X84455000Y-17212000D02*
X92135000Y-17212000D01*
X84455000Y-19872000D02*
X92135000Y-19872000D01*
X92135000Y-19872000D02*
X92135000Y-17212000D01*
X101032000Y-46930000D02*
X101032000Y-49590000D01*
X106172000Y-46930000D02*
X101032000Y-46930000D01*
X106172000Y-49590000D02*
X101032000Y-49590000D01*
X106172000Y-46930000D02*
X106172000Y-49590000D01*
X107442000Y-46930000D02*
X108772000Y-46930000D01*
X108772000Y-46930000D02*
X108772000Y-48260000D01*
X95825000Y-19872000D02*
X95825000Y-18542000D01*
X97155000Y-19872000D02*
X95825000Y-19872000D01*
X98425000Y-19872000D02*
X98425000Y-17212000D01*
X98425000Y-17212000D02*
X106105000Y-17212000D01*
X98425000Y-19872000D02*
X106105000Y-19872000D01*
X106105000Y-19872000D02*
X106105000Y-17212000D01*
X69028000Y-46930000D02*
X69028000Y-49590000D01*
X74168000Y-46930000D02*
X69028000Y-46930000D01*
X74168000Y-49590000D02*
X69028000Y-49590000D01*
X74168000Y-46930000D02*
X74168000Y-49590000D01*
X75438000Y-46930000D02*
X76768000Y-46930000D01*
X76768000Y-46930000D02*
X76768000Y-48260000D01*
X78165000Y-19872000D02*
X78165000Y-17212000D01*
X70485000Y-19872000D02*
X78165000Y-19872000D01*
X70485000Y-17212000D02*
X78165000Y-17212000D01*
X70485000Y-19872000D02*
X70485000Y-17212000D01*
X69215000Y-19872000D02*
X67885000Y-19872000D01*
X67885000Y-19872000D02*
X67885000Y-18542000D01*
X57126000Y-103912000D02*
X57126000Y-102412000D01*
X57126000Y-103912000D02*
X55626000Y-103912000D01*
X46506000Y-103912000D02*
X48006000Y-103912000D01*
X46506000Y-103912000D02*
X46506000Y-102412000D01*
X46506000Y-93192000D02*
X46506000Y-94692000D01*
X57126000Y-93192000D02*
X57126000Y-94692000D01*
X46506000Y-93192000D02*
X48006000Y-93192000D01*
X57126000Y-93192000D02*
X55626000Y-93192000D01*
X103142400Y-71651200D02*
X103142400Y-70151200D01*
X103142400Y-70151200D02*
X101332400Y-70151200D01*
X101332400Y-70151200D02*
X101332400Y-65026200D01*
X92742400Y-71651200D02*
X92742400Y-70151200D01*
X92742400Y-70151200D02*
X94552400Y-70151200D01*
X94552400Y-70151200D02*
X94552400Y-69051200D01*
X18925000Y-91130000D02*
X18925000Y-92060000D01*
X18925000Y-94290000D02*
X18925000Y-93360000D01*
X18925000Y-94290000D02*
X21085000Y-94290000D01*
X18925000Y-91130000D02*
X20385000Y-91130000D01*
X75858000Y-87655000D02*
X75858000Y-86555000D01*
X74048000Y-87655000D02*
X75858000Y-87655000D01*
X74048000Y-89155000D02*
X74048000Y-87655000D01*
X82638000Y-87655000D02*
X82638000Y-82530000D01*
X84448000Y-87655000D02*
X82638000Y-87655000D01*
X84448000Y-89155000D02*
X84448000Y-87655000D01*
X97656000Y-89228000D02*
X97656000Y-87728000D01*
X97656000Y-87728000D02*
X95846000Y-87728000D01*
X95846000Y-87728000D02*
X95846000Y-82603000D01*
X87256000Y-89228000D02*
X87256000Y-87728000D01*
X87256000Y-87728000D02*
X89066000Y-87728000D01*
X89066000Y-87728000D02*
X89066000Y-86628000D01*
X62650000Y-87474000D02*
X62650000Y-86374000D01*
X60840000Y-87474000D02*
X62650000Y-87474000D01*
X60840000Y-88974000D02*
X60840000Y-87474000D01*
X69430000Y-87474000D02*
X69430000Y-82349000D01*
X71240000Y-87474000D02*
X69430000Y-87474000D01*
X71240000Y-88974000D02*
X71240000Y-87474000D01*
X18690000Y-87027936D02*
X18690000Y-88232064D01*
X16870000Y-87027936D02*
X16870000Y-88232064D01*
X21315000Y-87662936D02*
X21315000Y-88867064D01*
X23135000Y-87662936D02*
X23135000Y-88867064D01*
X80370000Y-78137936D02*
X80370000Y-79342064D01*
X82190000Y-78137936D02*
X82190000Y-79342064D01*
X78380000Y-78137936D02*
X78380000Y-79342064D01*
X76560000Y-78137936D02*
X76560000Y-79342064D01*
X88650400Y-78290336D02*
X88650400Y-79494464D01*
X90470400Y-78290336D02*
X90470400Y-79494464D01*
X87168400Y-77556736D02*
X87168400Y-78760864D01*
X85348400Y-77556736D02*
X85348400Y-78760864D01*
X68728000Y-78137936D02*
X68728000Y-79342064D01*
X66908000Y-78137936D02*
X66908000Y-79342064D01*
X63098000Y-78137936D02*
X63098000Y-79342064D01*
X64918000Y-78137936D02*
X64918000Y-79342064D01*
X92742936Y-61574000D02*
X93947064Y-61574000D01*
X92742936Y-63394000D02*
X93947064Y-63394000D01*
X89590200Y-66428536D02*
X89590200Y-67632664D01*
X91410200Y-66428536D02*
X91410200Y-67632664D01*
X26448936Y-83714000D02*
X27653064Y-83714000D01*
X26448936Y-81894000D02*
X27653064Y-81894000D01*
X26448936Y-78338000D02*
X27653064Y-78338000D01*
X26448936Y-80158000D02*
X27653064Y-80158000D01*
X26448936Y-74782000D02*
X27653064Y-74782000D01*
X26448936Y-76602000D02*
X27653064Y-76602000D01*
X26445936Y-73046000D02*
X27650064Y-73046000D01*
X26445936Y-71226000D02*
X27650064Y-71226000D01*
X35617000Y-87662000D02*
X45858000Y-87662000D01*
X35617000Y-92303000D02*
X45858000Y-92303000D01*
X35617000Y-87662000D02*
X35617000Y-92303000D01*
X45858000Y-87662000D02*
X45858000Y-92303000D01*
X35617000Y-89172000D02*
X45858000Y-89172000D01*
X38888000Y-87662000D02*
X38888000Y-89172000D01*
X42588000Y-87662000D02*
X42588000Y-89172000D01*
X51416000Y-63114000D02*
X50156000Y-63114000D01*
X44596000Y-63114000D02*
X45856000Y-63114000D01*
X51416000Y-66874000D02*
X51416000Y-63114000D01*
X44596000Y-69124000D02*
X44596000Y-63114000D01*
D10*
X73533095Y-55307380D02*
X73533095Y-54307380D01*
X73533095Y-54783571D02*
X74104523Y-54783571D01*
X74104523Y-55307380D02*
X74104523Y-54307380D01*
X75056904Y-54307380D02*
X74580714Y-54307380D01*
X74533095Y-54783571D01*
X74580714Y-54735952D01*
X74675952Y-54688333D01*
X74914047Y-54688333D01*
X75009285Y-54735952D01*
X75056904Y-54783571D01*
X75104523Y-54878809D01*
X75104523Y-55116904D01*
X75056904Y-55212142D01*
X75009285Y-55259761D01*
X74914047Y-55307380D01*
X74675952Y-55307380D01*
X74580714Y-55259761D01*
X74533095Y-55212142D01*
X24685714Y-23026666D02*
X25161904Y-23026666D01*
X24590476Y-23312380D02*
X24923809Y-22312380D01*
X25257142Y-23312380D01*
X26114285Y-23312380D02*
X25542857Y-23312380D01*
X25828571Y-23312380D02*
X25828571Y-22312380D01*
X25733333Y-22455238D01*
X25638095Y-22550476D01*
X25542857Y-22598095D01*
X40840114Y-23179066D02*
X41316304Y-23179066D01*
X40744876Y-23464780D02*
X41078209Y-22464780D01*
X41411542Y-23464780D01*
X41697257Y-22560019D02*
X41744876Y-22512400D01*
X41840114Y-22464780D01*
X42078209Y-22464780D01*
X42173447Y-22512400D01*
X42221066Y-22560019D01*
X42268685Y-22655257D01*
X42268685Y-22750495D01*
X42221066Y-22893352D01*
X41649638Y-23464780D01*
X42268685Y-23464780D01*
X56892914Y-23204466D02*
X57369104Y-23204466D01*
X56797676Y-23490180D02*
X57131009Y-22490180D01*
X57464342Y-23490180D01*
X57702438Y-22490180D02*
X58321485Y-22490180D01*
X57988152Y-22871133D01*
X58131009Y-22871133D01*
X58226247Y-22918752D01*
X58273866Y-22966371D01*
X58321485Y-23061609D01*
X58321485Y-23299704D01*
X58273866Y-23394942D01*
X58226247Y-23442561D01*
X58131009Y-23490180D01*
X57845295Y-23490180D01*
X57750057Y-23442561D01*
X57702438Y-23394942D01*
X72920314Y-23229866D02*
X73396504Y-23229866D01*
X72825076Y-23515580D02*
X73158409Y-22515580D01*
X73491742Y-23515580D01*
X74253647Y-22848914D02*
X74253647Y-23515580D01*
X74015552Y-22467961D02*
X73777457Y-23182247D01*
X74396504Y-23182247D01*
X88871514Y-23229866D02*
X89347704Y-23229866D01*
X88776276Y-23515580D02*
X89109609Y-22515580D01*
X89442942Y-23515580D01*
X90252466Y-22515580D02*
X89776276Y-22515580D01*
X89728657Y-22991771D01*
X89776276Y-22944152D01*
X89871514Y-22896533D01*
X90109609Y-22896533D01*
X90204847Y-22944152D01*
X90252466Y-22991771D01*
X90300085Y-23087009D01*
X90300085Y-23325104D01*
X90252466Y-23420342D01*
X90204847Y-23467961D01*
X90109609Y-23515580D01*
X89871514Y-23515580D01*
X89776276Y-23467961D01*
X89728657Y-23420342D01*
X104898914Y-23229866D02*
X105375104Y-23229866D01*
X104803676Y-23515580D02*
X105137009Y-22515580D01*
X105470342Y-23515580D01*
X106232247Y-22515580D02*
X106041771Y-22515580D01*
X105946533Y-22563200D01*
X105898914Y-22610819D01*
X105803676Y-22753676D01*
X105756057Y-22944152D01*
X105756057Y-23325104D01*
X105803676Y-23420342D01*
X105851295Y-23467961D01*
X105946533Y-23515580D01*
X106137009Y-23515580D01*
X106232247Y-23467961D01*
X106279866Y-23420342D01*
X106327485Y-23325104D01*
X106327485Y-23087009D01*
X106279866Y-22991771D01*
X106232247Y-22944152D01*
X106137009Y-22896533D01*
X105946533Y-22896533D01*
X105851295Y-22944152D01*
X105803676Y-22991771D01*
X105756057Y-23087009D01*
X29297333Y-95893142D02*
X29249714Y-95940761D01*
X29106857Y-95988380D01*
X29011619Y-95988380D01*
X28868761Y-95940761D01*
X28773523Y-95845523D01*
X28725904Y-95750285D01*
X28678285Y-95559809D01*
X28678285Y-95416952D01*
X28725904Y-95226476D01*
X28773523Y-95131238D01*
X28868761Y-95036000D01*
X29011619Y-94988380D01*
X29106857Y-94988380D01*
X29249714Y-95036000D01*
X29297333Y-95083619D01*
X30249714Y-95988380D02*
X29678285Y-95988380D01*
X29964000Y-95988380D02*
X29964000Y-94988380D01*
X29868761Y-95131238D01*
X29773523Y-95226476D01*
X29678285Y-95274095D01*
X46127142Y-86272666D02*
X46174761Y-86320285D01*
X46222380Y-86463142D01*
X46222380Y-86558380D01*
X46174761Y-86701238D01*
X46079523Y-86796476D01*
X45984285Y-86844095D01*
X45793809Y-86891714D01*
X45650952Y-86891714D01*
X45460476Y-86844095D01*
X45365238Y-86796476D01*
X45270000Y-86701238D01*
X45222380Y-86558380D01*
X45222380Y-86463142D01*
X45270000Y-86320285D01*
X45317619Y-86272666D01*
X45317619Y-85891714D02*
X45270000Y-85844095D01*
X45222380Y-85748857D01*
X45222380Y-85510761D01*
X45270000Y-85415523D01*
X45317619Y-85367904D01*
X45412857Y-85320285D01*
X45508095Y-85320285D01*
X45650952Y-85367904D01*
X46222380Y-85939333D01*
X46222380Y-85320285D01*
X51141333Y-79129142D02*
X51093714Y-79176761D01*
X50950857Y-79224380D01*
X50855619Y-79224380D01*
X50712761Y-79176761D01*
X50617523Y-79081523D01*
X50569904Y-78986285D01*
X50522285Y-78795809D01*
X50522285Y-78652952D01*
X50569904Y-78462476D01*
X50617523Y-78367238D01*
X50712761Y-78272000D01*
X50855619Y-78224380D01*
X50950857Y-78224380D01*
X51093714Y-78272000D01*
X51141333Y-78319619D01*
X51474666Y-78224380D02*
X52093714Y-78224380D01*
X51760380Y-78605333D01*
X51903238Y-78605333D01*
X51998476Y-78652952D01*
X52046095Y-78700571D01*
X52093714Y-78795809D01*
X52093714Y-79033904D01*
X52046095Y-79129142D01*
X51998476Y-79176761D01*
X51903238Y-79224380D01*
X51617523Y-79224380D01*
X51522285Y-79176761D01*
X51474666Y-79129142D01*
X41489333Y-61603142D02*
X41441714Y-61650761D01*
X41298857Y-61698380D01*
X41203619Y-61698380D01*
X41060761Y-61650761D01*
X40965523Y-61555523D01*
X40917904Y-61460285D01*
X40870285Y-61269809D01*
X40870285Y-61126952D01*
X40917904Y-60936476D01*
X40965523Y-60841238D01*
X41060761Y-60746000D01*
X41203619Y-60698380D01*
X41298857Y-60698380D01*
X41441714Y-60746000D01*
X41489333Y-60793619D01*
X42346476Y-61031714D02*
X42346476Y-61698380D01*
X42108380Y-60650761D02*
X41870285Y-61365047D01*
X42489333Y-61365047D01*
X44293142Y-64682666D02*
X44340761Y-64730285D01*
X44388380Y-64873142D01*
X44388380Y-64968380D01*
X44340761Y-65111238D01*
X44245523Y-65206476D01*
X44150285Y-65254095D01*
X43959809Y-65301714D01*
X43816952Y-65301714D01*
X43626476Y-65254095D01*
X43531238Y-65206476D01*
X43436000Y-65111238D01*
X43388380Y-64968380D01*
X43388380Y-64873142D01*
X43436000Y-64730285D01*
X43483619Y-64682666D01*
X43388380Y-63777904D02*
X43388380Y-64254095D01*
X43864571Y-64301714D01*
X43816952Y-64254095D01*
X43769333Y-64158857D01*
X43769333Y-63920761D01*
X43816952Y-63825523D01*
X43864571Y-63777904D01*
X43959809Y-63730285D01*
X44197904Y-63730285D01*
X44293142Y-63777904D01*
X44340761Y-63825523D01*
X44388380Y-63920761D01*
X44388380Y-64158857D01*
X44340761Y-64254095D01*
X44293142Y-64301714D01*
X39203333Y-108301142D02*
X39155714Y-108348761D01*
X39012857Y-108396380D01*
X38917619Y-108396380D01*
X38774761Y-108348761D01*
X38679523Y-108253523D01*
X38631904Y-108158285D01*
X38584285Y-107967809D01*
X38584285Y-107824952D01*
X38631904Y-107634476D01*
X38679523Y-107539238D01*
X38774761Y-107444000D01*
X38917619Y-107396380D01*
X39012857Y-107396380D01*
X39155714Y-107444000D01*
X39203333Y-107491619D01*
X39679523Y-108396380D02*
X39870000Y-108396380D01*
X39965238Y-108348761D01*
X40012857Y-108301142D01*
X40108095Y-108158285D01*
X40155714Y-107967809D01*
X40155714Y-107586857D01*
X40108095Y-107491619D01*
X40060476Y-107444000D01*
X39965238Y-107396380D01*
X39774761Y-107396380D01*
X39679523Y-107444000D01*
X39631904Y-107491619D01*
X39584285Y-107586857D01*
X39584285Y-107824952D01*
X39631904Y-107920190D01*
X39679523Y-107967809D01*
X39774761Y-108015428D01*
X39965238Y-108015428D01*
X40060476Y-107967809D01*
X40108095Y-107920190D01*
X40155714Y-107824952D01*
X32250142Y-82405142D02*
X32202523Y-82452761D01*
X32059666Y-82500380D01*
X31964428Y-82500380D01*
X31821571Y-82452761D01*
X31726333Y-82357523D01*
X31678714Y-82262285D01*
X31631095Y-82071809D01*
X31631095Y-81928952D01*
X31678714Y-81738476D01*
X31726333Y-81643238D01*
X31821571Y-81548000D01*
X31964428Y-81500380D01*
X32059666Y-81500380D01*
X32202523Y-81548000D01*
X32250142Y-81595619D01*
X33202523Y-82500380D02*
X32631095Y-82500380D01*
X32916809Y-82500380D02*
X32916809Y-81500380D01*
X32821571Y-81643238D01*
X32726333Y-81738476D01*
X32631095Y-81786095D01*
X34107285Y-81500380D02*
X33631095Y-81500380D01*
X33583476Y-81976571D01*
X33631095Y-81928952D01*
X33726333Y-81881333D01*
X33964428Y-81881333D01*
X34059666Y-81928952D01*
X34107285Y-81976571D01*
X34154904Y-82071809D01*
X34154904Y-82309904D01*
X34107285Y-82405142D01*
X34059666Y-82452761D01*
X33964428Y-82500380D01*
X33726333Y-82500380D01*
X33631095Y-82452761D01*
X33583476Y-82405142D01*
X32250142Y-77833142D02*
X32202523Y-77880761D01*
X32059666Y-77928380D01*
X31964428Y-77928380D01*
X31821571Y-77880761D01*
X31726333Y-77785523D01*
X31678714Y-77690285D01*
X31631095Y-77499809D01*
X31631095Y-77356952D01*
X31678714Y-77166476D01*
X31726333Y-77071238D01*
X31821571Y-76976000D01*
X31964428Y-76928380D01*
X32059666Y-76928380D01*
X32202523Y-76976000D01*
X32250142Y-77023619D01*
X33202523Y-77928380D02*
X32631095Y-77928380D01*
X32916809Y-77928380D02*
X32916809Y-76928380D01*
X32821571Y-77071238D01*
X32726333Y-77166476D01*
X32631095Y-77214095D01*
X34059666Y-76928380D02*
X33869190Y-76928380D01*
X33773952Y-76976000D01*
X33726333Y-77023619D01*
X33631095Y-77166476D01*
X33583476Y-77356952D01*
X33583476Y-77737904D01*
X33631095Y-77833142D01*
X33678714Y-77880761D01*
X33773952Y-77928380D01*
X33964428Y-77928380D01*
X34059666Y-77880761D01*
X34107285Y-77833142D01*
X34154904Y-77737904D01*
X34154904Y-77499809D01*
X34107285Y-77404571D01*
X34059666Y-77356952D01*
X33964428Y-77309333D01*
X33773952Y-77309333D01*
X33678714Y-77356952D01*
X33631095Y-77404571D01*
X33583476Y-77499809D01*
X32250142Y-73261142D02*
X32202523Y-73308761D01*
X32059666Y-73356380D01*
X31964428Y-73356380D01*
X31821571Y-73308761D01*
X31726333Y-73213523D01*
X31678714Y-73118285D01*
X31631095Y-72927809D01*
X31631095Y-72784952D01*
X31678714Y-72594476D01*
X31726333Y-72499238D01*
X31821571Y-72404000D01*
X31964428Y-72356380D01*
X32059666Y-72356380D01*
X32202523Y-72404000D01*
X32250142Y-72451619D01*
X33202523Y-73356380D02*
X32631095Y-73356380D01*
X32916809Y-73356380D02*
X32916809Y-72356380D01*
X32821571Y-72499238D01*
X32726333Y-72594476D01*
X32631095Y-72642095D01*
X33535857Y-72356380D02*
X34202523Y-72356380D01*
X33773952Y-73356380D01*
X32253142Y-68689142D02*
X32205523Y-68736761D01*
X32062666Y-68784380D01*
X31967428Y-68784380D01*
X31824571Y-68736761D01*
X31729333Y-68641523D01*
X31681714Y-68546285D01*
X31634095Y-68355809D01*
X31634095Y-68212952D01*
X31681714Y-68022476D01*
X31729333Y-67927238D01*
X31824571Y-67832000D01*
X31967428Y-67784380D01*
X32062666Y-67784380D01*
X32205523Y-67832000D01*
X32253142Y-67879619D01*
X33205523Y-68784380D02*
X32634095Y-68784380D01*
X32919809Y-68784380D02*
X32919809Y-67784380D01*
X32824571Y-67927238D01*
X32729333Y-68022476D01*
X32634095Y-68070095D01*
X33776952Y-68212952D02*
X33681714Y-68165333D01*
X33634095Y-68117714D01*
X33586476Y-68022476D01*
X33586476Y-67974857D01*
X33634095Y-67879619D01*
X33681714Y-67832000D01*
X33776952Y-67784380D01*
X33967428Y-67784380D01*
X34062666Y-67832000D01*
X34110285Y-67879619D01*
X34157904Y-67974857D01*
X34157904Y-68022476D01*
X34110285Y-68117714D01*
X34062666Y-68165333D01*
X33967428Y-68212952D01*
X33776952Y-68212952D01*
X33681714Y-68260571D01*
X33634095Y-68308190D01*
X33586476Y-68403428D01*
X33586476Y-68593904D01*
X33634095Y-68689142D01*
X33681714Y-68736761D01*
X33776952Y-68784380D01*
X33967428Y-68784380D01*
X34062666Y-68736761D01*
X34110285Y-68689142D01*
X34157904Y-68593904D01*
X34157904Y-68403428D01*
X34110285Y-68308190D01*
X34062666Y-68260571D01*
X33967428Y-68212952D01*
X21610342Y-28481257D02*
X21657961Y-28528876D01*
X21705580Y-28671733D01*
X21705580Y-28766971D01*
X21657961Y-28909828D01*
X21562723Y-29005066D01*
X21467485Y-29052685D01*
X21277009Y-29100304D01*
X21134152Y-29100304D01*
X20943676Y-29052685D01*
X20848438Y-29005066D01*
X20753200Y-28909828D01*
X20705580Y-28766971D01*
X20705580Y-28671733D01*
X20753200Y-28528876D01*
X20800819Y-28481257D01*
X20800819Y-28100304D02*
X20753200Y-28052685D01*
X20705580Y-27957447D01*
X20705580Y-27719352D01*
X20753200Y-27624114D01*
X20800819Y-27576495D01*
X20896057Y-27528876D01*
X20991295Y-27528876D01*
X21134152Y-27576495D01*
X21705580Y-28147923D01*
X21705580Y-27528876D01*
X20705580Y-26909828D02*
X20705580Y-26814590D01*
X20753200Y-26719352D01*
X20800819Y-26671733D01*
X20896057Y-26624114D01*
X21086533Y-26576495D01*
X21324628Y-26576495D01*
X21515104Y-26624114D01*
X21610342Y-26671733D01*
X21657961Y-26719352D01*
X21705580Y-26814590D01*
X21705580Y-26909828D01*
X21657961Y-27005066D01*
X21610342Y-27052685D01*
X21515104Y-27100304D01*
X21324628Y-27147923D01*
X21086533Y-27147923D01*
X20896057Y-27100304D01*
X20800819Y-27052685D01*
X20753200Y-27005066D01*
X20705580Y-26909828D01*
X37612342Y-28488857D02*
X37659961Y-28536476D01*
X37707580Y-28679333D01*
X37707580Y-28774571D01*
X37659961Y-28917428D01*
X37564723Y-29012666D01*
X37469485Y-29060285D01*
X37279009Y-29107904D01*
X37136152Y-29107904D01*
X36945676Y-29060285D01*
X36850438Y-29012666D01*
X36755200Y-28917428D01*
X36707580Y-28774571D01*
X36707580Y-28679333D01*
X36755200Y-28536476D01*
X36802819Y-28488857D01*
X36802819Y-28107904D02*
X36755200Y-28060285D01*
X36707580Y-27965047D01*
X36707580Y-27726952D01*
X36755200Y-27631714D01*
X36802819Y-27584095D01*
X36898057Y-27536476D01*
X36993295Y-27536476D01*
X37136152Y-27584095D01*
X37707580Y-28155523D01*
X37707580Y-27536476D01*
X36802819Y-27155523D02*
X36755200Y-27107904D01*
X36707580Y-27012666D01*
X36707580Y-26774571D01*
X36755200Y-26679333D01*
X36802819Y-26631714D01*
X36898057Y-26584095D01*
X36993295Y-26584095D01*
X37136152Y-26631714D01*
X37707580Y-27203142D01*
X37707580Y-26584095D01*
X53715942Y-28557457D02*
X53763561Y-28605076D01*
X53811180Y-28747933D01*
X53811180Y-28843171D01*
X53763561Y-28986028D01*
X53668323Y-29081266D01*
X53573085Y-29128885D01*
X53382609Y-29176504D01*
X53239752Y-29176504D01*
X53049276Y-29128885D01*
X52954038Y-29081266D01*
X52858800Y-28986028D01*
X52811180Y-28843171D01*
X52811180Y-28747933D01*
X52858800Y-28605076D01*
X52906419Y-28557457D01*
X52906419Y-28176504D02*
X52858800Y-28128885D01*
X52811180Y-28033647D01*
X52811180Y-27795552D01*
X52858800Y-27700314D01*
X52906419Y-27652695D01*
X53001657Y-27605076D01*
X53096895Y-27605076D01*
X53239752Y-27652695D01*
X53811180Y-28224123D01*
X53811180Y-27605076D01*
X53144514Y-26747933D02*
X53811180Y-26747933D01*
X52763561Y-26986028D02*
X53477847Y-27224123D01*
X53477847Y-26605076D01*
X69667142Y-28582857D02*
X69714761Y-28630476D01*
X69762380Y-28773333D01*
X69762380Y-28868571D01*
X69714761Y-29011428D01*
X69619523Y-29106666D01*
X69524285Y-29154285D01*
X69333809Y-29201904D01*
X69190952Y-29201904D01*
X69000476Y-29154285D01*
X68905238Y-29106666D01*
X68810000Y-29011428D01*
X68762380Y-28868571D01*
X68762380Y-28773333D01*
X68810000Y-28630476D01*
X68857619Y-28582857D01*
X68857619Y-28201904D02*
X68810000Y-28154285D01*
X68762380Y-28059047D01*
X68762380Y-27820952D01*
X68810000Y-27725714D01*
X68857619Y-27678095D01*
X68952857Y-27630476D01*
X69048095Y-27630476D01*
X69190952Y-27678095D01*
X69762380Y-28249523D01*
X69762380Y-27630476D01*
X68762380Y-26773333D02*
X68762380Y-26963809D01*
X68810000Y-27059047D01*
X68857619Y-27106666D01*
X69000476Y-27201904D01*
X69190952Y-27249523D01*
X69571904Y-27249523D01*
X69667142Y-27201904D01*
X69714761Y-27154285D01*
X69762380Y-27059047D01*
X69762380Y-26868571D01*
X69714761Y-26773333D01*
X69667142Y-26725714D01*
X69571904Y-26678095D01*
X69333809Y-26678095D01*
X69238571Y-26725714D01*
X69190952Y-26773333D01*
X69143333Y-26868571D01*
X69143333Y-27059047D01*
X69190952Y-27154285D01*
X69238571Y-27201904D01*
X69333809Y-27249523D01*
X85542142Y-28582857D02*
X85589761Y-28630476D01*
X85637380Y-28773333D01*
X85637380Y-28868571D01*
X85589761Y-29011428D01*
X85494523Y-29106666D01*
X85399285Y-29154285D01*
X85208809Y-29201904D01*
X85065952Y-29201904D01*
X84875476Y-29154285D01*
X84780238Y-29106666D01*
X84685000Y-29011428D01*
X84637380Y-28868571D01*
X84637380Y-28773333D01*
X84685000Y-28630476D01*
X84732619Y-28582857D01*
X84732619Y-28201904D02*
X84685000Y-28154285D01*
X84637380Y-28059047D01*
X84637380Y-27820952D01*
X84685000Y-27725714D01*
X84732619Y-27678095D01*
X84827857Y-27630476D01*
X84923095Y-27630476D01*
X85065952Y-27678095D01*
X85637380Y-28249523D01*
X85637380Y-27630476D01*
X85065952Y-27059047D02*
X85018333Y-27154285D01*
X84970714Y-27201904D01*
X84875476Y-27249523D01*
X84827857Y-27249523D01*
X84732619Y-27201904D01*
X84685000Y-27154285D01*
X84637380Y-27059047D01*
X84637380Y-26868571D01*
X84685000Y-26773333D01*
X84732619Y-26725714D01*
X84827857Y-26678095D01*
X84875476Y-26678095D01*
X84970714Y-26725714D01*
X85018333Y-26773333D01*
X85065952Y-26868571D01*
X85065952Y-27059047D01*
X85113571Y-27154285D01*
X85161190Y-27201904D01*
X85256428Y-27249523D01*
X85446904Y-27249523D01*
X85542142Y-27201904D01*
X85589761Y-27154285D01*
X85637380Y-27059047D01*
X85637380Y-26868571D01*
X85589761Y-26773333D01*
X85542142Y-26725714D01*
X85446904Y-26678095D01*
X85256428Y-26678095D01*
X85161190Y-26725714D01*
X85113571Y-26773333D01*
X85065952Y-26868571D01*
X101671142Y-28582857D02*
X101718761Y-28630476D01*
X101766380Y-28773333D01*
X101766380Y-28868571D01*
X101718761Y-29011428D01*
X101623523Y-29106666D01*
X101528285Y-29154285D01*
X101337809Y-29201904D01*
X101194952Y-29201904D01*
X101004476Y-29154285D01*
X100909238Y-29106666D01*
X100814000Y-29011428D01*
X100766380Y-28868571D01*
X100766380Y-28773333D01*
X100814000Y-28630476D01*
X100861619Y-28582857D01*
X100766380Y-28249523D02*
X100766380Y-27630476D01*
X101147333Y-27963809D01*
X101147333Y-27820952D01*
X101194952Y-27725714D01*
X101242571Y-27678095D01*
X101337809Y-27630476D01*
X101575904Y-27630476D01*
X101671142Y-27678095D01*
X101718761Y-27725714D01*
X101766380Y-27820952D01*
X101766380Y-28106666D01*
X101718761Y-28201904D01*
X101671142Y-28249523D01*
X100766380Y-27011428D02*
X100766380Y-26916190D01*
X100814000Y-26820952D01*
X100861619Y-26773333D01*
X100956857Y-26725714D01*
X101147333Y-26678095D01*
X101385428Y-26678095D01*
X101575904Y-26725714D01*
X101671142Y-26773333D01*
X101718761Y-26820952D01*
X101766380Y-26916190D01*
X101766380Y-27011428D01*
X101718761Y-27106666D01*
X101671142Y-27154285D01*
X101575904Y-27201904D01*
X101385428Y-27249523D01*
X101147333Y-27249523D01*
X100956857Y-27201904D01*
X100861619Y-27154285D01*
X100814000Y-27106666D01*
X100766380Y-27011428D01*
X41679904Y-83034380D02*
X41679904Y-82034380D01*
X41918000Y-82034380D01*
X42060857Y-82082000D01*
X42156095Y-82177238D01*
X42203714Y-82272476D01*
X42251333Y-82462952D01*
X42251333Y-82605809D01*
X42203714Y-82796285D01*
X42156095Y-82891523D01*
X42060857Y-82986761D01*
X41918000Y-83034380D01*
X41679904Y-83034380D01*
X43203714Y-83034380D02*
X42632285Y-83034380D01*
X42918000Y-83034380D02*
X42918000Y-82034380D01*
X42822761Y-82177238D01*
X42727523Y-82272476D01*
X42632285Y-82320095D01*
X18946904Y-98972380D02*
X18946904Y-97972380D01*
X19185000Y-97972380D01*
X19327857Y-98020000D01*
X19423095Y-98115238D01*
X19470714Y-98210476D01*
X19518333Y-98400952D01*
X19518333Y-98543809D01*
X19470714Y-98734285D01*
X19423095Y-98829523D01*
X19327857Y-98924761D01*
X19185000Y-98972380D01*
X18946904Y-98972380D01*
X19899285Y-98067619D02*
X19946904Y-98020000D01*
X20042142Y-97972380D01*
X20280238Y-97972380D01*
X20375476Y-98020000D01*
X20423095Y-98067619D01*
X20470714Y-98162857D01*
X20470714Y-98258095D01*
X20423095Y-98400952D01*
X19851666Y-98972380D01*
X20470714Y-98972380D01*
X78509904Y-102782380D02*
X78509904Y-101782380D01*
X78748000Y-101782380D01*
X78890857Y-101830000D01*
X78986095Y-101925238D01*
X79033714Y-102020476D01*
X79081333Y-102210952D01*
X79081333Y-102353809D01*
X79033714Y-102544285D01*
X78986095Y-102639523D01*
X78890857Y-102734761D01*
X78748000Y-102782380D01*
X78509904Y-102782380D01*
X79938476Y-102115714D02*
X79938476Y-102782380D01*
X79700380Y-101734761D02*
X79462285Y-102449047D01*
X80081333Y-102449047D01*
X91717904Y-103036380D02*
X91717904Y-102036380D01*
X91956000Y-102036380D01*
X92098857Y-102084000D01*
X92194095Y-102179238D01*
X92241714Y-102274476D01*
X92289333Y-102464952D01*
X92289333Y-102607809D01*
X92241714Y-102798285D01*
X92194095Y-102893523D01*
X92098857Y-102988761D01*
X91956000Y-103036380D01*
X91717904Y-103036380D01*
X93146476Y-102036380D02*
X92956000Y-102036380D01*
X92860761Y-102084000D01*
X92813142Y-102131619D01*
X92717904Y-102274476D01*
X92670285Y-102464952D01*
X92670285Y-102845904D01*
X92717904Y-102941142D01*
X92765523Y-102988761D01*
X92860761Y-103036380D01*
X93051238Y-103036380D01*
X93146476Y-102988761D01*
X93194095Y-102941142D01*
X93241714Y-102845904D01*
X93241714Y-102607809D01*
X93194095Y-102512571D01*
X93146476Y-102464952D01*
X93051238Y-102417333D01*
X92860761Y-102417333D01*
X92765523Y-102464952D01*
X92717904Y-102512571D01*
X92670285Y-102607809D01*
X63777904Y-102655380D02*
X63777904Y-101655380D01*
X64016000Y-101655380D01*
X64158857Y-101703000D01*
X64254095Y-101798238D01*
X64301714Y-101893476D01*
X64349333Y-102083952D01*
X64349333Y-102226809D01*
X64301714Y-102417285D01*
X64254095Y-102512523D01*
X64158857Y-102607761D01*
X64016000Y-102655380D01*
X63777904Y-102655380D01*
X64920761Y-102083952D02*
X64825523Y-102036333D01*
X64777904Y-101988714D01*
X64730285Y-101893476D01*
X64730285Y-101845857D01*
X64777904Y-101750619D01*
X64825523Y-101703000D01*
X64920761Y-101655380D01*
X65111238Y-101655380D01*
X65206476Y-101703000D01*
X65254095Y-101750619D01*
X65301714Y-101845857D01*
X65301714Y-101893476D01*
X65254095Y-101988714D01*
X65206476Y-102036333D01*
X65111238Y-102083952D01*
X64920761Y-102083952D01*
X64825523Y-102131571D01*
X64777904Y-102179190D01*
X64730285Y-102274428D01*
X64730285Y-102464904D01*
X64777904Y-102560142D01*
X64825523Y-102607761D01*
X64920761Y-102655380D01*
X65111238Y-102655380D01*
X65206476Y-102607761D01*
X65254095Y-102560142D01*
X65301714Y-102464904D01*
X65301714Y-102274428D01*
X65254095Y-102179190D01*
X65206476Y-102131571D01*
X65111238Y-102083952D01*
X109910714Y-93187780D02*
X109910714Y-92187780D01*
X110148809Y-92187780D01*
X110291666Y-92235400D01*
X110386904Y-92330638D01*
X110434523Y-92425876D01*
X110482142Y-92616352D01*
X110482142Y-92759209D01*
X110434523Y-92949685D01*
X110386904Y-93044923D01*
X110291666Y-93140161D01*
X110148809Y-93187780D01*
X109910714Y-93187780D01*
X111434523Y-93187780D02*
X110863095Y-93187780D01*
X111148809Y-93187780D02*
X111148809Y-92187780D01*
X111053571Y-92330638D01*
X110958333Y-92425876D01*
X110863095Y-92473495D01*
X112386904Y-93187780D02*
X111815476Y-93187780D01*
X112101190Y-93187780D02*
X112101190Y-92187780D01*
X112005952Y-92330638D01*
X111910714Y-92425876D01*
X111815476Y-92473495D01*
X33672666Y-95516571D02*
X33339333Y-95516571D01*
X33339333Y-96040380D02*
X33339333Y-95040380D01*
X33815523Y-95040380D01*
X34720285Y-96040380D02*
X34148857Y-96040380D01*
X34434571Y-96040380D02*
X34434571Y-95040380D01*
X34339333Y-95183238D01*
X34244095Y-95278476D01*
X34148857Y-95326095D01*
X98494571Y-93299333D02*
X98494571Y-93632666D01*
X99018380Y-93632666D02*
X98018380Y-93632666D01*
X98018380Y-93156476D01*
X98113619Y-92823142D02*
X98066000Y-92775523D01*
X98018380Y-92680285D01*
X98018380Y-92442190D01*
X98066000Y-92346952D01*
X98113619Y-92299333D01*
X98208857Y-92251714D01*
X98304095Y-92251714D01*
X98446952Y-92299333D01*
X99018380Y-92870761D01*
X99018380Y-92251714D01*
X16002095Y-23566380D02*
X16002095Y-22566380D01*
X16002095Y-23042571D02*
X16573523Y-23042571D01*
X16573523Y-23566380D02*
X16573523Y-22566380D01*
X17573523Y-23566380D02*
X17002095Y-23566380D01*
X17287809Y-23566380D02*
X17287809Y-22566380D01*
X17192571Y-22709238D01*
X17097333Y-22804476D01*
X17002095Y-22852095D01*
X113284095Y-23058380D02*
X113284095Y-22058380D01*
X113284095Y-22534571D02*
X113855523Y-22534571D01*
X113855523Y-23058380D02*
X113855523Y-22058380D01*
X114284095Y-22153619D02*
X114331714Y-22106000D01*
X114426952Y-22058380D01*
X114665047Y-22058380D01*
X114760285Y-22106000D01*
X114807904Y-22153619D01*
X114855523Y-22248857D01*
X114855523Y-22344095D01*
X114807904Y-22486952D01*
X114236476Y-23058380D01*
X114855523Y-23058380D01*
X105918095Y-114117380D02*
X105918095Y-113117380D01*
X105918095Y-113593571D02*
X106489523Y-113593571D01*
X106489523Y-114117380D02*
X106489523Y-113117380D01*
X106870476Y-113117380D02*
X107489523Y-113117380D01*
X107156190Y-113498333D01*
X107299047Y-113498333D01*
X107394285Y-113545952D01*
X107441904Y-113593571D01*
X107489523Y-113688809D01*
X107489523Y-113926904D01*
X107441904Y-114022142D01*
X107394285Y-114069761D01*
X107299047Y-114117380D01*
X107013333Y-114117380D01*
X106918095Y-114069761D01*
X106870476Y-114022142D01*
X22733095Y-105227380D02*
X22733095Y-104227380D01*
X22733095Y-104703571D02*
X23304523Y-104703571D01*
X23304523Y-105227380D02*
X23304523Y-104227380D01*
X24209285Y-104560714D02*
X24209285Y-105227380D01*
X23971190Y-104179761D02*
X23733095Y-104894047D01*
X24352142Y-104894047D01*
X60626666Y-65702380D02*
X60626666Y-66416666D01*
X60579047Y-66559523D01*
X60483809Y-66654761D01*
X60340952Y-66702380D01*
X60245714Y-66702380D01*
X61626666Y-66702380D02*
X61055238Y-66702380D01*
X61340952Y-66702380D02*
X61340952Y-65702380D01*
X61245714Y-65845238D01*
X61150476Y-65940476D01*
X61055238Y-65988095D01*
X30908666Y-112444380D02*
X30908666Y-113158666D01*
X30861047Y-113301523D01*
X30765809Y-113396761D01*
X30622952Y-113444380D01*
X30527714Y-113444380D01*
X31289619Y-112444380D02*
X31908666Y-112444380D01*
X31575333Y-112825333D01*
X31718190Y-112825333D01*
X31813428Y-112872952D01*
X31861047Y-112920571D01*
X31908666Y-113015809D01*
X31908666Y-113253904D01*
X31861047Y-113349142D01*
X31813428Y-113396761D01*
X31718190Y-113444380D01*
X31432476Y-113444380D01*
X31337238Y-113396761D01*
X31289619Y-113349142D01*
X107616666Y-92797380D02*
X107616666Y-93511666D01*
X107569047Y-93654523D01*
X107473809Y-93749761D01*
X107330952Y-93797380D01*
X107235714Y-93797380D01*
X108521428Y-93130714D02*
X108521428Y-93797380D01*
X108283333Y-92749761D02*
X108045238Y-93464047D01*
X108664285Y-93464047D01*
X64436666Y-111555380D02*
X64436666Y-112269666D01*
X64389047Y-112412523D01*
X64293809Y-112507761D01*
X64150952Y-112555380D01*
X64055714Y-112555380D01*
X65389047Y-111555380D02*
X64912857Y-111555380D01*
X64865238Y-112031571D01*
X64912857Y-111983952D01*
X65008095Y-111936333D01*
X65246190Y-111936333D01*
X65341428Y-111983952D01*
X65389047Y-112031571D01*
X65436666Y-112126809D01*
X65436666Y-112364904D01*
X65389047Y-112460142D01*
X65341428Y-112507761D01*
X65246190Y-112555380D01*
X65008095Y-112555380D01*
X64912857Y-112507761D01*
X64865238Y-112460142D01*
X78914666Y-111555380D02*
X78914666Y-112269666D01*
X78867047Y-112412523D01*
X78771809Y-112507761D01*
X78628952Y-112555380D01*
X78533714Y-112555380D01*
X79819428Y-111555380D02*
X79628952Y-111555380D01*
X79533714Y-111603000D01*
X79486095Y-111650619D01*
X79390857Y-111793476D01*
X79343238Y-111983952D01*
X79343238Y-112364904D01*
X79390857Y-112460142D01*
X79438476Y-112507761D01*
X79533714Y-112555380D01*
X79724190Y-112555380D01*
X79819428Y-112507761D01*
X79867047Y-112460142D01*
X79914666Y-112364904D01*
X79914666Y-112126809D01*
X79867047Y-112031571D01*
X79819428Y-111983952D01*
X79724190Y-111936333D01*
X79533714Y-111936333D01*
X79438476Y-111983952D01*
X79390857Y-112031571D01*
X79343238Y-112126809D01*
X92884666Y-111555380D02*
X92884666Y-112269666D01*
X92837047Y-112412523D01*
X92741809Y-112507761D01*
X92598952Y-112555380D01*
X92503714Y-112555380D01*
X93265619Y-111555380D02*
X93932285Y-111555380D01*
X93503714Y-112555380D01*
X22610380Y-101171333D02*
X23324666Y-101171333D01*
X23467523Y-101218952D01*
X23562761Y-101314190D01*
X23610380Y-101457047D01*
X23610380Y-101552285D01*
X23038952Y-100552285D02*
X22991333Y-100647523D01*
X22943714Y-100695142D01*
X22848476Y-100742761D01*
X22800857Y-100742761D01*
X22705619Y-100695142D01*
X22658000Y-100647523D01*
X22610380Y-100552285D01*
X22610380Y-100361809D01*
X22658000Y-100266571D01*
X22705619Y-100218952D01*
X22800857Y-100171333D01*
X22848476Y-100171333D01*
X22943714Y-100218952D01*
X22991333Y-100266571D01*
X23038952Y-100361809D01*
X23038952Y-100552285D01*
X23086571Y-100647523D01*
X23134190Y-100695142D01*
X23229428Y-100742761D01*
X23419904Y-100742761D01*
X23515142Y-100695142D01*
X23562761Y-100647523D01*
X23610380Y-100552285D01*
X23610380Y-100361809D01*
X23562761Y-100266571D01*
X23515142Y-100218952D01*
X23419904Y-100171333D01*
X23229428Y-100171333D01*
X23134190Y-100218952D01*
X23086571Y-100266571D01*
X23038952Y-100361809D01*
X27251066Y-32809380D02*
X27251066Y-33523666D01*
X27203447Y-33666523D01*
X27108209Y-33761761D01*
X26965352Y-33809380D01*
X26870114Y-33809380D01*
X27774876Y-33809380D02*
X27965352Y-33809380D01*
X28060590Y-33761761D01*
X28108209Y-33714142D01*
X28203447Y-33571285D01*
X28251066Y-33380809D01*
X28251066Y-32999857D01*
X28203447Y-32904619D01*
X28155828Y-32857000D01*
X28060590Y-32809380D01*
X27870114Y-32809380D01*
X27774876Y-32857000D01*
X27727257Y-32904619D01*
X27679638Y-32999857D01*
X27679638Y-33237952D01*
X27727257Y-33333190D01*
X27774876Y-33380809D01*
X27870114Y-33428428D01*
X28060590Y-33428428D01*
X28155828Y-33380809D01*
X28203447Y-33333190D01*
X28251066Y-33237952D01*
X108410476Y-87717380D02*
X108410476Y-88431666D01*
X108362857Y-88574523D01*
X108267619Y-88669761D01*
X108124761Y-88717380D01*
X108029523Y-88717380D01*
X109410476Y-88717380D02*
X108839047Y-88717380D01*
X109124761Y-88717380D02*
X109124761Y-87717380D01*
X109029523Y-87860238D01*
X108934285Y-87955476D01*
X108839047Y-88003095D01*
X110029523Y-87717380D02*
X110124761Y-87717380D01*
X110220000Y-87765000D01*
X110267619Y-87812619D01*
X110315238Y-87907857D01*
X110362857Y-88098333D01*
X110362857Y-88336428D01*
X110315238Y-88526904D01*
X110267619Y-88622142D01*
X110220000Y-88669761D01*
X110124761Y-88717380D01*
X110029523Y-88717380D01*
X109934285Y-88669761D01*
X109886666Y-88622142D01*
X109839047Y-88526904D01*
X109791428Y-88336428D01*
X109791428Y-88098333D01*
X109839047Y-87907857D01*
X109886666Y-87812619D01*
X109934285Y-87765000D01*
X110029523Y-87717380D01*
X24234876Y-32809380D02*
X24234876Y-33523666D01*
X24187257Y-33666523D01*
X24092019Y-33761761D01*
X23949161Y-33809380D01*
X23853923Y-33809380D01*
X25234876Y-33809380D02*
X24663447Y-33809380D01*
X24949161Y-33809380D02*
X24949161Y-32809380D01*
X24853923Y-32952238D01*
X24758685Y-33047476D01*
X24663447Y-33095095D01*
X26187257Y-33809380D02*
X25615828Y-33809380D01*
X25901542Y-33809380D02*
X25901542Y-32809380D01*
X25806304Y-32952238D01*
X25711066Y-33047476D01*
X25615828Y-33095095D01*
X104005580Y-58061123D02*
X104719866Y-58061123D01*
X104862723Y-58108742D01*
X104957961Y-58203980D01*
X105005580Y-58346838D01*
X105005580Y-58442076D01*
X105005580Y-57061123D02*
X105005580Y-57632552D01*
X105005580Y-57346838D02*
X104005580Y-57346838D01*
X104148438Y-57442076D01*
X104243676Y-57537314D01*
X104291295Y-57632552D01*
X104100819Y-56680171D02*
X104053200Y-56632552D01*
X104005580Y-56537314D01*
X104005580Y-56299219D01*
X104053200Y-56203980D01*
X104100819Y-56156361D01*
X104196057Y-56108742D01*
X104291295Y-56108742D01*
X104434152Y-56156361D01*
X105005580Y-56727790D01*
X105005580Y-56108742D01*
X104005580Y-54378123D02*
X104719866Y-54378123D01*
X104862723Y-54425742D01*
X104957961Y-54520980D01*
X105005580Y-54663838D01*
X105005580Y-54759076D01*
X105005580Y-53378123D02*
X105005580Y-53949552D01*
X105005580Y-53663838D02*
X104005580Y-53663838D01*
X104148438Y-53759076D01*
X104243676Y-53854314D01*
X104291295Y-53949552D01*
X104005580Y-53044790D02*
X104005580Y-52425742D01*
X104386533Y-52759076D01*
X104386533Y-52616219D01*
X104434152Y-52520980D01*
X104481771Y-52473361D01*
X104577009Y-52425742D01*
X104815104Y-52425742D01*
X104910342Y-52473361D01*
X104957961Y-52520980D01*
X105005580Y-52616219D01*
X105005580Y-52901933D01*
X104957961Y-52997171D01*
X104910342Y-53044790D01*
X104005580Y-65427123D02*
X104719866Y-65427123D01*
X104862723Y-65474742D01*
X104957961Y-65569980D01*
X105005580Y-65712838D01*
X105005580Y-65808076D01*
X105005580Y-64427123D02*
X105005580Y-64998552D01*
X105005580Y-64712838D02*
X104005580Y-64712838D01*
X104148438Y-64808076D01*
X104243676Y-64903314D01*
X104291295Y-64998552D01*
X104338914Y-63569980D02*
X105005580Y-63569980D01*
X103957961Y-63808076D02*
X104672247Y-64046171D01*
X104672247Y-63427123D01*
X104005580Y-61744123D02*
X104719866Y-61744123D01*
X104862723Y-61791742D01*
X104957961Y-61886980D01*
X105005580Y-62029838D01*
X105005580Y-62125076D01*
X105005580Y-60744123D02*
X105005580Y-61315552D01*
X105005580Y-61029838D02*
X104005580Y-61029838D01*
X104148438Y-61125076D01*
X104243676Y-61220314D01*
X104291295Y-61315552D01*
X104005580Y-59839361D02*
X104005580Y-60315552D01*
X104481771Y-60363171D01*
X104434152Y-60315552D01*
X104386533Y-60220314D01*
X104386533Y-59982219D01*
X104434152Y-59886980D01*
X104481771Y-59839361D01*
X104577009Y-59791742D01*
X104815104Y-59791742D01*
X104910342Y-59839361D01*
X104957961Y-59886980D01*
X105005580Y-59982219D01*
X105005580Y-60220314D01*
X104957961Y-60315552D01*
X104910342Y-60363171D01*
X104005580Y-72793123D02*
X104719866Y-72793123D01*
X104862723Y-72840742D01*
X104957961Y-72935980D01*
X105005580Y-73078838D01*
X105005580Y-73174076D01*
X105005580Y-71793123D02*
X105005580Y-72364552D01*
X105005580Y-72078838D02*
X104005580Y-72078838D01*
X104148438Y-72174076D01*
X104243676Y-72269314D01*
X104291295Y-72364552D01*
X104005580Y-70935980D02*
X104005580Y-71126457D01*
X104053200Y-71221695D01*
X104100819Y-71269314D01*
X104243676Y-71364552D01*
X104434152Y-71412171D01*
X104815104Y-71412171D01*
X104910342Y-71364552D01*
X104957961Y-71316933D01*
X105005580Y-71221695D01*
X105005580Y-71031219D01*
X104957961Y-70935980D01*
X104910342Y-70888361D01*
X104815104Y-70840742D01*
X104577009Y-70840742D01*
X104481771Y-70888361D01*
X104434152Y-70935980D01*
X104386533Y-71031219D01*
X104386533Y-71221695D01*
X104434152Y-71316933D01*
X104481771Y-71364552D01*
X104577009Y-71412171D01*
X104005580Y-69110123D02*
X104719866Y-69110123D01*
X104862723Y-69157742D01*
X104957961Y-69252980D01*
X105005580Y-69395838D01*
X105005580Y-69491076D01*
X105005580Y-68110123D02*
X105005580Y-68681552D01*
X105005580Y-68395838D02*
X104005580Y-68395838D01*
X104148438Y-68491076D01*
X104243676Y-68586314D01*
X104291295Y-68681552D01*
X104005580Y-67776790D02*
X104005580Y-67110123D01*
X105005580Y-67538695D01*
X20018476Y-83062380D02*
X20018476Y-83776666D01*
X19970857Y-83919523D01*
X19875619Y-84014761D01*
X19732761Y-84062380D01*
X19637523Y-84062380D01*
X21018476Y-84062380D02*
X20447047Y-84062380D01*
X20732761Y-84062380D02*
X20732761Y-83062380D01*
X20637523Y-83205238D01*
X20542285Y-83300476D01*
X20447047Y-83348095D01*
X21589904Y-83490952D02*
X21494666Y-83443333D01*
X21447047Y-83395714D01*
X21399428Y-83300476D01*
X21399428Y-83252857D01*
X21447047Y-83157619D01*
X21494666Y-83110000D01*
X21589904Y-83062380D01*
X21780380Y-83062380D01*
X21875619Y-83110000D01*
X21923238Y-83157619D01*
X21970857Y-83252857D01*
X21970857Y-83300476D01*
X21923238Y-83395714D01*
X21875619Y-83443333D01*
X21780380Y-83490952D01*
X21589904Y-83490952D01*
X21494666Y-83538571D01*
X21447047Y-83586190D01*
X21399428Y-83681428D01*
X21399428Y-83871904D01*
X21447047Y-83967142D01*
X21494666Y-84014761D01*
X21589904Y-84062380D01*
X21780380Y-84062380D01*
X21875619Y-84014761D01*
X21923238Y-83967142D01*
X21970857Y-83871904D01*
X21970857Y-83681428D01*
X21923238Y-83586190D01*
X21875619Y-83538571D01*
X21780380Y-83490952D01*
X29924476Y-66171380D02*
X29924476Y-66885666D01*
X29876857Y-67028523D01*
X29781619Y-67123761D01*
X29638761Y-67171380D01*
X29543523Y-67171380D01*
X30924476Y-67171380D02*
X30353047Y-67171380D01*
X30638761Y-67171380D02*
X30638761Y-66171380D01*
X30543523Y-66314238D01*
X30448285Y-66409476D01*
X30353047Y-66457095D01*
X31400666Y-67171380D02*
X31591142Y-67171380D01*
X31686380Y-67123761D01*
X31734000Y-67076142D01*
X31829238Y-66933285D01*
X31876857Y-66742809D01*
X31876857Y-66361857D01*
X31829238Y-66266619D01*
X31781619Y-66219000D01*
X31686380Y-66171380D01*
X31495904Y-66171380D01*
X31400666Y-66219000D01*
X31353047Y-66266619D01*
X31305428Y-66361857D01*
X31305428Y-66599952D01*
X31353047Y-66695190D01*
X31400666Y-66742809D01*
X31495904Y-66790428D01*
X31686380Y-66790428D01*
X31781619Y-66742809D01*
X31829238Y-66695190D01*
X31876857Y-66599952D01*
X42929276Y-32860180D02*
X42929276Y-33574466D01*
X42881657Y-33717323D01*
X42786419Y-33812561D01*
X42643561Y-33860180D01*
X42548323Y-33860180D01*
X43357847Y-32955419D02*
X43405466Y-32907800D01*
X43500704Y-32860180D01*
X43738800Y-32860180D01*
X43834038Y-32907800D01*
X43881657Y-32955419D01*
X43929276Y-33050657D01*
X43929276Y-33145895D01*
X43881657Y-33288752D01*
X43310228Y-33860180D01*
X43929276Y-33860180D01*
X44548323Y-32860180D02*
X44643561Y-32860180D01*
X44738800Y-32907800D01*
X44786419Y-32955419D01*
X44834038Y-33050657D01*
X44881657Y-33241133D01*
X44881657Y-33479228D01*
X44834038Y-33669704D01*
X44786419Y-33764942D01*
X44738800Y-33812561D01*
X44643561Y-33860180D01*
X44548323Y-33860180D01*
X44453085Y-33812561D01*
X44405466Y-33764942D01*
X44357847Y-33669704D01*
X44310228Y-33479228D01*
X44310228Y-33241133D01*
X44357847Y-33050657D01*
X44405466Y-32955419D01*
X44453085Y-32907800D01*
X44548323Y-32860180D01*
X39068476Y-80776380D02*
X39068476Y-81490666D01*
X39020857Y-81633523D01*
X38925619Y-81728761D01*
X38782761Y-81776380D01*
X38687523Y-81776380D01*
X39497047Y-80871619D02*
X39544666Y-80824000D01*
X39639904Y-80776380D01*
X39878000Y-80776380D01*
X39973238Y-80824000D01*
X40020857Y-80871619D01*
X40068476Y-80966857D01*
X40068476Y-81062095D01*
X40020857Y-81204952D01*
X39449428Y-81776380D01*
X40068476Y-81776380D01*
X41020857Y-81776380D02*
X40449428Y-81776380D01*
X40735142Y-81776380D02*
X40735142Y-80776380D01*
X40639904Y-80919238D01*
X40544666Y-81014476D01*
X40449428Y-81062095D01*
X16220381Y-66976523D02*
X16934667Y-66976523D01*
X17077524Y-67024142D01*
X17172762Y-67119380D01*
X17220381Y-67262238D01*
X17220381Y-67357476D01*
X16315620Y-66547952D02*
X16268001Y-66500333D01*
X16220381Y-66405095D01*
X16220381Y-66167000D01*
X16268001Y-66071761D01*
X16315620Y-66024142D01*
X16410858Y-65976523D01*
X16506096Y-65976523D01*
X16648953Y-66024142D01*
X17220381Y-66595571D01*
X17220381Y-65976523D01*
X16315620Y-65595571D02*
X16268001Y-65547952D01*
X16220381Y-65452714D01*
X16220381Y-65214619D01*
X16268001Y-65119380D01*
X16315620Y-65071761D01*
X16410858Y-65024142D01*
X16506096Y-65024142D01*
X16648953Y-65071761D01*
X17220381Y-65643190D01*
X17220381Y-65024142D01*
X16220381Y-55927523D02*
X16934667Y-55927523D01*
X17077524Y-55975142D01*
X17172762Y-56070380D01*
X17220381Y-56213238D01*
X17220381Y-56308476D01*
X16315620Y-55498952D02*
X16268001Y-55451333D01*
X16220381Y-55356095D01*
X16220381Y-55118000D01*
X16268001Y-55022761D01*
X16315620Y-54975142D01*
X16410858Y-54927523D01*
X16506096Y-54927523D01*
X16648953Y-54975142D01*
X17220381Y-55546571D01*
X17220381Y-54927523D01*
X16220381Y-54594190D02*
X16220381Y-53975142D01*
X16601334Y-54308476D01*
X16601334Y-54165619D01*
X16648953Y-54070380D01*
X16696572Y-54022761D01*
X16791810Y-53975142D01*
X17029905Y-53975142D01*
X17125143Y-54022761D01*
X17172762Y-54070380D01*
X17220381Y-54165619D01*
X17220381Y-54451333D01*
X17172762Y-54546571D01*
X17125143Y-54594190D01*
X16220381Y-59610523D02*
X16934667Y-59610523D01*
X17077524Y-59658142D01*
X17172762Y-59753380D01*
X17220381Y-59896238D01*
X17220381Y-59991476D01*
X16315620Y-59181952D02*
X16268001Y-59134333D01*
X16220381Y-59039095D01*
X16220381Y-58801000D01*
X16268001Y-58705761D01*
X16315620Y-58658142D01*
X16410858Y-58610523D01*
X16506096Y-58610523D01*
X16648953Y-58658142D01*
X17220381Y-59229571D01*
X17220381Y-58610523D01*
X16553715Y-57753380D02*
X17220381Y-57753380D01*
X16172762Y-57991476D02*
X16887048Y-58229571D01*
X16887048Y-57610523D01*
X16220381Y-63279522D02*
X16934667Y-63279522D01*
X17077524Y-63327141D01*
X17172762Y-63422379D01*
X17220381Y-63565237D01*
X17220381Y-63660475D01*
X16315620Y-62850951D02*
X16268001Y-62803332D01*
X16220381Y-62708094D01*
X16220381Y-62469999D01*
X16268001Y-62374760D01*
X16315620Y-62327141D01*
X16410858Y-62279522D01*
X16506096Y-62279522D01*
X16648953Y-62327141D01*
X17220381Y-62898570D01*
X17220381Y-62279522D01*
X16220381Y-61374760D02*
X16220381Y-61850951D01*
X16696572Y-61898570D01*
X16648953Y-61850951D01*
X16601334Y-61755713D01*
X16601334Y-61517618D01*
X16648953Y-61422379D01*
X16696572Y-61374760D01*
X16791810Y-61327141D01*
X17029905Y-61327141D01*
X17125143Y-61374760D01*
X17172762Y-61422379D01*
X17220381Y-61517618D01*
X17220381Y-61755713D01*
X17172762Y-61850951D01*
X17125143Y-61898570D01*
X40389276Y-32860180D02*
X40389276Y-33574466D01*
X40341657Y-33717323D01*
X40246419Y-33812561D01*
X40103561Y-33860180D01*
X40008323Y-33860180D01*
X40817847Y-32955419D02*
X40865466Y-32907800D01*
X40960704Y-32860180D01*
X41198800Y-32860180D01*
X41294038Y-32907800D01*
X41341657Y-32955419D01*
X41389276Y-33050657D01*
X41389276Y-33145895D01*
X41341657Y-33288752D01*
X40770228Y-33860180D01*
X41389276Y-33860180D01*
X42246419Y-32860180D02*
X42055942Y-32860180D01*
X41960704Y-32907800D01*
X41913085Y-32955419D01*
X41817847Y-33098276D01*
X41770228Y-33288752D01*
X41770228Y-33669704D01*
X41817847Y-33764942D01*
X41865466Y-33812561D01*
X41960704Y-33860180D01*
X42151180Y-33860180D01*
X42246419Y-33812561D01*
X42294038Y-33764942D01*
X42341657Y-33669704D01*
X42341657Y-33431609D01*
X42294038Y-33336371D01*
X42246419Y-33288752D01*
X42151180Y-33241133D01*
X41960704Y-33241133D01*
X41865466Y-33288752D01*
X41817847Y-33336371D01*
X41770228Y-33431609D01*
X67607380Y-73834523D02*
X68321666Y-73834523D01*
X68464523Y-73882142D01*
X68559761Y-73977380D01*
X68607380Y-74120238D01*
X68607380Y-74215476D01*
X67702619Y-73405952D02*
X67655000Y-73358333D01*
X67607380Y-73263095D01*
X67607380Y-73025000D01*
X67655000Y-72929761D01*
X67702619Y-72882142D01*
X67797857Y-72834523D01*
X67893095Y-72834523D01*
X68035952Y-72882142D01*
X68607380Y-73453571D01*
X68607380Y-72834523D01*
X67607380Y-72501190D02*
X67607380Y-71834523D01*
X68607380Y-72263095D01*
X98504476Y-61116780D02*
X98504476Y-61831066D01*
X98456857Y-61973923D01*
X98361619Y-62069161D01*
X98218761Y-62116780D01*
X98123523Y-62116780D01*
X98933047Y-61212019D02*
X98980666Y-61164400D01*
X99075904Y-61116780D01*
X99314000Y-61116780D01*
X99409238Y-61164400D01*
X99456857Y-61212019D01*
X99504476Y-61307257D01*
X99504476Y-61402495D01*
X99456857Y-61545352D01*
X98885428Y-62116780D01*
X99504476Y-62116780D01*
X100075904Y-61545352D02*
X99980666Y-61497733D01*
X99933047Y-61450114D01*
X99885428Y-61354876D01*
X99885428Y-61307257D01*
X99933047Y-61212019D01*
X99980666Y-61164400D01*
X100075904Y-61116780D01*
X100266380Y-61116780D01*
X100361619Y-61164400D01*
X100409238Y-61212019D01*
X100456857Y-61307257D01*
X100456857Y-61354876D01*
X100409238Y-61450114D01*
X100361619Y-61497733D01*
X100266380Y-61545352D01*
X100075904Y-61545352D01*
X99980666Y-61592971D01*
X99933047Y-61640590D01*
X99885428Y-61735828D01*
X99885428Y-61926304D01*
X99933047Y-62021542D01*
X99980666Y-62069161D01*
X100075904Y-62116780D01*
X100266380Y-62116780D01*
X100361619Y-62069161D01*
X100409238Y-62021542D01*
X100456857Y-61926304D01*
X100456857Y-61735828D01*
X100409238Y-61640590D01*
X100361619Y-61592971D01*
X100266380Y-61545352D01*
X59007476Y-32834780D02*
X59007476Y-33549066D01*
X58959857Y-33691923D01*
X58864619Y-33787161D01*
X58721761Y-33834780D01*
X58626523Y-33834780D01*
X59436047Y-32930019D02*
X59483666Y-32882400D01*
X59578904Y-32834780D01*
X59817000Y-32834780D01*
X59912238Y-32882400D01*
X59959857Y-32930019D01*
X60007476Y-33025257D01*
X60007476Y-33120495D01*
X59959857Y-33263352D01*
X59388428Y-33834780D01*
X60007476Y-33834780D01*
X60483666Y-33834780D02*
X60674142Y-33834780D01*
X60769380Y-33787161D01*
X60817000Y-33739542D01*
X60912238Y-33596685D01*
X60959857Y-33406209D01*
X60959857Y-33025257D01*
X60912238Y-32930019D01*
X60864619Y-32882400D01*
X60769380Y-32834780D01*
X60578904Y-32834780D01*
X60483666Y-32882400D01*
X60436047Y-32930019D01*
X60388428Y-33025257D01*
X60388428Y-33263352D01*
X60436047Y-33358590D01*
X60483666Y-33406209D01*
X60578904Y-33453828D01*
X60769380Y-33453828D01*
X60864619Y-33406209D01*
X60912238Y-33358590D01*
X60959857Y-33263352D01*
X56467476Y-32834780D02*
X56467476Y-33549066D01*
X56419857Y-33691923D01*
X56324619Y-33787161D01*
X56181761Y-33834780D01*
X56086523Y-33834780D01*
X56848428Y-32834780D02*
X57467476Y-32834780D01*
X57134142Y-33215733D01*
X57277000Y-33215733D01*
X57372238Y-33263352D01*
X57419857Y-33310971D01*
X57467476Y-33406209D01*
X57467476Y-33644304D01*
X57419857Y-33739542D01*
X57372238Y-33787161D01*
X57277000Y-33834780D01*
X56991285Y-33834780D01*
X56896047Y-33787161D01*
X56848428Y-33739542D01*
X58086523Y-32834780D02*
X58181761Y-32834780D01*
X58277000Y-32882400D01*
X58324619Y-32930019D01*
X58372238Y-33025257D01*
X58419857Y-33215733D01*
X58419857Y-33453828D01*
X58372238Y-33644304D01*
X58324619Y-33739542D01*
X58277000Y-33787161D01*
X58181761Y-33834780D01*
X58086523Y-33834780D01*
X57991285Y-33787161D01*
X57943666Y-33739542D01*
X57896047Y-33644304D01*
X57848428Y-33453828D01*
X57848428Y-33215733D01*
X57896047Y-33025257D01*
X57943666Y-32930019D01*
X57991285Y-32882400D01*
X58086523Y-32834780D01*
X75034876Y-32885580D02*
X75034876Y-33599866D01*
X74987257Y-33742723D01*
X74892019Y-33837961D01*
X74749161Y-33885580D01*
X74653923Y-33885580D01*
X75415828Y-32885580D02*
X76034876Y-32885580D01*
X75701542Y-33266533D01*
X75844400Y-33266533D01*
X75939638Y-33314152D01*
X75987257Y-33361771D01*
X76034876Y-33457009D01*
X76034876Y-33695104D01*
X75987257Y-33790342D01*
X75939638Y-33837961D01*
X75844400Y-33885580D01*
X75558685Y-33885580D01*
X75463447Y-33837961D01*
X75415828Y-33790342D01*
X76987257Y-33885580D02*
X76415828Y-33885580D01*
X76701542Y-33885580D02*
X76701542Y-32885580D01*
X76606304Y-33028438D01*
X76511066Y-33123676D01*
X76415828Y-33171295D01*
X72494876Y-32885580D02*
X72494876Y-33599866D01*
X72447257Y-33742723D01*
X72352019Y-33837961D01*
X72209161Y-33885580D01*
X72113923Y-33885580D01*
X72875828Y-32885580D02*
X73494876Y-32885580D01*
X73161542Y-33266533D01*
X73304400Y-33266533D01*
X73399638Y-33314152D01*
X73447257Y-33361771D01*
X73494876Y-33457009D01*
X73494876Y-33695104D01*
X73447257Y-33790342D01*
X73399638Y-33837961D01*
X73304400Y-33885580D01*
X73018685Y-33885580D01*
X72923447Y-33837961D01*
X72875828Y-33790342D01*
X73875828Y-32980819D02*
X73923447Y-32933200D01*
X74018685Y-32885580D01*
X74256780Y-32885580D01*
X74352019Y-32933200D01*
X74399638Y-32980819D01*
X74447257Y-33076057D01*
X74447257Y-33171295D01*
X74399638Y-33314152D01*
X73828209Y-33885580D01*
X74447257Y-33885580D01*
X22522380Y-19351523D02*
X23236666Y-19351523D01*
X23379523Y-19399142D01*
X23474761Y-19494380D01*
X23522380Y-19637238D01*
X23522380Y-19732476D01*
X22522380Y-18970571D02*
X22522380Y-18351523D01*
X22903333Y-18684857D01*
X22903333Y-18542000D01*
X22950952Y-18446761D01*
X22998571Y-18399142D01*
X23093809Y-18351523D01*
X23331904Y-18351523D01*
X23427142Y-18399142D01*
X23474761Y-18446761D01*
X23522380Y-18542000D01*
X23522380Y-18827714D01*
X23474761Y-18922952D01*
X23427142Y-18970571D01*
X22522380Y-18018190D02*
X22522380Y-17399142D01*
X22903333Y-17732476D01*
X22903333Y-17589619D01*
X22950952Y-17494380D01*
X22998571Y-17446761D01*
X23093809Y-17399142D01*
X23331904Y-17399142D01*
X23427142Y-17446761D01*
X23474761Y-17494380D01*
X23522380Y-17589619D01*
X23522380Y-17875333D01*
X23474761Y-17970571D01*
X23427142Y-18018190D01*
X45216380Y-49069523D02*
X45930666Y-49069523D01*
X46073523Y-49117142D01*
X46168761Y-49212380D01*
X46216380Y-49355238D01*
X46216380Y-49450476D01*
X45216380Y-48688571D02*
X45216380Y-48069523D01*
X45597333Y-48402857D01*
X45597333Y-48260000D01*
X45644952Y-48164761D01*
X45692571Y-48117142D01*
X45787809Y-48069523D01*
X46025904Y-48069523D01*
X46121142Y-48117142D01*
X46168761Y-48164761D01*
X46216380Y-48260000D01*
X46216380Y-48545714D01*
X46168761Y-48640952D01*
X46121142Y-48688571D01*
X45549714Y-47212380D02*
X46216380Y-47212380D01*
X45168761Y-47450476D02*
X45883047Y-47688571D01*
X45883047Y-47069523D01*
X90630476Y-32885580D02*
X90630476Y-33599866D01*
X90582857Y-33742723D01*
X90487619Y-33837961D01*
X90344761Y-33885580D01*
X90249523Y-33885580D01*
X91011428Y-32885580D02*
X91630476Y-32885580D01*
X91297142Y-33266533D01*
X91440000Y-33266533D01*
X91535238Y-33314152D01*
X91582857Y-33361771D01*
X91630476Y-33457009D01*
X91630476Y-33695104D01*
X91582857Y-33790342D01*
X91535238Y-33837961D01*
X91440000Y-33885580D01*
X91154285Y-33885580D01*
X91059047Y-33837961D01*
X91011428Y-33790342D01*
X92535238Y-32885580D02*
X92059047Y-32885580D01*
X92011428Y-33361771D01*
X92059047Y-33314152D01*
X92154285Y-33266533D01*
X92392380Y-33266533D01*
X92487619Y-33314152D01*
X92535238Y-33361771D01*
X92582857Y-33457009D01*
X92582857Y-33695104D01*
X92535238Y-33790342D01*
X92487619Y-33837961D01*
X92392380Y-33885580D01*
X92154285Y-33885580D01*
X92059047Y-33837961D01*
X92011428Y-33790342D01*
X61472380Y-49069523D02*
X62186666Y-49069523D01*
X62329523Y-49117142D01*
X62424761Y-49212380D01*
X62472380Y-49355238D01*
X62472380Y-49450476D01*
X61472380Y-48688571D02*
X61472380Y-48069523D01*
X61853333Y-48402857D01*
X61853333Y-48260000D01*
X61900952Y-48164761D01*
X61948571Y-48117142D01*
X62043809Y-48069523D01*
X62281904Y-48069523D01*
X62377142Y-48117142D01*
X62424761Y-48164761D01*
X62472380Y-48260000D01*
X62472380Y-48545714D01*
X62424761Y-48640952D01*
X62377142Y-48688571D01*
X61472380Y-47212380D02*
X61472380Y-47402857D01*
X61520000Y-47498095D01*
X61567619Y-47545714D01*
X61710476Y-47640952D01*
X61900952Y-47688571D01*
X62281904Y-47688571D01*
X62377142Y-47640952D01*
X62424761Y-47593333D01*
X62472380Y-47498095D01*
X62472380Y-47307619D01*
X62424761Y-47212380D01*
X62377142Y-47164761D01*
X62281904Y-47117142D01*
X62043809Y-47117142D01*
X61948571Y-47164761D01*
X61900952Y-47212380D01*
X61853333Y-47307619D01*
X61853333Y-47498095D01*
X61900952Y-47593333D01*
X61948571Y-47640952D01*
X62043809Y-47688571D01*
X88090476Y-32885580D02*
X88090476Y-33599866D01*
X88042857Y-33742723D01*
X87947619Y-33837961D01*
X87804761Y-33885580D01*
X87709523Y-33885580D01*
X88471428Y-32885580D02*
X89090476Y-32885580D01*
X88757142Y-33266533D01*
X88900000Y-33266533D01*
X88995238Y-33314152D01*
X89042857Y-33361771D01*
X89090476Y-33457009D01*
X89090476Y-33695104D01*
X89042857Y-33790342D01*
X88995238Y-33837961D01*
X88900000Y-33885580D01*
X88614285Y-33885580D01*
X88519047Y-33837961D01*
X88471428Y-33790342D01*
X89423809Y-32885580D02*
X90090476Y-32885580D01*
X89661904Y-33885580D01*
X106988076Y-32885580D02*
X106988076Y-33599866D01*
X106940457Y-33742723D01*
X106845219Y-33837961D01*
X106702361Y-33885580D01*
X106607123Y-33885580D01*
X107369028Y-32885580D02*
X107988076Y-32885580D01*
X107654742Y-33266533D01*
X107797600Y-33266533D01*
X107892838Y-33314152D01*
X107940457Y-33361771D01*
X107988076Y-33457009D01*
X107988076Y-33695104D01*
X107940457Y-33790342D01*
X107892838Y-33837961D01*
X107797600Y-33885580D01*
X107511885Y-33885580D01*
X107416647Y-33837961D01*
X107369028Y-33790342D01*
X108559504Y-33314152D02*
X108464266Y-33266533D01*
X108416647Y-33218914D01*
X108369028Y-33123676D01*
X108369028Y-33076057D01*
X108416647Y-32980819D01*
X108464266Y-32933200D01*
X108559504Y-32885580D01*
X108749980Y-32885580D01*
X108845219Y-32933200D01*
X108892838Y-32980819D01*
X108940457Y-33076057D01*
X108940457Y-33123676D01*
X108892838Y-33218914D01*
X108845219Y-33266533D01*
X108749980Y-33314152D01*
X108559504Y-33314152D01*
X108464266Y-33361771D01*
X108416647Y-33409390D01*
X108369028Y-33504628D01*
X108369028Y-33695104D01*
X108416647Y-33790342D01*
X108464266Y-33837961D01*
X108559504Y-33885580D01*
X108749980Y-33885580D01*
X108845219Y-33837961D01*
X108892838Y-33790342D01*
X108940457Y-33695104D01*
X108940457Y-33504628D01*
X108892838Y-33409390D01*
X108845219Y-33361771D01*
X108749980Y-33314152D01*
X37127380Y-19351523D02*
X37841666Y-19351523D01*
X37984523Y-19399142D01*
X38079761Y-19494380D01*
X38127380Y-19637238D01*
X38127380Y-19732476D01*
X37127380Y-18970571D02*
X37127380Y-18351523D01*
X37508333Y-18684857D01*
X37508333Y-18542000D01*
X37555952Y-18446761D01*
X37603571Y-18399142D01*
X37698809Y-18351523D01*
X37936904Y-18351523D01*
X38032142Y-18399142D01*
X38079761Y-18446761D01*
X38127380Y-18542000D01*
X38127380Y-18827714D01*
X38079761Y-18922952D01*
X38032142Y-18970571D01*
X38127380Y-17875333D02*
X38127380Y-17684857D01*
X38079761Y-17589619D01*
X38032142Y-17542000D01*
X37889285Y-17446761D01*
X37698809Y-17399142D01*
X37317857Y-17399142D01*
X37222619Y-17446761D01*
X37175000Y-17494380D01*
X37127380Y-17589619D01*
X37127380Y-17780095D01*
X37175000Y-17875333D01*
X37222619Y-17922952D01*
X37317857Y-17970571D01*
X37555952Y-17970571D01*
X37651190Y-17922952D01*
X37698809Y-17875333D01*
X37746428Y-17780095D01*
X37746428Y-17589619D01*
X37698809Y-17494380D01*
X37651190Y-17446761D01*
X37555952Y-17399142D01*
X104448076Y-32885580D02*
X104448076Y-33599866D01*
X104400457Y-33742723D01*
X104305219Y-33837961D01*
X104162361Y-33885580D01*
X104067123Y-33885580D01*
X105352838Y-33218914D02*
X105352838Y-33885580D01*
X105114742Y-32837961D02*
X104876647Y-33552247D01*
X105495695Y-33552247D01*
X106067123Y-32885580D02*
X106162361Y-32885580D01*
X106257600Y-32933200D01*
X106305219Y-32980819D01*
X106352838Y-33076057D01*
X106400457Y-33266533D01*
X106400457Y-33504628D01*
X106352838Y-33695104D01*
X106305219Y-33790342D01*
X106257600Y-33837961D01*
X106162361Y-33885580D01*
X106067123Y-33885580D01*
X105971885Y-33837961D01*
X105924266Y-33790342D01*
X105876647Y-33695104D01*
X105829028Y-33504628D01*
X105829028Y-33266533D01*
X105876647Y-33076057D01*
X105924266Y-32980819D01*
X105971885Y-32933200D01*
X106067123Y-32885580D01*
X29214380Y-49069523D02*
X29928666Y-49069523D01*
X30071523Y-49117142D01*
X30166761Y-49212380D01*
X30214380Y-49355238D01*
X30214380Y-49450476D01*
X29547714Y-48164761D02*
X30214380Y-48164761D01*
X29166761Y-48402857D02*
X29881047Y-48640952D01*
X29881047Y-48021904D01*
X30214380Y-47117142D02*
X30214380Y-47688571D01*
X30214380Y-47402857D02*
X29214380Y-47402857D01*
X29357238Y-47498095D01*
X29452476Y-47593333D01*
X29500095Y-47688571D01*
X51732380Y-19351523D02*
X52446666Y-19351523D01*
X52589523Y-19399142D01*
X52684761Y-19494380D01*
X52732380Y-19637238D01*
X52732380Y-19732476D01*
X52065714Y-18446761D02*
X52732380Y-18446761D01*
X51684761Y-18684857D02*
X52399047Y-18922952D01*
X52399047Y-18303904D01*
X52065714Y-17494380D02*
X52732380Y-17494380D01*
X51684761Y-17732476D02*
X52399047Y-17970571D01*
X52399047Y-17351523D01*
X93222380Y-49069523D02*
X93936666Y-49069523D01*
X94079523Y-49117142D01*
X94174761Y-49212380D01*
X94222380Y-49355238D01*
X94222380Y-49450476D01*
X93555714Y-48164761D02*
X94222380Y-48164761D01*
X93174761Y-48402857D02*
X93889047Y-48640952D01*
X93889047Y-48021904D01*
X93222380Y-47212380D02*
X93222380Y-47402857D01*
X93270000Y-47498095D01*
X93317619Y-47545714D01*
X93460476Y-47640952D01*
X93650952Y-47688571D01*
X94031904Y-47688571D01*
X94127142Y-47640952D01*
X94174761Y-47593333D01*
X94222380Y-47498095D01*
X94222380Y-47307619D01*
X94174761Y-47212380D01*
X94127142Y-47164761D01*
X94031904Y-47117142D01*
X93793809Y-47117142D01*
X93698571Y-47164761D01*
X93650952Y-47212380D01*
X93603333Y-47307619D01*
X93603333Y-47498095D01*
X93650952Y-47593333D01*
X93698571Y-47640952D01*
X93793809Y-47688571D01*
X80307380Y-19351523D02*
X81021666Y-19351523D01*
X81164523Y-19399142D01*
X81259761Y-19494380D01*
X81307380Y-19637238D01*
X81307380Y-19732476D01*
X80640714Y-18446761D02*
X81307380Y-18446761D01*
X80259761Y-18684857D02*
X80974047Y-18922952D01*
X80974047Y-18303904D01*
X81307380Y-17875333D02*
X81307380Y-17684857D01*
X81259761Y-17589619D01*
X81212142Y-17542000D01*
X81069285Y-17446761D01*
X80878809Y-17399142D01*
X80497857Y-17399142D01*
X80402619Y-17446761D01*
X80355000Y-17494380D01*
X80307380Y-17589619D01*
X80307380Y-17780095D01*
X80355000Y-17875333D01*
X80402619Y-17922952D01*
X80497857Y-17970571D01*
X80735952Y-17970571D01*
X80831190Y-17922952D01*
X80878809Y-17875333D01*
X80926428Y-17780095D01*
X80926428Y-17589619D01*
X80878809Y-17494380D01*
X80831190Y-17446761D01*
X80735952Y-17399142D01*
X109224380Y-49069523D02*
X109938666Y-49069523D01*
X110081523Y-49117142D01*
X110176761Y-49212380D01*
X110224380Y-49355238D01*
X110224380Y-49450476D01*
X109224380Y-48117142D02*
X109224380Y-48593333D01*
X109700571Y-48640952D01*
X109652952Y-48593333D01*
X109605333Y-48498095D01*
X109605333Y-48260000D01*
X109652952Y-48164761D01*
X109700571Y-48117142D01*
X109795809Y-48069523D01*
X110033904Y-48069523D01*
X110129142Y-48117142D01*
X110176761Y-48164761D01*
X110224380Y-48260000D01*
X110224380Y-48498095D01*
X110176761Y-48593333D01*
X110129142Y-48640952D01*
X110224380Y-47117142D02*
X110224380Y-47688571D01*
X110224380Y-47402857D02*
X109224380Y-47402857D01*
X109367238Y-47498095D01*
X109462476Y-47593333D01*
X109510095Y-47688571D01*
X94277380Y-19351523D02*
X94991666Y-19351523D01*
X95134523Y-19399142D01*
X95229761Y-19494380D01*
X95277380Y-19637238D01*
X95277380Y-19732476D01*
X94277380Y-18399142D02*
X94277380Y-18875333D01*
X94753571Y-18922952D01*
X94705952Y-18875333D01*
X94658333Y-18780095D01*
X94658333Y-18542000D01*
X94705952Y-18446761D01*
X94753571Y-18399142D01*
X94848809Y-18351523D01*
X95086904Y-18351523D01*
X95182142Y-18399142D01*
X95229761Y-18446761D01*
X95277380Y-18542000D01*
X95277380Y-18780095D01*
X95229761Y-18875333D01*
X95182142Y-18922952D01*
X94610714Y-17494380D02*
X95277380Y-17494380D01*
X94229761Y-17732476D02*
X94944047Y-17970571D01*
X94944047Y-17351523D01*
X77220380Y-49069523D02*
X77934666Y-49069523D01*
X78077523Y-49117142D01*
X78172761Y-49212380D01*
X78220380Y-49355238D01*
X78220380Y-49450476D01*
X77220380Y-48117142D02*
X77220380Y-48593333D01*
X77696571Y-48640952D01*
X77648952Y-48593333D01*
X77601333Y-48498095D01*
X77601333Y-48260000D01*
X77648952Y-48164761D01*
X77696571Y-48117142D01*
X77791809Y-48069523D01*
X78029904Y-48069523D01*
X78125142Y-48117142D01*
X78172761Y-48164761D01*
X78220380Y-48260000D01*
X78220380Y-48498095D01*
X78172761Y-48593333D01*
X78125142Y-48640952D01*
X77220380Y-47736190D02*
X77220380Y-47069523D01*
X78220380Y-47498095D01*
X66337380Y-19351523D02*
X67051666Y-19351523D01*
X67194523Y-19399142D01*
X67289761Y-19494380D01*
X67337380Y-19637238D01*
X67337380Y-19732476D01*
X66337380Y-18446761D02*
X66337380Y-18637238D01*
X66385000Y-18732476D01*
X66432619Y-18780095D01*
X66575476Y-18875333D01*
X66765952Y-18922952D01*
X67146904Y-18922952D01*
X67242142Y-18875333D01*
X67289761Y-18827714D01*
X67337380Y-18732476D01*
X67337380Y-18542000D01*
X67289761Y-18446761D01*
X67242142Y-18399142D01*
X67146904Y-18351523D01*
X66908809Y-18351523D01*
X66813571Y-18399142D01*
X66765952Y-18446761D01*
X66718333Y-18542000D01*
X66718333Y-18732476D01*
X66765952Y-18827714D01*
X66813571Y-18875333D01*
X66908809Y-18922952D01*
X66337380Y-17732476D02*
X66337380Y-17637238D01*
X66385000Y-17542000D01*
X66432619Y-17494380D01*
X66527857Y-17446761D01*
X66718333Y-17399142D01*
X66956428Y-17399142D01*
X67146904Y-17446761D01*
X67242142Y-17494380D01*
X67289761Y-17542000D01*
X67337380Y-17637238D01*
X67337380Y-17732476D01*
X67289761Y-17827714D01*
X67242142Y-17875333D01*
X67146904Y-17922952D01*
X66956428Y-17970571D01*
X66718333Y-17970571D01*
X66527857Y-17922952D01*
X66432619Y-17875333D01*
X66385000Y-17827714D01*
X66337380Y-17732476D01*
X51649333Y-105204380D02*
X51173142Y-105204380D01*
X51173142Y-104204380D01*
X52506476Y-105204380D02*
X51935047Y-105204380D01*
X52220761Y-105204380D02*
X52220761Y-104204380D01*
X52125523Y-104347238D01*
X52030285Y-104442476D01*
X51935047Y-104490095D01*
X98964761Y-64682619D02*
X98869523Y-64635000D01*
X98774285Y-64539761D01*
X98631428Y-64396904D01*
X98536190Y-64349285D01*
X98440952Y-64349285D01*
X98488571Y-64587380D02*
X98393333Y-64539761D01*
X98298095Y-64444523D01*
X98250476Y-64254047D01*
X98250476Y-63920714D01*
X98298095Y-63730238D01*
X98393333Y-63635000D01*
X98488571Y-63587380D01*
X98679047Y-63587380D01*
X98774285Y-63635000D01*
X98869523Y-63730238D01*
X98917142Y-63920714D01*
X98917142Y-64254047D01*
X98869523Y-64444523D01*
X98774285Y-64539761D01*
X98679047Y-64587380D01*
X98488571Y-64587380D01*
X99869523Y-64587380D02*
X99298095Y-64587380D01*
X99583809Y-64587380D02*
X99583809Y-63587380D01*
X99488571Y-63730238D01*
X99393333Y-63825476D01*
X99298095Y-63873095D01*
X22772619Y-92805238D02*
X22725000Y-92900476D01*
X22629761Y-92995714D01*
X22486904Y-93138571D01*
X22439285Y-93233809D01*
X22439285Y-93329047D01*
X22677380Y-93281428D02*
X22629761Y-93376666D01*
X22534523Y-93471904D01*
X22344047Y-93519523D01*
X22010714Y-93519523D01*
X21820238Y-93471904D01*
X21725000Y-93376666D01*
X21677380Y-93281428D01*
X21677380Y-93090952D01*
X21725000Y-92995714D01*
X21820238Y-92900476D01*
X22010714Y-92852857D01*
X22344047Y-92852857D01*
X22534523Y-92900476D01*
X22629761Y-92995714D01*
X22677380Y-93090952D01*
X22677380Y-93281428D01*
X21772619Y-92471904D02*
X21725000Y-92424285D01*
X21677380Y-92329047D01*
X21677380Y-92090952D01*
X21725000Y-91995714D01*
X21772619Y-91948095D01*
X21867857Y-91900476D01*
X21963095Y-91900476D01*
X22105952Y-91948095D01*
X22677380Y-92519523D01*
X22677380Y-91900476D01*
X86445619Y-90700238D02*
X86398000Y-90795476D01*
X86302761Y-90890714D01*
X86159904Y-91033571D01*
X86112285Y-91128809D01*
X86112285Y-91224047D01*
X86350380Y-91176428D02*
X86302761Y-91271666D01*
X86207523Y-91366904D01*
X86017047Y-91414523D01*
X85683714Y-91414523D01*
X85493238Y-91366904D01*
X85398000Y-91271666D01*
X85350380Y-91176428D01*
X85350380Y-90985952D01*
X85398000Y-90890714D01*
X85493238Y-90795476D01*
X85683714Y-90747857D01*
X86017047Y-90747857D01*
X86207523Y-90795476D01*
X86302761Y-90890714D01*
X86350380Y-90985952D01*
X86350380Y-91176428D01*
X85350380Y-90414523D02*
X85350380Y-89795476D01*
X85731333Y-90128809D01*
X85731333Y-89985952D01*
X85778952Y-89890714D01*
X85826571Y-89843095D01*
X85921809Y-89795476D01*
X86159904Y-89795476D01*
X86255142Y-89843095D01*
X86302761Y-89890714D01*
X86350380Y-89985952D01*
X86350380Y-90271666D01*
X86302761Y-90366904D01*
X86255142Y-90414523D01*
X99653619Y-90773238D02*
X99606000Y-90868476D01*
X99510761Y-90963714D01*
X99367904Y-91106571D01*
X99320285Y-91201809D01*
X99320285Y-91297047D01*
X99558380Y-91249428D02*
X99510761Y-91344666D01*
X99415523Y-91439904D01*
X99225047Y-91487523D01*
X98891714Y-91487523D01*
X98701238Y-91439904D01*
X98606000Y-91344666D01*
X98558380Y-91249428D01*
X98558380Y-91058952D01*
X98606000Y-90963714D01*
X98701238Y-90868476D01*
X98891714Y-90820857D01*
X99225047Y-90820857D01*
X99415523Y-90868476D01*
X99510761Y-90963714D01*
X99558380Y-91058952D01*
X99558380Y-91249428D01*
X98891714Y-89963714D02*
X99558380Y-89963714D01*
X98510761Y-90201809D02*
X99225047Y-90439904D01*
X99225047Y-89820857D01*
X73237619Y-90519238D02*
X73190000Y-90614476D01*
X73094761Y-90709714D01*
X72951904Y-90852571D01*
X72904285Y-90947809D01*
X72904285Y-91043047D01*
X73142380Y-90995428D02*
X73094761Y-91090666D01*
X72999523Y-91185904D01*
X72809047Y-91233523D01*
X72475714Y-91233523D01*
X72285238Y-91185904D01*
X72190000Y-91090666D01*
X72142380Y-90995428D01*
X72142380Y-90804952D01*
X72190000Y-90709714D01*
X72285238Y-90614476D01*
X72475714Y-90566857D01*
X72809047Y-90566857D01*
X72999523Y-90614476D01*
X73094761Y-90709714D01*
X73142380Y-90804952D01*
X73142380Y-90995428D01*
X72142380Y-89662095D02*
X72142380Y-90138285D01*
X72618571Y-90185904D01*
X72570952Y-90138285D01*
X72523333Y-90043047D01*
X72523333Y-89804952D01*
X72570952Y-89709714D01*
X72618571Y-89662095D01*
X72713809Y-89614476D01*
X72951904Y-89614476D01*
X73047142Y-89662095D01*
X73094761Y-89709714D01*
X73142380Y-89804952D01*
X73142380Y-90043047D01*
X73094761Y-90138285D01*
X73047142Y-90185904D01*
X20052380Y-87796666D02*
X19576190Y-88130000D01*
X20052380Y-88368095D02*
X19052380Y-88368095D01*
X19052380Y-87987142D01*
X19100000Y-87891904D01*
X19147619Y-87844285D01*
X19242857Y-87796666D01*
X19385714Y-87796666D01*
X19480952Y-87844285D01*
X19528571Y-87891904D01*
X19576190Y-87987142D01*
X19576190Y-88368095D01*
X19147619Y-87415714D02*
X19100000Y-87368095D01*
X19052380Y-87272857D01*
X19052380Y-87034761D01*
X19100000Y-86939523D01*
X19147619Y-86891904D01*
X19242857Y-86844285D01*
X19338095Y-86844285D01*
X19480952Y-86891904D01*
X20052380Y-87463333D01*
X20052380Y-86844285D01*
X24497380Y-88431666D02*
X24021190Y-88765000D01*
X24497380Y-89003095D02*
X23497380Y-89003095D01*
X23497380Y-88622142D01*
X23545000Y-88526904D01*
X23592619Y-88479285D01*
X23687857Y-88431666D01*
X23830714Y-88431666D01*
X23925952Y-88479285D01*
X23973571Y-88526904D01*
X24021190Y-88622142D01*
X24021190Y-89003095D01*
X23497380Y-88098333D02*
X23497380Y-87479285D01*
X23878333Y-87812619D01*
X23878333Y-87669761D01*
X23925952Y-87574523D01*
X23973571Y-87526904D01*
X24068809Y-87479285D01*
X24306904Y-87479285D01*
X24402142Y-87526904D01*
X24449761Y-87574523D01*
X24497380Y-87669761D01*
X24497380Y-87955476D01*
X24449761Y-88050714D01*
X24402142Y-88098333D01*
X83552380Y-78906666D02*
X83076190Y-79240000D01*
X83552380Y-79478095D02*
X82552380Y-79478095D01*
X82552380Y-79097142D01*
X82600000Y-79001904D01*
X82647619Y-78954285D01*
X82742857Y-78906666D01*
X82885714Y-78906666D01*
X82980952Y-78954285D01*
X83028571Y-79001904D01*
X83076190Y-79097142D01*
X83076190Y-79478095D01*
X82552380Y-78001904D02*
X82552380Y-78478095D01*
X83028571Y-78525714D01*
X82980952Y-78478095D01*
X82933333Y-78382857D01*
X82933333Y-78144761D01*
X82980952Y-78049523D01*
X83028571Y-78001904D01*
X83123809Y-77954285D01*
X83361904Y-77954285D01*
X83457142Y-78001904D01*
X83504761Y-78049523D01*
X83552380Y-78144761D01*
X83552380Y-78382857D01*
X83504761Y-78478095D01*
X83457142Y-78525714D01*
X79742380Y-78906666D02*
X79266190Y-79240000D01*
X79742380Y-79478095D02*
X78742380Y-79478095D01*
X78742380Y-79097142D01*
X78790000Y-79001904D01*
X78837619Y-78954285D01*
X78932857Y-78906666D01*
X79075714Y-78906666D01*
X79170952Y-78954285D01*
X79218571Y-79001904D01*
X79266190Y-79097142D01*
X79266190Y-79478095D01*
X78742380Y-78049523D02*
X78742380Y-78240000D01*
X78790000Y-78335238D01*
X78837619Y-78382857D01*
X78980476Y-78478095D01*
X79170952Y-78525714D01*
X79551904Y-78525714D01*
X79647142Y-78478095D01*
X79694761Y-78430476D01*
X79742380Y-78335238D01*
X79742380Y-78144761D01*
X79694761Y-78049523D01*
X79647142Y-78001904D01*
X79551904Y-77954285D01*
X79313809Y-77954285D01*
X79218571Y-78001904D01*
X79170952Y-78049523D01*
X79123333Y-78144761D01*
X79123333Y-78335238D01*
X79170952Y-78430476D01*
X79218571Y-78478095D01*
X79313809Y-78525714D01*
X91832780Y-79059066D02*
X91356590Y-79392400D01*
X91832780Y-79630495D02*
X90832780Y-79630495D01*
X90832780Y-79249542D01*
X90880400Y-79154304D01*
X90928019Y-79106685D01*
X91023257Y-79059066D01*
X91166114Y-79059066D01*
X91261352Y-79106685D01*
X91308971Y-79154304D01*
X91356590Y-79249542D01*
X91356590Y-79630495D01*
X91261352Y-78487638D02*
X91213733Y-78582876D01*
X91166114Y-78630495D01*
X91070876Y-78678114D01*
X91023257Y-78678114D01*
X90928019Y-78630495D01*
X90880400Y-78582876D01*
X90832780Y-78487638D01*
X90832780Y-78297161D01*
X90880400Y-78201923D01*
X90928019Y-78154304D01*
X91023257Y-78106685D01*
X91070876Y-78106685D01*
X91166114Y-78154304D01*
X91213733Y-78201923D01*
X91261352Y-78297161D01*
X91261352Y-78487638D01*
X91308971Y-78582876D01*
X91356590Y-78630495D01*
X91451828Y-78678114D01*
X91642304Y-78678114D01*
X91737542Y-78630495D01*
X91785161Y-78582876D01*
X91832780Y-78487638D01*
X91832780Y-78297161D01*
X91785161Y-78201923D01*
X91737542Y-78154304D01*
X91642304Y-78106685D01*
X91451828Y-78106685D01*
X91356590Y-78154304D01*
X91308971Y-78201923D01*
X91261352Y-78297161D01*
X88530780Y-78325466D02*
X88054590Y-78658800D01*
X88530780Y-78896895D02*
X87530780Y-78896895D01*
X87530780Y-78515942D01*
X87578400Y-78420704D01*
X87626019Y-78373085D01*
X87721257Y-78325466D01*
X87864114Y-78325466D01*
X87959352Y-78373085D01*
X88006971Y-78420704D01*
X88054590Y-78515942D01*
X88054590Y-78896895D01*
X88530780Y-77849276D02*
X88530780Y-77658800D01*
X88483161Y-77563561D01*
X88435542Y-77515942D01*
X88292685Y-77420704D01*
X88102209Y-77373085D01*
X87721257Y-77373085D01*
X87626019Y-77420704D01*
X87578400Y-77468323D01*
X87530780Y-77563561D01*
X87530780Y-77754038D01*
X87578400Y-77849276D01*
X87626019Y-77896895D01*
X87721257Y-77944514D01*
X87959352Y-77944514D01*
X88054590Y-77896895D01*
X88102209Y-77849276D01*
X88149828Y-77754038D01*
X88149828Y-77563561D01*
X88102209Y-77468323D01*
X88054590Y-77420704D01*
X87959352Y-77373085D01*
X70090380Y-79382857D02*
X69614190Y-79716190D01*
X70090380Y-79954285D02*
X69090380Y-79954285D01*
X69090380Y-79573333D01*
X69138000Y-79478095D01*
X69185619Y-79430476D01*
X69280857Y-79382857D01*
X69423714Y-79382857D01*
X69518952Y-79430476D01*
X69566571Y-79478095D01*
X69614190Y-79573333D01*
X69614190Y-79954285D01*
X70090380Y-78430476D02*
X70090380Y-79001904D01*
X70090380Y-78716190D02*
X69090380Y-78716190D01*
X69233238Y-78811428D01*
X69328476Y-78906666D01*
X69376095Y-79001904D01*
X70090380Y-77478095D02*
X70090380Y-78049523D01*
X70090380Y-77763809D02*
X69090380Y-77763809D01*
X69233238Y-77859047D01*
X69328476Y-77954285D01*
X69376095Y-78049523D01*
X66280380Y-79382857D02*
X65804190Y-79716190D01*
X66280380Y-79954285D02*
X65280380Y-79954285D01*
X65280380Y-79573333D01*
X65328000Y-79478095D01*
X65375619Y-79430476D01*
X65470857Y-79382857D01*
X65613714Y-79382857D01*
X65708952Y-79430476D01*
X65756571Y-79478095D01*
X65804190Y-79573333D01*
X65804190Y-79954285D01*
X66280380Y-78430476D02*
X66280380Y-79001904D01*
X66280380Y-78716190D02*
X65280380Y-78716190D01*
X65423238Y-78811428D01*
X65518476Y-78906666D01*
X65566095Y-79001904D01*
X65375619Y-78049523D02*
X65328000Y-78001904D01*
X65280380Y-77906666D01*
X65280380Y-77668571D01*
X65328000Y-77573333D01*
X65375619Y-77525714D01*
X65470857Y-77478095D01*
X65566095Y-77478095D01*
X65708952Y-77525714D01*
X66280380Y-78097142D01*
X66280380Y-77478095D01*
X92702142Y-61116380D02*
X92368809Y-60640190D01*
X92130714Y-61116380D02*
X92130714Y-60116380D01*
X92511666Y-60116380D01*
X92606904Y-60164000D01*
X92654523Y-60211619D01*
X92702142Y-60306857D01*
X92702142Y-60449714D01*
X92654523Y-60544952D01*
X92606904Y-60592571D01*
X92511666Y-60640190D01*
X92130714Y-60640190D01*
X93654523Y-61116380D02*
X93083095Y-61116380D01*
X93368809Y-61116380D02*
X93368809Y-60116380D01*
X93273571Y-60259238D01*
X93178333Y-60354476D01*
X93083095Y-60402095D01*
X93987857Y-60116380D02*
X94654523Y-60116380D01*
X94225952Y-61116380D01*
X89149180Y-67698857D02*
X88672990Y-68032190D01*
X89149180Y-68270285D02*
X88149180Y-68270285D01*
X88149180Y-67889333D01*
X88196800Y-67794095D01*
X88244419Y-67746476D01*
X88339657Y-67698857D01*
X88482514Y-67698857D01*
X88577752Y-67746476D01*
X88625371Y-67794095D01*
X88672990Y-67889333D01*
X88672990Y-68270285D01*
X89149180Y-66746476D02*
X89149180Y-67317904D01*
X89149180Y-67032190D02*
X88149180Y-67032190D01*
X88292038Y-67127428D01*
X88387276Y-67222666D01*
X88434895Y-67317904D01*
X88577752Y-66175047D02*
X88530133Y-66270285D01*
X88482514Y-66317904D01*
X88387276Y-66365523D01*
X88339657Y-66365523D01*
X88244419Y-66317904D01*
X88196800Y-66270285D01*
X88149180Y-66175047D01*
X88149180Y-65984571D01*
X88196800Y-65889333D01*
X88244419Y-65841714D01*
X88339657Y-65794095D01*
X88387276Y-65794095D01*
X88482514Y-65841714D01*
X88530133Y-65889333D01*
X88577752Y-65984571D01*
X88577752Y-66175047D01*
X88625371Y-66270285D01*
X88672990Y-66317904D01*
X88768228Y-66365523D01*
X88958704Y-66365523D01*
X89053942Y-66317904D01*
X89101561Y-66270285D01*
X89149180Y-66175047D01*
X89149180Y-65984571D01*
X89101561Y-65889333D01*
X89053942Y-65841714D01*
X88958704Y-65794095D01*
X88768228Y-65794095D01*
X88672990Y-65841714D01*
X88625371Y-65889333D01*
X88577752Y-65984571D01*
X26408142Y-81436380D02*
X26074809Y-80960190D01*
X25836714Y-81436380D02*
X25836714Y-80436380D01*
X26217666Y-80436380D01*
X26312904Y-80484000D01*
X26360523Y-80531619D01*
X26408142Y-80626857D01*
X26408142Y-80769714D01*
X26360523Y-80864952D01*
X26312904Y-80912571D01*
X26217666Y-80960190D01*
X25836714Y-80960190D01*
X26789095Y-80531619D02*
X26836714Y-80484000D01*
X26931952Y-80436380D01*
X27170047Y-80436380D01*
X27265285Y-80484000D01*
X27312904Y-80531619D01*
X27360523Y-80626857D01*
X27360523Y-80722095D01*
X27312904Y-80864952D01*
X26741476Y-81436380D01*
X27360523Y-81436380D01*
X28312904Y-81436380D02*
X27741476Y-81436380D01*
X28027190Y-81436380D02*
X28027190Y-80436380D01*
X27931952Y-80579238D01*
X27836714Y-80674476D01*
X27741476Y-80722095D01*
X26408142Y-77880380D02*
X26074809Y-77404190D01*
X25836714Y-77880380D02*
X25836714Y-76880380D01*
X26217666Y-76880380D01*
X26312904Y-76928000D01*
X26360523Y-76975619D01*
X26408142Y-77070857D01*
X26408142Y-77213714D01*
X26360523Y-77308952D01*
X26312904Y-77356571D01*
X26217666Y-77404190D01*
X25836714Y-77404190D01*
X26789095Y-76975619D02*
X26836714Y-76928000D01*
X26931952Y-76880380D01*
X27170047Y-76880380D01*
X27265285Y-76928000D01*
X27312904Y-76975619D01*
X27360523Y-77070857D01*
X27360523Y-77166095D01*
X27312904Y-77308952D01*
X26741476Y-77880380D01*
X27360523Y-77880380D01*
X27741476Y-76975619D02*
X27789095Y-76928000D01*
X27884333Y-76880380D01*
X28122428Y-76880380D01*
X28217666Y-76928000D01*
X28265285Y-76975619D01*
X28312904Y-77070857D01*
X28312904Y-77166095D01*
X28265285Y-77308952D01*
X27693857Y-77880380D01*
X28312904Y-77880380D01*
X26408142Y-74324380D02*
X26074809Y-73848190D01*
X25836714Y-74324380D02*
X25836714Y-73324380D01*
X26217666Y-73324380D01*
X26312904Y-73372000D01*
X26360523Y-73419619D01*
X26408142Y-73514857D01*
X26408142Y-73657714D01*
X26360523Y-73752952D01*
X26312904Y-73800571D01*
X26217666Y-73848190D01*
X25836714Y-73848190D01*
X26789095Y-73419619D02*
X26836714Y-73372000D01*
X26931952Y-73324380D01*
X27170047Y-73324380D01*
X27265285Y-73372000D01*
X27312904Y-73419619D01*
X27360523Y-73514857D01*
X27360523Y-73610095D01*
X27312904Y-73752952D01*
X26741476Y-74324380D01*
X27360523Y-74324380D01*
X27693857Y-73324380D02*
X28312904Y-73324380D01*
X27979571Y-73705333D01*
X28122428Y-73705333D01*
X28217666Y-73752952D01*
X28265285Y-73800571D01*
X28312904Y-73895809D01*
X28312904Y-74133904D01*
X28265285Y-74229142D01*
X28217666Y-74276761D01*
X28122428Y-74324380D01*
X27836714Y-74324380D01*
X27741476Y-74276761D01*
X27693857Y-74229142D01*
X26405142Y-70768380D02*
X26071809Y-70292190D01*
X25833714Y-70768380D02*
X25833714Y-69768380D01*
X26214666Y-69768380D01*
X26309904Y-69816000D01*
X26357523Y-69863619D01*
X26405142Y-69958857D01*
X26405142Y-70101714D01*
X26357523Y-70196952D01*
X26309904Y-70244571D01*
X26214666Y-70292190D01*
X25833714Y-70292190D01*
X26786095Y-69863619D02*
X26833714Y-69816000D01*
X26928952Y-69768380D01*
X27167047Y-69768380D01*
X27262285Y-69816000D01*
X27309904Y-69863619D01*
X27357523Y-69958857D01*
X27357523Y-70054095D01*
X27309904Y-70196952D01*
X26738476Y-70768380D01*
X27357523Y-70768380D01*
X28214666Y-70101714D02*
X28214666Y-70768380D01*
X27976571Y-69720761D02*
X27738476Y-70435047D01*
X28357523Y-70435047D01*
X39976095Y-86114380D02*
X39976095Y-86923904D01*
X40023714Y-87019142D01*
X40071333Y-87066761D01*
X40166571Y-87114380D01*
X40357047Y-87114380D01*
X40452285Y-87066761D01*
X40499904Y-87019142D01*
X40547523Y-86923904D01*
X40547523Y-86114380D01*
X41547523Y-87114380D02*
X40976095Y-87114380D01*
X41261809Y-87114380D02*
X41261809Y-86114380D01*
X41166571Y-86257238D01*
X41071333Y-86352476D01*
X40976095Y-86400095D01*
X42958380Y-65785904D02*
X43767904Y-65785904D01*
X43863142Y-65738285D01*
X43910761Y-65690666D01*
X43958380Y-65595428D01*
X43958380Y-65404952D01*
X43910761Y-65309714D01*
X43863142Y-65262095D01*
X43767904Y-65214476D01*
X42958380Y-65214476D01*
X42958380Y-64833523D02*
X42958380Y-64214476D01*
X43339333Y-64547809D01*
X43339333Y-64404952D01*
X43386952Y-64309714D01*
X43434571Y-64262095D01*
X43529809Y-64214476D01*
X43767904Y-64214476D01*
X43863142Y-64262095D01*
X43910761Y-64309714D01*
X43958380Y-64404952D01*
X43958380Y-64690666D01*
X43910761Y-64785904D01*
X43863142Y-64833523D01*
M02*
