M48
; DRILL file {KiCad (5.1.2)-1} date 10.12.2019 17:40:48
; FORMAT={-:-/ absolute / inch / decimal}
; #@! TF.CreationDate,2019-12-10T17:40:48+01:00
; #@! TF.GenerationSoftware,Kicad,Pcbnew,(5.1.2)-1
FMAT,2
INCH
T1C0.0157
T2C0.0315
T3C0.0394
T4C0.0433
T5C0.0472
T6C0.0787
T7C0.0945
T8C0.1260
%
G90
G05
T1
X0.775Y-3.525
X0.7949Y-3.3551
X0.9Y-3.725
X1.17Y-2.78
X1.17Y-2.91
X1.18Y-3.06
X1.19Y-3.23
X1.475Y-3.3
X1.8Y-3.125
X2.37Y-3.125
X2.37Y-3.225
X2.37Y-3.325
X2.37Y-3.425
X2.42Y-3.175
X2.42Y-3.275
X2.42Y-3.375
X2.89Y-3.12
X2.89Y-3.22
X2.89Y-3.32
X2.89Y-3.4
X2.93Y-3.16
X2.93Y-3.28
X2.93Y-3.36
X3.33Y-3.17
X3.33Y-3.24
X3.34Y-3.31
X3.37Y-3.26
X3.375Y-3.195
X3.38Y-3.36
X3.42Y-3.23
X3.42Y-3.3073
X3.49Y-2.82
X3.49Y-2.86
X3.49Y-2.9
X3.53Y-2.82
X3.53Y-2.86
X3.53Y-2.9
X3.57Y-2.82
X3.57Y-2.86
X3.57Y-2.9
T2
X1.386Y-1.006
X1.386Y-1.106
X1.386Y-1.206
X1.386Y-1.306
X1.386Y-1.406
X1.386Y-1.506
X1.386Y-1.606
X1.386Y-1.706
X1.886Y-1.006
X1.886Y-1.106
X1.886Y-1.206
X1.886Y-1.306
X1.886Y-1.406
X1.886Y-1.506
X1.886Y-1.606
X1.886Y-1.706
X3.277Y-1.008
X3.277Y-1.108
X3.277Y-1.208
X3.277Y-1.308
X3.277Y-1.408
X3.277Y-1.508
X3.277Y-1.608
X3.277Y-1.708
X3.777Y-1.008
X3.777Y-1.108
X3.777Y-1.208
X3.777Y-1.308
X3.777Y-1.408
X3.777Y-1.508
X3.777Y-1.608
X3.777Y-1.708
X0.756Y-1.006
X0.756Y-1.106
X0.756Y-1.206
X0.756Y-1.306
X0.756Y-1.406
X0.756Y-1.506
X0.756Y-1.606
X0.756Y-1.706
X1.256Y-1.006
X1.256Y-1.106
X1.256Y-1.206
X1.256Y-1.306
X1.256Y-1.406
X1.256Y-1.506
X1.256Y-1.606
X1.256Y-1.706
X2.649Y-1.008
X2.649Y-1.108
X2.649Y-1.208
X2.649Y-1.308
X2.649Y-1.408
X2.649Y-1.508
X2.649Y-1.608
X2.649Y-1.708
X3.149Y-1.008
X3.149Y-1.108
X3.149Y-1.208
X3.149Y-1.308
X3.149Y-1.408
X3.149Y-1.508
X3.149Y-1.608
X3.149Y-1.708
X2.018Y-1.007
X2.018Y-1.107
X2.018Y-1.207
X2.018Y-1.307
X2.018Y-1.407
X2.018Y-1.507
X2.018Y-1.607
X2.018Y-1.707
X2.518Y-1.007
X2.518Y-1.107
X2.518Y-1.207
X2.518Y-1.307
X2.518Y-1.407
X2.518Y-1.507
X2.518Y-1.607
X2.518Y-1.707
X3.908Y-1.008
X3.908Y-1.108
X3.908Y-1.208
X3.908Y-1.308
X3.908Y-1.408
X3.908Y-1.508
X3.908Y-1.608
X3.908Y-1.708
X4.408Y-1.008
X4.408Y-1.108
X4.408Y-1.208
X4.408Y-1.308
X4.408Y-1.408
X4.408Y-1.508
X4.408Y-1.608
X4.408Y-1.708
T3
X3.825Y-0.73
X3.925Y-0.73
X4.025Y-0.73
X4.125Y-0.73
X4.244Y-1.408
X4.244Y-1.508
X4.244Y-1.608
X0.77Y-2.9
X0.77Y-3.0
X0.77Y-3.1
X0.77Y-3.2
X0.87Y-2.9
X0.87Y-3.0
X0.87Y-3.1
X0.87Y-3.2
X4.144Y-1.408
X4.144Y-1.508
X4.144Y-1.608
X1.52Y-2.91
X1.52Y-3.01
X1.52Y-3.11
X1.62Y-2.91
X1.62Y-3.01
X1.62Y-3.11
X1.51Y-1.9
X1.61Y-1.9
X1.71Y-1.9
X0.88Y-1.9
X0.98Y-1.9
X1.08Y-1.9
X0.7519Y-2.315
X0.8519Y-2.315
X0.9519Y-2.315
X4.208Y-2.544
X4.308Y-2.544
X4.408Y-2.544
X2.775Y-2.875
X2.875Y-2.875
X2.975Y-2.875
X3.075Y-2.875
X3.175Y-2.875
X2.77Y-1.9
X2.87Y-1.9
X2.97Y-1.9
X4.03Y-1.9
X4.13Y-1.9
X4.23Y-1.9
X2.886Y-1.408
X2.886Y-1.508
X2.886Y-1.608
X4.208Y-2.834
X4.308Y-2.834
X4.408Y-2.834
X1.575Y-0.73
X1.675Y-0.73
X1.775Y-0.73
X1.875Y-0.73
X1.722Y-1.407
X1.722Y-1.507
X1.722Y-1.607
X3.5Y-1.408
X3.5Y-1.508
X3.5Y-1.608
X4.208Y-2.689
X4.308Y-2.689
X4.408Y-2.689
X0.986Y-1.405
X0.986Y-1.505
X0.986Y-1.605
X3.4Y-1.9
X3.5Y-1.9
X3.6Y-1.9
X0.7519Y-2.17
X0.8519Y-2.17
X0.9519Y-2.17
X2.725Y-0.73
X2.825Y-0.73
X2.925Y-0.73
X3.025Y-0.73
X3.6Y-1.408
X3.6Y-1.508
X3.6Y-1.608
X4.208Y-2.109
X4.308Y-2.109
X4.408Y-2.109
X1.622Y-1.407
X1.622Y-1.507
X1.622Y-1.607
X2.355Y-1.406
X2.355Y-1.506
X2.355Y-1.606
X2.255Y-1.406
X2.255Y-1.506
X2.255Y-1.606
X1.21Y-2.235
X1.21Y-2.335
X1.21Y-2.435
X1.21Y-2.535
X3.275Y-0.73
X3.375Y-0.73
X3.475Y-0.73
X3.575Y-0.73
X1.0Y-0.73
X1.1Y-0.73
X1.2Y-0.73
X1.3Y-0.73
X4.208Y-2.399
X4.308Y-2.399
X4.408Y-2.399
X1.086Y-1.405
X1.086Y-1.505
X1.086Y-1.605
X2.15Y-0.73
X2.25Y-0.73
X2.35Y-0.73
X2.45Y-0.73
X0.72Y-3.97
X0.82Y-3.97
X0.7519Y-2.605
X0.8519Y-2.605
X0.9519Y-2.605
X2.15Y-1.9
X2.25Y-1.9
X2.35Y-1.9
X4.208Y-2.254
X4.308Y-2.254
X4.408Y-2.254
X0.7519Y-2.4594
X0.8519Y-2.4594
X0.9519Y-2.4594
X3.86Y-2.136
X3.86Y-2.236
X3.86Y-2.336
X3.96Y-2.136
X3.96Y-2.236
X3.96Y-2.336
X2.35Y-2.7
X2.35Y-2.8
X2.45Y-2.7
X2.45Y-2.8
X2.986Y-1.408
X2.986Y-1.508
X2.986Y-1.608
T4
X1.47Y-3.58
X1.5369Y-3.58
X1.6039Y-3.58
X1.6708Y-3.58
X1.7377Y-3.58
T5
X4.327Y-3.833
X4.327Y-4.033
X3.57Y-4.195
X3.77Y-4.195
X1.13Y-4.23
X1.33Y-4.23
X4.32Y-3.13
X4.32Y-3.33
X2.45Y-4.195
X2.65Y-4.195
X3.02Y-4.195
X3.22Y-4.195
T6
X1.1589Y-3.8728
X1.5211Y-3.8728
X3.99Y-3.4778
X3.99Y-3.84
T7
X1.34Y-3.92
X4.0372Y-3.6589
T8
X4.393Y-4.395
X4.39Y-0.74
X0.807Y-4.26
X0.74Y-0.74
X2.925Y-2.325
T0
M30
