M48
; DRILL file {KiCad (5.1.5)-3} date 12.03.2020 16:10:26
; FORMAT={-:-/ absolute / inch / decimal}
; #@! TF.CreationDate,2020-03-12T16:10:26+01:00
; #@! TF.GenerationSoftware,Kicad,Pcbnew,(5.1.5)-3
FMAT,2
INCH
T1C0.0157
T2C0.0315
T3C0.0394
T4C0.0433
T5C0.0472
T6C0.0787
T7C0.0945
T8C0.1260
%
G90
G05
T1
X1.65Y-2.05
X1.958Y-3.696
X2.054Y-3.696
X2.136Y-3.696
X2.15Y-2.325
X2.15Y-2.375
X2.1671Y-4.0449
X2.1681Y-3.8981
X2.1697Y-4.1843
X2.191Y-3.739
X2.192Y-3.98
X2.2111Y-3.8551
X2.225Y-2.525
X2.236Y-4.014
X2.236Y-4.086
X2.256Y-3.928
X2.2711Y-3.7951
X2.275Y-2.525
X2.325Y-2.525
X2.425Y-4.175
X2.5Y-4.0
X2.61Y-2.985
X2.66Y-3.035
X2.71Y-2.885
X2.77Y-2.95
X2.815Y-2.795
X2.8307Y-2.7043
X2.85Y-2.25
X2.895Y-2.57
X2.895Y-2.705
X2.895Y-2.8
X2.92Y-2.245
X2.95Y-2.48
X3.002Y-3.127
X3.05Y-2.7
X3.05Y-3.925
X3.07Y-2.8
X3.1104Y-2.6992
X3.1104Y-2.8676
X3.125Y-3.925
X3.175Y-3.775
X3.225Y-2.71
X3.225Y-3.25
X3.225Y-3.5
X3.2295Y-3.4295
X3.245Y-2.945
X3.25Y-3.65
X3.25Y-3.85
X3.2583Y-3.2917
X3.28Y-2.71
X3.28Y-2.98
X3.2805Y-3.1555
X3.295Y-3.89
X3.3Y-3.02
X3.325Y-3.127
X3.325Y-3.775
X3.335Y-2.71
X3.35Y-4.05
X3.3625Y-2.5725
X3.4Y-2.59
X3.4Y-3.925
X3.4Y-4.075
X3.405Y-2.64
X3.4136Y-3.3114
X3.44Y-2.495
X3.45Y-3.47
X3.45Y-3.9
X3.47Y-3.27
X3.475Y-2.365
X3.475Y-3.525
X3.475Y-3.945
X3.5Y-2.8
X3.5Y-3.485
X3.5061Y-3.69
X3.535Y-3.73
X3.54Y-3.275
X3.55Y-3.875
X3.575Y-3.3
X3.575Y-3.775
X3.59Y-3.53
X3.6Y-3.485
X3.6045Y-3.8455
X3.65Y-3.285
X3.675Y-2.3
X3.675Y-3.85
X3.71Y-3.2634
X3.71Y-3.475
X3.715Y-3.38
X3.725Y-3.435
X3.725Y-3.85
X3.755Y-3.155
X3.785Y-3.12
X3.82Y-2.97
X3.82Y-3.095
X3.835Y-3.5901
X3.84Y-3.05
X3.875Y-3.46
X3.88Y-3.525
X3.895Y-3.575
X4.0Y-3.7
X4.0Y-3.875
X4.035Y-3.23
X4.035Y-3.675
X4.075Y-3.59
X4.075Y-3.7
X4.085Y-3.29
X4.085Y-3.29
X4.14Y-3.71
X4.175Y-2.65
X4.2Y-3.65
X4.215Y-3.54
X4.22Y-3.79
X4.23Y-3.395
X4.245Y-3.345
X4.26Y-3.61
X4.315Y-3.335
X4.35Y-3.84
X4.355Y-3.215
X4.435Y-3.215
X4.515Y-3.64
X4.535Y-3.53
X4.565Y-3.06
X4.64Y-3.87
X4.66Y-3.1
X4.71Y-4.09
X4.715Y-3.075
X4.7437Y-3.5287
X4.75Y-3.73
X4.85Y-3.475
T2
X3.175Y-1.375
X3.175Y-1.475
X3.175Y-1.575
X3.175Y-1.675
X3.175Y-1.775
X3.175Y-1.875
X3.175Y-1.975
X3.175Y-2.075
X3.675Y-1.375
X3.675Y-1.475
X3.675Y-1.575
X3.675Y-1.675
X3.675Y-1.775
X3.675Y-1.875
X3.675Y-1.975
X3.675Y-2.075
X1.925Y-1.375
X1.925Y-1.475
X1.925Y-1.575
X1.925Y-1.675
X1.925Y-1.775
X1.925Y-1.875
X1.925Y-1.975
X1.925Y-2.075
X2.425Y-1.375
X2.425Y-1.475
X2.425Y-1.575
X2.425Y-1.675
X2.425Y-1.775
X2.425Y-1.875
X2.425Y-1.975
X2.425Y-2.075
X3.8Y-1.375
X3.8Y-1.475
X3.8Y-1.575
X3.8Y-1.675
X3.8Y-1.775
X3.8Y-1.875
X3.8Y-1.975
X3.8Y-2.075
X4.3Y-1.375
X4.3Y-1.475
X4.3Y-1.575
X4.3Y-1.675
X4.3Y-1.775
X4.3Y-1.875
X4.3Y-1.975
X4.3Y-2.075
X2.55Y-1.375
X2.55Y-1.475
X2.55Y-1.575
X2.55Y-1.675
X2.55Y-1.775
X2.55Y-1.875
X2.55Y-1.975
X2.55Y-2.075
X3.05Y-1.375
X3.05Y-1.475
X3.05Y-1.575
X3.05Y-1.675
X3.05Y-1.775
X3.05Y-1.875
X3.05Y-1.975
X3.05Y-2.075
T3
X4.075Y-4.125
X4.075Y-4.225
X4.175Y-4.125
X4.175Y-4.225
X4.275Y-4.125
X4.275Y-4.225
X4.375Y-4.125
X4.375Y-4.225
X4.475Y-4.125
X4.475Y-4.225
X2.725Y-2.65
X2.725Y-2.75
X3.45Y-2.875
X3.55Y-2.875
X3.65Y-2.875
X3.95Y-1.15
X4.05Y-1.15
X4.15Y-1.15
X4.25Y-1.15
X4.65Y-2.325
X4.65Y-2.425
X4.65Y-2.525
X4.65Y-2.625
X4.65Y-2.725
X4.65Y-2.825
X4.65Y-2.925
X2.95Y-1.15
X3.05Y-1.15
X3.15Y-1.15
X3.25Y-1.15
X3.45Y-1.15
X3.55Y-1.15
X3.65Y-1.15
X3.75Y-1.15
X3.875Y-2.875
X3.975Y-2.875
X4.375Y-2.6
X4.375Y-2.7
X4.375Y-2.8
X2.45Y-1.15
X2.55Y-1.15
X2.65Y-1.15
X2.75Y-1.15
X4.35Y-3.45
X4.35Y-3.55
X4.35Y-3.65
X2.175Y-1.775
X2.175Y-1.875
X2.175Y-1.975
X2.275Y-1.775
X2.275Y-1.875
X2.275Y-1.975
X3.5435Y-4.324
X3.5435Y-4.424
X3.5435Y-4.524
X4.65Y-3.375
X4.65Y-3.475
X4.65Y-3.575
X4.65Y-3.675
X3.425Y-1.775
X3.425Y-1.875
X3.425Y-1.975
X3.525Y-1.775
X3.525Y-1.875
X3.525Y-1.975
X3.75Y-4.325
X3.75Y-4.425
X3.75Y-4.525
X4.075Y-4.425
X4.075Y-4.525
X4.175Y-4.425
X4.175Y-4.525
X4.275Y-4.425
X4.275Y-4.525
X4.375Y-4.425
X4.375Y-4.525
X4.475Y-4.425
X4.475Y-4.525
X2.925Y-4.325
X2.925Y-4.425
X2.925Y-4.525
X2.0Y-2.8
X2.1Y-2.8
X3.3354Y-4.324
X3.3354Y-4.424
X3.3354Y-4.524
X1.5Y-1.15
X1.6Y-1.15
X1.5Y-1.375
X1.6Y-1.375
X2.8Y-1.775
X2.8Y-1.875
X2.8Y-1.975
X2.9Y-1.775
X2.9Y-1.875
X2.9Y-1.975
X1.95Y-1.15
X2.05Y-1.15
X2.15Y-1.15
X2.25Y-1.15
X3.125Y-4.325
X3.125Y-4.425
X3.125Y-4.525
X4.05Y-1.775
X4.05Y-1.875
X4.05Y-1.975
X4.15Y-1.775
X4.15Y-1.875
X4.15Y-1.975
X2.675Y-3.7
X2.675Y-3.8
X2.675Y-3.9
T4
X1.175Y-2.35
X1.2419Y-2.35
X1.3089Y-2.35
X1.3758Y-2.35
X1.4427Y-2.35
T5
X1.225Y-3.025
X1.225Y-3.225
X1.225Y-4.025
X1.225Y-4.225
X1.225Y-3.525
X1.225Y-3.725
T6
X1.65Y-3.55
X2.0122Y-3.55
X1.65Y-3.85
X2.0122Y-3.85
T7
X1.8311Y-3.5972
X1.8311Y-3.8972
T8
X4.75Y-1.1555
X4.75Y-4.5531
X1.1555Y-1.1555
X1.1555Y-4.5531
T0
M30
