G04 #@! TF.GenerationSoftware,KiCad,Pcbnew,(5.1.2)-1*
G04 #@! TF.CreationDate,2019-12-10T17:40:30+01:00*
G04 #@! TF.ProjectId,controller,636f6e74-726f-46c6-9c65-722e6b696361,rev?*
G04 #@! TF.SameCoordinates,Original*
G04 #@! TF.FileFunction,Copper,L1,Top*
G04 #@! TF.FilePolarity,Positive*
%FSLAX46Y46*%
G04 Gerber Fmt 4.6, Leading zero omitted, Abs format (unit mm)*
G04 Created by KiCad (PCBNEW (5.1.2)-1) date 2019-12-10 17:40:30*
%MOMM*%
%LPD*%
G04 APERTURE LIST*
%ADD10C,0.050000*%
%ADD11R,1.600000X1.600000*%
%ADD12O,1.600000X1.600000*%
%ADD13C,0.100000*%
%ADD14C,1.600000*%
%ADD15C,2.500000*%
%ADD16C,1.250000*%
%ADD17R,0.900000X1.200000*%
%ADD18C,3.500000*%
%ADD19R,1.700000X1.700000*%
%ADD20O,1.700000X1.700000*%
%ADD21O,1.800000X3.600000*%
%ADD22C,1.800000*%
%ADD23O,3.600000X1.800000*%
%ADD24R,3.500000X10.200000*%
%ADD25R,1.100000X4.600000*%
%ADD26R,10.800000X9.400000*%
%ADD27R,0.900000X0.800000*%
%ADD28R,1.275000X1.800000*%
%ADD29O,1.275000X1.800000*%
%ADD30R,3.800000X2.000000*%
%ADD31R,1.500000X2.000000*%
%ADD32C,0.800000*%
%ADD33C,0.400000*%
%ADD34C,1.000000*%
%ADD35C,1.600000*%
%ADD36C,4.000000*%
%ADD37C,3.000000*%
%ADD38C,0.800000*%
%ADD39C,2.000000*%
%ADD40C,0.450000*%
%ADD41C,0.250000*%
%ADD42C,0.200000*%
%ADD43C,0.300000*%
%ADD44C,0.254000*%
G04 APERTURE END LIST*
D10*
X20320000Y-115062000D02*
X15240000Y-109220000D01*
X15240000Y-109220000D02*
X15240000Y-15240000D01*
X115062000Y-115062000D02*
X20320000Y-115062000D01*
X115062000Y-15240000D02*
X115062000Y-115062000D01*
X15240000Y-15240000D02*
X115062000Y-15240000D01*
D11*
X19202400Y-25552400D03*
D12*
X31902400Y-43332400D03*
X19202400Y-28092400D03*
X31902400Y-40792400D03*
X19202400Y-30632400D03*
X31902400Y-38252400D03*
X19202400Y-33172400D03*
X31902400Y-35712400D03*
X19202400Y-35712400D03*
X31902400Y-33172400D03*
X19202400Y-38252400D03*
X31902400Y-30632400D03*
X19202400Y-40792400D03*
X31902400Y-28092400D03*
X19202400Y-43332400D03*
X31902400Y-25552400D03*
D11*
X35204400Y-25552400D03*
D12*
X47904400Y-43332400D03*
X35204400Y-28092400D03*
X47904400Y-40792400D03*
X35204400Y-30632400D03*
X47904400Y-38252400D03*
X35204400Y-33172400D03*
X47904400Y-35712400D03*
X35204400Y-35712400D03*
X47904400Y-33172400D03*
X35204400Y-38252400D03*
X47904400Y-30632400D03*
X35204400Y-40792400D03*
X47904400Y-28092400D03*
X35204400Y-43332400D03*
X47904400Y-25552400D03*
D11*
X51257200Y-25577800D03*
D12*
X63957200Y-43357800D03*
X51257200Y-28117800D03*
X63957200Y-40817800D03*
X51257200Y-30657800D03*
X63957200Y-38277800D03*
X51257200Y-33197800D03*
X63957200Y-35737800D03*
X51257200Y-35737800D03*
X63957200Y-33197800D03*
X51257200Y-38277800D03*
X63957200Y-30657800D03*
X51257200Y-40817800D03*
X63957200Y-28117800D03*
X51257200Y-43357800D03*
X63957200Y-25577800D03*
X79984600Y-25603200D03*
X67284600Y-43383200D03*
X79984600Y-28143200D03*
X67284600Y-40843200D03*
X79984600Y-30683200D03*
X67284600Y-38303200D03*
X79984600Y-33223200D03*
X67284600Y-35763200D03*
X79984600Y-35763200D03*
X67284600Y-33223200D03*
X79984600Y-38303200D03*
X67284600Y-30683200D03*
X79984600Y-40843200D03*
X67284600Y-28143200D03*
X79984600Y-43383200D03*
D11*
X67284600Y-25603200D03*
D12*
X95935800Y-25603200D03*
X83235800Y-43383200D03*
X95935800Y-28143200D03*
X83235800Y-40843200D03*
X95935800Y-30683200D03*
X83235800Y-38303200D03*
X95935800Y-33223200D03*
X83235800Y-35763200D03*
X95935800Y-35763200D03*
X83235800Y-33223200D03*
X95935800Y-38303200D03*
X83235800Y-30683200D03*
X95935800Y-40843200D03*
X83235800Y-28143200D03*
X95935800Y-43383200D03*
D11*
X83235800Y-25603200D03*
D12*
X111963200Y-25603200D03*
X99263200Y-43383200D03*
X111963200Y-28143200D03*
X99263200Y-40843200D03*
X111963200Y-30683200D03*
X99263200Y-38303200D03*
X111963200Y-33223200D03*
X99263200Y-35763200D03*
X111963200Y-35763200D03*
X99263200Y-33223200D03*
X111963200Y-38303200D03*
X99263200Y-30683200D03*
X111963200Y-40843200D03*
X99263200Y-28143200D03*
X111963200Y-43383200D03*
D11*
X99263200Y-25603200D03*
D13*
G36*
X33688504Y-90387204D02*
G01*
X33712773Y-90390804D01*
X33736571Y-90396765D01*
X33759671Y-90405030D01*
X33781849Y-90415520D01*
X33802893Y-90428133D01*
X33822598Y-90442747D01*
X33840777Y-90459223D01*
X33857253Y-90477402D01*
X33871867Y-90497107D01*
X33884480Y-90518151D01*
X33894970Y-90540329D01*
X33903235Y-90563429D01*
X33909196Y-90587227D01*
X33912796Y-90611496D01*
X33914000Y-90636000D01*
X33914000Y-91736000D01*
X33912796Y-91760504D01*
X33909196Y-91784773D01*
X33903235Y-91808571D01*
X33894970Y-91831671D01*
X33884480Y-91853849D01*
X33871867Y-91874893D01*
X33857253Y-91894598D01*
X33840777Y-91912777D01*
X33822598Y-91929253D01*
X33802893Y-91943867D01*
X33781849Y-91956480D01*
X33759671Y-91966970D01*
X33736571Y-91975235D01*
X33712773Y-91981196D01*
X33688504Y-91984796D01*
X33664000Y-91986000D01*
X30664000Y-91986000D01*
X30639496Y-91984796D01*
X30615227Y-91981196D01*
X30591429Y-91975235D01*
X30568329Y-91966970D01*
X30546151Y-91956480D01*
X30525107Y-91943867D01*
X30505402Y-91929253D01*
X30487223Y-91912777D01*
X30470747Y-91894598D01*
X30456133Y-91874893D01*
X30443520Y-91853849D01*
X30433030Y-91831671D01*
X30424765Y-91808571D01*
X30418804Y-91784773D01*
X30415204Y-91760504D01*
X30414000Y-91736000D01*
X30414000Y-90636000D01*
X30415204Y-90611496D01*
X30418804Y-90587227D01*
X30424765Y-90563429D01*
X30433030Y-90540329D01*
X30443520Y-90518151D01*
X30456133Y-90497107D01*
X30470747Y-90477402D01*
X30487223Y-90459223D01*
X30505402Y-90442747D01*
X30525107Y-90428133D01*
X30546151Y-90415520D01*
X30568329Y-90405030D01*
X30591429Y-90396765D01*
X30615227Y-90390804D01*
X30639496Y-90387204D01*
X30664000Y-90386000D01*
X33664000Y-90386000D01*
X33688504Y-90387204D01*
X33688504Y-90387204D01*
G37*
D14*
X32164000Y-91186000D03*
D13*
G36*
X28288504Y-90387204D02*
G01*
X28312773Y-90390804D01*
X28336571Y-90396765D01*
X28359671Y-90405030D01*
X28381849Y-90415520D01*
X28402893Y-90428133D01*
X28422598Y-90442747D01*
X28440777Y-90459223D01*
X28457253Y-90477402D01*
X28471867Y-90497107D01*
X28484480Y-90518151D01*
X28494970Y-90540329D01*
X28503235Y-90563429D01*
X28509196Y-90587227D01*
X28512796Y-90611496D01*
X28514000Y-90636000D01*
X28514000Y-91736000D01*
X28512796Y-91760504D01*
X28509196Y-91784773D01*
X28503235Y-91808571D01*
X28494970Y-91831671D01*
X28484480Y-91853849D01*
X28471867Y-91874893D01*
X28457253Y-91894598D01*
X28440777Y-91912777D01*
X28422598Y-91929253D01*
X28402893Y-91943867D01*
X28381849Y-91956480D01*
X28359671Y-91966970D01*
X28336571Y-91975235D01*
X28312773Y-91981196D01*
X28288504Y-91984796D01*
X28264000Y-91986000D01*
X25264000Y-91986000D01*
X25239496Y-91984796D01*
X25215227Y-91981196D01*
X25191429Y-91975235D01*
X25168329Y-91966970D01*
X25146151Y-91956480D01*
X25125107Y-91943867D01*
X25105402Y-91929253D01*
X25087223Y-91912777D01*
X25070747Y-91894598D01*
X25056133Y-91874893D01*
X25043520Y-91853849D01*
X25033030Y-91831671D01*
X25024765Y-91808571D01*
X25018804Y-91784773D01*
X25015204Y-91760504D01*
X25014000Y-91736000D01*
X25014000Y-90636000D01*
X25015204Y-90611496D01*
X25018804Y-90587227D01*
X25024765Y-90563429D01*
X25033030Y-90540329D01*
X25043520Y-90518151D01*
X25056133Y-90497107D01*
X25070747Y-90477402D01*
X25087223Y-90459223D01*
X25105402Y-90442747D01*
X25125107Y-90428133D01*
X25146151Y-90415520D01*
X25168329Y-90405030D01*
X25191429Y-90396765D01*
X25215227Y-90390804D01*
X25239496Y-90387204D01*
X25264000Y-90386000D01*
X28264000Y-90386000D01*
X28288504Y-90387204D01*
X28288504Y-90387204D01*
G37*
D14*
X26764000Y-91186000D03*
D13*
G36*
X53094504Y-88107204D02*
G01*
X53118773Y-88110804D01*
X53142571Y-88116765D01*
X53165671Y-88125030D01*
X53187849Y-88135520D01*
X53208893Y-88148133D01*
X53228598Y-88162747D01*
X53246777Y-88179223D01*
X53263253Y-88197402D01*
X53277867Y-88217107D01*
X53290480Y-88238151D01*
X53300970Y-88260329D01*
X53309235Y-88283429D01*
X53315196Y-88307227D01*
X53318796Y-88331496D01*
X53320000Y-88356000D01*
X53320000Y-92256000D01*
X53318796Y-92280504D01*
X53315196Y-92304773D01*
X53309235Y-92328571D01*
X53300970Y-92351671D01*
X53290480Y-92373849D01*
X53277867Y-92394893D01*
X53263253Y-92414598D01*
X53246777Y-92432777D01*
X53228598Y-92449253D01*
X53208893Y-92463867D01*
X53187849Y-92476480D01*
X53165671Y-92486970D01*
X53142571Y-92495235D01*
X53118773Y-92501196D01*
X53094504Y-92504796D01*
X53070000Y-92506000D01*
X51070000Y-92506000D01*
X51045496Y-92504796D01*
X51021227Y-92501196D01*
X50997429Y-92495235D01*
X50974329Y-92486970D01*
X50952151Y-92476480D01*
X50931107Y-92463867D01*
X50911402Y-92449253D01*
X50893223Y-92432777D01*
X50876747Y-92414598D01*
X50862133Y-92394893D01*
X50849520Y-92373849D01*
X50839030Y-92351671D01*
X50830765Y-92328571D01*
X50824804Y-92304773D01*
X50821204Y-92280504D01*
X50820000Y-92256000D01*
X50820000Y-88356000D01*
X50821204Y-88331496D01*
X50824804Y-88307227D01*
X50830765Y-88283429D01*
X50839030Y-88260329D01*
X50849520Y-88238151D01*
X50862133Y-88217107D01*
X50876747Y-88197402D01*
X50893223Y-88179223D01*
X50911402Y-88162747D01*
X50931107Y-88148133D01*
X50952151Y-88135520D01*
X50974329Y-88125030D01*
X50997429Y-88116765D01*
X51021227Y-88110804D01*
X51045496Y-88107204D01*
X51070000Y-88106000D01*
X53070000Y-88106000D01*
X53094504Y-88107204D01*
X53094504Y-88107204D01*
G37*
D15*
X52070000Y-90306000D03*
D13*
G36*
X53094504Y-79707204D02*
G01*
X53118773Y-79710804D01*
X53142571Y-79716765D01*
X53165671Y-79725030D01*
X53187849Y-79735520D01*
X53208893Y-79748133D01*
X53228598Y-79762747D01*
X53246777Y-79779223D01*
X53263253Y-79797402D01*
X53277867Y-79817107D01*
X53290480Y-79838151D01*
X53300970Y-79860329D01*
X53309235Y-79883429D01*
X53315196Y-79907227D01*
X53318796Y-79931496D01*
X53320000Y-79956000D01*
X53320000Y-83856000D01*
X53318796Y-83880504D01*
X53315196Y-83904773D01*
X53309235Y-83928571D01*
X53300970Y-83951671D01*
X53290480Y-83973849D01*
X53277867Y-83994893D01*
X53263253Y-84014598D01*
X53246777Y-84032777D01*
X53228598Y-84049253D01*
X53208893Y-84063867D01*
X53187849Y-84076480D01*
X53165671Y-84086970D01*
X53142571Y-84095235D01*
X53118773Y-84101196D01*
X53094504Y-84104796D01*
X53070000Y-84106000D01*
X51070000Y-84106000D01*
X51045496Y-84104796D01*
X51021227Y-84101196D01*
X50997429Y-84095235D01*
X50974329Y-84086970D01*
X50952151Y-84076480D01*
X50931107Y-84063867D01*
X50911402Y-84049253D01*
X50893223Y-84032777D01*
X50876747Y-84014598D01*
X50862133Y-83994893D01*
X50849520Y-83973849D01*
X50839030Y-83951671D01*
X50830765Y-83928571D01*
X50824804Y-83904773D01*
X50821204Y-83880504D01*
X50820000Y-83856000D01*
X50820000Y-79956000D01*
X50821204Y-79931496D01*
X50824804Y-79907227D01*
X50830765Y-79883429D01*
X50839030Y-79860329D01*
X50849520Y-79838151D01*
X50862133Y-79817107D01*
X50876747Y-79797402D01*
X50893223Y-79779223D01*
X50911402Y-79762747D01*
X50931107Y-79748133D01*
X50952151Y-79735520D01*
X50974329Y-79725030D01*
X50997429Y-79716765D01*
X51021227Y-79710804D01*
X51045496Y-79707204D01*
X51070000Y-79706000D01*
X53070000Y-79706000D01*
X53094504Y-79707204D01*
X53094504Y-79707204D01*
G37*
D15*
X52070000Y-81906000D03*
D13*
G36*
X50132504Y-73623204D02*
G01*
X50156773Y-73626804D01*
X50180571Y-73632765D01*
X50203671Y-73641030D01*
X50225849Y-73651520D01*
X50246893Y-73664133D01*
X50266598Y-73678747D01*
X50284777Y-73695223D01*
X50301253Y-73713402D01*
X50315867Y-73733107D01*
X50328480Y-73754151D01*
X50338970Y-73776329D01*
X50347235Y-73799429D01*
X50353196Y-73823227D01*
X50356796Y-73847496D01*
X50358000Y-73872000D01*
X50358000Y-74972000D01*
X50356796Y-74996504D01*
X50353196Y-75020773D01*
X50347235Y-75044571D01*
X50338970Y-75067671D01*
X50328480Y-75089849D01*
X50315867Y-75110893D01*
X50301253Y-75130598D01*
X50284777Y-75148777D01*
X50266598Y-75165253D01*
X50246893Y-75179867D01*
X50225849Y-75192480D01*
X50203671Y-75202970D01*
X50180571Y-75211235D01*
X50156773Y-75217196D01*
X50132504Y-75220796D01*
X50108000Y-75222000D01*
X47108000Y-75222000D01*
X47083496Y-75220796D01*
X47059227Y-75217196D01*
X47035429Y-75211235D01*
X47012329Y-75202970D01*
X46990151Y-75192480D01*
X46969107Y-75179867D01*
X46949402Y-75165253D01*
X46931223Y-75148777D01*
X46914747Y-75130598D01*
X46900133Y-75110893D01*
X46887520Y-75089849D01*
X46877030Y-75067671D01*
X46868765Y-75044571D01*
X46862804Y-75020773D01*
X46859204Y-74996504D01*
X46858000Y-74972000D01*
X46858000Y-73872000D01*
X46859204Y-73847496D01*
X46862804Y-73823227D01*
X46868765Y-73799429D01*
X46877030Y-73776329D01*
X46887520Y-73754151D01*
X46900133Y-73733107D01*
X46914747Y-73713402D01*
X46931223Y-73695223D01*
X46949402Y-73678747D01*
X46969107Y-73664133D01*
X46990151Y-73651520D01*
X47012329Y-73641030D01*
X47035429Y-73632765D01*
X47059227Y-73626804D01*
X47083496Y-73623204D01*
X47108000Y-73622000D01*
X50108000Y-73622000D01*
X50132504Y-73623204D01*
X50132504Y-73623204D01*
G37*
D14*
X48608000Y-74422000D03*
D13*
G36*
X55532504Y-73623204D02*
G01*
X55556773Y-73626804D01*
X55580571Y-73632765D01*
X55603671Y-73641030D01*
X55625849Y-73651520D01*
X55646893Y-73664133D01*
X55666598Y-73678747D01*
X55684777Y-73695223D01*
X55701253Y-73713402D01*
X55715867Y-73733107D01*
X55728480Y-73754151D01*
X55738970Y-73776329D01*
X55747235Y-73799429D01*
X55753196Y-73823227D01*
X55756796Y-73847496D01*
X55758000Y-73872000D01*
X55758000Y-74972000D01*
X55756796Y-74996504D01*
X55753196Y-75020773D01*
X55747235Y-75044571D01*
X55738970Y-75067671D01*
X55728480Y-75089849D01*
X55715867Y-75110893D01*
X55701253Y-75130598D01*
X55684777Y-75148777D01*
X55666598Y-75165253D01*
X55646893Y-75179867D01*
X55625849Y-75192480D01*
X55603671Y-75202970D01*
X55580571Y-75211235D01*
X55556773Y-75217196D01*
X55532504Y-75220796D01*
X55508000Y-75222000D01*
X52508000Y-75222000D01*
X52483496Y-75220796D01*
X52459227Y-75217196D01*
X52435429Y-75211235D01*
X52412329Y-75202970D01*
X52390151Y-75192480D01*
X52369107Y-75179867D01*
X52349402Y-75165253D01*
X52331223Y-75148777D01*
X52314747Y-75130598D01*
X52300133Y-75110893D01*
X52287520Y-75089849D01*
X52277030Y-75067671D01*
X52268765Y-75044571D01*
X52262804Y-75020773D01*
X52259204Y-74996504D01*
X52258000Y-74972000D01*
X52258000Y-73872000D01*
X52259204Y-73847496D01*
X52262804Y-73823227D01*
X52268765Y-73799429D01*
X52277030Y-73776329D01*
X52287520Y-73754151D01*
X52300133Y-73733107D01*
X52314747Y-73713402D01*
X52331223Y-73695223D01*
X52349402Y-73678747D01*
X52369107Y-73664133D01*
X52390151Y-73651520D01*
X52412329Y-73641030D01*
X52435429Y-73632765D01*
X52459227Y-73626804D01*
X52483496Y-73623204D01*
X52508000Y-73622000D01*
X55508000Y-73622000D01*
X55532504Y-73623204D01*
X55532504Y-73623204D01*
G37*
D14*
X54008000Y-74422000D03*
D13*
G36*
X45880504Y-56097204D02*
G01*
X45904773Y-56100804D01*
X45928571Y-56106765D01*
X45951671Y-56115030D01*
X45973849Y-56125520D01*
X45994893Y-56138133D01*
X46014598Y-56152747D01*
X46032777Y-56169223D01*
X46049253Y-56187402D01*
X46063867Y-56207107D01*
X46076480Y-56228151D01*
X46086970Y-56250329D01*
X46095235Y-56273429D01*
X46101196Y-56297227D01*
X46104796Y-56321496D01*
X46106000Y-56346000D01*
X46106000Y-57446000D01*
X46104796Y-57470504D01*
X46101196Y-57494773D01*
X46095235Y-57518571D01*
X46086970Y-57541671D01*
X46076480Y-57563849D01*
X46063867Y-57584893D01*
X46049253Y-57604598D01*
X46032777Y-57622777D01*
X46014598Y-57639253D01*
X45994893Y-57653867D01*
X45973849Y-57666480D01*
X45951671Y-57676970D01*
X45928571Y-57685235D01*
X45904773Y-57691196D01*
X45880504Y-57694796D01*
X45856000Y-57696000D01*
X42856000Y-57696000D01*
X42831496Y-57694796D01*
X42807227Y-57691196D01*
X42783429Y-57685235D01*
X42760329Y-57676970D01*
X42738151Y-57666480D01*
X42717107Y-57653867D01*
X42697402Y-57639253D01*
X42679223Y-57622777D01*
X42662747Y-57604598D01*
X42648133Y-57584893D01*
X42635520Y-57563849D01*
X42625030Y-57541671D01*
X42616765Y-57518571D01*
X42610804Y-57494773D01*
X42607204Y-57470504D01*
X42606000Y-57446000D01*
X42606000Y-56346000D01*
X42607204Y-56321496D01*
X42610804Y-56297227D01*
X42616765Y-56273429D01*
X42625030Y-56250329D01*
X42635520Y-56228151D01*
X42648133Y-56207107D01*
X42662747Y-56187402D01*
X42679223Y-56169223D01*
X42697402Y-56152747D01*
X42717107Y-56138133D01*
X42738151Y-56125520D01*
X42760329Y-56115030D01*
X42783429Y-56106765D01*
X42807227Y-56100804D01*
X42831496Y-56097204D01*
X42856000Y-56096000D01*
X45856000Y-56096000D01*
X45880504Y-56097204D01*
X45880504Y-56097204D01*
G37*
D14*
X44356000Y-56896000D03*
D13*
G36*
X40480504Y-56097204D02*
G01*
X40504773Y-56100804D01*
X40528571Y-56106765D01*
X40551671Y-56115030D01*
X40573849Y-56125520D01*
X40594893Y-56138133D01*
X40614598Y-56152747D01*
X40632777Y-56169223D01*
X40649253Y-56187402D01*
X40663867Y-56207107D01*
X40676480Y-56228151D01*
X40686970Y-56250329D01*
X40695235Y-56273429D01*
X40701196Y-56297227D01*
X40704796Y-56321496D01*
X40706000Y-56346000D01*
X40706000Y-57446000D01*
X40704796Y-57470504D01*
X40701196Y-57494773D01*
X40695235Y-57518571D01*
X40686970Y-57541671D01*
X40676480Y-57563849D01*
X40663867Y-57584893D01*
X40649253Y-57604598D01*
X40632777Y-57622777D01*
X40614598Y-57639253D01*
X40594893Y-57653867D01*
X40573849Y-57666480D01*
X40551671Y-57676970D01*
X40528571Y-57685235D01*
X40504773Y-57691196D01*
X40480504Y-57694796D01*
X40456000Y-57696000D01*
X37456000Y-57696000D01*
X37431496Y-57694796D01*
X37407227Y-57691196D01*
X37383429Y-57685235D01*
X37360329Y-57676970D01*
X37338151Y-57666480D01*
X37317107Y-57653867D01*
X37297402Y-57639253D01*
X37279223Y-57622777D01*
X37262747Y-57604598D01*
X37248133Y-57584893D01*
X37235520Y-57563849D01*
X37225030Y-57541671D01*
X37216765Y-57518571D01*
X37210804Y-57494773D01*
X37207204Y-57470504D01*
X37206000Y-57446000D01*
X37206000Y-56346000D01*
X37207204Y-56321496D01*
X37210804Y-56297227D01*
X37216765Y-56273429D01*
X37225030Y-56250329D01*
X37235520Y-56228151D01*
X37248133Y-56207107D01*
X37262747Y-56187402D01*
X37279223Y-56169223D01*
X37297402Y-56152747D01*
X37317107Y-56138133D01*
X37338151Y-56125520D01*
X37360329Y-56115030D01*
X37383429Y-56106765D01*
X37407227Y-56100804D01*
X37431496Y-56097204D01*
X37456000Y-56096000D01*
X40456000Y-56096000D01*
X40480504Y-56097204D01*
X40480504Y-56097204D01*
G37*
D14*
X38956000Y-56896000D03*
D13*
G36*
X42755504Y-62492204D02*
G01*
X42779773Y-62495804D01*
X42803571Y-62501765D01*
X42826671Y-62510030D01*
X42848849Y-62520520D01*
X42869893Y-62533133D01*
X42889598Y-62547747D01*
X42907777Y-62564223D01*
X42924253Y-62582402D01*
X42938867Y-62602107D01*
X42951480Y-62623151D01*
X42961970Y-62645329D01*
X42970235Y-62668429D01*
X42976196Y-62692227D01*
X42979796Y-62716496D01*
X42981000Y-62741000D01*
X42981000Y-63491000D01*
X42979796Y-63515504D01*
X42976196Y-63539773D01*
X42970235Y-63563571D01*
X42961970Y-63586671D01*
X42951480Y-63608849D01*
X42938867Y-63629893D01*
X42924253Y-63649598D01*
X42907777Y-63667777D01*
X42889598Y-63684253D01*
X42869893Y-63698867D01*
X42848849Y-63711480D01*
X42826671Y-63721970D01*
X42803571Y-63730235D01*
X42779773Y-63736196D01*
X42755504Y-63739796D01*
X42731000Y-63741000D01*
X40581000Y-63741000D01*
X40556496Y-63739796D01*
X40532227Y-63736196D01*
X40508429Y-63730235D01*
X40485329Y-63721970D01*
X40463151Y-63711480D01*
X40442107Y-63698867D01*
X40422402Y-63684253D01*
X40404223Y-63667777D01*
X40387747Y-63649598D01*
X40373133Y-63629893D01*
X40360520Y-63608849D01*
X40350030Y-63586671D01*
X40341765Y-63563571D01*
X40335804Y-63539773D01*
X40332204Y-63515504D01*
X40331000Y-63491000D01*
X40331000Y-62741000D01*
X40332204Y-62716496D01*
X40335804Y-62692227D01*
X40341765Y-62668429D01*
X40350030Y-62645329D01*
X40360520Y-62623151D01*
X40373133Y-62602107D01*
X40387747Y-62582402D01*
X40404223Y-62564223D01*
X40422402Y-62547747D01*
X40442107Y-62533133D01*
X40463151Y-62520520D01*
X40485329Y-62510030D01*
X40508429Y-62501765D01*
X40532227Y-62495804D01*
X40556496Y-62492204D01*
X40581000Y-62491000D01*
X42731000Y-62491000D01*
X42755504Y-62492204D01*
X42755504Y-62492204D01*
G37*
D16*
X41656000Y-63116000D03*
D13*
G36*
X42755504Y-65292204D02*
G01*
X42779773Y-65295804D01*
X42803571Y-65301765D01*
X42826671Y-65310030D01*
X42848849Y-65320520D01*
X42869893Y-65333133D01*
X42889598Y-65347747D01*
X42907777Y-65364223D01*
X42924253Y-65382402D01*
X42938867Y-65402107D01*
X42951480Y-65423151D01*
X42961970Y-65445329D01*
X42970235Y-65468429D01*
X42976196Y-65492227D01*
X42979796Y-65516496D01*
X42981000Y-65541000D01*
X42981000Y-66291000D01*
X42979796Y-66315504D01*
X42976196Y-66339773D01*
X42970235Y-66363571D01*
X42961970Y-66386671D01*
X42951480Y-66408849D01*
X42938867Y-66429893D01*
X42924253Y-66449598D01*
X42907777Y-66467777D01*
X42889598Y-66484253D01*
X42869893Y-66498867D01*
X42848849Y-66511480D01*
X42826671Y-66521970D01*
X42803571Y-66530235D01*
X42779773Y-66536196D01*
X42755504Y-66539796D01*
X42731000Y-66541000D01*
X40581000Y-66541000D01*
X40556496Y-66539796D01*
X40532227Y-66536196D01*
X40508429Y-66530235D01*
X40485329Y-66521970D01*
X40463151Y-66511480D01*
X40442107Y-66498867D01*
X40422402Y-66484253D01*
X40404223Y-66467777D01*
X40387747Y-66449598D01*
X40373133Y-66429893D01*
X40360520Y-66408849D01*
X40350030Y-66386671D01*
X40341765Y-66363571D01*
X40335804Y-66339773D01*
X40332204Y-66315504D01*
X40331000Y-66291000D01*
X40331000Y-65541000D01*
X40332204Y-65516496D01*
X40335804Y-65492227D01*
X40341765Y-65468429D01*
X40350030Y-65445329D01*
X40360520Y-65423151D01*
X40373133Y-65402107D01*
X40387747Y-65382402D01*
X40404223Y-65364223D01*
X40422402Y-65347747D01*
X40442107Y-65333133D01*
X40463151Y-65320520D01*
X40485329Y-65310030D01*
X40508429Y-65301765D01*
X40532227Y-65295804D01*
X40556496Y-65292204D01*
X40581000Y-65291000D01*
X42731000Y-65291000D01*
X42755504Y-65292204D01*
X42755504Y-65292204D01*
G37*
D16*
X41656000Y-65916000D03*
D13*
G36*
X38369504Y-104340204D02*
G01*
X38393773Y-104343804D01*
X38417571Y-104349765D01*
X38440671Y-104358030D01*
X38462849Y-104368520D01*
X38483893Y-104381133D01*
X38503598Y-104395747D01*
X38521777Y-104412223D01*
X38538253Y-104430402D01*
X38552867Y-104450107D01*
X38565480Y-104471151D01*
X38575970Y-104493329D01*
X38584235Y-104516429D01*
X38590196Y-104540227D01*
X38593796Y-104564496D01*
X38595000Y-104589000D01*
X38595000Y-106739000D01*
X38593796Y-106763504D01*
X38590196Y-106787773D01*
X38584235Y-106811571D01*
X38575970Y-106834671D01*
X38565480Y-106856849D01*
X38552867Y-106877893D01*
X38538253Y-106897598D01*
X38521777Y-106915777D01*
X38503598Y-106932253D01*
X38483893Y-106946867D01*
X38462849Y-106959480D01*
X38440671Y-106969970D01*
X38417571Y-106978235D01*
X38393773Y-106984196D01*
X38369504Y-106987796D01*
X38345000Y-106989000D01*
X37595000Y-106989000D01*
X37570496Y-106987796D01*
X37546227Y-106984196D01*
X37522429Y-106978235D01*
X37499329Y-106969970D01*
X37477151Y-106959480D01*
X37456107Y-106946867D01*
X37436402Y-106932253D01*
X37418223Y-106915777D01*
X37401747Y-106897598D01*
X37387133Y-106877893D01*
X37374520Y-106856849D01*
X37364030Y-106834671D01*
X37355765Y-106811571D01*
X37349804Y-106787773D01*
X37346204Y-106763504D01*
X37345000Y-106739000D01*
X37345000Y-104589000D01*
X37346204Y-104564496D01*
X37349804Y-104540227D01*
X37355765Y-104516429D01*
X37364030Y-104493329D01*
X37374520Y-104471151D01*
X37387133Y-104450107D01*
X37401747Y-104430402D01*
X37418223Y-104412223D01*
X37436402Y-104395747D01*
X37456107Y-104381133D01*
X37477151Y-104368520D01*
X37499329Y-104358030D01*
X37522429Y-104349765D01*
X37546227Y-104343804D01*
X37570496Y-104340204D01*
X37595000Y-104339000D01*
X38345000Y-104339000D01*
X38369504Y-104340204D01*
X38369504Y-104340204D01*
G37*
D16*
X37970000Y-105664000D03*
D13*
G36*
X41169504Y-104340204D02*
G01*
X41193773Y-104343804D01*
X41217571Y-104349765D01*
X41240671Y-104358030D01*
X41262849Y-104368520D01*
X41283893Y-104381133D01*
X41303598Y-104395747D01*
X41321777Y-104412223D01*
X41338253Y-104430402D01*
X41352867Y-104450107D01*
X41365480Y-104471151D01*
X41375970Y-104493329D01*
X41384235Y-104516429D01*
X41390196Y-104540227D01*
X41393796Y-104564496D01*
X41395000Y-104589000D01*
X41395000Y-106739000D01*
X41393796Y-106763504D01*
X41390196Y-106787773D01*
X41384235Y-106811571D01*
X41375970Y-106834671D01*
X41365480Y-106856849D01*
X41352867Y-106877893D01*
X41338253Y-106897598D01*
X41321777Y-106915777D01*
X41303598Y-106932253D01*
X41283893Y-106946867D01*
X41262849Y-106959480D01*
X41240671Y-106969970D01*
X41217571Y-106978235D01*
X41193773Y-106984196D01*
X41169504Y-106987796D01*
X41145000Y-106989000D01*
X40395000Y-106989000D01*
X40370496Y-106987796D01*
X40346227Y-106984196D01*
X40322429Y-106978235D01*
X40299329Y-106969970D01*
X40277151Y-106959480D01*
X40256107Y-106946867D01*
X40236402Y-106932253D01*
X40218223Y-106915777D01*
X40201747Y-106897598D01*
X40187133Y-106877893D01*
X40174520Y-106856849D01*
X40164030Y-106834671D01*
X40155765Y-106811571D01*
X40149804Y-106787773D01*
X40146204Y-106763504D01*
X40145000Y-106739000D01*
X40145000Y-104589000D01*
X40146204Y-104564496D01*
X40149804Y-104540227D01*
X40155765Y-104516429D01*
X40164030Y-104493329D01*
X40174520Y-104471151D01*
X40187133Y-104450107D01*
X40201747Y-104430402D01*
X40218223Y-104412223D01*
X40236402Y-104395747D01*
X40256107Y-104381133D01*
X40277151Y-104368520D01*
X40299329Y-104358030D01*
X40322429Y-104349765D01*
X40346227Y-104343804D01*
X40370496Y-104340204D01*
X40395000Y-104339000D01*
X41145000Y-104339000D01*
X41169504Y-104340204D01*
X41169504Y-104340204D01*
G37*
D16*
X40770000Y-105664000D03*
D13*
G36*
X31892504Y-83004204D02*
G01*
X31916773Y-83007804D01*
X31940571Y-83013765D01*
X31963671Y-83022030D01*
X31985849Y-83032520D01*
X32006893Y-83045133D01*
X32026598Y-83059747D01*
X32044777Y-83076223D01*
X32061253Y-83094402D01*
X32075867Y-83114107D01*
X32088480Y-83135151D01*
X32098970Y-83157329D01*
X32107235Y-83180429D01*
X32113196Y-83204227D01*
X32116796Y-83228496D01*
X32118000Y-83253000D01*
X32118000Y-85403000D01*
X32116796Y-85427504D01*
X32113196Y-85451773D01*
X32107235Y-85475571D01*
X32098970Y-85498671D01*
X32088480Y-85520849D01*
X32075867Y-85541893D01*
X32061253Y-85561598D01*
X32044777Y-85579777D01*
X32026598Y-85596253D01*
X32006893Y-85610867D01*
X31985849Y-85623480D01*
X31963671Y-85633970D01*
X31940571Y-85642235D01*
X31916773Y-85648196D01*
X31892504Y-85651796D01*
X31868000Y-85653000D01*
X31118000Y-85653000D01*
X31093496Y-85651796D01*
X31069227Y-85648196D01*
X31045429Y-85642235D01*
X31022329Y-85633970D01*
X31000151Y-85623480D01*
X30979107Y-85610867D01*
X30959402Y-85596253D01*
X30941223Y-85579777D01*
X30924747Y-85561598D01*
X30910133Y-85541893D01*
X30897520Y-85520849D01*
X30887030Y-85498671D01*
X30878765Y-85475571D01*
X30872804Y-85451773D01*
X30869204Y-85427504D01*
X30868000Y-85403000D01*
X30868000Y-83253000D01*
X30869204Y-83228496D01*
X30872804Y-83204227D01*
X30878765Y-83180429D01*
X30887030Y-83157329D01*
X30897520Y-83135151D01*
X30910133Y-83114107D01*
X30924747Y-83094402D01*
X30941223Y-83076223D01*
X30959402Y-83059747D01*
X30979107Y-83045133D01*
X31000151Y-83032520D01*
X31022329Y-83022030D01*
X31045429Y-83013765D01*
X31069227Y-83007804D01*
X31093496Y-83004204D01*
X31118000Y-83003000D01*
X31868000Y-83003000D01*
X31892504Y-83004204D01*
X31892504Y-83004204D01*
G37*
D16*
X31493000Y-84328000D03*
D13*
G36*
X34692504Y-83004204D02*
G01*
X34716773Y-83007804D01*
X34740571Y-83013765D01*
X34763671Y-83022030D01*
X34785849Y-83032520D01*
X34806893Y-83045133D01*
X34826598Y-83059747D01*
X34844777Y-83076223D01*
X34861253Y-83094402D01*
X34875867Y-83114107D01*
X34888480Y-83135151D01*
X34898970Y-83157329D01*
X34907235Y-83180429D01*
X34913196Y-83204227D01*
X34916796Y-83228496D01*
X34918000Y-83253000D01*
X34918000Y-85403000D01*
X34916796Y-85427504D01*
X34913196Y-85451773D01*
X34907235Y-85475571D01*
X34898970Y-85498671D01*
X34888480Y-85520849D01*
X34875867Y-85541893D01*
X34861253Y-85561598D01*
X34844777Y-85579777D01*
X34826598Y-85596253D01*
X34806893Y-85610867D01*
X34785849Y-85623480D01*
X34763671Y-85633970D01*
X34740571Y-85642235D01*
X34716773Y-85648196D01*
X34692504Y-85651796D01*
X34668000Y-85653000D01*
X33918000Y-85653000D01*
X33893496Y-85651796D01*
X33869227Y-85648196D01*
X33845429Y-85642235D01*
X33822329Y-85633970D01*
X33800151Y-85623480D01*
X33779107Y-85610867D01*
X33759402Y-85596253D01*
X33741223Y-85579777D01*
X33724747Y-85561598D01*
X33710133Y-85541893D01*
X33697520Y-85520849D01*
X33687030Y-85498671D01*
X33678765Y-85475571D01*
X33672804Y-85451773D01*
X33669204Y-85427504D01*
X33668000Y-85403000D01*
X33668000Y-83253000D01*
X33669204Y-83228496D01*
X33672804Y-83204227D01*
X33678765Y-83180429D01*
X33687030Y-83157329D01*
X33697520Y-83135151D01*
X33710133Y-83114107D01*
X33724747Y-83094402D01*
X33741223Y-83076223D01*
X33759402Y-83059747D01*
X33779107Y-83045133D01*
X33800151Y-83032520D01*
X33822329Y-83022030D01*
X33845429Y-83013765D01*
X33869227Y-83007804D01*
X33893496Y-83004204D01*
X33918000Y-83003000D01*
X34668000Y-83003000D01*
X34692504Y-83004204D01*
X34692504Y-83004204D01*
G37*
D16*
X34293000Y-84328000D03*
D13*
G36*
X34692504Y-78432204D02*
G01*
X34716773Y-78435804D01*
X34740571Y-78441765D01*
X34763671Y-78450030D01*
X34785849Y-78460520D01*
X34806893Y-78473133D01*
X34826598Y-78487747D01*
X34844777Y-78504223D01*
X34861253Y-78522402D01*
X34875867Y-78542107D01*
X34888480Y-78563151D01*
X34898970Y-78585329D01*
X34907235Y-78608429D01*
X34913196Y-78632227D01*
X34916796Y-78656496D01*
X34918000Y-78681000D01*
X34918000Y-80831000D01*
X34916796Y-80855504D01*
X34913196Y-80879773D01*
X34907235Y-80903571D01*
X34898970Y-80926671D01*
X34888480Y-80948849D01*
X34875867Y-80969893D01*
X34861253Y-80989598D01*
X34844777Y-81007777D01*
X34826598Y-81024253D01*
X34806893Y-81038867D01*
X34785849Y-81051480D01*
X34763671Y-81061970D01*
X34740571Y-81070235D01*
X34716773Y-81076196D01*
X34692504Y-81079796D01*
X34668000Y-81081000D01*
X33918000Y-81081000D01*
X33893496Y-81079796D01*
X33869227Y-81076196D01*
X33845429Y-81070235D01*
X33822329Y-81061970D01*
X33800151Y-81051480D01*
X33779107Y-81038867D01*
X33759402Y-81024253D01*
X33741223Y-81007777D01*
X33724747Y-80989598D01*
X33710133Y-80969893D01*
X33697520Y-80948849D01*
X33687030Y-80926671D01*
X33678765Y-80903571D01*
X33672804Y-80879773D01*
X33669204Y-80855504D01*
X33668000Y-80831000D01*
X33668000Y-78681000D01*
X33669204Y-78656496D01*
X33672804Y-78632227D01*
X33678765Y-78608429D01*
X33687030Y-78585329D01*
X33697520Y-78563151D01*
X33710133Y-78542107D01*
X33724747Y-78522402D01*
X33741223Y-78504223D01*
X33759402Y-78487747D01*
X33779107Y-78473133D01*
X33800151Y-78460520D01*
X33822329Y-78450030D01*
X33845429Y-78441765D01*
X33869227Y-78435804D01*
X33893496Y-78432204D01*
X33918000Y-78431000D01*
X34668000Y-78431000D01*
X34692504Y-78432204D01*
X34692504Y-78432204D01*
G37*
D16*
X34293000Y-79756000D03*
D13*
G36*
X31892504Y-78432204D02*
G01*
X31916773Y-78435804D01*
X31940571Y-78441765D01*
X31963671Y-78450030D01*
X31985849Y-78460520D01*
X32006893Y-78473133D01*
X32026598Y-78487747D01*
X32044777Y-78504223D01*
X32061253Y-78522402D01*
X32075867Y-78542107D01*
X32088480Y-78563151D01*
X32098970Y-78585329D01*
X32107235Y-78608429D01*
X32113196Y-78632227D01*
X32116796Y-78656496D01*
X32118000Y-78681000D01*
X32118000Y-80831000D01*
X32116796Y-80855504D01*
X32113196Y-80879773D01*
X32107235Y-80903571D01*
X32098970Y-80926671D01*
X32088480Y-80948849D01*
X32075867Y-80969893D01*
X32061253Y-80989598D01*
X32044777Y-81007777D01*
X32026598Y-81024253D01*
X32006893Y-81038867D01*
X31985849Y-81051480D01*
X31963671Y-81061970D01*
X31940571Y-81070235D01*
X31916773Y-81076196D01*
X31892504Y-81079796D01*
X31868000Y-81081000D01*
X31118000Y-81081000D01*
X31093496Y-81079796D01*
X31069227Y-81076196D01*
X31045429Y-81070235D01*
X31022329Y-81061970D01*
X31000151Y-81051480D01*
X30979107Y-81038867D01*
X30959402Y-81024253D01*
X30941223Y-81007777D01*
X30924747Y-80989598D01*
X30910133Y-80969893D01*
X30897520Y-80948849D01*
X30887030Y-80926671D01*
X30878765Y-80903571D01*
X30872804Y-80879773D01*
X30869204Y-80855504D01*
X30868000Y-80831000D01*
X30868000Y-78681000D01*
X30869204Y-78656496D01*
X30872804Y-78632227D01*
X30878765Y-78608429D01*
X30887030Y-78585329D01*
X30897520Y-78563151D01*
X30910133Y-78542107D01*
X30924747Y-78522402D01*
X30941223Y-78504223D01*
X30959402Y-78487747D01*
X30979107Y-78473133D01*
X31000151Y-78460520D01*
X31022329Y-78450030D01*
X31045429Y-78441765D01*
X31069227Y-78435804D01*
X31093496Y-78432204D01*
X31118000Y-78431000D01*
X31868000Y-78431000D01*
X31892504Y-78432204D01*
X31892504Y-78432204D01*
G37*
D16*
X31493000Y-79756000D03*
D13*
G36*
X31892504Y-73860204D02*
G01*
X31916773Y-73863804D01*
X31940571Y-73869765D01*
X31963671Y-73878030D01*
X31985849Y-73888520D01*
X32006893Y-73901133D01*
X32026598Y-73915747D01*
X32044777Y-73932223D01*
X32061253Y-73950402D01*
X32075867Y-73970107D01*
X32088480Y-73991151D01*
X32098970Y-74013329D01*
X32107235Y-74036429D01*
X32113196Y-74060227D01*
X32116796Y-74084496D01*
X32118000Y-74109000D01*
X32118000Y-76259000D01*
X32116796Y-76283504D01*
X32113196Y-76307773D01*
X32107235Y-76331571D01*
X32098970Y-76354671D01*
X32088480Y-76376849D01*
X32075867Y-76397893D01*
X32061253Y-76417598D01*
X32044777Y-76435777D01*
X32026598Y-76452253D01*
X32006893Y-76466867D01*
X31985849Y-76479480D01*
X31963671Y-76489970D01*
X31940571Y-76498235D01*
X31916773Y-76504196D01*
X31892504Y-76507796D01*
X31868000Y-76509000D01*
X31118000Y-76509000D01*
X31093496Y-76507796D01*
X31069227Y-76504196D01*
X31045429Y-76498235D01*
X31022329Y-76489970D01*
X31000151Y-76479480D01*
X30979107Y-76466867D01*
X30959402Y-76452253D01*
X30941223Y-76435777D01*
X30924747Y-76417598D01*
X30910133Y-76397893D01*
X30897520Y-76376849D01*
X30887030Y-76354671D01*
X30878765Y-76331571D01*
X30872804Y-76307773D01*
X30869204Y-76283504D01*
X30868000Y-76259000D01*
X30868000Y-74109000D01*
X30869204Y-74084496D01*
X30872804Y-74060227D01*
X30878765Y-74036429D01*
X30887030Y-74013329D01*
X30897520Y-73991151D01*
X30910133Y-73970107D01*
X30924747Y-73950402D01*
X30941223Y-73932223D01*
X30959402Y-73915747D01*
X30979107Y-73901133D01*
X31000151Y-73888520D01*
X31022329Y-73878030D01*
X31045429Y-73869765D01*
X31069227Y-73863804D01*
X31093496Y-73860204D01*
X31118000Y-73859000D01*
X31868000Y-73859000D01*
X31892504Y-73860204D01*
X31892504Y-73860204D01*
G37*
D16*
X31493000Y-75184000D03*
D13*
G36*
X34692504Y-73860204D02*
G01*
X34716773Y-73863804D01*
X34740571Y-73869765D01*
X34763671Y-73878030D01*
X34785849Y-73888520D01*
X34806893Y-73901133D01*
X34826598Y-73915747D01*
X34844777Y-73932223D01*
X34861253Y-73950402D01*
X34875867Y-73970107D01*
X34888480Y-73991151D01*
X34898970Y-74013329D01*
X34907235Y-74036429D01*
X34913196Y-74060227D01*
X34916796Y-74084496D01*
X34918000Y-74109000D01*
X34918000Y-76259000D01*
X34916796Y-76283504D01*
X34913196Y-76307773D01*
X34907235Y-76331571D01*
X34898970Y-76354671D01*
X34888480Y-76376849D01*
X34875867Y-76397893D01*
X34861253Y-76417598D01*
X34844777Y-76435777D01*
X34826598Y-76452253D01*
X34806893Y-76466867D01*
X34785849Y-76479480D01*
X34763671Y-76489970D01*
X34740571Y-76498235D01*
X34716773Y-76504196D01*
X34692504Y-76507796D01*
X34668000Y-76509000D01*
X33918000Y-76509000D01*
X33893496Y-76507796D01*
X33869227Y-76504196D01*
X33845429Y-76498235D01*
X33822329Y-76489970D01*
X33800151Y-76479480D01*
X33779107Y-76466867D01*
X33759402Y-76452253D01*
X33741223Y-76435777D01*
X33724747Y-76417598D01*
X33710133Y-76397893D01*
X33697520Y-76376849D01*
X33687030Y-76354671D01*
X33678765Y-76331571D01*
X33672804Y-76307773D01*
X33669204Y-76283504D01*
X33668000Y-76259000D01*
X33668000Y-74109000D01*
X33669204Y-74084496D01*
X33672804Y-74060227D01*
X33678765Y-74036429D01*
X33687030Y-74013329D01*
X33697520Y-73991151D01*
X33710133Y-73970107D01*
X33724747Y-73950402D01*
X33741223Y-73932223D01*
X33759402Y-73915747D01*
X33779107Y-73901133D01*
X33800151Y-73888520D01*
X33822329Y-73878030D01*
X33845429Y-73869765D01*
X33869227Y-73863804D01*
X33893496Y-73860204D01*
X33918000Y-73859000D01*
X34668000Y-73859000D01*
X34692504Y-73860204D01*
X34692504Y-73860204D01*
G37*
D16*
X34293000Y-75184000D03*
D13*
G36*
X34695504Y-69288204D02*
G01*
X34719773Y-69291804D01*
X34743571Y-69297765D01*
X34766671Y-69306030D01*
X34788849Y-69316520D01*
X34809893Y-69329133D01*
X34829598Y-69343747D01*
X34847777Y-69360223D01*
X34864253Y-69378402D01*
X34878867Y-69398107D01*
X34891480Y-69419151D01*
X34901970Y-69441329D01*
X34910235Y-69464429D01*
X34916196Y-69488227D01*
X34919796Y-69512496D01*
X34921000Y-69537000D01*
X34921000Y-71687000D01*
X34919796Y-71711504D01*
X34916196Y-71735773D01*
X34910235Y-71759571D01*
X34901970Y-71782671D01*
X34891480Y-71804849D01*
X34878867Y-71825893D01*
X34864253Y-71845598D01*
X34847777Y-71863777D01*
X34829598Y-71880253D01*
X34809893Y-71894867D01*
X34788849Y-71907480D01*
X34766671Y-71917970D01*
X34743571Y-71926235D01*
X34719773Y-71932196D01*
X34695504Y-71935796D01*
X34671000Y-71937000D01*
X33921000Y-71937000D01*
X33896496Y-71935796D01*
X33872227Y-71932196D01*
X33848429Y-71926235D01*
X33825329Y-71917970D01*
X33803151Y-71907480D01*
X33782107Y-71894867D01*
X33762402Y-71880253D01*
X33744223Y-71863777D01*
X33727747Y-71845598D01*
X33713133Y-71825893D01*
X33700520Y-71804849D01*
X33690030Y-71782671D01*
X33681765Y-71759571D01*
X33675804Y-71735773D01*
X33672204Y-71711504D01*
X33671000Y-71687000D01*
X33671000Y-69537000D01*
X33672204Y-69512496D01*
X33675804Y-69488227D01*
X33681765Y-69464429D01*
X33690030Y-69441329D01*
X33700520Y-69419151D01*
X33713133Y-69398107D01*
X33727747Y-69378402D01*
X33744223Y-69360223D01*
X33762402Y-69343747D01*
X33782107Y-69329133D01*
X33803151Y-69316520D01*
X33825329Y-69306030D01*
X33848429Y-69297765D01*
X33872227Y-69291804D01*
X33896496Y-69288204D01*
X33921000Y-69287000D01*
X34671000Y-69287000D01*
X34695504Y-69288204D01*
X34695504Y-69288204D01*
G37*
D16*
X34296000Y-70612000D03*
D13*
G36*
X31895504Y-69288204D02*
G01*
X31919773Y-69291804D01*
X31943571Y-69297765D01*
X31966671Y-69306030D01*
X31988849Y-69316520D01*
X32009893Y-69329133D01*
X32029598Y-69343747D01*
X32047777Y-69360223D01*
X32064253Y-69378402D01*
X32078867Y-69398107D01*
X32091480Y-69419151D01*
X32101970Y-69441329D01*
X32110235Y-69464429D01*
X32116196Y-69488227D01*
X32119796Y-69512496D01*
X32121000Y-69537000D01*
X32121000Y-71687000D01*
X32119796Y-71711504D01*
X32116196Y-71735773D01*
X32110235Y-71759571D01*
X32101970Y-71782671D01*
X32091480Y-71804849D01*
X32078867Y-71825893D01*
X32064253Y-71845598D01*
X32047777Y-71863777D01*
X32029598Y-71880253D01*
X32009893Y-71894867D01*
X31988849Y-71907480D01*
X31966671Y-71917970D01*
X31943571Y-71926235D01*
X31919773Y-71932196D01*
X31895504Y-71935796D01*
X31871000Y-71937000D01*
X31121000Y-71937000D01*
X31096496Y-71935796D01*
X31072227Y-71932196D01*
X31048429Y-71926235D01*
X31025329Y-71917970D01*
X31003151Y-71907480D01*
X30982107Y-71894867D01*
X30962402Y-71880253D01*
X30944223Y-71863777D01*
X30927747Y-71845598D01*
X30913133Y-71825893D01*
X30900520Y-71804849D01*
X30890030Y-71782671D01*
X30881765Y-71759571D01*
X30875804Y-71735773D01*
X30872204Y-71711504D01*
X30871000Y-71687000D01*
X30871000Y-69537000D01*
X30872204Y-69512496D01*
X30875804Y-69488227D01*
X30881765Y-69464429D01*
X30890030Y-69441329D01*
X30900520Y-69419151D01*
X30913133Y-69398107D01*
X30927747Y-69378402D01*
X30944223Y-69360223D01*
X30962402Y-69343747D01*
X30982107Y-69329133D01*
X31003151Y-69316520D01*
X31025329Y-69306030D01*
X31048429Y-69297765D01*
X31072227Y-69291804D01*
X31096496Y-69288204D01*
X31121000Y-69287000D01*
X31871000Y-69287000D01*
X31895504Y-69288204D01*
X31895504Y-69288204D01*
G37*
D16*
X31496000Y-70612000D03*
D13*
G36*
X26177704Y-28789604D02*
G01*
X26201973Y-28793204D01*
X26225771Y-28799165D01*
X26248871Y-28807430D01*
X26271049Y-28817920D01*
X26292093Y-28830533D01*
X26311798Y-28845147D01*
X26329977Y-28861623D01*
X26346453Y-28879802D01*
X26361067Y-28899507D01*
X26373680Y-28920551D01*
X26384170Y-28942729D01*
X26392435Y-28965829D01*
X26398396Y-28989627D01*
X26401996Y-29013896D01*
X26403200Y-29038400D01*
X26403200Y-32038400D01*
X26401996Y-32062904D01*
X26398396Y-32087173D01*
X26392435Y-32110971D01*
X26384170Y-32134071D01*
X26373680Y-32156249D01*
X26361067Y-32177293D01*
X26346453Y-32196998D01*
X26329977Y-32215177D01*
X26311798Y-32231653D01*
X26292093Y-32246267D01*
X26271049Y-32258880D01*
X26248871Y-32269370D01*
X26225771Y-32277635D01*
X26201973Y-32283596D01*
X26177704Y-32287196D01*
X26153200Y-32288400D01*
X25053200Y-32288400D01*
X25028696Y-32287196D01*
X25004427Y-32283596D01*
X24980629Y-32277635D01*
X24957529Y-32269370D01*
X24935351Y-32258880D01*
X24914307Y-32246267D01*
X24894602Y-32231653D01*
X24876423Y-32215177D01*
X24859947Y-32196998D01*
X24845333Y-32177293D01*
X24832720Y-32156249D01*
X24822230Y-32134071D01*
X24813965Y-32110971D01*
X24808004Y-32087173D01*
X24804404Y-32062904D01*
X24803200Y-32038400D01*
X24803200Y-29038400D01*
X24804404Y-29013896D01*
X24808004Y-28989627D01*
X24813965Y-28965829D01*
X24822230Y-28942729D01*
X24832720Y-28920551D01*
X24845333Y-28899507D01*
X24859947Y-28879802D01*
X24876423Y-28861623D01*
X24894602Y-28845147D01*
X24914307Y-28830533D01*
X24935351Y-28817920D01*
X24957529Y-28807430D01*
X24980629Y-28799165D01*
X25004427Y-28793204D01*
X25028696Y-28789604D01*
X25053200Y-28788400D01*
X26153200Y-28788400D01*
X26177704Y-28789604D01*
X26177704Y-28789604D01*
G37*
D14*
X25603200Y-30538400D03*
D13*
G36*
X26177704Y-23389604D02*
G01*
X26201973Y-23393204D01*
X26225771Y-23399165D01*
X26248871Y-23407430D01*
X26271049Y-23417920D01*
X26292093Y-23430533D01*
X26311798Y-23445147D01*
X26329977Y-23461623D01*
X26346453Y-23479802D01*
X26361067Y-23499507D01*
X26373680Y-23520551D01*
X26384170Y-23542729D01*
X26392435Y-23565829D01*
X26398396Y-23589627D01*
X26401996Y-23613896D01*
X26403200Y-23638400D01*
X26403200Y-26638400D01*
X26401996Y-26662904D01*
X26398396Y-26687173D01*
X26392435Y-26710971D01*
X26384170Y-26734071D01*
X26373680Y-26756249D01*
X26361067Y-26777293D01*
X26346453Y-26796998D01*
X26329977Y-26815177D01*
X26311798Y-26831653D01*
X26292093Y-26846267D01*
X26271049Y-26858880D01*
X26248871Y-26869370D01*
X26225771Y-26877635D01*
X26201973Y-26883596D01*
X26177704Y-26887196D01*
X26153200Y-26888400D01*
X25053200Y-26888400D01*
X25028696Y-26887196D01*
X25004427Y-26883596D01*
X24980629Y-26877635D01*
X24957529Y-26869370D01*
X24935351Y-26858880D01*
X24914307Y-26846267D01*
X24894602Y-26831653D01*
X24876423Y-26815177D01*
X24859947Y-26796998D01*
X24845333Y-26777293D01*
X24832720Y-26756249D01*
X24822230Y-26734071D01*
X24813965Y-26710971D01*
X24808004Y-26687173D01*
X24804404Y-26662904D01*
X24803200Y-26638400D01*
X24803200Y-23638400D01*
X24804404Y-23613896D01*
X24808004Y-23589627D01*
X24813965Y-23565829D01*
X24822230Y-23542729D01*
X24832720Y-23520551D01*
X24845333Y-23499507D01*
X24859947Y-23479802D01*
X24876423Y-23461623D01*
X24894602Y-23445147D01*
X24914307Y-23430533D01*
X24935351Y-23417920D01*
X24957529Y-23407430D01*
X24980629Y-23399165D01*
X25004427Y-23393204D01*
X25028696Y-23389604D01*
X25053200Y-23388400D01*
X26153200Y-23388400D01*
X26177704Y-23389604D01*
X26177704Y-23389604D01*
G37*
D14*
X25603200Y-25138400D03*
D13*
G36*
X42179704Y-23397204D02*
G01*
X42203973Y-23400804D01*
X42227771Y-23406765D01*
X42250871Y-23415030D01*
X42273049Y-23425520D01*
X42294093Y-23438133D01*
X42313798Y-23452747D01*
X42331977Y-23469223D01*
X42348453Y-23487402D01*
X42363067Y-23507107D01*
X42375680Y-23528151D01*
X42386170Y-23550329D01*
X42394435Y-23573429D01*
X42400396Y-23597227D01*
X42403996Y-23621496D01*
X42405200Y-23646000D01*
X42405200Y-26646000D01*
X42403996Y-26670504D01*
X42400396Y-26694773D01*
X42394435Y-26718571D01*
X42386170Y-26741671D01*
X42375680Y-26763849D01*
X42363067Y-26784893D01*
X42348453Y-26804598D01*
X42331977Y-26822777D01*
X42313798Y-26839253D01*
X42294093Y-26853867D01*
X42273049Y-26866480D01*
X42250871Y-26876970D01*
X42227771Y-26885235D01*
X42203973Y-26891196D01*
X42179704Y-26894796D01*
X42155200Y-26896000D01*
X41055200Y-26896000D01*
X41030696Y-26894796D01*
X41006427Y-26891196D01*
X40982629Y-26885235D01*
X40959529Y-26876970D01*
X40937351Y-26866480D01*
X40916307Y-26853867D01*
X40896602Y-26839253D01*
X40878423Y-26822777D01*
X40861947Y-26804598D01*
X40847333Y-26784893D01*
X40834720Y-26763849D01*
X40824230Y-26741671D01*
X40815965Y-26718571D01*
X40810004Y-26694773D01*
X40806404Y-26670504D01*
X40805200Y-26646000D01*
X40805200Y-23646000D01*
X40806404Y-23621496D01*
X40810004Y-23597227D01*
X40815965Y-23573429D01*
X40824230Y-23550329D01*
X40834720Y-23528151D01*
X40847333Y-23507107D01*
X40861947Y-23487402D01*
X40878423Y-23469223D01*
X40896602Y-23452747D01*
X40916307Y-23438133D01*
X40937351Y-23425520D01*
X40959529Y-23415030D01*
X40982629Y-23406765D01*
X41006427Y-23400804D01*
X41030696Y-23397204D01*
X41055200Y-23396000D01*
X42155200Y-23396000D01*
X42179704Y-23397204D01*
X42179704Y-23397204D01*
G37*
D14*
X41605200Y-25146000D03*
D13*
G36*
X42179704Y-28797204D02*
G01*
X42203973Y-28800804D01*
X42227771Y-28806765D01*
X42250871Y-28815030D01*
X42273049Y-28825520D01*
X42294093Y-28838133D01*
X42313798Y-28852747D01*
X42331977Y-28869223D01*
X42348453Y-28887402D01*
X42363067Y-28907107D01*
X42375680Y-28928151D01*
X42386170Y-28950329D01*
X42394435Y-28973429D01*
X42400396Y-28997227D01*
X42403996Y-29021496D01*
X42405200Y-29046000D01*
X42405200Y-32046000D01*
X42403996Y-32070504D01*
X42400396Y-32094773D01*
X42394435Y-32118571D01*
X42386170Y-32141671D01*
X42375680Y-32163849D01*
X42363067Y-32184893D01*
X42348453Y-32204598D01*
X42331977Y-32222777D01*
X42313798Y-32239253D01*
X42294093Y-32253867D01*
X42273049Y-32266480D01*
X42250871Y-32276970D01*
X42227771Y-32285235D01*
X42203973Y-32291196D01*
X42179704Y-32294796D01*
X42155200Y-32296000D01*
X41055200Y-32296000D01*
X41030696Y-32294796D01*
X41006427Y-32291196D01*
X40982629Y-32285235D01*
X40959529Y-32276970D01*
X40937351Y-32266480D01*
X40916307Y-32253867D01*
X40896602Y-32239253D01*
X40878423Y-32222777D01*
X40861947Y-32204598D01*
X40847333Y-32184893D01*
X40834720Y-32163849D01*
X40824230Y-32141671D01*
X40815965Y-32118571D01*
X40810004Y-32094773D01*
X40806404Y-32070504D01*
X40805200Y-32046000D01*
X40805200Y-29046000D01*
X40806404Y-29021496D01*
X40810004Y-28997227D01*
X40815965Y-28973429D01*
X40824230Y-28950329D01*
X40834720Y-28928151D01*
X40847333Y-28907107D01*
X40861947Y-28887402D01*
X40878423Y-28869223D01*
X40896602Y-28852747D01*
X40916307Y-28838133D01*
X40937351Y-28825520D01*
X40959529Y-28815030D01*
X40982629Y-28806765D01*
X41006427Y-28800804D01*
X41030696Y-28797204D01*
X41055200Y-28796000D01*
X42155200Y-28796000D01*
X42179704Y-28797204D01*
X42179704Y-28797204D01*
G37*
D14*
X41605200Y-30546000D03*
D13*
G36*
X58283304Y-28865804D02*
G01*
X58307573Y-28869404D01*
X58331371Y-28875365D01*
X58354471Y-28883630D01*
X58376649Y-28894120D01*
X58397693Y-28906733D01*
X58417398Y-28921347D01*
X58435577Y-28937823D01*
X58452053Y-28956002D01*
X58466667Y-28975707D01*
X58479280Y-28996751D01*
X58489770Y-29018929D01*
X58498035Y-29042029D01*
X58503996Y-29065827D01*
X58507596Y-29090096D01*
X58508800Y-29114600D01*
X58508800Y-32114600D01*
X58507596Y-32139104D01*
X58503996Y-32163373D01*
X58498035Y-32187171D01*
X58489770Y-32210271D01*
X58479280Y-32232449D01*
X58466667Y-32253493D01*
X58452053Y-32273198D01*
X58435577Y-32291377D01*
X58417398Y-32307853D01*
X58397693Y-32322467D01*
X58376649Y-32335080D01*
X58354471Y-32345570D01*
X58331371Y-32353835D01*
X58307573Y-32359796D01*
X58283304Y-32363396D01*
X58258800Y-32364600D01*
X57158800Y-32364600D01*
X57134296Y-32363396D01*
X57110027Y-32359796D01*
X57086229Y-32353835D01*
X57063129Y-32345570D01*
X57040951Y-32335080D01*
X57019907Y-32322467D01*
X57000202Y-32307853D01*
X56982023Y-32291377D01*
X56965547Y-32273198D01*
X56950933Y-32253493D01*
X56938320Y-32232449D01*
X56927830Y-32210271D01*
X56919565Y-32187171D01*
X56913604Y-32163373D01*
X56910004Y-32139104D01*
X56908800Y-32114600D01*
X56908800Y-29114600D01*
X56910004Y-29090096D01*
X56913604Y-29065827D01*
X56919565Y-29042029D01*
X56927830Y-29018929D01*
X56938320Y-28996751D01*
X56950933Y-28975707D01*
X56965547Y-28956002D01*
X56982023Y-28937823D01*
X57000202Y-28921347D01*
X57019907Y-28906733D01*
X57040951Y-28894120D01*
X57063129Y-28883630D01*
X57086229Y-28875365D01*
X57110027Y-28869404D01*
X57134296Y-28865804D01*
X57158800Y-28864600D01*
X58258800Y-28864600D01*
X58283304Y-28865804D01*
X58283304Y-28865804D01*
G37*
D14*
X57708800Y-30614600D03*
D13*
G36*
X58283304Y-23465804D02*
G01*
X58307573Y-23469404D01*
X58331371Y-23475365D01*
X58354471Y-23483630D01*
X58376649Y-23494120D01*
X58397693Y-23506733D01*
X58417398Y-23521347D01*
X58435577Y-23537823D01*
X58452053Y-23556002D01*
X58466667Y-23575707D01*
X58479280Y-23596751D01*
X58489770Y-23618929D01*
X58498035Y-23642029D01*
X58503996Y-23665827D01*
X58507596Y-23690096D01*
X58508800Y-23714600D01*
X58508800Y-26714600D01*
X58507596Y-26739104D01*
X58503996Y-26763373D01*
X58498035Y-26787171D01*
X58489770Y-26810271D01*
X58479280Y-26832449D01*
X58466667Y-26853493D01*
X58452053Y-26873198D01*
X58435577Y-26891377D01*
X58417398Y-26907853D01*
X58397693Y-26922467D01*
X58376649Y-26935080D01*
X58354471Y-26945570D01*
X58331371Y-26953835D01*
X58307573Y-26959796D01*
X58283304Y-26963396D01*
X58258800Y-26964600D01*
X57158800Y-26964600D01*
X57134296Y-26963396D01*
X57110027Y-26959796D01*
X57086229Y-26953835D01*
X57063129Y-26945570D01*
X57040951Y-26935080D01*
X57019907Y-26922467D01*
X57000202Y-26907853D01*
X56982023Y-26891377D01*
X56965547Y-26873198D01*
X56950933Y-26853493D01*
X56938320Y-26832449D01*
X56927830Y-26810271D01*
X56919565Y-26787171D01*
X56913604Y-26763373D01*
X56910004Y-26739104D01*
X56908800Y-26714600D01*
X56908800Y-23714600D01*
X56910004Y-23690096D01*
X56913604Y-23665827D01*
X56919565Y-23642029D01*
X56927830Y-23618929D01*
X56938320Y-23596751D01*
X56950933Y-23575707D01*
X56965547Y-23556002D01*
X56982023Y-23537823D01*
X57000202Y-23521347D01*
X57019907Y-23506733D01*
X57040951Y-23494120D01*
X57063129Y-23483630D01*
X57086229Y-23475365D01*
X57110027Y-23469404D01*
X57134296Y-23465804D01*
X57158800Y-23464600D01*
X58258800Y-23464600D01*
X58283304Y-23465804D01*
X58283304Y-23465804D01*
G37*
D14*
X57708800Y-25214600D03*
D13*
G36*
X74234504Y-23491204D02*
G01*
X74258773Y-23494804D01*
X74282571Y-23500765D01*
X74305671Y-23509030D01*
X74327849Y-23519520D01*
X74348893Y-23532133D01*
X74368598Y-23546747D01*
X74386777Y-23563223D01*
X74403253Y-23581402D01*
X74417867Y-23601107D01*
X74430480Y-23622151D01*
X74440970Y-23644329D01*
X74449235Y-23667429D01*
X74455196Y-23691227D01*
X74458796Y-23715496D01*
X74460000Y-23740000D01*
X74460000Y-26740000D01*
X74458796Y-26764504D01*
X74455196Y-26788773D01*
X74449235Y-26812571D01*
X74440970Y-26835671D01*
X74430480Y-26857849D01*
X74417867Y-26878893D01*
X74403253Y-26898598D01*
X74386777Y-26916777D01*
X74368598Y-26933253D01*
X74348893Y-26947867D01*
X74327849Y-26960480D01*
X74305671Y-26970970D01*
X74282571Y-26979235D01*
X74258773Y-26985196D01*
X74234504Y-26988796D01*
X74210000Y-26990000D01*
X73110000Y-26990000D01*
X73085496Y-26988796D01*
X73061227Y-26985196D01*
X73037429Y-26979235D01*
X73014329Y-26970970D01*
X72992151Y-26960480D01*
X72971107Y-26947867D01*
X72951402Y-26933253D01*
X72933223Y-26916777D01*
X72916747Y-26898598D01*
X72902133Y-26878893D01*
X72889520Y-26857849D01*
X72879030Y-26835671D01*
X72870765Y-26812571D01*
X72864804Y-26788773D01*
X72861204Y-26764504D01*
X72860000Y-26740000D01*
X72860000Y-23740000D01*
X72861204Y-23715496D01*
X72864804Y-23691227D01*
X72870765Y-23667429D01*
X72879030Y-23644329D01*
X72889520Y-23622151D01*
X72902133Y-23601107D01*
X72916747Y-23581402D01*
X72933223Y-23563223D01*
X72951402Y-23546747D01*
X72971107Y-23532133D01*
X72992151Y-23519520D01*
X73014329Y-23509030D01*
X73037429Y-23500765D01*
X73061227Y-23494804D01*
X73085496Y-23491204D01*
X73110000Y-23490000D01*
X74210000Y-23490000D01*
X74234504Y-23491204D01*
X74234504Y-23491204D01*
G37*
D14*
X73660000Y-25240000D03*
D13*
G36*
X74234504Y-28891204D02*
G01*
X74258773Y-28894804D01*
X74282571Y-28900765D01*
X74305671Y-28909030D01*
X74327849Y-28919520D01*
X74348893Y-28932133D01*
X74368598Y-28946747D01*
X74386777Y-28963223D01*
X74403253Y-28981402D01*
X74417867Y-29001107D01*
X74430480Y-29022151D01*
X74440970Y-29044329D01*
X74449235Y-29067429D01*
X74455196Y-29091227D01*
X74458796Y-29115496D01*
X74460000Y-29140000D01*
X74460000Y-32140000D01*
X74458796Y-32164504D01*
X74455196Y-32188773D01*
X74449235Y-32212571D01*
X74440970Y-32235671D01*
X74430480Y-32257849D01*
X74417867Y-32278893D01*
X74403253Y-32298598D01*
X74386777Y-32316777D01*
X74368598Y-32333253D01*
X74348893Y-32347867D01*
X74327849Y-32360480D01*
X74305671Y-32370970D01*
X74282571Y-32379235D01*
X74258773Y-32385196D01*
X74234504Y-32388796D01*
X74210000Y-32390000D01*
X73110000Y-32390000D01*
X73085496Y-32388796D01*
X73061227Y-32385196D01*
X73037429Y-32379235D01*
X73014329Y-32370970D01*
X72992151Y-32360480D01*
X72971107Y-32347867D01*
X72951402Y-32333253D01*
X72933223Y-32316777D01*
X72916747Y-32298598D01*
X72902133Y-32278893D01*
X72889520Y-32257849D01*
X72879030Y-32235671D01*
X72870765Y-32212571D01*
X72864804Y-32188773D01*
X72861204Y-32164504D01*
X72860000Y-32140000D01*
X72860000Y-29140000D01*
X72861204Y-29115496D01*
X72864804Y-29091227D01*
X72870765Y-29067429D01*
X72879030Y-29044329D01*
X72889520Y-29022151D01*
X72902133Y-29001107D01*
X72916747Y-28981402D01*
X72933223Y-28963223D01*
X72951402Y-28946747D01*
X72971107Y-28932133D01*
X72992151Y-28919520D01*
X73014329Y-28909030D01*
X73037429Y-28900765D01*
X73061227Y-28894804D01*
X73085496Y-28891204D01*
X73110000Y-28890000D01*
X74210000Y-28890000D01*
X74234504Y-28891204D01*
X74234504Y-28891204D01*
G37*
D14*
X73660000Y-30640000D03*
D13*
G36*
X90109504Y-28891204D02*
G01*
X90133773Y-28894804D01*
X90157571Y-28900765D01*
X90180671Y-28909030D01*
X90202849Y-28919520D01*
X90223893Y-28932133D01*
X90243598Y-28946747D01*
X90261777Y-28963223D01*
X90278253Y-28981402D01*
X90292867Y-29001107D01*
X90305480Y-29022151D01*
X90315970Y-29044329D01*
X90324235Y-29067429D01*
X90330196Y-29091227D01*
X90333796Y-29115496D01*
X90335000Y-29140000D01*
X90335000Y-32140000D01*
X90333796Y-32164504D01*
X90330196Y-32188773D01*
X90324235Y-32212571D01*
X90315970Y-32235671D01*
X90305480Y-32257849D01*
X90292867Y-32278893D01*
X90278253Y-32298598D01*
X90261777Y-32316777D01*
X90243598Y-32333253D01*
X90223893Y-32347867D01*
X90202849Y-32360480D01*
X90180671Y-32370970D01*
X90157571Y-32379235D01*
X90133773Y-32385196D01*
X90109504Y-32388796D01*
X90085000Y-32390000D01*
X88985000Y-32390000D01*
X88960496Y-32388796D01*
X88936227Y-32385196D01*
X88912429Y-32379235D01*
X88889329Y-32370970D01*
X88867151Y-32360480D01*
X88846107Y-32347867D01*
X88826402Y-32333253D01*
X88808223Y-32316777D01*
X88791747Y-32298598D01*
X88777133Y-32278893D01*
X88764520Y-32257849D01*
X88754030Y-32235671D01*
X88745765Y-32212571D01*
X88739804Y-32188773D01*
X88736204Y-32164504D01*
X88735000Y-32140000D01*
X88735000Y-29140000D01*
X88736204Y-29115496D01*
X88739804Y-29091227D01*
X88745765Y-29067429D01*
X88754030Y-29044329D01*
X88764520Y-29022151D01*
X88777133Y-29001107D01*
X88791747Y-28981402D01*
X88808223Y-28963223D01*
X88826402Y-28946747D01*
X88846107Y-28932133D01*
X88867151Y-28919520D01*
X88889329Y-28909030D01*
X88912429Y-28900765D01*
X88936227Y-28894804D01*
X88960496Y-28891204D01*
X88985000Y-28890000D01*
X90085000Y-28890000D01*
X90109504Y-28891204D01*
X90109504Y-28891204D01*
G37*
D14*
X89535000Y-30640000D03*
D13*
G36*
X90109504Y-23491204D02*
G01*
X90133773Y-23494804D01*
X90157571Y-23500765D01*
X90180671Y-23509030D01*
X90202849Y-23519520D01*
X90223893Y-23532133D01*
X90243598Y-23546747D01*
X90261777Y-23563223D01*
X90278253Y-23581402D01*
X90292867Y-23601107D01*
X90305480Y-23622151D01*
X90315970Y-23644329D01*
X90324235Y-23667429D01*
X90330196Y-23691227D01*
X90333796Y-23715496D01*
X90335000Y-23740000D01*
X90335000Y-26740000D01*
X90333796Y-26764504D01*
X90330196Y-26788773D01*
X90324235Y-26812571D01*
X90315970Y-26835671D01*
X90305480Y-26857849D01*
X90292867Y-26878893D01*
X90278253Y-26898598D01*
X90261777Y-26916777D01*
X90243598Y-26933253D01*
X90223893Y-26947867D01*
X90202849Y-26960480D01*
X90180671Y-26970970D01*
X90157571Y-26979235D01*
X90133773Y-26985196D01*
X90109504Y-26988796D01*
X90085000Y-26990000D01*
X88985000Y-26990000D01*
X88960496Y-26988796D01*
X88936227Y-26985196D01*
X88912429Y-26979235D01*
X88889329Y-26970970D01*
X88867151Y-26960480D01*
X88846107Y-26947867D01*
X88826402Y-26933253D01*
X88808223Y-26916777D01*
X88791747Y-26898598D01*
X88777133Y-26878893D01*
X88764520Y-26857849D01*
X88754030Y-26835671D01*
X88745765Y-26812571D01*
X88739804Y-26788773D01*
X88736204Y-26764504D01*
X88735000Y-26740000D01*
X88735000Y-23740000D01*
X88736204Y-23715496D01*
X88739804Y-23691227D01*
X88745765Y-23667429D01*
X88754030Y-23644329D01*
X88764520Y-23622151D01*
X88777133Y-23601107D01*
X88791747Y-23581402D01*
X88808223Y-23563223D01*
X88826402Y-23546747D01*
X88846107Y-23532133D01*
X88867151Y-23519520D01*
X88889329Y-23509030D01*
X88912429Y-23500765D01*
X88936227Y-23494804D01*
X88960496Y-23491204D01*
X88985000Y-23490000D01*
X90085000Y-23490000D01*
X90109504Y-23491204D01*
X90109504Y-23491204D01*
G37*
D14*
X89535000Y-25240000D03*
D13*
G36*
X106238504Y-23491204D02*
G01*
X106262773Y-23494804D01*
X106286571Y-23500765D01*
X106309671Y-23509030D01*
X106331849Y-23519520D01*
X106352893Y-23532133D01*
X106372598Y-23546747D01*
X106390777Y-23563223D01*
X106407253Y-23581402D01*
X106421867Y-23601107D01*
X106434480Y-23622151D01*
X106444970Y-23644329D01*
X106453235Y-23667429D01*
X106459196Y-23691227D01*
X106462796Y-23715496D01*
X106464000Y-23740000D01*
X106464000Y-26740000D01*
X106462796Y-26764504D01*
X106459196Y-26788773D01*
X106453235Y-26812571D01*
X106444970Y-26835671D01*
X106434480Y-26857849D01*
X106421867Y-26878893D01*
X106407253Y-26898598D01*
X106390777Y-26916777D01*
X106372598Y-26933253D01*
X106352893Y-26947867D01*
X106331849Y-26960480D01*
X106309671Y-26970970D01*
X106286571Y-26979235D01*
X106262773Y-26985196D01*
X106238504Y-26988796D01*
X106214000Y-26990000D01*
X105114000Y-26990000D01*
X105089496Y-26988796D01*
X105065227Y-26985196D01*
X105041429Y-26979235D01*
X105018329Y-26970970D01*
X104996151Y-26960480D01*
X104975107Y-26947867D01*
X104955402Y-26933253D01*
X104937223Y-26916777D01*
X104920747Y-26898598D01*
X104906133Y-26878893D01*
X104893520Y-26857849D01*
X104883030Y-26835671D01*
X104874765Y-26812571D01*
X104868804Y-26788773D01*
X104865204Y-26764504D01*
X104864000Y-26740000D01*
X104864000Y-23740000D01*
X104865204Y-23715496D01*
X104868804Y-23691227D01*
X104874765Y-23667429D01*
X104883030Y-23644329D01*
X104893520Y-23622151D01*
X104906133Y-23601107D01*
X104920747Y-23581402D01*
X104937223Y-23563223D01*
X104955402Y-23546747D01*
X104975107Y-23532133D01*
X104996151Y-23519520D01*
X105018329Y-23509030D01*
X105041429Y-23500765D01*
X105065227Y-23494804D01*
X105089496Y-23491204D01*
X105114000Y-23490000D01*
X106214000Y-23490000D01*
X106238504Y-23491204D01*
X106238504Y-23491204D01*
G37*
D14*
X105664000Y-25240000D03*
D13*
G36*
X106238504Y-28891204D02*
G01*
X106262773Y-28894804D01*
X106286571Y-28900765D01*
X106309671Y-28909030D01*
X106331849Y-28919520D01*
X106352893Y-28932133D01*
X106372598Y-28946747D01*
X106390777Y-28963223D01*
X106407253Y-28981402D01*
X106421867Y-29001107D01*
X106434480Y-29022151D01*
X106444970Y-29044329D01*
X106453235Y-29067429D01*
X106459196Y-29091227D01*
X106462796Y-29115496D01*
X106464000Y-29140000D01*
X106464000Y-32140000D01*
X106462796Y-32164504D01*
X106459196Y-32188773D01*
X106453235Y-32212571D01*
X106444970Y-32235671D01*
X106434480Y-32257849D01*
X106421867Y-32278893D01*
X106407253Y-32298598D01*
X106390777Y-32316777D01*
X106372598Y-32333253D01*
X106352893Y-32347867D01*
X106331849Y-32360480D01*
X106309671Y-32370970D01*
X106286571Y-32379235D01*
X106262773Y-32385196D01*
X106238504Y-32388796D01*
X106214000Y-32390000D01*
X105114000Y-32390000D01*
X105089496Y-32388796D01*
X105065227Y-32385196D01*
X105041429Y-32379235D01*
X105018329Y-32370970D01*
X104996151Y-32360480D01*
X104975107Y-32347867D01*
X104955402Y-32333253D01*
X104937223Y-32316777D01*
X104920747Y-32298598D01*
X104906133Y-32278893D01*
X104893520Y-32257849D01*
X104883030Y-32235671D01*
X104874765Y-32212571D01*
X104868804Y-32188773D01*
X104865204Y-32164504D01*
X104864000Y-32140000D01*
X104864000Y-29140000D01*
X104865204Y-29115496D01*
X104868804Y-29091227D01*
X104874765Y-29067429D01*
X104883030Y-29044329D01*
X104893520Y-29022151D01*
X104906133Y-29001107D01*
X104920747Y-28981402D01*
X104937223Y-28963223D01*
X104955402Y-28946747D01*
X104975107Y-28932133D01*
X104996151Y-28919520D01*
X105018329Y-28909030D01*
X105041429Y-28900765D01*
X105065227Y-28894804D01*
X105089496Y-28891204D01*
X105114000Y-28890000D01*
X106214000Y-28890000D01*
X106238504Y-28891204D01*
X106238504Y-28891204D01*
G37*
D14*
X105664000Y-30640000D03*
D17*
X44068000Y-84582000D03*
X40768000Y-84582000D03*
X18035000Y-96520000D03*
X21335000Y-96520000D03*
X80898000Y-100330000D03*
X77598000Y-100330000D03*
X90806000Y-100584000D03*
X94106000Y-100584000D03*
X66166000Y-100203000D03*
X62866000Y-100203000D03*
X112775000Y-90728800D03*
X109475000Y-90728800D03*
D18*
X38636000Y-98368000D03*
X29436000Y-98368000D03*
X101346000Y-97536000D03*
X101346000Y-88336000D03*
D19*
X59690000Y-68580000D03*
D20*
X62230000Y-68580000D03*
X59690000Y-71120000D03*
X62230000Y-71120000D03*
D21*
X28702000Y-107442000D03*
D13*
G36*
X34456504Y-105643204D02*
G01*
X34480773Y-105646804D01*
X34504571Y-105652765D01*
X34527671Y-105661030D01*
X34549849Y-105671520D01*
X34570893Y-105684133D01*
X34590598Y-105698747D01*
X34608777Y-105715223D01*
X34625253Y-105733402D01*
X34639867Y-105753107D01*
X34652480Y-105774151D01*
X34662970Y-105796329D01*
X34671235Y-105819429D01*
X34677196Y-105843227D01*
X34680796Y-105867496D01*
X34682000Y-105892000D01*
X34682000Y-108992000D01*
X34680796Y-109016504D01*
X34677196Y-109040773D01*
X34671235Y-109064571D01*
X34662970Y-109087671D01*
X34652480Y-109109849D01*
X34639867Y-109130893D01*
X34625253Y-109150598D01*
X34608777Y-109168777D01*
X34590598Y-109185253D01*
X34570893Y-109199867D01*
X34549849Y-109212480D01*
X34527671Y-109222970D01*
X34504571Y-109231235D01*
X34480773Y-109237196D01*
X34456504Y-109240796D01*
X34432000Y-109242000D01*
X33132000Y-109242000D01*
X33107496Y-109240796D01*
X33083227Y-109237196D01*
X33059429Y-109231235D01*
X33036329Y-109222970D01*
X33014151Y-109212480D01*
X32993107Y-109199867D01*
X32973402Y-109185253D01*
X32955223Y-109168777D01*
X32938747Y-109150598D01*
X32924133Y-109130893D01*
X32911520Y-109109849D01*
X32901030Y-109087671D01*
X32892765Y-109064571D01*
X32886804Y-109040773D01*
X32883204Y-109016504D01*
X32882000Y-108992000D01*
X32882000Y-105892000D01*
X32883204Y-105867496D01*
X32886804Y-105843227D01*
X32892765Y-105819429D01*
X32901030Y-105796329D01*
X32911520Y-105774151D01*
X32924133Y-105753107D01*
X32938747Y-105733402D01*
X32955223Y-105715223D01*
X32973402Y-105698747D01*
X32993107Y-105684133D01*
X33014151Y-105671520D01*
X33036329Y-105661030D01*
X33059429Y-105652765D01*
X33083227Y-105646804D01*
X33107496Y-105643204D01*
X33132000Y-105642000D01*
X34432000Y-105642000D01*
X34456504Y-105643204D01*
X34456504Y-105643204D01*
G37*
D22*
X33782000Y-107442000D03*
D13*
G36*
X111480304Y-96459404D02*
G01*
X111504573Y-96463004D01*
X111528371Y-96468965D01*
X111551471Y-96477230D01*
X111573649Y-96487720D01*
X111594693Y-96500333D01*
X111614398Y-96514947D01*
X111632577Y-96531423D01*
X111649053Y-96549602D01*
X111663667Y-96569307D01*
X111676280Y-96590351D01*
X111686770Y-96612529D01*
X111695035Y-96635629D01*
X111700996Y-96659427D01*
X111704596Y-96683696D01*
X111705800Y-96708200D01*
X111705800Y-98008200D01*
X111704596Y-98032704D01*
X111700996Y-98056973D01*
X111695035Y-98080771D01*
X111686770Y-98103871D01*
X111676280Y-98126049D01*
X111663667Y-98147093D01*
X111649053Y-98166798D01*
X111632577Y-98184977D01*
X111614398Y-98201453D01*
X111594693Y-98216067D01*
X111573649Y-98228680D01*
X111551471Y-98239170D01*
X111528371Y-98247435D01*
X111504573Y-98253396D01*
X111480304Y-98256996D01*
X111455800Y-98258200D01*
X108355800Y-98258200D01*
X108331296Y-98256996D01*
X108307027Y-98253396D01*
X108283229Y-98247435D01*
X108260129Y-98239170D01*
X108237951Y-98228680D01*
X108216907Y-98216067D01*
X108197202Y-98201453D01*
X108179023Y-98184977D01*
X108162547Y-98166798D01*
X108147933Y-98147093D01*
X108135320Y-98126049D01*
X108124830Y-98103871D01*
X108116565Y-98080771D01*
X108110604Y-98056973D01*
X108107004Y-98032704D01*
X108105800Y-98008200D01*
X108105800Y-96708200D01*
X108107004Y-96683696D01*
X108110604Y-96659427D01*
X108116565Y-96635629D01*
X108124830Y-96612529D01*
X108135320Y-96590351D01*
X108147933Y-96569307D01*
X108162547Y-96549602D01*
X108179023Y-96531423D01*
X108197202Y-96514947D01*
X108216907Y-96500333D01*
X108237951Y-96487720D01*
X108260129Y-96477230D01*
X108283229Y-96468965D01*
X108307027Y-96463004D01*
X108331296Y-96459404D01*
X108355800Y-96458200D01*
X111455800Y-96458200D01*
X111480304Y-96459404D01*
X111480304Y-96459404D01*
G37*
D22*
X109905800Y-97358200D03*
D23*
X109905800Y-102438200D03*
D13*
G36*
X67984504Y-104754204D02*
G01*
X68008773Y-104757804D01*
X68032571Y-104763765D01*
X68055671Y-104772030D01*
X68077849Y-104782520D01*
X68098893Y-104795133D01*
X68118598Y-104809747D01*
X68136777Y-104826223D01*
X68153253Y-104844402D01*
X68167867Y-104864107D01*
X68180480Y-104885151D01*
X68190970Y-104907329D01*
X68199235Y-104930429D01*
X68205196Y-104954227D01*
X68208796Y-104978496D01*
X68210000Y-105003000D01*
X68210000Y-108103000D01*
X68208796Y-108127504D01*
X68205196Y-108151773D01*
X68199235Y-108175571D01*
X68190970Y-108198671D01*
X68180480Y-108220849D01*
X68167867Y-108241893D01*
X68153253Y-108261598D01*
X68136777Y-108279777D01*
X68118598Y-108296253D01*
X68098893Y-108310867D01*
X68077849Y-108323480D01*
X68055671Y-108333970D01*
X68032571Y-108342235D01*
X68008773Y-108348196D01*
X67984504Y-108351796D01*
X67960000Y-108353000D01*
X66660000Y-108353000D01*
X66635496Y-108351796D01*
X66611227Y-108348196D01*
X66587429Y-108342235D01*
X66564329Y-108333970D01*
X66542151Y-108323480D01*
X66521107Y-108310867D01*
X66501402Y-108296253D01*
X66483223Y-108279777D01*
X66466747Y-108261598D01*
X66452133Y-108241893D01*
X66439520Y-108220849D01*
X66429030Y-108198671D01*
X66420765Y-108175571D01*
X66414804Y-108151773D01*
X66411204Y-108127504D01*
X66410000Y-108103000D01*
X66410000Y-105003000D01*
X66411204Y-104978496D01*
X66414804Y-104954227D01*
X66420765Y-104930429D01*
X66429030Y-104907329D01*
X66439520Y-104885151D01*
X66452133Y-104864107D01*
X66466747Y-104844402D01*
X66483223Y-104826223D01*
X66501402Y-104809747D01*
X66521107Y-104795133D01*
X66542151Y-104782520D01*
X66564329Y-104772030D01*
X66587429Y-104763765D01*
X66611227Y-104757804D01*
X66635496Y-104754204D01*
X66660000Y-104753000D01*
X67960000Y-104753000D01*
X67984504Y-104754204D01*
X67984504Y-104754204D01*
G37*
D22*
X67310000Y-106553000D03*
D21*
X62230000Y-106553000D03*
X76708000Y-106553000D03*
D13*
G36*
X82462504Y-104754204D02*
G01*
X82486773Y-104757804D01*
X82510571Y-104763765D01*
X82533671Y-104772030D01*
X82555849Y-104782520D01*
X82576893Y-104795133D01*
X82596598Y-104809747D01*
X82614777Y-104826223D01*
X82631253Y-104844402D01*
X82645867Y-104864107D01*
X82658480Y-104885151D01*
X82668970Y-104907329D01*
X82677235Y-104930429D01*
X82683196Y-104954227D01*
X82686796Y-104978496D01*
X82688000Y-105003000D01*
X82688000Y-108103000D01*
X82686796Y-108127504D01*
X82683196Y-108151773D01*
X82677235Y-108175571D01*
X82668970Y-108198671D01*
X82658480Y-108220849D01*
X82645867Y-108241893D01*
X82631253Y-108261598D01*
X82614777Y-108279777D01*
X82596598Y-108296253D01*
X82576893Y-108310867D01*
X82555849Y-108323480D01*
X82533671Y-108333970D01*
X82510571Y-108342235D01*
X82486773Y-108348196D01*
X82462504Y-108351796D01*
X82438000Y-108353000D01*
X81138000Y-108353000D01*
X81113496Y-108351796D01*
X81089227Y-108348196D01*
X81065429Y-108342235D01*
X81042329Y-108333970D01*
X81020151Y-108323480D01*
X80999107Y-108310867D01*
X80979402Y-108296253D01*
X80961223Y-108279777D01*
X80944747Y-108261598D01*
X80930133Y-108241893D01*
X80917520Y-108220849D01*
X80907030Y-108198671D01*
X80898765Y-108175571D01*
X80892804Y-108151773D01*
X80889204Y-108127504D01*
X80888000Y-108103000D01*
X80888000Y-105003000D01*
X80889204Y-104978496D01*
X80892804Y-104954227D01*
X80898765Y-104930429D01*
X80907030Y-104907329D01*
X80917520Y-104885151D01*
X80930133Y-104864107D01*
X80944747Y-104844402D01*
X80961223Y-104826223D01*
X80979402Y-104809747D01*
X80999107Y-104795133D01*
X81020151Y-104782520D01*
X81042329Y-104772030D01*
X81065429Y-104763765D01*
X81089227Y-104757804D01*
X81113496Y-104754204D01*
X81138000Y-104753000D01*
X82438000Y-104753000D01*
X82462504Y-104754204D01*
X82462504Y-104754204D01*
G37*
D22*
X81788000Y-106553000D03*
D21*
X90678000Y-106553000D03*
D13*
G36*
X96432504Y-104754204D02*
G01*
X96456773Y-104757804D01*
X96480571Y-104763765D01*
X96503671Y-104772030D01*
X96525849Y-104782520D01*
X96546893Y-104795133D01*
X96566598Y-104809747D01*
X96584777Y-104826223D01*
X96601253Y-104844402D01*
X96615867Y-104864107D01*
X96628480Y-104885151D01*
X96638970Y-104907329D01*
X96647235Y-104930429D01*
X96653196Y-104954227D01*
X96656796Y-104978496D01*
X96658000Y-105003000D01*
X96658000Y-108103000D01*
X96656796Y-108127504D01*
X96653196Y-108151773D01*
X96647235Y-108175571D01*
X96638970Y-108198671D01*
X96628480Y-108220849D01*
X96615867Y-108241893D01*
X96601253Y-108261598D01*
X96584777Y-108279777D01*
X96566598Y-108296253D01*
X96546893Y-108310867D01*
X96525849Y-108323480D01*
X96503671Y-108333970D01*
X96480571Y-108342235D01*
X96456773Y-108348196D01*
X96432504Y-108351796D01*
X96408000Y-108353000D01*
X95108000Y-108353000D01*
X95083496Y-108351796D01*
X95059227Y-108348196D01*
X95035429Y-108342235D01*
X95012329Y-108333970D01*
X94990151Y-108323480D01*
X94969107Y-108310867D01*
X94949402Y-108296253D01*
X94931223Y-108279777D01*
X94914747Y-108261598D01*
X94900133Y-108241893D01*
X94887520Y-108220849D01*
X94877030Y-108198671D01*
X94868765Y-108175571D01*
X94862804Y-108151773D01*
X94859204Y-108127504D01*
X94858000Y-108103000D01*
X94858000Y-105003000D01*
X94859204Y-104978496D01*
X94862804Y-104954227D01*
X94868765Y-104930429D01*
X94877030Y-104907329D01*
X94887520Y-104885151D01*
X94900133Y-104864107D01*
X94914747Y-104844402D01*
X94931223Y-104826223D01*
X94949402Y-104809747D01*
X94969107Y-104795133D01*
X94990151Y-104782520D01*
X95012329Y-104772030D01*
X95035429Y-104763765D01*
X95059227Y-104757804D01*
X95083496Y-104754204D01*
X95108000Y-104753000D01*
X96408000Y-104753000D01*
X96432504Y-104754204D01*
X96432504Y-104754204D01*
G37*
D22*
X95758000Y-106553000D03*
D19*
X20828000Y-100838000D03*
D20*
X18288000Y-100838000D03*
X27584400Y-40767000D03*
X27584400Y-38227000D03*
D19*
X27584400Y-35687000D03*
D13*
G36*
X111302504Y-78603204D02*
G01*
X111326773Y-78606804D01*
X111350571Y-78612765D01*
X111373671Y-78621030D01*
X111395849Y-78631520D01*
X111416893Y-78644133D01*
X111436598Y-78658747D01*
X111454777Y-78675223D01*
X111471253Y-78693402D01*
X111485867Y-78713107D01*
X111498480Y-78734151D01*
X111508970Y-78756329D01*
X111517235Y-78779429D01*
X111523196Y-78803227D01*
X111526796Y-78827496D01*
X111528000Y-78852000D01*
X111528000Y-80152000D01*
X111526796Y-80176504D01*
X111523196Y-80200773D01*
X111517235Y-80224571D01*
X111508970Y-80247671D01*
X111498480Y-80269849D01*
X111485867Y-80290893D01*
X111471253Y-80310598D01*
X111454777Y-80328777D01*
X111436598Y-80345253D01*
X111416893Y-80359867D01*
X111395849Y-80372480D01*
X111373671Y-80382970D01*
X111350571Y-80391235D01*
X111326773Y-80397196D01*
X111302504Y-80400796D01*
X111278000Y-80402000D01*
X108178000Y-80402000D01*
X108153496Y-80400796D01*
X108129227Y-80397196D01*
X108105429Y-80391235D01*
X108082329Y-80382970D01*
X108060151Y-80372480D01*
X108039107Y-80359867D01*
X108019402Y-80345253D01*
X108001223Y-80328777D01*
X107984747Y-80310598D01*
X107970133Y-80290893D01*
X107957520Y-80269849D01*
X107947030Y-80247671D01*
X107938765Y-80224571D01*
X107932804Y-80200773D01*
X107929204Y-80176504D01*
X107928000Y-80152000D01*
X107928000Y-78852000D01*
X107929204Y-78827496D01*
X107932804Y-78803227D01*
X107938765Y-78779429D01*
X107947030Y-78756329D01*
X107957520Y-78734151D01*
X107970133Y-78713107D01*
X107984747Y-78693402D01*
X108001223Y-78675223D01*
X108019402Y-78658747D01*
X108039107Y-78644133D01*
X108060151Y-78631520D01*
X108082329Y-78621030D01*
X108105429Y-78612765D01*
X108129227Y-78606804D01*
X108153496Y-78603204D01*
X108178000Y-78602000D01*
X111278000Y-78602000D01*
X111302504Y-78603204D01*
X111302504Y-78603204D01*
G37*
D22*
X109728000Y-79502000D03*
D23*
X109728000Y-84582000D03*
D19*
X25044400Y-35687000D03*
D20*
X25044400Y-38227000D03*
X25044400Y-40767000D03*
X111963200Y-57251600D03*
X109423200Y-57251600D03*
D19*
X106883200Y-57251600D03*
D20*
X111963200Y-53568600D03*
X109423200Y-53568600D03*
D19*
X106883200Y-53568600D03*
X106883200Y-64617600D03*
D20*
X109423200Y-64617600D03*
X111963200Y-64617600D03*
X111963200Y-60934600D03*
X109423200Y-60934600D03*
D19*
X106883200Y-60934600D03*
D20*
X111963200Y-71983600D03*
X109423200Y-71983600D03*
D19*
X106883200Y-71983600D03*
X106883200Y-68300600D03*
D20*
X109423200Y-68300600D03*
X111963200Y-68300600D03*
D19*
X22098000Y-81280000D03*
D20*
X19558000Y-81280000D03*
X22098000Y-78740000D03*
X19558000Y-78740000D03*
X22098000Y-76200000D03*
X19558000Y-76200000D03*
X22098000Y-73660000D03*
X19558000Y-73660000D03*
D19*
X30734000Y-64389000D03*
D20*
X30734000Y-61849000D03*
X30734000Y-59309000D03*
X30734000Y-56769000D03*
X43738800Y-40817800D03*
X43738800Y-38277800D03*
D19*
X43738800Y-35737800D03*
X41148000Y-78994000D03*
D20*
X38608000Y-78994000D03*
X41148000Y-76454000D03*
X38608000Y-76454000D03*
X41148000Y-73914000D03*
X38608000Y-73914000D03*
D19*
X19098001Y-66167000D03*
D20*
X21638001Y-66167000D03*
X24178001Y-66167000D03*
D19*
X19098001Y-55118000D03*
D20*
X21638001Y-55118000D03*
X24178001Y-55118000D03*
X24178001Y-58801000D03*
X21638001Y-58801000D03*
D19*
X19098001Y-58801000D03*
X19098001Y-62469999D03*
D20*
X21638001Y-62469999D03*
X24178001Y-62469999D03*
D19*
X41198800Y-35737800D03*
D20*
X41198800Y-38277800D03*
X41198800Y-40817800D03*
D19*
X70485000Y-73025000D03*
D20*
X73025000Y-73025000D03*
X75565000Y-73025000D03*
X78105000Y-73025000D03*
X80645000Y-73025000D03*
X98044000Y-54254400D03*
X100584000Y-54254400D03*
X98044000Y-56794400D03*
X100584000Y-56794400D03*
X98044000Y-59334400D03*
D19*
X100584000Y-59334400D03*
D20*
X59817000Y-40792400D03*
X59817000Y-38252400D03*
D19*
X59817000Y-35712400D03*
X57277000Y-35712400D03*
D20*
X57277000Y-38252400D03*
X57277000Y-40792400D03*
X75844400Y-40843200D03*
X75844400Y-38303200D03*
D19*
X75844400Y-35763200D03*
X73304400Y-35763200D03*
D20*
X73304400Y-38303200D03*
X73304400Y-40843200D03*
X33020000Y-18542000D03*
X30480000Y-18542000D03*
X27940000Y-18542000D03*
D19*
X25400000Y-18542000D03*
D20*
X38354000Y-48260000D03*
X40894000Y-48260000D03*
D19*
X43434000Y-48260000D03*
D20*
X91440000Y-40843200D03*
X91440000Y-38303200D03*
D19*
X91440000Y-35763200D03*
D20*
X54610000Y-48260000D03*
X57150000Y-48260000D03*
D19*
X59690000Y-48260000D03*
X88900000Y-35763200D03*
D20*
X88900000Y-38303200D03*
X88900000Y-40843200D03*
X107797600Y-40843200D03*
X107797600Y-38303200D03*
D19*
X107797600Y-35763200D03*
X40005000Y-18542000D03*
D20*
X42545000Y-18542000D03*
X45085000Y-18542000D03*
X47625000Y-18542000D03*
D19*
X105257600Y-35763200D03*
D20*
X105257600Y-38303200D03*
X105257600Y-40843200D03*
D19*
X27432000Y-48260000D03*
D20*
X24892000Y-48260000D03*
X22352000Y-48260000D03*
D19*
X54610000Y-18542000D03*
D20*
X57150000Y-18542000D03*
X59690000Y-18542000D03*
X62230000Y-18542000D03*
X86360000Y-48260000D03*
X88900000Y-48260000D03*
D19*
X91440000Y-48260000D03*
D20*
X90805000Y-18542000D03*
X88265000Y-18542000D03*
X85725000Y-18542000D03*
D19*
X83185000Y-18542000D03*
X107442000Y-48260000D03*
D20*
X104902000Y-48260000D03*
X102362000Y-48260000D03*
X104775000Y-18542000D03*
X102235000Y-18542000D03*
X99695000Y-18542000D03*
D19*
X97155000Y-18542000D03*
X75438000Y-48260000D03*
D20*
X72898000Y-48260000D03*
X70358000Y-48260000D03*
D19*
X69215000Y-18542000D03*
D20*
X71755000Y-18542000D03*
X74295000Y-18542000D03*
X76835000Y-18542000D03*
D24*
X55116000Y-98552000D03*
X48516000Y-98552000D03*
D25*
X100482400Y-67326200D03*
X97942400Y-67326200D03*
X95402400Y-67326200D03*
D26*
X97942400Y-76476200D03*
D27*
X20685000Y-93660000D03*
X20685000Y-91760000D03*
X18685000Y-92710000D03*
D26*
X79248000Y-93980000D03*
D25*
X76708000Y-84830000D03*
X79248000Y-84830000D03*
X81788000Y-84830000D03*
X94996000Y-84903000D03*
X92456000Y-84903000D03*
X89916000Y-84903000D03*
D26*
X92456000Y-94053000D03*
X66040000Y-93799000D03*
D25*
X63500000Y-84649000D03*
X66040000Y-84649000D03*
X68580000Y-84649000D03*
D13*
G36*
X18429504Y-85606204D02*
G01*
X18453773Y-85609804D01*
X18477571Y-85615765D01*
X18500671Y-85624030D01*
X18522849Y-85634520D01*
X18543893Y-85647133D01*
X18563598Y-85661747D01*
X18581777Y-85678223D01*
X18598253Y-85696402D01*
X18612867Y-85716107D01*
X18625480Y-85737151D01*
X18635970Y-85759329D01*
X18644235Y-85782429D01*
X18650196Y-85806227D01*
X18653796Y-85830496D01*
X18655000Y-85855000D01*
X18655000Y-86605000D01*
X18653796Y-86629504D01*
X18650196Y-86653773D01*
X18644235Y-86677571D01*
X18635970Y-86700671D01*
X18625480Y-86722849D01*
X18612867Y-86743893D01*
X18598253Y-86763598D01*
X18581777Y-86781777D01*
X18563598Y-86798253D01*
X18543893Y-86812867D01*
X18522849Y-86825480D01*
X18500671Y-86835970D01*
X18477571Y-86844235D01*
X18453773Y-86850196D01*
X18429504Y-86853796D01*
X18405000Y-86855000D01*
X17155000Y-86855000D01*
X17130496Y-86853796D01*
X17106227Y-86850196D01*
X17082429Y-86844235D01*
X17059329Y-86835970D01*
X17037151Y-86825480D01*
X17016107Y-86812867D01*
X16996402Y-86798253D01*
X16978223Y-86781777D01*
X16961747Y-86763598D01*
X16947133Y-86743893D01*
X16934520Y-86722849D01*
X16924030Y-86700671D01*
X16915765Y-86677571D01*
X16909804Y-86653773D01*
X16906204Y-86629504D01*
X16905000Y-86605000D01*
X16905000Y-85855000D01*
X16906204Y-85830496D01*
X16909804Y-85806227D01*
X16915765Y-85782429D01*
X16924030Y-85759329D01*
X16934520Y-85737151D01*
X16947133Y-85716107D01*
X16961747Y-85696402D01*
X16978223Y-85678223D01*
X16996402Y-85661747D01*
X17016107Y-85647133D01*
X17037151Y-85634520D01*
X17059329Y-85624030D01*
X17082429Y-85615765D01*
X17106227Y-85609804D01*
X17130496Y-85606204D01*
X17155000Y-85605000D01*
X18405000Y-85605000D01*
X18429504Y-85606204D01*
X18429504Y-85606204D01*
G37*
D16*
X17780000Y-86230000D03*
D13*
G36*
X18429504Y-88406204D02*
G01*
X18453773Y-88409804D01*
X18477571Y-88415765D01*
X18500671Y-88424030D01*
X18522849Y-88434520D01*
X18543893Y-88447133D01*
X18563598Y-88461747D01*
X18581777Y-88478223D01*
X18598253Y-88496402D01*
X18612867Y-88516107D01*
X18625480Y-88537151D01*
X18635970Y-88559329D01*
X18644235Y-88582429D01*
X18650196Y-88606227D01*
X18653796Y-88630496D01*
X18655000Y-88655000D01*
X18655000Y-89405000D01*
X18653796Y-89429504D01*
X18650196Y-89453773D01*
X18644235Y-89477571D01*
X18635970Y-89500671D01*
X18625480Y-89522849D01*
X18612867Y-89543893D01*
X18598253Y-89563598D01*
X18581777Y-89581777D01*
X18563598Y-89598253D01*
X18543893Y-89612867D01*
X18522849Y-89625480D01*
X18500671Y-89635970D01*
X18477571Y-89644235D01*
X18453773Y-89650196D01*
X18429504Y-89653796D01*
X18405000Y-89655000D01*
X17155000Y-89655000D01*
X17130496Y-89653796D01*
X17106227Y-89650196D01*
X17082429Y-89644235D01*
X17059329Y-89635970D01*
X17037151Y-89625480D01*
X17016107Y-89612867D01*
X16996402Y-89598253D01*
X16978223Y-89581777D01*
X16961747Y-89563598D01*
X16947133Y-89543893D01*
X16934520Y-89522849D01*
X16924030Y-89500671D01*
X16915765Y-89477571D01*
X16909804Y-89453773D01*
X16906204Y-89429504D01*
X16905000Y-89405000D01*
X16905000Y-88655000D01*
X16906204Y-88630496D01*
X16909804Y-88606227D01*
X16915765Y-88582429D01*
X16924030Y-88559329D01*
X16934520Y-88537151D01*
X16947133Y-88516107D01*
X16961747Y-88496402D01*
X16978223Y-88478223D01*
X16996402Y-88461747D01*
X17016107Y-88447133D01*
X17037151Y-88434520D01*
X17059329Y-88424030D01*
X17082429Y-88415765D01*
X17106227Y-88409804D01*
X17130496Y-88406204D01*
X17155000Y-88405000D01*
X18405000Y-88405000D01*
X18429504Y-88406204D01*
X18429504Y-88406204D01*
G37*
D16*
X17780000Y-89030000D03*
D13*
G36*
X22874504Y-89041204D02*
G01*
X22898773Y-89044804D01*
X22922571Y-89050765D01*
X22945671Y-89059030D01*
X22967849Y-89069520D01*
X22988893Y-89082133D01*
X23008598Y-89096747D01*
X23026777Y-89113223D01*
X23043253Y-89131402D01*
X23057867Y-89151107D01*
X23070480Y-89172151D01*
X23080970Y-89194329D01*
X23089235Y-89217429D01*
X23095196Y-89241227D01*
X23098796Y-89265496D01*
X23100000Y-89290000D01*
X23100000Y-90040000D01*
X23098796Y-90064504D01*
X23095196Y-90088773D01*
X23089235Y-90112571D01*
X23080970Y-90135671D01*
X23070480Y-90157849D01*
X23057867Y-90178893D01*
X23043253Y-90198598D01*
X23026777Y-90216777D01*
X23008598Y-90233253D01*
X22988893Y-90247867D01*
X22967849Y-90260480D01*
X22945671Y-90270970D01*
X22922571Y-90279235D01*
X22898773Y-90285196D01*
X22874504Y-90288796D01*
X22850000Y-90290000D01*
X21600000Y-90290000D01*
X21575496Y-90288796D01*
X21551227Y-90285196D01*
X21527429Y-90279235D01*
X21504329Y-90270970D01*
X21482151Y-90260480D01*
X21461107Y-90247867D01*
X21441402Y-90233253D01*
X21423223Y-90216777D01*
X21406747Y-90198598D01*
X21392133Y-90178893D01*
X21379520Y-90157849D01*
X21369030Y-90135671D01*
X21360765Y-90112571D01*
X21354804Y-90088773D01*
X21351204Y-90064504D01*
X21350000Y-90040000D01*
X21350000Y-89290000D01*
X21351204Y-89265496D01*
X21354804Y-89241227D01*
X21360765Y-89217429D01*
X21369030Y-89194329D01*
X21379520Y-89172151D01*
X21392133Y-89151107D01*
X21406747Y-89131402D01*
X21423223Y-89113223D01*
X21441402Y-89096747D01*
X21461107Y-89082133D01*
X21482151Y-89069520D01*
X21504329Y-89059030D01*
X21527429Y-89050765D01*
X21551227Y-89044804D01*
X21575496Y-89041204D01*
X21600000Y-89040000D01*
X22850000Y-89040000D01*
X22874504Y-89041204D01*
X22874504Y-89041204D01*
G37*
D16*
X22225000Y-89665000D03*
D13*
G36*
X22874504Y-86241204D02*
G01*
X22898773Y-86244804D01*
X22922571Y-86250765D01*
X22945671Y-86259030D01*
X22967849Y-86269520D01*
X22988893Y-86282133D01*
X23008598Y-86296747D01*
X23026777Y-86313223D01*
X23043253Y-86331402D01*
X23057867Y-86351107D01*
X23070480Y-86372151D01*
X23080970Y-86394329D01*
X23089235Y-86417429D01*
X23095196Y-86441227D01*
X23098796Y-86465496D01*
X23100000Y-86490000D01*
X23100000Y-87240000D01*
X23098796Y-87264504D01*
X23095196Y-87288773D01*
X23089235Y-87312571D01*
X23080970Y-87335671D01*
X23070480Y-87357849D01*
X23057867Y-87378893D01*
X23043253Y-87398598D01*
X23026777Y-87416777D01*
X23008598Y-87433253D01*
X22988893Y-87447867D01*
X22967849Y-87460480D01*
X22945671Y-87470970D01*
X22922571Y-87479235D01*
X22898773Y-87485196D01*
X22874504Y-87488796D01*
X22850000Y-87490000D01*
X21600000Y-87490000D01*
X21575496Y-87488796D01*
X21551227Y-87485196D01*
X21527429Y-87479235D01*
X21504329Y-87470970D01*
X21482151Y-87460480D01*
X21461107Y-87447867D01*
X21441402Y-87433253D01*
X21423223Y-87416777D01*
X21406747Y-87398598D01*
X21392133Y-87378893D01*
X21379520Y-87357849D01*
X21369030Y-87335671D01*
X21360765Y-87312571D01*
X21354804Y-87288773D01*
X21351204Y-87264504D01*
X21350000Y-87240000D01*
X21350000Y-86490000D01*
X21351204Y-86465496D01*
X21354804Y-86441227D01*
X21360765Y-86417429D01*
X21369030Y-86394329D01*
X21379520Y-86372151D01*
X21392133Y-86351107D01*
X21406747Y-86331402D01*
X21423223Y-86313223D01*
X21441402Y-86296747D01*
X21461107Y-86282133D01*
X21482151Y-86269520D01*
X21504329Y-86259030D01*
X21527429Y-86250765D01*
X21551227Y-86244804D01*
X21575496Y-86241204D01*
X21600000Y-86240000D01*
X22850000Y-86240000D01*
X22874504Y-86241204D01*
X22874504Y-86241204D01*
G37*
D16*
X22225000Y-86865000D03*
D13*
G36*
X81929504Y-79516204D02*
G01*
X81953773Y-79519804D01*
X81977571Y-79525765D01*
X82000671Y-79534030D01*
X82022849Y-79544520D01*
X82043893Y-79557133D01*
X82063598Y-79571747D01*
X82081777Y-79588223D01*
X82098253Y-79606402D01*
X82112867Y-79626107D01*
X82125480Y-79647151D01*
X82135970Y-79669329D01*
X82144235Y-79692429D01*
X82150196Y-79716227D01*
X82153796Y-79740496D01*
X82155000Y-79765000D01*
X82155000Y-80515000D01*
X82153796Y-80539504D01*
X82150196Y-80563773D01*
X82144235Y-80587571D01*
X82135970Y-80610671D01*
X82125480Y-80632849D01*
X82112867Y-80653893D01*
X82098253Y-80673598D01*
X82081777Y-80691777D01*
X82063598Y-80708253D01*
X82043893Y-80722867D01*
X82022849Y-80735480D01*
X82000671Y-80745970D01*
X81977571Y-80754235D01*
X81953773Y-80760196D01*
X81929504Y-80763796D01*
X81905000Y-80765000D01*
X80655000Y-80765000D01*
X80630496Y-80763796D01*
X80606227Y-80760196D01*
X80582429Y-80754235D01*
X80559329Y-80745970D01*
X80537151Y-80735480D01*
X80516107Y-80722867D01*
X80496402Y-80708253D01*
X80478223Y-80691777D01*
X80461747Y-80673598D01*
X80447133Y-80653893D01*
X80434520Y-80632849D01*
X80424030Y-80610671D01*
X80415765Y-80587571D01*
X80409804Y-80563773D01*
X80406204Y-80539504D01*
X80405000Y-80515000D01*
X80405000Y-79765000D01*
X80406204Y-79740496D01*
X80409804Y-79716227D01*
X80415765Y-79692429D01*
X80424030Y-79669329D01*
X80434520Y-79647151D01*
X80447133Y-79626107D01*
X80461747Y-79606402D01*
X80478223Y-79588223D01*
X80496402Y-79571747D01*
X80516107Y-79557133D01*
X80537151Y-79544520D01*
X80559329Y-79534030D01*
X80582429Y-79525765D01*
X80606227Y-79519804D01*
X80630496Y-79516204D01*
X80655000Y-79515000D01*
X81905000Y-79515000D01*
X81929504Y-79516204D01*
X81929504Y-79516204D01*
G37*
D16*
X81280000Y-80140000D03*
D13*
G36*
X81929504Y-76716204D02*
G01*
X81953773Y-76719804D01*
X81977571Y-76725765D01*
X82000671Y-76734030D01*
X82022849Y-76744520D01*
X82043893Y-76757133D01*
X82063598Y-76771747D01*
X82081777Y-76788223D01*
X82098253Y-76806402D01*
X82112867Y-76826107D01*
X82125480Y-76847151D01*
X82135970Y-76869329D01*
X82144235Y-76892429D01*
X82150196Y-76916227D01*
X82153796Y-76940496D01*
X82155000Y-76965000D01*
X82155000Y-77715000D01*
X82153796Y-77739504D01*
X82150196Y-77763773D01*
X82144235Y-77787571D01*
X82135970Y-77810671D01*
X82125480Y-77832849D01*
X82112867Y-77853893D01*
X82098253Y-77873598D01*
X82081777Y-77891777D01*
X82063598Y-77908253D01*
X82043893Y-77922867D01*
X82022849Y-77935480D01*
X82000671Y-77945970D01*
X81977571Y-77954235D01*
X81953773Y-77960196D01*
X81929504Y-77963796D01*
X81905000Y-77965000D01*
X80655000Y-77965000D01*
X80630496Y-77963796D01*
X80606227Y-77960196D01*
X80582429Y-77954235D01*
X80559329Y-77945970D01*
X80537151Y-77935480D01*
X80516107Y-77922867D01*
X80496402Y-77908253D01*
X80478223Y-77891777D01*
X80461747Y-77873598D01*
X80447133Y-77853893D01*
X80434520Y-77832849D01*
X80424030Y-77810671D01*
X80415765Y-77787571D01*
X80409804Y-77763773D01*
X80406204Y-77739504D01*
X80405000Y-77715000D01*
X80405000Y-76965000D01*
X80406204Y-76940496D01*
X80409804Y-76916227D01*
X80415765Y-76892429D01*
X80424030Y-76869329D01*
X80434520Y-76847151D01*
X80447133Y-76826107D01*
X80461747Y-76806402D01*
X80478223Y-76788223D01*
X80496402Y-76771747D01*
X80516107Y-76757133D01*
X80537151Y-76744520D01*
X80559329Y-76734030D01*
X80582429Y-76725765D01*
X80606227Y-76719804D01*
X80630496Y-76716204D01*
X80655000Y-76715000D01*
X81905000Y-76715000D01*
X81929504Y-76716204D01*
X81929504Y-76716204D01*
G37*
D16*
X81280000Y-77340000D03*
D13*
G36*
X78119504Y-76716204D02*
G01*
X78143773Y-76719804D01*
X78167571Y-76725765D01*
X78190671Y-76734030D01*
X78212849Y-76744520D01*
X78233893Y-76757133D01*
X78253598Y-76771747D01*
X78271777Y-76788223D01*
X78288253Y-76806402D01*
X78302867Y-76826107D01*
X78315480Y-76847151D01*
X78325970Y-76869329D01*
X78334235Y-76892429D01*
X78340196Y-76916227D01*
X78343796Y-76940496D01*
X78345000Y-76965000D01*
X78345000Y-77715000D01*
X78343796Y-77739504D01*
X78340196Y-77763773D01*
X78334235Y-77787571D01*
X78325970Y-77810671D01*
X78315480Y-77832849D01*
X78302867Y-77853893D01*
X78288253Y-77873598D01*
X78271777Y-77891777D01*
X78253598Y-77908253D01*
X78233893Y-77922867D01*
X78212849Y-77935480D01*
X78190671Y-77945970D01*
X78167571Y-77954235D01*
X78143773Y-77960196D01*
X78119504Y-77963796D01*
X78095000Y-77965000D01*
X76845000Y-77965000D01*
X76820496Y-77963796D01*
X76796227Y-77960196D01*
X76772429Y-77954235D01*
X76749329Y-77945970D01*
X76727151Y-77935480D01*
X76706107Y-77922867D01*
X76686402Y-77908253D01*
X76668223Y-77891777D01*
X76651747Y-77873598D01*
X76637133Y-77853893D01*
X76624520Y-77832849D01*
X76614030Y-77810671D01*
X76605765Y-77787571D01*
X76599804Y-77763773D01*
X76596204Y-77739504D01*
X76595000Y-77715000D01*
X76595000Y-76965000D01*
X76596204Y-76940496D01*
X76599804Y-76916227D01*
X76605765Y-76892429D01*
X76614030Y-76869329D01*
X76624520Y-76847151D01*
X76637133Y-76826107D01*
X76651747Y-76806402D01*
X76668223Y-76788223D01*
X76686402Y-76771747D01*
X76706107Y-76757133D01*
X76727151Y-76744520D01*
X76749329Y-76734030D01*
X76772429Y-76725765D01*
X76796227Y-76719804D01*
X76820496Y-76716204D01*
X76845000Y-76715000D01*
X78095000Y-76715000D01*
X78119504Y-76716204D01*
X78119504Y-76716204D01*
G37*
D16*
X77470000Y-77340000D03*
D13*
G36*
X78119504Y-79516204D02*
G01*
X78143773Y-79519804D01*
X78167571Y-79525765D01*
X78190671Y-79534030D01*
X78212849Y-79544520D01*
X78233893Y-79557133D01*
X78253598Y-79571747D01*
X78271777Y-79588223D01*
X78288253Y-79606402D01*
X78302867Y-79626107D01*
X78315480Y-79647151D01*
X78325970Y-79669329D01*
X78334235Y-79692429D01*
X78340196Y-79716227D01*
X78343796Y-79740496D01*
X78345000Y-79765000D01*
X78345000Y-80515000D01*
X78343796Y-80539504D01*
X78340196Y-80563773D01*
X78334235Y-80587571D01*
X78325970Y-80610671D01*
X78315480Y-80632849D01*
X78302867Y-80653893D01*
X78288253Y-80673598D01*
X78271777Y-80691777D01*
X78253598Y-80708253D01*
X78233893Y-80722867D01*
X78212849Y-80735480D01*
X78190671Y-80745970D01*
X78167571Y-80754235D01*
X78143773Y-80760196D01*
X78119504Y-80763796D01*
X78095000Y-80765000D01*
X76845000Y-80765000D01*
X76820496Y-80763796D01*
X76796227Y-80760196D01*
X76772429Y-80754235D01*
X76749329Y-80745970D01*
X76727151Y-80735480D01*
X76706107Y-80722867D01*
X76686402Y-80708253D01*
X76668223Y-80691777D01*
X76651747Y-80673598D01*
X76637133Y-80653893D01*
X76624520Y-80632849D01*
X76614030Y-80610671D01*
X76605765Y-80587571D01*
X76599804Y-80563773D01*
X76596204Y-80539504D01*
X76595000Y-80515000D01*
X76595000Y-79765000D01*
X76596204Y-79740496D01*
X76599804Y-79716227D01*
X76605765Y-79692429D01*
X76614030Y-79669329D01*
X76624520Y-79647151D01*
X76637133Y-79626107D01*
X76651747Y-79606402D01*
X76668223Y-79588223D01*
X76686402Y-79571747D01*
X76706107Y-79557133D01*
X76727151Y-79544520D01*
X76749329Y-79534030D01*
X76772429Y-79525765D01*
X76796227Y-79519804D01*
X76820496Y-79516204D01*
X76845000Y-79515000D01*
X78095000Y-79515000D01*
X78119504Y-79516204D01*
X78119504Y-79516204D01*
G37*
D16*
X77470000Y-80140000D03*
D13*
G36*
X90209904Y-79668604D02*
G01*
X90234173Y-79672204D01*
X90257971Y-79678165D01*
X90281071Y-79686430D01*
X90303249Y-79696920D01*
X90324293Y-79709533D01*
X90343998Y-79724147D01*
X90362177Y-79740623D01*
X90378653Y-79758802D01*
X90393267Y-79778507D01*
X90405880Y-79799551D01*
X90416370Y-79821729D01*
X90424635Y-79844829D01*
X90430596Y-79868627D01*
X90434196Y-79892896D01*
X90435400Y-79917400D01*
X90435400Y-80667400D01*
X90434196Y-80691904D01*
X90430596Y-80716173D01*
X90424635Y-80739971D01*
X90416370Y-80763071D01*
X90405880Y-80785249D01*
X90393267Y-80806293D01*
X90378653Y-80825998D01*
X90362177Y-80844177D01*
X90343998Y-80860653D01*
X90324293Y-80875267D01*
X90303249Y-80887880D01*
X90281071Y-80898370D01*
X90257971Y-80906635D01*
X90234173Y-80912596D01*
X90209904Y-80916196D01*
X90185400Y-80917400D01*
X88935400Y-80917400D01*
X88910896Y-80916196D01*
X88886627Y-80912596D01*
X88862829Y-80906635D01*
X88839729Y-80898370D01*
X88817551Y-80887880D01*
X88796507Y-80875267D01*
X88776802Y-80860653D01*
X88758623Y-80844177D01*
X88742147Y-80825998D01*
X88727533Y-80806293D01*
X88714920Y-80785249D01*
X88704430Y-80763071D01*
X88696165Y-80739971D01*
X88690204Y-80716173D01*
X88686604Y-80691904D01*
X88685400Y-80667400D01*
X88685400Y-79917400D01*
X88686604Y-79892896D01*
X88690204Y-79868627D01*
X88696165Y-79844829D01*
X88704430Y-79821729D01*
X88714920Y-79799551D01*
X88727533Y-79778507D01*
X88742147Y-79758802D01*
X88758623Y-79740623D01*
X88776802Y-79724147D01*
X88796507Y-79709533D01*
X88817551Y-79696920D01*
X88839729Y-79686430D01*
X88862829Y-79678165D01*
X88886627Y-79672204D01*
X88910896Y-79668604D01*
X88935400Y-79667400D01*
X90185400Y-79667400D01*
X90209904Y-79668604D01*
X90209904Y-79668604D01*
G37*
D16*
X89560400Y-80292400D03*
D13*
G36*
X90209904Y-76868604D02*
G01*
X90234173Y-76872204D01*
X90257971Y-76878165D01*
X90281071Y-76886430D01*
X90303249Y-76896920D01*
X90324293Y-76909533D01*
X90343998Y-76924147D01*
X90362177Y-76940623D01*
X90378653Y-76958802D01*
X90393267Y-76978507D01*
X90405880Y-76999551D01*
X90416370Y-77021729D01*
X90424635Y-77044829D01*
X90430596Y-77068627D01*
X90434196Y-77092896D01*
X90435400Y-77117400D01*
X90435400Y-77867400D01*
X90434196Y-77891904D01*
X90430596Y-77916173D01*
X90424635Y-77939971D01*
X90416370Y-77963071D01*
X90405880Y-77985249D01*
X90393267Y-78006293D01*
X90378653Y-78025998D01*
X90362177Y-78044177D01*
X90343998Y-78060653D01*
X90324293Y-78075267D01*
X90303249Y-78087880D01*
X90281071Y-78098370D01*
X90257971Y-78106635D01*
X90234173Y-78112596D01*
X90209904Y-78116196D01*
X90185400Y-78117400D01*
X88935400Y-78117400D01*
X88910896Y-78116196D01*
X88886627Y-78112596D01*
X88862829Y-78106635D01*
X88839729Y-78098370D01*
X88817551Y-78087880D01*
X88796507Y-78075267D01*
X88776802Y-78060653D01*
X88758623Y-78044177D01*
X88742147Y-78025998D01*
X88727533Y-78006293D01*
X88714920Y-77985249D01*
X88704430Y-77963071D01*
X88696165Y-77939971D01*
X88690204Y-77916173D01*
X88686604Y-77891904D01*
X88685400Y-77867400D01*
X88685400Y-77117400D01*
X88686604Y-77092896D01*
X88690204Y-77068627D01*
X88696165Y-77044829D01*
X88704430Y-77021729D01*
X88714920Y-76999551D01*
X88727533Y-76978507D01*
X88742147Y-76958802D01*
X88758623Y-76940623D01*
X88776802Y-76924147D01*
X88796507Y-76909533D01*
X88817551Y-76896920D01*
X88839729Y-76886430D01*
X88862829Y-76878165D01*
X88886627Y-76872204D01*
X88910896Y-76868604D01*
X88935400Y-76867400D01*
X90185400Y-76867400D01*
X90209904Y-76868604D01*
X90209904Y-76868604D01*
G37*
D16*
X89560400Y-77492400D03*
D13*
G36*
X86907904Y-76135004D02*
G01*
X86932173Y-76138604D01*
X86955971Y-76144565D01*
X86979071Y-76152830D01*
X87001249Y-76163320D01*
X87022293Y-76175933D01*
X87041998Y-76190547D01*
X87060177Y-76207023D01*
X87076653Y-76225202D01*
X87091267Y-76244907D01*
X87103880Y-76265951D01*
X87114370Y-76288129D01*
X87122635Y-76311229D01*
X87128596Y-76335027D01*
X87132196Y-76359296D01*
X87133400Y-76383800D01*
X87133400Y-77133800D01*
X87132196Y-77158304D01*
X87128596Y-77182573D01*
X87122635Y-77206371D01*
X87114370Y-77229471D01*
X87103880Y-77251649D01*
X87091267Y-77272693D01*
X87076653Y-77292398D01*
X87060177Y-77310577D01*
X87041998Y-77327053D01*
X87022293Y-77341667D01*
X87001249Y-77354280D01*
X86979071Y-77364770D01*
X86955971Y-77373035D01*
X86932173Y-77378996D01*
X86907904Y-77382596D01*
X86883400Y-77383800D01*
X85633400Y-77383800D01*
X85608896Y-77382596D01*
X85584627Y-77378996D01*
X85560829Y-77373035D01*
X85537729Y-77364770D01*
X85515551Y-77354280D01*
X85494507Y-77341667D01*
X85474802Y-77327053D01*
X85456623Y-77310577D01*
X85440147Y-77292398D01*
X85425533Y-77272693D01*
X85412920Y-77251649D01*
X85402430Y-77229471D01*
X85394165Y-77206371D01*
X85388204Y-77182573D01*
X85384604Y-77158304D01*
X85383400Y-77133800D01*
X85383400Y-76383800D01*
X85384604Y-76359296D01*
X85388204Y-76335027D01*
X85394165Y-76311229D01*
X85402430Y-76288129D01*
X85412920Y-76265951D01*
X85425533Y-76244907D01*
X85440147Y-76225202D01*
X85456623Y-76207023D01*
X85474802Y-76190547D01*
X85494507Y-76175933D01*
X85515551Y-76163320D01*
X85537729Y-76152830D01*
X85560829Y-76144565D01*
X85584627Y-76138604D01*
X85608896Y-76135004D01*
X85633400Y-76133800D01*
X86883400Y-76133800D01*
X86907904Y-76135004D01*
X86907904Y-76135004D01*
G37*
D16*
X86258400Y-76758800D03*
D13*
G36*
X86907904Y-78935004D02*
G01*
X86932173Y-78938604D01*
X86955971Y-78944565D01*
X86979071Y-78952830D01*
X87001249Y-78963320D01*
X87022293Y-78975933D01*
X87041998Y-78990547D01*
X87060177Y-79007023D01*
X87076653Y-79025202D01*
X87091267Y-79044907D01*
X87103880Y-79065951D01*
X87114370Y-79088129D01*
X87122635Y-79111229D01*
X87128596Y-79135027D01*
X87132196Y-79159296D01*
X87133400Y-79183800D01*
X87133400Y-79933800D01*
X87132196Y-79958304D01*
X87128596Y-79982573D01*
X87122635Y-80006371D01*
X87114370Y-80029471D01*
X87103880Y-80051649D01*
X87091267Y-80072693D01*
X87076653Y-80092398D01*
X87060177Y-80110577D01*
X87041998Y-80127053D01*
X87022293Y-80141667D01*
X87001249Y-80154280D01*
X86979071Y-80164770D01*
X86955971Y-80173035D01*
X86932173Y-80178996D01*
X86907904Y-80182596D01*
X86883400Y-80183800D01*
X85633400Y-80183800D01*
X85608896Y-80182596D01*
X85584627Y-80178996D01*
X85560829Y-80173035D01*
X85537729Y-80164770D01*
X85515551Y-80154280D01*
X85494507Y-80141667D01*
X85474802Y-80127053D01*
X85456623Y-80110577D01*
X85440147Y-80092398D01*
X85425533Y-80072693D01*
X85412920Y-80051649D01*
X85402430Y-80029471D01*
X85394165Y-80006371D01*
X85388204Y-79982573D01*
X85384604Y-79958304D01*
X85383400Y-79933800D01*
X85383400Y-79183800D01*
X85384604Y-79159296D01*
X85388204Y-79135027D01*
X85394165Y-79111229D01*
X85402430Y-79088129D01*
X85412920Y-79065951D01*
X85425533Y-79044907D01*
X85440147Y-79025202D01*
X85456623Y-79007023D01*
X85474802Y-78990547D01*
X85494507Y-78975933D01*
X85515551Y-78963320D01*
X85537729Y-78952830D01*
X85560829Y-78944565D01*
X85584627Y-78938604D01*
X85608896Y-78935004D01*
X85633400Y-78933800D01*
X86883400Y-78933800D01*
X86907904Y-78935004D01*
X86907904Y-78935004D01*
G37*
D16*
X86258400Y-79558800D03*
D13*
G36*
X68467504Y-76716204D02*
G01*
X68491773Y-76719804D01*
X68515571Y-76725765D01*
X68538671Y-76734030D01*
X68560849Y-76744520D01*
X68581893Y-76757133D01*
X68601598Y-76771747D01*
X68619777Y-76788223D01*
X68636253Y-76806402D01*
X68650867Y-76826107D01*
X68663480Y-76847151D01*
X68673970Y-76869329D01*
X68682235Y-76892429D01*
X68688196Y-76916227D01*
X68691796Y-76940496D01*
X68693000Y-76965000D01*
X68693000Y-77715000D01*
X68691796Y-77739504D01*
X68688196Y-77763773D01*
X68682235Y-77787571D01*
X68673970Y-77810671D01*
X68663480Y-77832849D01*
X68650867Y-77853893D01*
X68636253Y-77873598D01*
X68619777Y-77891777D01*
X68601598Y-77908253D01*
X68581893Y-77922867D01*
X68560849Y-77935480D01*
X68538671Y-77945970D01*
X68515571Y-77954235D01*
X68491773Y-77960196D01*
X68467504Y-77963796D01*
X68443000Y-77965000D01*
X67193000Y-77965000D01*
X67168496Y-77963796D01*
X67144227Y-77960196D01*
X67120429Y-77954235D01*
X67097329Y-77945970D01*
X67075151Y-77935480D01*
X67054107Y-77922867D01*
X67034402Y-77908253D01*
X67016223Y-77891777D01*
X66999747Y-77873598D01*
X66985133Y-77853893D01*
X66972520Y-77832849D01*
X66962030Y-77810671D01*
X66953765Y-77787571D01*
X66947804Y-77763773D01*
X66944204Y-77739504D01*
X66943000Y-77715000D01*
X66943000Y-76965000D01*
X66944204Y-76940496D01*
X66947804Y-76916227D01*
X66953765Y-76892429D01*
X66962030Y-76869329D01*
X66972520Y-76847151D01*
X66985133Y-76826107D01*
X66999747Y-76806402D01*
X67016223Y-76788223D01*
X67034402Y-76771747D01*
X67054107Y-76757133D01*
X67075151Y-76744520D01*
X67097329Y-76734030D01*
X67120429Y-76725765D01*
X67144227Y-76719804D01*
X67168496Y-76716204D01*
X67193000Y-76715000D01*
X68443000Y-76715000D01*
X68467504Y-76716204D01*
X68467504Y-76716204D01*
G37*
D16*
X67818000Y-77340000D03*
D13*
G36*
X68467504Y-79516204D02*
G01*
X68491773Y-79519804D01*
X68515571Y-79525765D01*
X68538671Y-79534030D01*
X68560849Y-79544520D01*
X68581893Y-79557133D01*
X68601598Y-79571747D01*
X68619777Y-79588223D01*
X68636253Y-79606402D01*
X68650867Y-79626107D01*
X68663480Y-79647151D01*
X68673970Y-79669329D01*
X68682235Y-79692429D01*
X68688196Y-79716227D01*
X68691796Y-79740496D01*
X68693000Y-79765000D01*
X68693000Y-80515000D01*
X68691796Y-80539504D01*
X68688196Y-80563773D01*
X68682235Y-80587571D01*
X68673970Y-80610671D01*
X68663480Y-80632849D01*
X68650867Y-80653893D01*
X68636253Y-80673598D01*
X68619777Y-80691777D01*
X68601598Y-80708253D01*
X68581893Y-80722867D01*
X68560849Y-80735480D01*
X68538671Y-80745970D01*
X68515571Y-80754235D01*
X68491773Y-80760196D01*
X68467504Y-80763796D01*
X68443000Y-80765000D01*
X67193000Y-80765000D01*
X67168496Y-80763796D01*
X67144227Y-80760196D01*
X67120429Y-80754235D01*
X67097329Y-80745970D01*
X67075151Y-80735480D01*
X67054107Y-80722867D01*
X67034402Y-80708253D01*
X67016223Y-80691777D01*
X66999747Y-80673598D01*
X66985133Y-80653893D01*
X66972520Y-80632849D01*
X66962030Y-80610671D01*
X66953765Y-80587571D01*
X66947804Y-80563773D01*
X66944204Y-80539504D01*
X66943000Y-80515000D01*
X66943000Y-79765000D01*
X66944204Y-79740496D01*
X66947804Y-79716227D01*
X66953765Y-79692429D01*
X66962030Y-79669329D01*
X66972520Y-79647151D01*
X66985133Y-79626107D01*
X66999747Y-79606402D01*
X67016223Y-79588223D01*
X67034402Y-79571747D01*
X67054107Y-79557133D01*
X67075151Y-79544520D01*
X67097329Y-79534030D01*
X67120429Y-79525765D01*
X67144227Y-79519804D01*
X67168496Y-79516204D01*
X67193000Y-79515000D01*
X68443000Y-79515000D01*
X68467504Y-79516204D01*
X68467504Y-79516204D01*
G37*
D16*
X67818000Y-80140000D03*
D13*
G36*
X64657504Y-79516204D02*
G01*
X64681773Y-79519804D01*
X64705571Y-79525765D01*
X64728671Y-79534030D01*
X64750849Y-79544520D01*
X64771893Y-79557133D01*
X64791598Y-79571747D01*
X64809777Y-79588223D01*
X64826253Y-79606402D01*
X64840867Y-79626107D01*
X64853480Y-79647151D01*
X64863970Y-79669329D01*
X64872235Y-79692429D01*
X64878196Y-79716227D01*
X64881796Y-79740496D01*
X64883000Y-79765000D01*
X64883000Y-80515000D01*
X64881796Y-80539504D01*
X64878196Y-80563773D01*
X64872235Y-80587571D01*
X64863970Y-80610671D01*
X64853480Y-80632849D01*
X64840867Y-80653893D01*
X64826253Y-80673598D01*
X64809777Y-80691777D01*
X64791598Y-80708253D01*
X64771893Y-80722867D01*
X64750849Y-80735480D01*
X64728671Y-80745970D01*
X64705571Y-80754235D01*
X64681773Y-80760196D01*
X64657504Y-80763796D01*
X64633000Y-80765000D01*
X63383000Y-80765000D01*
X63358496Y-80763796D01*
X63334227Y-80760196D01*
X63310429Y-80754235D01*
X63287329Y-80745970D01*
X63265151Y-80735480D01*
X63244107Y-80722867D01*
X63224402Y-80708253D01*
X63206223Y-80691777D01*
X63189747Y-80673598D01*
X63175133Y-80653893D01*
X63162520Y-80632849D01*
X63152030Y-80610671D01*
X63143765Y-80587571D01*
X63137804Y-80563773D01*
X63134204Y-80539504D01*
X63133000Y-80515000D01*
X63133000Y-79765000D01*
X63134204Y-79740496D01*
X63137804Y-79716227D01*
X63143765Y-79692429D01*
X63152030Y-79669329D01*
X63162520Y-79647151D01*
X63175133Y-79626107D01*
X63189747Y-79606402D01*
X63206223Y-79588223D01*
X63224402Y-79571747D01*
X63244107Y-79557133D01*
X63265151Y-79544520D01*
X63287329Y-79534030D01*
X63310429Y-79525765D01*
X63334227Y-79519804D01*
X63358496Y-79516204D01*
X63383000Y-79515000D01*
X64633000Y-79515000D01*
X64657504Y-79516204D01*
X64657504Y-79516204D01*
G37*
D16*
X64008000Y-80140000D03*
D13*
G36*
X64657504Y-76716204D02*
G01*
X64681773Y-76719804D01*
X64705571Y-76725765D01*
X64728671Y-76734030D01*
X64750849Y-76744520D01*
X64771893Y-76757133D01*
X64791598Y-76771747D01*
X64809777Y-76788223D01*
X64826253Y-76806402D01*
X64840867Y-76826107D01*
X64853480Y-76847151D01*
X64863970Y-76869329D01*
X64872235Y-76892429D01*
X64878196Y-76916227D01*
X64881796Y-76940496D01*
X64883000Y-76965000D01*
X64883000Y-77715000D01*
X64881796Y-77739504D01*
X64878196Y-77763773D01*
X64872235Y-77787571D01*
X64863970Y-77810671D01*
X64853480Y-77832849D01*
X64840867Y-77853893D01*
X64826253Y-77873598D01*
X64809777Y-77891777D01*
X64791598Y-77908253D01*
X64771893Y-77922867D01*
X64750849Y-77935480D01*
X64728671Y-77945970D01*
X64705571Y-77954235D01*
X64681773Y-77960196D01*
X64657504Y-77963796D01*
X64633000Y-77965000D01*
X63383000Y-77965000D01*
X63358496Y-77963796D01*
X63334227Y-77960196D01*
X63310429Y-77954235D01*
X63287329Y-77945970D01*
X63265151Y-77935480D01*
X63244107Y-77922867D01*
X63224402Y-77908253D01*
X63206223Y-77891777D01*
X63189747Y-77873598D01*
X63175133Y-77853893D01*
X63162520Y-77832849D01*
X63152030Y-77810671D01*
X63143765Y-77787571D01*
X63137804Y-77763773D01*
X63134204Y-77739504D01*
X63133000Y-77715000D01*
X63133000Y-76965000D01*
X63134204Y-76940496D01*
X63137804Y-76916227D01*
X63143765Y-76892429D01*
X63152030Y-76869329D01*
X63162520Y-76847151D01*
X63175133Y-76826107D01*
X63189747Y-76806402D01*
X63206223Y-76788223D01*
X63224402Y-76771747D01*
X63244107Y-76757133D01*
X63265151Y-76744520D01*
X63287329Y-76734030D01*
X63310429Y-76725765D01*
X63334227Y-76719804D01*
X63358496Y-76716204D01*
X63383000Y-76715000D01*
X64633000Y-76715000D01*
X64657504Y-76716204D01*
X64657504Y-76716204D01*
G37*
D16*
X64008000Y-77340000D03*
D13*
G36*
X92344504Y-61610204D02*
G01*
X92368773Y-61613804D01*
X92392571Y-61619765D01*
X92415671Y-61628030D01*
X92437849Y-61638520D01*
X92458893Y-61651133D01*
X92478598Y-61665747D01*
X92496777Y-61682223D01*
X92513253Y-61700402D01*
X92527867Y-61720107D01*
X92540480Y-61741151D01*
X92550970Y-61763329D01*
X92559235Y-61786429D01*
X92565196Y-61810227D01*
X92568796Y-61834496D01*
X92570000Y-61859000D01*
X92570000Y-63109000D01*
X92568796Y-63133504D01*
X92565196Y-63157773D01*
X92559235Y-63181571D01*
X92550970Y-63204671D01*
X92540480Y-63226849D01*
X92527867Y-63247893D01*
X92513253Y-63267598D01*
X92496777Y-63285777D01*
X92478598Y-63302253D01*
X92458893Y-63316867D01*
X92437849Y-63329480D01*
X92415671Y-63339970D01*
X92392571Y-63348235D01*
X92368773Y-63354196D01*
X92344504Y-63357796D01*
X92320000Y-63359000D01*
X91570000Y-63359000D01*
X91545496Y-63357796D01*
X91521227Y-63354196D01*
X91497429Y-63348235D01*
X91474329Y-63339970D01*
X91452151Y-63329480D01*
X91431107Y-63316867D01*
X91411402Y-63302253D01*
X91393223Y-63285777D01*
X91376747Y-63267598D01*
X91362133Y-63247893D01*
X91349520Y-63226849D01*
X91339030Y-63204671D01*
X91330765Y-63181571D01*
X91324804Y-63157773D01*
X91321204Y-63133504D01*
X91320000Y-63109000D01*
X91320000Y-61859000D01*
X91321204Y-61834496D01*
X91324804Y-61810227D01*
X91330765Y-61786429D01*
X91339030Y-61763329D01*
X91349520Y-61741151D01*
X91362133Y-61720107D01*
X91376747Y-61700402D01*
X91393223Y-61682223D01*
X91411402Y-61665747D01*
X91431107Y-61651133D01*
X91452151Y-61638520D01*
X91474329Y-61628030D01*
X91497429Y-61619765D01*
X91521227Y-61613804D01*
X91545496Y-61610204D01*
X91570000Y-61609000D01*
X92320000Y-61609000D01*
X92344504Y-61610204D01*
X92344504Y-61610204D01*
G37*
D16*
X91945000Y-62484000D03*
D13*
G36*
X95144504Y-61610204D02*
G01*
X95168773Y-61613804D01*
X95192571Y-61619765D01*
X95215671Y-61628030D01*
X95237849Y-61638520D01*
X95258893Y-61651133D01*
X95278598Y-61665747D01*
X95296777Y-61682223D01*
X95313253Y-61700402D01*
X95327867Y-61720107D01*
X95340480Y-61741151D01*
X95350970Y-61763329D01*
X95359235Y-61786429D01*
X95365196Y-61810227D01*
X95368796Y-61834496D01*
X95370000Y-61859000D01*
X95370000Y-63109000D01*
X95368796Y-63133504D01*
X95365196Y-63157773D01*
X95359235Y-63181571D01*
X95350970Y-63204671D01*
X95340480Y-63226849D01*
X95327867Y-63247893D01*
X95313253Y-63267598D01*
X95296777Y-63285777D01*
X95278598Y-63302253D01*
X95258893Y-63316867D01*
X95237849Y-63329480D01*
X95215671Y-63339970D01*
X95192571Y-63348235D01*
X95168773Y-63354196D01*
X95144504Y-63357796D01*
X95120000Y-63359000D01*
X94370000Y-63359000D01*
X94345496Y-63357796D01*
X94321227Y-63354196D01*
X94297429Y-63348235D01*
X94274329Y-63339970D01*
X94252151Y-63329480D01*
X94231107Y-63316867D01*
X94211402Y-63302253D01*
X94193223Y-63285777D01*
X94176747Y-63267598D01*
X94162133Y-63247893D01*
X94149520Y-63226849D01*
X94139030Y-63204671D01*
X94130765Y-63181571D01*
X94124804Y-63157773D01*
X94121204Y-63133504D01*
X94120000Y-63109000D01*
X94120000Y-61859000D01*
X94121204Y-61834496D01*
X94124804Y-61810227D01*
X94130765Y-61786429D01*
X94139030Y-61763329D01*
X94149520Y-61741151D01*
X94162133Y-61720107D01*
X94176747Y-61700402D01*
X94193223Y-61682223D01*
X94211402Y-61665747D01*
X94231107Y-61651133D01*
X94252151Y-61638520D01*
X94274329Y-61628030D01*
X94297429Y-61619765D01*
X94321227Y-61613804D01*
X94345496Y-61610204D01*
X94370000Y-61609000D01*
X95120000Y-61609000D01*
X95144504Y-61610204D01*
X95144504Y-61610204D01*
G37*
D16*
X94745000Y-62484000D03*
D13*
G36*
X91149704Y-67806804D02*
G01*
X91173973Y-67810404D01*
X91197771Y-67816365D01*
X91220871Y-67824630D01*
X91243049Y-67835120D01*
X91264093Y-67847733D01*
X91283798Y-67862347D01*
X91301977Y-67878823D01*
X91318453Y-67897002D01*
X91333067Y-67916707D01*
X91345680Y-67937751D01*
X91356170Y-67959929D01*
X91364435Y-67983029D01*
X91370396Y-68006827D01*
X91373996Y-68031096D01*
X91375200Y-68055600D01*
X91375200Y-68805600D01*
X91373996Y-68830104D01*
X91370396Y-68854373D01*
X91364435Y-68878171D01*
X91356170Y-68901271D01*
X91345680Y-68923449D01*
X91333067Y-68944493D01*
X91318453Y-68964198D01*
X91301977Y-68982377D01*
X91283798Y-68998853D01*
X91264093Y-69013467D01*
X91243049Y-69026080D01*
X91220871Y-69036570D01*
X91197771Y-69044835D01*
X91173973Y-69050796D01*
X91149704Y-69054396D01*
X91125200Y-69055600D01*
X89875200Y-69055600D01*
X89850696Y-69054396D01*
X89826427Y-69050796D01*
X89802629Y-69044835D01*
X89779529Y-69036570D01*
X89757351Y-69026080D01*
X89736307Y-69013467D01*
X89716602Y-68998853D01*
X89698423Y-68982377D01*
X89681947Y-68964198D01*
X89667333Y-68944493D01*
X89654720Y-68923449D01*
X89644230Y-68901271D01*
X89635965Y-68878171D01*
X89630004Y-68854373D01*
X89626404Y-68830104D01*
X89625200Y-68805600D01*
X89625200Y-68055600D01*
X89626404Y-68031096D01*
X89630004Y-68006827D01*
X89635965Y-67983029D01*
X89644230Y-67959929D01*
X89654720Y-67937751D01*
X89667333Y-67916707D01*
X89681947Y-67897002D01*
X89698423Y-67878823D01*
X89716602Y-67862347D01*
X89736307Y-67847733D01*
X89757351Y-67835120D01*
X89779529Y-67824630D01*
X89802629Y-67816365D01*
X89826427Y-67810404D01*
X89850696Y-67806804D01*
X89875200Y-67805600D01*
X91125200Y-67805600D01*
X91149704Y-67806804D01*
X91149704Y-67806804D01*
G37*
D16*
X90500200Y-68430600D03*
D13*
G36*
X91149704Y-65006804D02*
G01*
X91173973Y-65010404D01*
X91197771Y-65016365D01*
X91220871Y-65024630D01*
X91243049Y-65035120D01*
X91264093Y-65047733D01*
X91283798Y-65062347D01*
X91301977Y-65078823D01*
X91318453Y-65097002D01*
X91333067Y-65116707D01*
X91345680Y-65137751D01*
X91356170Y-65159929D01*
X91364435Y-65183029D01*
X91370396Y-65206827D01*
X91373996Y-65231096D01*
X91375200Y-65255600D01*
X91375200Y-66005600D01*
X91373996Y-66030104D01*
X91370396Y-66054373D01*
X91364435Y-66078171D01*
X91356170Y-66101271D01*
X91345680Y-66123449D01*
X91333067Y-66144493D01*
X91318453Y-66164198D01*
X91301977Y-66182377D01*
X91283798Y-66198853D01*
X91264093Y-66213467D01*
X91243049Y-66226080D01*
X91220871Y-66236570D01*
X91197771Y-66244835D01*
X91173973Y-66250796D01*
X91149704Y-66254396D01*
X91125200Y-66255600D01*
X89875200Y-66255600D01*
X89850696Y-66254396D01*
X89826427Y-66250796D01*
X89802629Y-66244835D01*
X89779529Y-66236570D01*
X89757351Y-66226080D01*
X89736307Y-66213467D01*
X89716602Y-66198853D01*
X89698423Y-66182377D01*
X89681947Y-66164198D01*
X89667333Y-66144493D01*
X89654720Y-66123449D01*
X89644230Y-66101271D01*
X89635965Y-66078171D01*
X89630004Y-66054373D01*
X89626404Y-66030104D01*
X89625200Y-66005600D01*
X89625200Y-65255600D01*
X89626404Y-65231096D01*
X89630004Y-65206827D01*
X89635965Y-65183029D01*
X89644230Y-65159929D01*
X89654720Y-65137751D01*
X89667333Y-65116707D01*
X89681947Y-65097002D01*
X89698423Y-65078823D01*
X89716602Y-65062347D01*
X89736307Y-65047733D01*
X89757351Y-65035120D01*
X89779529Y-65024630D01*
X89802629Y-65016365D01*
X89826427Y-65010404D01*
X89850696Y-65006804D01*
X89875200Y-65005600D01*
X91125200Y-65005600D01*
X91149704Y-65006804D01*
X91149704Y-65006804D01*
G37*
D16*
X90500200Y-65630600D03*
D13*
G36*
X28850504Y-81930204D02*
G01*
X28874773Y-81933804D01*
X28898571Y-81939765D01*
X28921671Y-81948030D01*
X28943849Y-81958520D01*
X28964893Y-81971133D01*
X28984598Y-81985747D01*
X29002777Y-82002223D01*
X29019253Y-82020402D01*
X29033867Y-82040107D01*
X29046480Y-82061151D01*
X29056970Y-82083329D01*
X29065235Y-82106429D01*
X29071196Y-82130227D01*
X29074796Y-82154496D01*
X29076000Y-82179000D01*
X29076000Y-83429000D01*
X29074796Y-83453504D01*
X29071196Y-83477773D01*
X29065235Y-83501571D01*
X29056970Y-83524671D01*
X29046480Y-83546849D01*
X29033867Y-83567893D01*
X29019253Y-83587598D01*
X29002777Y-83605777D01*
X28984598Y-83622253D01*
X28964893Y-83636867D01*
X28943849Y-83649480D01*
X28921671Y-83659970D01*
X28898571Y-83668235D01*
X28874773Y-83674196D01*
X28850504Y-83677796D01*
X28826000Y-83679000D01*
X28076000Y-83679000D01*
X28051496Y-83677796D01*
X28027227Y-83674196D01*
X28003429Y-83668235D01*
X27980329Y-83659970D01*
X27958151Y-83649480D01*
X27937107Y-83636867D01*
X27917402Y-83622253D01*
X27899223Y-83605777D01*
X27882747Y-83587598D01*
X27868133Y-83567893D01*
X27855520Y-83546849D01*
X27845030Y-83524671D01*
X27836765Y-83501571D01*
X27830804Y-83477773D01*
X27827204Y-83453504D01*
X27826000Y-83429000D01*
X27826000Y-82179000D01*
X27827204Y-82154496D01*
X27830804Y-82130227D01*
X27836765Y-82106429D01*
X27845030Y-82083329D01*
X27855520Y-82061151D01*
X27868133Y-82040107D01*
X27882747Y-82020402D01*
X27899223Y-82002223D01*
X27917402Y-81985747D01*
X27937107Y-81971133D01*
X27958151Y-81958520D01*
X27980329Y-81948030D01*
X28003429Y-81939765D01*
X28027227Y-81933804D01*
X28051496Y-81930204D01*
X28076000Y-81929000D01*
X28826000Y-81929000D01*
X28850504Y-81930204D01*
X28850504Y-81930204D01*
G37*
D16*
X28451000Y-82804000D03*
D13*
G36*
X26050504Y-81930204D02*
G01*
X26074773Y-81933804D01*
X26098571Y-81939765D01*
X26121671Y-81948030D01*
X26143849Y-81958520D01*
X26164893Y-81971133D01*
X26184598Y-81985747D01*
X26202777Y-82002223D01*
X26219253Y-82020402D01*
X26233867Y-82040107D01*
X26246480Y-82061151D01*
X26256970Y-82083329D01*
X26265235Y-82106429D01*
X26271196Y-82130227D01*
X26274796Y-82154496D01*
X26276000Y-82179000D01*
X26276000Y-83429000D01*
X26274796Y-83453504D01*
X26271196Y-83477773D01*
X26265235Y-83501571D01*
X26256970Y-83524671D01*
X26246480Y-83546849D01*
X26233867Y-83567893D01*
X26219253Y-83587598D01*
X26202777Y-83605777D01*
X26184598Y-83622253D01*
X26164893Y-83636867D01*
X26143849Y-83649480D01*
X26121671Y-83659970D01*
X26098571Y-83668235D01*
X26074773Y-83674196D01*
X26050504Y-83677796D01*
X26026000Y-83679000D01*
X25276000Y-83679000D01*
X25251496Y-83677796D01*
X25227227Y-83674196D01*
X25203429Y-83668235D01*
X25180329Y-83659970D01*
X25158151Y-83649480D01*
X25137107Y-83636867D01*
X25117402Y-83622253D01*
X25099223Y-83605777D01*
X25082747Y-83587598D01*
X25068133Y-83567893D01*
X25055520Y-83546849D01*
X25045030Y-83524671D01*
X25036765Y-83501571D01*
X25030804Y-83477773D01*
X25027204Y-83453504D01*
X25026000Y-83429000D01*
X25026000Y-82179000D01*
X25027204Y-82154496D01*
X25030804Y-82130227D01*
X25036765Y-82106429D01*
X25045030Y-82083329D01*
X25055520Y-82061151D01*
X25068133Y-82040107D01*
X25082747Y-82020402D01*
X25099223Y-82002223D01*
X25117402Y-81985747D01*
X25137107Y-81971133D01*
X25158151Y-81958520D01*
X25180329Y-81948030D01*
X25203429Y-81939765D01*
X25227227Y-81933804D01*
X25251496Y-81930204D01*
X25276000Y-81929000D01*
X26026000Y-81929000D01*
X26050504Y-81930204D01*
X26050504Y-81930204D01*
G37*
D16*
X25651000Y-82804000D03*
D13*
G36*
X26050504Y-78374204D02*
G01*
X26074773Y-78377804D01*
X26098571Y-78383765D01*
X26121671Y-78392030D01*
X26143849Y-78402520D01*
X26164893Y-78415133D01*
X26184598Y-78429747D01*
X26202777Y-78446223D01*
X26219253Y-78464402D01*
X26233867Y-78484107D01*
X26246480Y-78505151D01*
X26256970Y-78527329D01*
X26265235Y-78550429D01*
X26271196Y-78574227D01*
X26274796Y-78598496D01*
X26276000Y-78623000D01*
X26276000Y-79873000D01*
X26274796Y-79897504D01*
X26271196Y-79921773D01*
X26265235Y-79945571D01*
X26256970Y-79968671D01*
X26246480Y-79990849D01*
X26233867Y-80011893D01*
X26219253Y-80031598D01*
X26202777Y-80049777D01*
X26184598Y-80066253D01*
X26164893Y-80080867D01*
X26143849Y-80093480D01*
X26121671Y-80103970D01*
X26098571Y-80112235D01*
X26074773Y-80118196D01*
X26050504Y-80121796D01*
X26026000Y-80123000D01*
X25276000Y-80123000D01*
X25251496Y-80121796D01*
X25227227Y-80118196D01*
X25203429Y-80112235D01*
X25180329Y-80103970D01*
X25158151Y-80093480D01*
X25137107Y-80080867D01*
X25117402Y-80066253D01*
X25099223Y-80049777D01*
X25082747Y-80031598D01*
X25068133Y-80011893D01*
X25055520Y-79990849D01*
X25045030Y-79968671D01*
X25036765Y-79945571D01*
X25030804Y-79921773D01*
X25027204Y-79897504D01*
X25026000Y-79873000D01*
X25026000Y-78623000D01*
X25027204Y-78598496D01*
X25030804Y-78574227D01*
X25036765Y-78550429D01*
X25045030Y-78527329D01*
X25055520Y-78505151D01*
X25068133Y-78484107D01*
X25082747Y-78464402D01*
X25099223Y-78446223D01*
X25117402Y-78429747D01*
X25137107Y-78415133D01*
X25158151Y-78402520D01*
X25180329Y-78392030D01*
X25203429Y-78383765D01*
X25227227Y-78377804D01*
X25251496Y-78374204D01*
X25276000Y-78373000D01*
X26026000Y-78373000D01*
X26050504Y-78374204D01*
X26050504Y-78374204D01*
G37*
D16*
X25651000Y-79248000D03*
D13*
G36*
X28850504Y-78374204D02*
G01*
X28874773Y-78377804D01*
X28898571Y-78383765D01*
X28921671Y-78392030D01*
X28943849Y-78402520D01*
X28964893Y-78415133D01*
X28984598Y-78429747D01*
X29002777Y-78446223D01*
X29019253Y-78464402D01*
X29033867Y-78484107D01*
X29046480Y-78505151D01*
X29056970Y-78527329D01*
X29065235Y-78550429D01*
X29071196Y-78574227D01*
X29074796Y-78598496D01*
X29076000Y-78623000D01*
X29076000Y-79873000D01*
X29074796Y-79897504D01*
X29071196Y-79921773D01*
X29065235Y-79945571D01*
X29056970Y-79968671D01*
X29046480Y-79990849D01*
X29033867Y-80011893D01*
X29019253Y-80031598D01*
X29002777Y-80049777D01*
X28984598Y-80066253D01*
X28964893Y-80080867D01*
X28943849Y-80093480D01*
X28921671Y-80103970D01*
X28898571Y-80112235D01*
X28874773Y-80118196D01*
X28850504Y-80121796D01*
X28826000Y-80123000D01*
X28076000Y-80123000D01*
X28051496Y-80121796D01*
X28027227Y-80118196D01*
X28003429Y-80112235D01*
X27980329Y-80103970D01*
X27958151Y-80093480D01*
X27937107Y-80080867D01*
X27917402Y-80066253D01*
X27899223Y-80049777D01*
X27882747Y-80031598D01*
X27868133Y-80011893D01*
X27855520Y-79990849D01*
X27845030Y-79968671D01*
X27836765Y-79945571D01*
X27830804Y-79921773D01*
X27827204Y-79897504D01*
X27826000Y-79873000D01*
X27826000Y-78623000D01*
X27827204Y-78598496D01*
X27830804Y-78574227D01*
X27836765Y-78550429D01*
X27845030Y-78527329D01*
X27855520Y-78505151D01*
X27868133Y-78484107D01*
X27882747Y-78464402D01*
X27899223Y-78446223D01*
X27917402Y-78429747D01*
X27937107Y-78415133D01*
X27958151Y-78402520D01*
X27980329Y-78392030D01*
X28003429Y-78383765D01*
X28027227Y-78377804D01*
X28051496Y-78374204D01*
X28076000Y-78373000D01*
X28826000Y-78373000D01*
X28850504Y-78374204D01*
X28850504Y-78374204D01*
G37*
D16*
X28451000Y-79248000D03*
D13*
G36*
X26050504Y-74818204D02*
G01*
X26074773Y-74821804D01*
X26098571Y-74827765D01*
X26121671Y-74836030D01*
X26143849Y-74846520D01*
X26164893Y-74859133D01*
X26184598Y-74873747D01*
X26202777Y-74890223D01*
X26219253Y-74908402D01*
X26233867Y-74928107D01*
X26246480Y-74949151D01*
X26256970Y-74971329D01*
X26265235Y-74994429D01*
X26271196Y-75018227D01*
X26274796Y-75042496D01*
X26276000Y-75067000D01*
X26276000Y-76317000D01*
X26274796Y-76341504D01*
X26271196Y-76365773D01*
X26265235Y-76389571D01*
X26256970Y-76412671D01*
X26246480Y-76434849D01*
X26233867Y-76455893D01*
X26219253Y-76475598D01*
X26202777Y-76493777D01*
X26184598Y-76510253D01*
X26164893Y-76524867D01*
X26143849Y-76537480D01*
X26121671Y-76547970D01*
X26098571Y-76556235D01*
X26074773Y-76562196D01*
X26050504Y-76565796D01*
X26026000Y-76567000D01*
X25276000Y-76567000D01*
X25251496Y-76565796D01*
X25227227Y-76562196D01*
X25203429Y-76556235D01*
X25180329Y-76547970D01*
X25158151Y-76537480D01*
X25137107Y-76524867D01*
X25117402Y-76510253D01*
X25099223Y-76493777D01*
X25082747Y-76475598D01*
X25068133Y-76455893D01*
X25055520Y-76434849D01*
X25045030Y-76412671D01*
X25036765Y-76389571D01*
X25030804Y-76365773D01*
X25027204Y-76341504D01*
X25026000Y-76317000D01*
X25026000Y-75067000D01*
X25027204Y-75042496D01*
X25030804Y-75018227D01*
X25036765Y-74994429D01*
X25045030Y-74971329D01*
X25055520Y-74949151D01*
X25068133Y-74928107D01*
X25082747Y-74908402D01*
X25099223Y-74890223D01*
X25117402Y-74873747D01*
X25137107Y-74859133D01*
X25158151Y-74846520D01*
X25180329Y-74836030D01*
X25203429Y-74827765D01*
X25227227Y-74821804D01*
X25251496Y-74818204D01*
X25276000Y-74817000D01*
X26026000Y-74817000D01*
X26050504Y-74818204D01*
X26050504Y-74818204D01*
G37*
D16*
X25651000Y-75692000D03*
D13*
G36*
X28850504Y-74818204D02*
G01*
X28874773Y-74821804D01*
X28898571Y-74827765D01*
X28921671Y-74836030D01*
X28943849Y-74846520D01*
X28964893Y-74859133D01*
X28984598Y-74873747D01*
X29002777Y-74890223D01*
X29019253Y-74908402D01*
X29033867Y-74928107D01*
X29046480Y-74949151D01*
X29056970Y-74971329D01*
X29065235Y-74994429D01*
X29071196Y-75018227D01*
X29074796Y-75042496D01*
X29076000Y-75067000D01*
X29076000Y-76317000D01*
X29074796Y-76341504D01*
X29071196Y-76365773D01*
X29065235Y-76389571D01*
X29056970Y-76412671D01*
X29046480Y-76434849D01*
X29033867Y-76455893D01*
X29019253Y-76475598D01*
X29002777Y-76493777D01*
X28984598Y-76510253D01*
X28964893Y-76524867D01*
X28943849Y-76537480D01*
X28921671Y-76547970D01*
X28898571Y-76556235D01*
X28874773Y-76562196D01*
X28850504Y-76565796D01*
X28826000Y-76567000D01*
X28076000Y-76567000D01*
X28051496Y-76565796D01*
X28027227Y-76562196D01*
X28003429Y-76556235D01*
X27980329Y-76547970D01*
X27958151Y-76537480D01*
X27937107Y-76524867D01*
X27917402Y-76510253D01*
X27899223Y-76493777D01*
X27882747Y-76475598D01*
X27868133Y-76455893D01*
X27855520Y-76434849D01*
X27845030Y-76412671D01*
X27836765Y-76389571D01*
X27830804Y-76365773D01*
X27827204Y-76341504D01*
X27826000Y-76317000D01*
X27826000Y-75067000D01*
X27827204Y-75042496D01*
X27830804Y-75018227D01*
X27836765Y-74994429D01*
X27845030Y-74971329D01*
X27855520Y-74949151D01*
X27868133Y-74928107D01*
X27882747Y-74908402D01*
X27899223Y-74890223D01*
X27917402Y-74873747D01*
X27937107Y-74859133D01*
X27958151Y-74846520D01*
X27980329Y-74836030D01*
X28003429Y-74827765D01*
X28027227Y-74821804D01*
X28051496Y-74818204D01*
X28076000Y-74817000D01*
X28826000Y-74817000D01*
X28850504Y-74818204D01*
X28850504Y-74818204D01*
G37*
D16*
X28451000Y-75692000D03*
D13*
G36*
X28847504Y-71262204D02*
G01*
X28871773Y-71265804D01*
X28895571Y-71271765D01*
X28918671Y-71280030D01*
X28940849Y-71290520D01*
X28961893Y-71303133D01*
X28981598Y-71317747D01*
X28999777Y-71334223D01*
X29016253Y-71352402D01*
X29030867Y-71372107D01*
X29043480Y-71393151D01*
X29053970Y-71415329D01*
X29062235Y-71438429D01*
X29068196Y-71462227D01*
X29071796Y-71486496D01*
X29073000Y-71511000D01*
X29073000Y-72761000D01*
X29071796Y-72785504D01*
X29068196Y-72809773D01*
X29062235Y-72833571D01*
X29053970Y-72856671D01*
X29043480Y-72878849D01*
X29030867Y-72899893D01*
X29016253Y-72919598D01*
X28999777Y-72937777D01*
X28981598Y-72954253D01*
X28961893Y-72968867D01*
X28940849Y-72981480D01*
X28918671Y-72991970D01*
X28895571Y-73000235D01*
X28871773Y-73006196D01*
X28847504Y-73009796D01*
X28823000Y-73011000D01*
X28073000Y-73011000D01*
X28048496Y-73009796D01*
X28024227Y-73006196D01*
X28000429Y-73000235D01*
X27977329Y-72991970D01*
X27955151Y-72981480D01*
X27934107Y-72968867D01*
X27914402Y-72954253D01*
X27896223Y-72937777D01*
X27879747Y-72919598D01*
X27865133Y-72899893D01*
X27852520Y-72878849D01*
X27842030Y-72856671D01*
X27833765Y-72833571D01*
X27827804Y-72809773D01*
X27824204Y-72785504D01*
X27823000Y-72761000D01*
X27823000Y-71511000D01*
X27824204Y-71486496D01*
X27827804Y-71462227D01*
X27833765Y-71438429D01*
X27842030Y-71415329D01*
X27852520Y-71393151D01*
X27865133Y-71372107D01*
X27879747Y-71352402D01*
X27896223Y-71334223D01*
X27914402Y-71317747D01*
X27934107Y-71303133D01*
X27955151Y-71290520D01*
X27977329Y-71280030D01*
X28000429Y-71271765D01*
X28024227Y-71265804D01*
X28048496Y-71262204D01*
X28073000Y-71261000D01*
X28823000Y-71261000D01*
X28847504Y-71262204D01*
X28847504Y-71262204D01*
G37*
D16*
X28448000Y-72136000D03*
D13*
G36*
X26047504Y-71262204D02*
G01*
X26071773Y-71265804D01*
X26095571Y-71271765D01*
X26118671Y-71280030D01*
X26140849Y-71290520D01*
X26161893Y-71303133D01*
X26181598Y-71317747D01*
X26199777Y-71334223D01*
X26216253Y-71352402D01*
X26230867Y-71372107D01*
X26243480Y-71393151D01*
X26253970Y-71415329D01*
X26262235Y-71438429D01*
X26268196Y-71462227D01*
X26271796Y-71486496D01*
X26273000Y-71511000D01*
X26273000Y-72761000D01*
X26271796Y-72785504D01*
X26268196Y-72809773D01*
X26262235Y-72833571D01*
X26253970Y-72856671D01*
X26243480Y-72878849D01*
X26230867Y-72899893D01*
X26216253Y-72919598D01*
X26199777Y-72937777D01*
X26181598Y-72954253D01*
X26161893Y-72968867D01*
X26140849Y-72981480D01*
X26118671Y-72991970D01*
X26095571Y-73000235D01*
X26071773Y-73006196D01*
X26047504Y-73009796D01*
X26023000Y-73011000D01*
X25273000Y-73011000D01*
X25248496Y-73009796D01*
X25224227Y-73006196D01*
X25200429Y-73000235D01*
X25177329Y-72991970D01*
X25155151Y-72981480D01*
X25134107Y-72968867D01*
X25114402Y-72954253D01*
X25096223Y-72937777D01*
X25079747Y-72919598D01*
X25065133Y-72899893D01*
X25052520Y-72878849D01*
X25042030Y-72856671D01*
X25033765Y-72833571D01*
X25027804Y-72809773D01*
X25024204Y-72785504D01*
X25023000Y-72761000D01*
X25023000Y-71511000D01*
X25024204Y-71486496D01*
X25027804Y-71462227D01*
X25033765Y-71438429D01*
X25042030Y-71415329D01*
X25052520Y-71393151D01*
X25065133Y-71372107D01*
X25079747Y-71352402D01*
X25096223Y-71334223D01*
X25114402Y-71317747D01*
X25134107Y-71303133D01*
X25155151Y-71290520D01*
X25177329Y-71280030D01*
X25200429Y-71271765D01*
X25224227Y-71265804D01*
X25248496Y-71262204D01*
X25273000Y-71261000D01*
X26023000Y-71261000D01*
X26047504Y-71262204D01*
X26047504Y-71262204D01*
G37*
D16*
X25648000Y-72136000D03*
D28*
X37338000Y-90932000D03*
D29*
X39038000Y-90932000D03*
X40738000Y-90932000D03*
X42438000Y-90932000D03*
X44138000Y-90932000D03*
D30*
X48006000Y-61874000D03*
D31*
X48006000Y-68174000D03*
X50306000Y-68174000D03*
X45706000Y-68174000D03*
D32*
X60198000Y-79375000D03*
X61468000Y-80645000D03*
X60198000Y-81915000D03*
X61468000Y-83185000D03*
X60198000Y-84455000D03*
X61468000Y-85725000D03*
X60198000Y-86995000D03*
X73406000Y-79248000D03*
X74422000Y-80264000D03*
X73406000Y-81788000D03*
X74422000Y-83312000D03*
X73406000Y-84328000D03*
X74422000Y-85344000D03*
X73406000Y-86360000D03*
X84582000Y-80518000D03*
X85725000Y-81153000D03*
X84582000Y-82296000D03*
X85598000Y-82804000D03*
X86868000Y-82042000D03*
X84836000Y-84074000D03*
X86868000Y-84005000D03*
X85852000Y-85344000D03*
X90678000Y-71628000D03*
X89662000Y-71628000D03*
X88646000Y-71628000D03*
X88646000Y-72644000D03*
X89662000Y-72644000D03*
X90678000Y-72644000D03*
X90678000Y-73660000D03*
X89662000Y-73660000D03*
X88646000Y-73660000D03*
X30226000Y-82042000D03*
X29972000Y-77724000D03*
X29718000Y-73914000D03*
X29718000Y-70612000D03*
X20190000Y-85220000D03*
X37465000Y-83820000D03*
X45720000Y-79375000D03*
X22860000Y-94615000D03*
X19685000Y-89535000D03*
D33*
X104793290Y-31510710D02*
X105664000Y-30640000D01*
X103957599Y-32346401D02*
X104793290Y-31510710D01*
X103957599Y-38688801D02*
X103957599Y-32346401D01*
X99263200Y-43383200D02*
X103957599Y-38688801D01*
X88664290Y-31510710D02*
X89535000Y-30640000D01*
X87599999Y-32575001D02*
X88664290Y-31510710D01*
X87599999Y-39019001D02*
X87599999Y-32575001D01*
X83235800Y-43383200D02*
X87599999Y-39019001D01*
X72789290Y-31510710D02*
X73660000Y-30640000D01*
X71882000Y-32418000D02*
X72789290Y-31510710D01*
X71882000Y-38785800D02*
X71882000Y-32418000D01*
X67284600Y-43383200D02*
X71882000Y-38785800D01*
X56838090Y-31485310D02*
X57708800Y-30614600D01*
X55976999Y-32346401D02*
X56838090Y-31485310D01*
X55976999Y-38638001D02*
X55976999Y-32346401D01*
X51257200Y-43357800D02*
X55976999Y-38638001D01*
X40734490Y-31416710D02*
X41605200Y-30546000D01*
X39898799Y-32252401D02*
X40734490Y-31416710D01*
X39898799Y-38638001D02*
X39898799Y-32252401D01*
X35204400Y-43332400D02*
X39898799Y-38638001D01*
X24732490Y-31409110D02*
X25603200Y-30538400D01*
X23744399Y-32397201D02*
X24732490Y-31409110D01*
X23744399Y-38790401D02*
X23744399Y-32397201D01*
X19202400Y-43332400D02*
X23744399Y-38790401D01*
D34*
X83235800Y-43383200D02*
X83235800Y-45669200D01*
X99263200Y-45516800D02*
X99263200Y-43383200D01*
X99060000Y-45720000D02*
X99263200Y-45516800D01*
X83286600Y-45720000D02*
X99060000Y-45720000D01*
X83235800Y-45669200D02*
X83286600Y-45720000D01*
X35204400Y-45440600D02*
X34975800Y-45669200D01*
X35204400Y-43332400D02*
X35204400Y-45440600D01*
X34975800Y-45669200D02*
X19735800Y-45669200D01*
X51257200Y-45542200D02*
X51384200Y-45669200D01*
X51257200Y-43357800D02*
X51257200Y-45542200D01*
X51384200Y-45669200D02*
X34975800Y-45669200D01*
X67284600Y-45593000D02*
X67360800Y-45669200D01*
X67284600Y-43383200D02*
X67284600Y-45593000D01*
X83235800Y-45669200D02*
X67360800Y-45669200D01*
X67360800Y-45669200D02*
X51384200Y-45669200D01*
X19202400Y-45135800D02*
X19735800Y-45669200D01*
X19202400Y-43332400D02*
X19202400Y-45135800D01*
X38636000Y-97658000D02*
X32164000Y-91186000D01*
X38636000Y-98368000D02*
X38636000Y-97658000D01*
X32418000Y-90932000D02*
X32164000Y-91186000D01*
X37338000Y-90932000D02*
X32418000Y-90932000D01*
D35*
X64130001Y-66661611D02*
X57158390Y-59690000D01*
X64130001Y-69492001D02*
X64130001Y-66661611D01*
X63142001Y-70480001D02*
X64130001Y-69492001D01*
X62615999Y-70480001D02*
X63142001Y-70480001D01*
X62230000Y-71120000D02*
X62230000Y-70866000D01*
X62230000Y-70866000D02*
X62615999Y-70480001D01*
X57158390Y-59690000D02*
X54610000Y-59690000D01*
X51257200Y-56337200D02*
X51257200Y-43129200D01*
X54610000Y-59690000D02*
X51257200Y-56337200D01*
D36*
X38736011Y-98468011D02*
X38736011Y-98368000D01*
D35*
X67310000Y-106553000D02*
X67310000Y-101347000D01*
X67310000Y-101347000D02*
X66166000Y-100203000D01*
D37*
X40770000Y-100502000D02*
X40770000Y-105664000D01*
X38636000Y-98368000D02*
X40770000Y-100502000D01*
D36*
X40770000Y-101706002D02*
X50823998Y-111760000D01*
X40770000Y-100502000D02*
X40770000Y-101706002D01*
D35*
X81788000Y-101220000D02*
X80898000Y-100330000D01*
X81788000Y-106553000D02*
X81788000Y-101220000D01*
X95758000Y-102236000D02*
X94106000Y-100584000D01*
X95758000Y-106553000D02*
X95758000Y-102236000D01*
D36*
X90825786Y-111760000D02*
X90851186Y-111734600D01*
X90851186Y-111734600D02*
X94335600Y-111734600D01*
X95758000Y-110312200D02*
X95758000Y-106553000D01*
X94335600Y-111734600D02*
X95758000Y-110312200D01*
X81788000Y-110718600D02*
X82829400Y-111760000D01*
X81788000Y-106553000D02*
X81788000Y-110718600D01*
X82829400Y-111760000D02*
X90825786Y-111760000D01*
X67310000Y-111048800D02*
X68021200Y-111760000D01*
X67310000Y-106553000D02*
X67310000Y-111048800D01*
X68021200Y-111760000D02*
X82829400Y-111760000D01*
D34*
X58877200Y-92710000D02*
X58877200Y-111252000D01*
X58877200Y-111252000D02*
X59385200Y-111760000D01*
D36*
X59385200Y-111760000D02*
X68021200Y-111760000D01*
D34*
X58089800Y-91922600D02*
X58877200Y-92710000D01*
D36*
X50823998Y-111760000D02*
X59385200Y-111760000D01*
D34*
X62230000Y-71120000D02*
X61380001Y-71969999D01*
X61380001Y-71969999D02*
X61380001Y-73976599D01*
X61380001Y-73976599D02*
X58089800Y-77266800D01*
X58089800Y-77266800D02*
X58089800Y-91922600D01*
D35*
X40770000Y-107089000D02*
X40770000Y-105664000D01*
X36099000Y-111760000D02*
X40770000Y-107089000D01*
X27305000Y-111760000D02*
X36099000Y-111760000D01*
X25400000Y-109855000D02*
X27305000Y-111760000D01*
X25400000Y-105410000D02*
X25400000Y-109855000D01*
X20828000Y-100838000D02*
X25400000Y-105410000D01*
X20828000Y-97027000D02*
X21335000Y-96520000D01*
X20828000Y-100838000D02*
X20828000Y-97027000D01*
D33*
X105300800Y-25603200D02*
X105664000Y-25240000D01*
X99263200Y-25603200D02*
X105300800Y-25603200D01*
X89171800Y-25603200D02*
X89535000Y-25240000D01*
X83235800Y-25603200D02*
X89171800Y-25603200D01*
X73296800Y-25603200D02*
X73660000Y-25240000D01*
X67284600Y-25603200D02*
X73296800Y-25603200D01*
X57345600Y-25577800D02*
X57708800Y-25214600D01*
X51257200Y-25577800D02*
X57345600Y-25577800D01*
X41198800Y-25552400D02*
X41605200Y-25146000D01*
X35204400Y-25552400D02*
X41198800Y-25552400D01*
X25189200Y-25552400D02*
X25603200Y-25138400D01*
X19202400Y-25552400D02*
X25189200Y-25552400D01*
X36404400Y-25552400D02*
X35204400Y-25552400D01*
X36454401Y-25602401D02*
X36404400Y-25552400D01*
X36454401Y-39542399D02*
X36454401Y-25602401D01*
X35204400Y-40792400D02*
X36454401Y-39542399D01*
X20402400Y-25552400D02*
X19202400Y-25552400D01*
X20452401Y-25602401D02*
X20402400Y-25552400D01*
X20452401Y-39542399D02*
X20452401Y-25602401D01*
X19202400Y-40792400D02*
X20452401Y-39542399D01*
X52457200Y-25577800D02*
X51257200Y-25577800D01*
X52507201Y-25627801D02*
X52457200Y-25577800D01*
X52507201Y-39567799D02*
X52507201Y-25627801D01*
X51257200Y-40817800D02*
X52507201Y-39567799D01*
X68484600Y-25603200D02*
X67284600Y-25603200D01*
X68534601Y-25653201D02*
X68484600Y-25603200D01*
X68534601Y-38903201D02*
X68534601Y-25653201D01*
X67284600Y-40153202D02*
X68534601Y-38903201D01*
X67284600Y-40843200D02*
X67284600Y-40153202D01*
X84435800Y-25603200D02*
X83235800Y-25603200D01*
X84485801Y-25653201D02*
X84435800Y-25603200D01*
X84485801Y-39593199D02*
X84485801Y-25653201D01*
X83235800Y-40843200D02*
X84485801Y-39593199D01*
X100463200Y-25603200D02*
X99263200Y-25603200D01*
X100513201Y-25653201D02*
X100463200Y-25603200D01*
X100513201Y-39593199D02*
X100513201Y-25653201D01*
X99263200Y-40843200D02*
X100513201Y-39593199D01*
D34*
X19098001Y-55118000D02*
X19098001Y-66167000D01*
X109423200Y-71983600D02*
X109423200Y-53568600D01*
X19558000Y-73660000D02*
X19558000Y-81280000D01*
X34296000Y-84325000D02*
X34293000Y-84328000D01*
X34296000Y-70612000D02*
X34296000Y-84325000D01*
X19098001Y-73200001D02*
X19558000Y-73660000D01*
X19098001Y-66167000D02*
X19098001Y-73200001D01*
X19558000Y-81534000D02*
X19558000Y-81280000D01*
X24427010Y-86403010D02*
X19558000Y-81534000D01*
X32282220Y-86403010D02*
X24427010Y-86403010D01*
X33597290Y-85087940D02*
X32282220Y-86403010D01*
X34293000Y-84328000D02*
X33597290Y-85023710D01*
X33597290Y-85023710D02*
X33597290Y-85087940D01*
D35*
X36192000Y-107442000D02*
X37970000Y-105664000D01*
X33782000Y-107442000D02*
X36192000Y-107442000D01*
D34*
X24638000Y-91186000D02*
X24427010Y-90975010D01*
X26764000Y-91186000D02*
X24638000Y-91186000D01*
X24427010Y-90975010D02*
X24427010Y-86403010D01*
X40738000Y-87912000D02*
X40738000Y-90932000D01*
X44068000Y-84582000D02*
X40738000Y-87912000D01*
X45518000Y-84582000D02*
X45740010Y-84359990D01*
X44068000Y-84582000D02*
X45518000Y-84582000D01*
X48194000Y-81906000D02*
X45518000Y-84582000D01*
X52070000Y-81906000D02*
X48194000Y-81906000D01*
X52070000Y-77884000D02*
X48608000Y-74422000D01*
X52070000Y-81906000D02*
X52070000Y-77884000D01*
D35*
X45706000Y-71520000D02*
X45706000Y-68174000D01*
X48608000Y-74422000D02*
X45706000Y-71520000D01*
X43914000Y-68174000D02*
X41656000Y-65916000D01*
X45706000Y-68174000D02*
X43914000Y-68174000D01*
X40960290Y-65220290D02*
X41656000Y-65916000D01*
X40471796Y-65220290D02*
X40960290Y-65220290D01*
X38956000Y-63704494D02*
X40471796Y-65220290D01*
X38956000Y-56896000D02*
X38956000Y-63704494D01*
D37*
X63500000Y-84649000D02*
X63500000Y-80648000D01*
X63500000Y-80648000D02*
X64008000Y-80140000D01*
D34*
X63312290Y-79444290D02*
X62541710Y-79444290D01*
X64008000Y-80140000D02*
X63312290Y-79444290D01*
D38*
X62541710Y-79444290D02*
X61525710Y-79444290D01*
D34*
X60198000Y-86995000D02*
X62611000Y-86995000D01*
X62611000Y-86995000D02*
X62738000Y-86868000D01*
X62738000Y-85411000D02*
X63500000Y-84649000D01*
X62738000Y-86868000D02*
X62738000Y-85411000D01*
D37*
X76708000Y-80902000D02*
X77470000Y-80140000D01*
X76708000Y-84830000D02*
X76708000Y-80902000D01*
D39*
X77470000Y-80140000D02*
X76330000Y-80140000D01*
X76708000Y-84830000D02*
X76708000Y-85090000D01*
X76708000Y-85090000D02*
X75438000Y-86360000D01*
D35*
X87766000Y-84903000D02*
X86868000Y-84005000D01*
X89916000Y-84903000D02*
X87766000Y-84903000D01*
X86868000Y-84005000D02*
X86868000Y-82042000D01*
D34*
X85893000Y-80394000D02*
X85598000Y-80689000D01*
X86868000Y-80394000D02*
X85893000Y-80394000D01*
X85598000Y-80689000D02*
X85598000Y-81026000D01*
X85598000Y-81026000D02*
X85725000Y-81153000D01*
X89916000Y-84903000D02*
X89916000Y-84328000D01*
X89916000Y-84328000D02*
X89154000Y-83566000D01*
X89154000Y-83566000D02*
X87630000Y-83566000D01*
X89916000Y-84903000D02*
X89849000Y-84903000D01*
X89849000Y-84903000D02*
X88900000Y-85852000D01*
X85725000Y-81153000D02*
X86106000Y-81534000D01*
D35*
X86868000Y-84005000D02*
X86868000Y-84005000D01*
D34*
X86868000Y-80563200D02*
X86868000Y-81813400D01*
X86588600Y-80283800D02*
X86868000Y-80563200D01*
X86588600Y-79558800D02*
X86588600Y-80283800D01*
D35*
X86868000Y-82042000D02*
X86868000Y-81813400D01*
X86868000Y-81813400D02*
X86868000Y-80394000D01*
D34*
X86588600Y-81000600D02*
X89154000Y-83566000D01*
X86588600Y-80283800D02*
X86588600Y-81000600D01*
D37*
X89662000Y-69268800D02*
X90500200Y-68430600D01*
X89662000Y-72644000D02*
X89662000Y-69268800D01*
X94298000Y-68430600D02*
X95402400Y-67326200D01*
X90500200Y-68430600D02*
X94298000Y-68430600D01*
X89662000Y-72644000D02*
X89662000Y-73660000D01*
D35*
X26190000Y-91760000D02*
X26764000Y-91186000D01*
X24427010Y-91777990D02*
X24445000Y-91760000D01*
X24427010Y-93007010D02*
X24427010Y-91777990D01*
X24445000Y-91760000D02*
X26190000Y-91760000D01*
D34*
X24427010Y-93007010D02*
X24427010Y-90975010D01*
D35*
X24427010Y-93996994D02*
X26048008Y-95617992D01*
X24427010Y-93007010D02*
X24427010Y-93996994D01*
X32671994Y-95317992D02*
X33447001Y-96092999D01*
X28172644Y-95317992D02*
X32671994Y-95317992D01*
X27872644Y-95617992D02*
X28172644Y-95317992D01*
X26048008Y-95617992D02*
X27872644Y-95617992D01*
X35986001Y-105237999D02*
X35986001Y-101391001D01*
X33782000Y-107442000D02*
X35986001Y-105237999D01*
D34*
X35986001Y-101391001D02*
X35986001Y-98631999D01*
D35*
X33447001Y-96092999D02*
X34399501Y-97045499D01*
D34*
X35986001Y-98631999D02*
X34399501Y-97045499D01*
D35*
X22752990Y-91777990D02*
X24427010Y-91777990D01*
X22735000Y-91760000D02*
X22752990Y-91777990D01*
X20685000Y-91760000D02*
X22735000Y-91760000D01*
D33*
X22225000Y-91250000D02*
X22225000Y-89665000D01*
X22735000Y-91760000D02*
X22225000Y-91250000D01*
D34*
X21638001Y-55118000D02*
X21638001Y-66167000D01*
D35*
X52070000Y-95506000D02*
X55116000Y-98552000D01*
X52070000Y-90306000D02*
X52070000Y-95506000D01*
D34*
X42438000Y-90407265D02*
X42438000Y-90932000D01*
X43563275Y-89281990D02*
X42438000Y-90407265D01*
X44712725Y-89281990D02*
X43563275Y-89281990D01*
X45736735Y-90306000D02*
X44712725Y-89281990D01*
X52070000Y-90306000D02*
X45736735Y-90306000D01*
X54878710Y-75292710D02*
X54008000Y-74422000D01*
X54878710Y-87497290D02*
X54878710Y-75292710D01*
X52070000Y-90306000D02*
X54878710Y-87497290D01*
D35*
X54008000Y-71876000D02*
X50306000Y-68174000D01*
X54008000Y-74422000D02*
X54008000Y-71876000D01*
X50712000Y-68580000D02*
X50306000Y-68174000D01*
X59690000Y-68580000D02*
X50712000Y-68580000D01*
X48006000Y-68174000D02*
X48006000Y-61874000D01*
X46764000Y-63116000D02*
X48006000Y-61874000D01*
X41656000Y-63116000D02*
X46764000Y-63116000D01*
X48006000Y-60546000D02*
X44356000Y-56896000D01*
X48006000Y-61874000D02*
X48006000Y-60546000D01*
X51506000Y-61874000D02*
X48006000Y-61874000D01*
X56726081Y-61874000D02*
X51506000Y-61874000D01*
X62230000Y-67377919D02*
X56726081Y-61874000D01*
X62230000Y-68580000D02*
X62230000Y-67377919D01*
D33*
X25044400Y-35687000D02*
X25044400Y-40767000D01*
X41198800Y-35737800D02*
X41198800Y-40817800D01*
X57277000Y-35712400D02*
X57277000Y-40792400D01*
X73304400Y-35763200D02*
X73304400Y-40843200D01*
X88900000Y-35763200D02*
X88900000Y-40843200D01*
D40*
X17927399Y-23347601D02*
X18415000Y-22860000D01*
X33929399Y-23220601D02*
X34290000Y-22860000D01*
X33929399Y-26817399D02*
X33929399Y-23220601D01*
X35204400Y-28092400D02*
X33929399Y-26817399D01*
X49982199Y-23677801D02*
X50800000Y-22860000D01*
X49982199Y-26842799D02*
X49982199Y-23677801D01*
X51257200Y-28117800D02*
X49982199Y-26842799D01*
X66009599Y-23525401D02*
X66675000Y-22860000D01*
X66009599Y-26868199D02*
X66009599Y-23525401D01*
X67284600Y-28143200D02*
X66009599Y-26868199D01*
X81960799Y-23449201D02*
X82550000Y-22860000D01*
X81960799Y-26868199D02*
X81960799Y-23449201D01*
X83235800Y-28143200D02*
X81960799Y-26868199D01*
X97988199Y-23296801D02*
X98425000Y-22860000D01*
X97988199Y-26868199D02*
X97988199Y-23296801D01*
X99263200Y-28143200D02*
X97988199Y-26868199D01*
X107950000Y-22860000D02*
X98425000Y-22860000D01*
D41*
X92075000Y-31488200D02*
X92075000Y-22860000D01*
X88900000Y-34663200D02*
X92075000Y-31488200D01*
X88900000Y-35763200D02*
X88900000Y-34663200D01*
D40*
X98425000Y-22860000D02*
X92075000Y-22860000D01*
X92075000Y-22860000D02*
X82550000Y-22860000D01*
D41*
X76835000Y-31132600D02*
X76835000Y-22860000D01*
X73304400Y-34663200D02*
X76835000Y-31132600D01*
X73304400Y-35763200D02*
X73304400Y-34663200D01*
D40*
X82550000Y-22860000D02*
X76835000Y-22860000D01*
X76835000Y-22860000D02*
X66675000Y-22860000D01*
D41*
X60960000Y-30929400D02*
X60960000Y-22860000D01*
X57277000Y-34612400D02*
X60960000Y-30929400D01*
X57277000Y-35712400D02*
X57277000Y-34612400D01*
D40*
X66675000Y-22860000D02*
X60960000Y-22860000D01*
X60960000Y-22860000D02*
X50800000Y-22860000D01*
D41*
X44450000Y-31386600D02*
X44450000Y-22860000D01*
X41198800Y-34637800D02*
X44450000Y-31386600D01*
X41198800Y-35737800D02*
X41198800Y-34637800D01*
D40*
X50800000Y-22860000D02*
X44450000Y-22860000D01*
X44450000Y-22860000D02*
X34290000Y-22860000D01*
D41*
X28575000Y-31056400D02*
X28575000Y-22860000D01*
X25044400Y-34587000D02*
X28575000Y-31056400D01*
X25044400Y-35687000D02*
X25044400Y-34587000D01*
D40*
X34290000Y-22860000D02*
X28575000Y-22860000D01*
X28575000Y-22860000D02*
X18415000Y-22860000D01*
D34*
X111963200Y-71983600D02*
X111963200Y-53568600D01*
D38*
X18402401Y-27292401D02*
X19202400Y-28092400D01*
X17752399Y-26642399D02*
X18402401Y-27292401D01*
X17752399Y-23522601D02*
X17752399Y-26642399D01*
X17927399Y-23347601D02*
X17752399Y-23522601D01*
X105257600Y-35433198D02*
X105257600Y-35763200D01*
X107950000Y-32740798D02*
X105257600Y-35433198D01*
X107950000Y-22860000D02*
X107950000Y-32740798D01*
X107828390Y-22738390D02*
X107950000Y-22860000D01*
X18536610Y-22738390D02*
X107828390Y-22738390D01*
X17927399Y-23347601D02*
X18536610Y-22738390D01*
X105257600Y-35763200D02*
X105257600Y-40843200D01*
D34*
X25648000Y-82801000D02*
X25651000Y-82804000D01*
X25648000Y-72136000D02*
X25648000Y-82801000D01*
X17498000Y-29796800D02*
X19202400Y-28092400D01*
X17498000Y-49756000D02*
X17498000Y-29796800D01*
X38608000Y-71882000D02*
X32512000Y-65786000D01*
X38608000Y-73914000D02*
X38608000Y-71882000D01*
X32512000Y-65786000D02*
X32512000Y-54610000D01*
X32512000Y-54610000D02*
X31242000Y-53340000D01*
X31242000Y-53340000D02*
X21082000Y-53340000D01*
X21082000Y-53340000D02*
X17498000Y-49756000D01*
X32512000Y-65786000D02*
X29972000Y-68326000D01*
X29458000Y-68326000D02*
X25648000Y-72136000D01*
X29972000Y-68326000D02*
X29458000Y-68326000D01*
D38*
X111963200Y-47548800D02*
X111963200Y-53568600D01*
X105257600Y-40843200D02*
X111963200Y-47548800D01*
D41*
X29969000Y-82804000D02*
X31493000Y-84328000D01*
X28451000Y-82804000D02*
X29969000Y-82804000D01*
X29969000Y-82804000D02*
X29969000Y-82299000D01*
X29969000Y-82299000D02*
X30226000Y-82042000D01*
X30226000Y-82042000D02*
X30226000Y-82042000D01*
X30985000Y-79248000D02*
X31493000Y-79756000D01*
X29972000Y-79248000D02*
X29972000Y-77724000D01*
X29972000Y-79248000D02*
X30985000Y-79248000D01*
X28451000Y-79248000D02*
X29972000Y-79248000D01*
X29972000Y-77724000D02*
X29972000Y-77724000D01*
X30985000Y-75692000D02*
X31493000Y-75184000D01*
X29972000Y-75692000D02*
X29972000Y-74168000D01*
X29972000Y-75692000D02*
X30985000Y-75692000D01*
X28451000Y-75692000D02*
X29972000Y-75692000D01*
X29972000Y-74168000D02*
X29718000Y-73914000D01*
X29718000Y-73914000D02*
X29718000Y-73914000D01*
X29972000Y-72136000D02*
X31496000Y-70612000D01*
X28448000Y-72136000D02*
X29972000Y-72136000D01*
X29972000Y-72136000D02*
X29972000Y-70866000D01*
X29972000Y-70866000D02*
X29718000Y-70612000D01*
X29718000Y-70612000D02*
X29718000Y-70612000D01*
D34*
X45766000Y-98552000D02*
X48516000Y-98552000D01*
X39038000Y-91824000D02*
X45766000Y-98552000D01*
X39038000Y-90932000D02*
X39038000Y-91824000D01*
X39038000Y-86312000D02*
X40768000Y-84582000D01*
X39038000Y-90932000D02*
X39038000Y-86312000D01*
D40*
X112775000Y-82549000D02*
X112775000Y-90728800D01*
X109728000Y-79502000D02*
X112775000Y-82549000D01*
X109728000Y-90475800D02*
X109475000Y-90728800D01*
X109728000Y-84582000D02*
X109728000Y-90475800D01*
D36*
X106048200Y-84582000D02*
X97942400Y-76476200D01*
X109728000Y-84582000D02*
X106048200Y-84582000D01*
D34*
X97942400Y-67326200D02*
X97942400Y-76476200D01*
D36*
X28702000Y-99102000D02*
X29436000Y-98368000D01*
X28702000Y-107442000D02*
X28702000Y-99102000D01*
D37*
X106248200Y-102438200D02*
X101346000Y-97536000D01*
X109905800Y-102438200D02*
X106248200Y-102438200D01*
D42*
X105833200Y-57251600D02*
X106883200Y-57251600D01*
X104036001Y-55454401D02*
X105833200Y-57251600D01*
X99244001Y-55454401D02*
X104036001Y-55454401D01*
X98044000Y-54254400D02*
X99244001Y-55454401D01*
X106197400Y-54254400D02*
X106883200Y-53568600D01*
X100584000Y-54254400D02*
X106197400Y-54254400D01*
X106527600Y-64617600D02*
X106883200Y-64617600D01*
X104140000Y-62230000D02*
X106527600Y-64617600D01*
X104140000Y-60560398D02*
X104140000Y-62230000D01*
X101574003Y-57994401D02*
X104140000Y-60560398D01*
X98044000Y-56794400D02*
X99244001Y-57994401D01*
X99244001Y-57994401D02*
X101574003Y-57994401D01*
X106654600Y-60934600D02*
X106883200Y-60934600D01*
X104140000Y-58420000D02*
X106654600Y-60934600D01*
X104140000Y-57785000D02*
X104140000Y-58420000D01*
X100584000Y-56794400D02*
X103149400Y-56794400D01*
X103149400Y-56794400D02*
X104140000Y-57785000D01*
X106273600Y-71983600D02*
X106883200Y-71983600D01*
X104775000Y-70485000D02*
X106273600Y-71983600D01*
X104775000Y-68825400D02*
X104775000Y-70485000D01*
X104114600Y-68165000D02*
X104775000Y-68825400D01*
X98044000Y-59334400D02*
X104114600Y-65405000D01*
X104114600Y-65405000D02*
X104114600Y-68165000D01*
X105833200Y-68300600D02*
X106883200Y-68300600D01*
X100584000Y-60384400D02*
X104775000Y-64575400D01*
X100584000Y-59334400D02*
X100584000Y-60384400D01*
X104775000Y-64575400D02*
X104775000Y-67310000D01*
X105765600Y-68300600D02*
X105833200Y-68300600D01*
X104775000Y-67310000D02*
X105765600Y-68300600D01*
X25380082Y-66167000D02*
X24178001Y-66167000D01*
X30006000Y-66167000D02*
X25380082Y-66167000D01*
X30734000Y-65439000D02*
X30006000Y-66167000D01*
X30734000Y-64389000D02*
X30734000Y-65439000D01*
X24686001Y-59309000D02*
X24178001Y-58801000D01*
X30734000Y-59309000D02*
X24686001Y-59309000D01*
X24799000Y-61849000D02*
X24178001Y-62469999D01*
X30734000Y-61849000D02*
X24799000Y-61849000D01*
X29083000Y-55118000D02*
X24178001Y-55118000D01*
X30734000Y-56769000D02*
X29083000Y-55118000D01*
D34*
X90500200Y-63928800D02*
X91945000Y-62484000D01*
X90500200Y-65630600D02*
X90500200Y-63928800D01*
D40*
X89525200Y-65630600D02*
X90500200Y-65630600D01*
X76579400Y-65630600D02*
X89525200Y-65630600D01*
X70485000Y-71725000D02*
X76579400Y-65630600D01*
X70485000Y-73025000D02*
X70485000Y-71725000D01*
D33*
X21590000Y-86230000D02*
X22225000Y-86865000D01*
X20190000Y-86230000D02*
X20190000Y-85220000D01*
X20190000Y-86230000D02*
X21590000Y-86230000D01*
X17780000Y-86230000D02*
X20190000Y-86230000D01*
X20190000Y-85220000D02*
X20190000Y-85220000D01*
D40*
X37465000Y-83820000D02*
X37864999Y-83420001D01*
X37864999Y-83420001D02*
X38735000Y-82550000D01*
X38735000Y-82550000D02*
X43180000Y-82550000D01*
X43180000Y-82550000D02*
X45720000Y-80010000D01*
X45720000Y-80010000D02*
X45720000Y-79375000D01*
X45720000Y-79375000D02*
X45720000Y-79375000D01*
D38*
X81280000Y-77340000D02*
X77470000Y-77340000D01*
D40*
X76591160Y-76461160D02*
X77470000Y-77340000D01*
X76591160Y-75253241D02*
X76591160Y-76461160D01*
X75565000Y-74227081D02*
X76591160Y-75253241D01*
X75565000Y-73025000D02*
X75565000Y-74227081D01*
D38*
X86992000Y-77492400D02*
X86258400Y-76758800D01*
X89560400Y-77492400D02*
X86992000Y-77492400D01*
D40*
X78105000Y-74227081D02*
X78807919Y-74930000D01*
X78105000Y-73025000D02*
X78105000Y-74227081D01*
X84429600Y-74930000D02*
X86258400Y-76758800D01*
X78807919Y-74930000D02*
X84429600Y-74930000D01*
D38*
X64008000Y-77340000D02*
X67818000Y-77340000D01*
D40*
X80645000Y-71822919D02*
X79942081Y-71120000D01*
X80645000Y-73025000D02*
X80645000Y-71822919D01*
X79942081Y-71120000D02*
X74930000Y-71120000D01*
X67818000Y-77340000D02*
X71250000Y-77340000D01*
X71250000Y-77340000D02*
X74295000Y-74295000D01*
D43*
X74295000Y-71755000D02*
X74930000Y-71120000D01*
X74295000Y-74295000D02*
X74295000Y-71755000D01*
D34*
X95470000Y-62484000D02*
X94745000Y-62484000D01*
X97300202Y-62484000D02*
X95470000Y-62484000D01*
X100482400Y-65666198D02*
X97300202Y-62484000D01*
X100482400Y-67326200D02*
X100482400Y-65666198D01*
D43*
X21435000Y-93660000D02*
X22390000Y-94615000D01*
X20685000Y-93660000D02*
X21435000Y-93660000D01*
X22390000Y-94615000D02*
X22860000Y-94615000D01*
X22860000Y-94615000D02*
X22860000Y-94615000D01*
X18285000Y-89535000D02*
X17780000Y-89030000D01*
X19685000Y-89535000D02*
X18285000Y-89535000D01*
D34*
X81788000Y-80648000D02*
X81280000Y-80140000D01*
X81788000Y-84830000D02*
X81788000Y-80648000D01*
D38*
X94996000Y-84903000D02*
X94996000Y-83153000D01*
D43*
X94996000Y-83153000D02*
X93758000Y-81915000D01*
X91183000Y-81915000D02*
X89560400Y-80292400D01*
X93758000Y-81915000D02*
X91183000Y-81915000D01*
D34*
X68580000Y-80902000D02*
X67818000Y-80140000D01*
X68580000Y-84649000D02*
X68580000Y-80902000D01*
D35*
X18035000Y-100585000D02*
X18288000Y-100838000D01*
X18035000Y-96520000D02*
X18035000Y-100585000D01*
X18035000Y-93360000D02*
X18685000Y-92710000D01*
X18035000Y-96520000D02*
X18035000Y-93360000D01*
D37*
X76708000Y-96520000D02*
X79248000Y-93980000D01*
X76708000Y-106553000D02*
X76708000Y-96520000D01*
D38*
X79248000Y-84830000D02*
X79248000Y-93980000D01*
D37*
X90678000Y-95831000D02*
X92456000Y-94053000D01*
X90678000Y-106553000D02*
X90678000Y-95831000D01*
D38*
X92456000Y-84903000D02*
X92456000Y-94053000D01*
D39*
X66040000Y-93799000D02*
X66040000Y-97029000D01*
D37*
X62230000Y-97609000D02*
X66040000Y-93799000D01*
X62230000Y-106553000D02*
X62230000Y-97609000D01*
D38*
X66040000Y-84649000D02*
X66040000Y-93799000D01*
D42*
X31877000Y-40767000D02*
X31902400Y-40792400D01*
X27584400Y-40767000D02*
X31877000Y-40767000D01*
X27609800Y-38252400D02*
X27584400Y-38227000D01*
X31902400Y-38252400D02*
X27609800Y-38252400D01*
X27609800Y-35712400D02*
X27584400Y-35687000D01*
X31902400Y-35712400D02*
X27609800Y-35712400D01*
D41*
X31902400Y-30632400D02*
X31902400Y-33172400D01*
D42*
X47879000Y-40817800D02*
X47904400Y-40792400D01*
X43738800Y-40817800D02*
X47879000Y-40817800D01*
X43764200Y-38252400D02*
X43738800Y-38277800D01*
X47904400Y-38252400D02*
X43764200Y-38252400D01*
X47879000Y-35737800D02*
X47904400Y-35712400D01*
X43738800Y-35737800D02*
X47879000Y-35737800D01*
D41*
X47904400Y-30632400D02*
X47904400Y-33172400D01*
D42*
X63931800Y-40792400D02*
X63957200Y-40817800D01*
X59817000Y-40792400D02*
X63931800Y-40792400D01*
X63931800Y-38252400D02*
X63957200Y-38277800D01*
X59817000Y-38252400D02*
X63931800Y-38252400D01*
X59842400Y-35737800D02*
X59817000Y-35712400D01*
X63957200Y-35737800D02*
X59842400Y-35737800D01*
D41*
X63957200Y-30657800D02*
X63957200Y-33197800D01*
X79984600Y-31814570D02*
X79984600Y-33223200D01*
X79984600Y-30683200D02*
X79984600Y-31814570D01*
D42*
X75844400Y-35763200D02*
X79984600Y-35763200D01*
X75844400Y-38303200D02*
X79984600Y-38303200D01*
X79984600Y-40843200D02*
X75844400Y-40843200D01*
D41*
X95935800Y-30683200D02*
X95935800Y-33223200D01*
D42*
X91440000Y-35763200D02*
X95935800Y-35763200D01*
X91440000Y-38303200D02*
X95935800Y-38303200D01*
X91440000Y-40843200D02*
X95935800Y-40843200D01*
D41*
X111963200Y-30683200D02*
X111963200Y-33223200D01*
D42*
X107797600Y-35763200D02*
X111963200Y-35763200D01*
X111963200Y-38303200D02*
X107797600Y-38303200D01*
X108999681Y-40843200D02*
X111963200Y-40843200D01*
X107797600Y-40843200D02*
X108999681Y-40843200D01*
D44*
G36*
X64155000Y-80267000D02*
G01*
X64135000Y-80267000D01*
X64135000Y-81241250D01*
X64293750Y-81400000D01*
X64516000Y-81401159D01*
X64516000Y-81915867D01*
X64501185Y-81897815D01*
X64404494Y-81818463D01*
X64294180Y-81759498D01*
X64174482Y-81723188D01*
X64050000Y-81710928D01*
X63785750Y-81714000D01*
X63627000Y-81872750D01*
X63627000Y-84522000D01*
X63647000Y-84522000D01*
X63647000Y-84776000D01*
X63627000Y-84776000D01*
X63627000Y-84796000D01*
X63373000Y-84796000D01*
X63373000Y-84776000D01*
X62473750Y-84776000D01*
X62315000Y-84934750D01*
X62311928Y-86949000D01*
X62324188Y-87073482D01*
X62360498Y-87193180D01*
X62419463Y-87303494D01*
X62498815Y-87400185D01*
X62595506Y-87479537D01*
X62639401Y-87503000D01*
X59690000Y-87503000D01*
X59690000Y-82349000D01*
X62311928Y-82349000D01*
X62315000Y-84363250D01*
X62473750Y-84522000D01*
X63373000Y-84522000D01*
X63373000Y-81872750D01*
X63214250Y-81714000D01*
X62950000Y-81710928D01*
X62825518Y-81723188D01*
X62705820Y-81759498D01*
X62595506Y-81818463D01*
X62498815Y-81897815D01*
X62419463Y-81994506D01*
X62360498Y-82104820D01*
X62324188Y-82224518D01*
X62311928Y-82349000D01*
X59690000Y-82349000D01*
X59690000Y-80765000D01*
X62494928Y-80765000D01*
X62507188Y-80889482D01*
X62543498Y-81009180D01*
X62602463Y-81119494D01*
X62681815Y-81216185D01*
X62778506Y-81295537D01*
X62888820Y-81354502D01*
X63008518Y-81390812D01*
X63133000Y-81403072D01*
X63722250Y-81400000D01*
X63881000Y-81241250D01*
X63881000Y-80267000D01*
X62656750Y-80267000D01*
X62498000Y-80425750D01*
X62494928Y-80765000D01*
X59690000Y-80765000D01*
X59690000Y-80137000D01*
X64155000Y-80137000D01*
X64155000Y-80267000D01*
X64155000Y-80267000D01*
G37*
X64155000Y-80267000D02*
X64135000Y-80267000D01*
X64135000Y-81241250D01*
X64293750Y-81400000D01*
X64516000Y-81401159D01*
X64516000Y-81915867D01*
X64501185Y-81897815D01*
X64404494Y-81818463D01*
X64294180Y-81759498D01*
X64174482Y-81723188D01*
X64050000Y-81710928D01*
X63785750Y-81714000D01*
X63627000Y-81872750D01*
X63627000Y-84522000D01*
X63647000Y-84522000D01*
X63647000Y-84776000D01*
X63627000Y-84776000D01*
X63627000Y-84796000D01*
X63373000Y-84796000D01*
X63373000Y-84776000D01*
X62473750Y-84776000D01*
X62315000Y-84934750D01*
X62311928Y-86949000D01*
X62324188Y-87073482D01*
X62360498Y-87193180D01*
X62419463Y-87303494D01*
X62498815Y-87400185D01*
X62595506Y-87479537D01*
X62639401Y-87503000D01*
X59690000Y-87503000D01*
X59690000Y-82349000D01*
X62311928Y-82349000D01*
X62315000Y-84363250D01*
X62473750Y-84522000D01*
X63373000Y-84522000D01*
X63373000Y-81872750D01*
X63214250Y-81714000D01*
X62950000Y-81710928D01*
X62825518Y-81723188D01*
X62705820Y-81759498D01*
X62595506Y-81818463D01*
X62498815Y-81897815D01*
X62419463Y-81994506D01*
X62360498Y-82104820D01*
X62324188Y-82224518D01*
X62311928Y-82349000D01*
X59690000Y-82349000D01*
X59690000Y-80765000D01*
X62494928Y-80765000D01*
X62507188Y-80889482D01*
X62543498Y-81009180D01*
X62602463Y-81119494D01*
X62681815Y-81216185D01*
X62778506Y-81295537D01*
X62888820Y-81354502D01*
X63008518Y-81390812D01*
X63133000Y-81403072D01*
X63722250Y-81400000D01*
X63881000Y-81241250D01*
X63881000Y-80267000D01*
X62656750Y-80267000D01*
X62498000Y-80425750D01*
X62494928Y-80765000D01*
X59690000Y-80765000D01*
X59690000Y-80137000D01*
X64155000Y-80137000D01*
X64155000Y-80267000D01*
G36*
X63881000Y-78880000D02*
G01*
X63880998Y-78880000D01*
X63880998Y-79038748D01*
X63722250Y-78880000D01*
X63133000Y-78876928D01*
X63008518Y-78889188D01*
X62888820Y-78925498D01*
X62778506Y-78984463D01*
X62681815Y-79063815D01*
X62602463Y-79160506D01*
X62543498Y-79270820D01*
X62507188Y-79390518D01*
X62494928Y-79515000D01*
X62498000Y-79854250D01*
X62656750Y-80013000D01*
X63881000Y-80013000D01*
X63881000Y-80267000D01*
X62656750Y-80267000D01*
X62498000Y-80425750D01*
X62497165Y-80518000D01*
X59690000Y-80518000D01*
X59690000Y-78867000D01*
X63881000Y-78867000D01*
X63881000Y-78880000D01*
X63881000Y-78880000D01*
G37*
X63881000Y-78880000D02*
X63880998Y-78880000D01*
X63880998Y-79038748D01*
X63722250Y-78880000D01*
X63133000Y-78876928D01*
X63008518Y-78889188D01*
X62888820Y-78925498D01*
X62778506Y-78984463D01*
X62681815Y-79063815D01*
X62602463Y-79160506D01*
X62543498Y-79270820D01*
X62507188Y-79390518D01*
X62494928Y-79515000D01*
X62498000Y-79854250D01*
X62656750Y-80013000D01*
X63881000Y-80013000D01*
X63881000Y-80267000D01*
X62656750Y-80267000D01*
X62498000Y-80425750D01*
X62497165Y-80518000D01*
X59690000Y-80518000D01*
X59690000Y-78867000D01*
X63881000Y-78867000D01*
X63881000Y-78880000D01*
G36*
X77343000Y-78880000D02*
G01*
X77342998Y-78880000D01*
X77342998Y-79038748D01*
X77184250Y-78880000D01*
X76595000Y-78876928D01*
X76470518Y-78889188D01*
X76350820Y-78925498D01*
X76240506Y-78984463D01*
X76143815Y-79063815D01*
X76064463Y-79160506D01*
X76005498Y-79270820D01*
X75969188Y-79390518D01*
X75956928Y-79515000D01*
X75960000Y-79854250D01*
X76118750Y-80013000D01*
X77343000Y-80013000D01*
X77343000Y-80267000D01*
X76118750Y-80267000D01*
X75960000Y-80425750D01*
X75956928Y-80765000D01*
X75969188Y-80889482D01*
X76005498Y-81009180D01*
X76064463Y-81119494D01*
X76143815Y-81216185D01*
X76240506Y-81295537D01*
X76327000Y-81341770D01*
X76327000Y-81893893D01*
X76158000Y-81891928D01*
X76033518Y-81904188D01*
X75913820Y-81940498D01*
X75803506Y-81999463D01*
X75706815Y-82078815D01*
X75627463Y-82175506D01*
X75568498Y-82285820D01*
X75532188Y-82405518D01*
X75519928Y-82530000D01*
X75523000Y-84544250D01*
X75681750Y-84703000D01*
X76327000Y-84703000D01*
X76327000Y-84957000D01*
X75681750Y-84957000D01*
X75523000Y-85115750D01*
X75519928Y-87130000D01*
X75531648Y-87249000D01*
X72771000Y-87249000D01*
X72771000Y-78867000D01*
X77343000Y-78867000D01*
X77343000Y-78880000D01*
X77343000Y-78880000D01*
G37*
X77343000Y-78880000D02*
X77342998Y-78880000D01*
X77342998Y-79038748D01*
X77184250Y-78880000D01*
X76595000Y-78876928D01*
X76470518Y-78889188D01*
X76350820Y-78925498D01*
X76240506Y-78984463D01*
X76143815Y-79063815D01*
X76064463Y-79160506D01*
X76005498Y-79270820D01*
X75969188Y-79390518D01*
X75956928Y-79515000D01*
X75960000Y-79854250D01*
X76118750Y-80013000D01*
X77343000Y-80013000D01*
X77343000Y-80267000D01*
X76118750Y-80267000D01*
X75960000Y-80425750D01*
X75956928Y-80765000D01*
X75969188Y-80889482D01*
X76005498Y-81009180D01*
X76064463Y-81119494D01*
X76143815Y-81216185D01*
X76240506Y-81295537D01*
X76327000Y-81341770D01*
X76327000Y-81893893D01*
X76158000Y-81891928D01*
X76033518Y-81904188D01*
X75913820Y-81940498D01*
X75803506Y-81999463D01*
X75706815Y-82078815D01*
X75627463Y-82175506D01*
X75568498Y-82285820D01*
X75532188Y-82405518D01*
X75519928Y-82530000D01*
X75523000Y-84544250D01*
X75681750Y-84703000D01*
X76327000Y-84703000D01*
X76327000Y-84957000D01*
X75681750Y-84957000D01*
X75523000Y-85115750D01*
X75519928Y-87130000D01*
X75531648Y-87249000D01*
X72771000Y-87249000D01*
X72771000Y-78867000D01*
X77343000Y-78867000D01*
X77343000Y-78880000D01*
G36*
X84745328Y-80183800D02*
G01*
X84757588Y-80308282D01*
X84793898Y-80427980D01*
X84852863Y-80538294D01*
X84932215Y-80634985D01*
X85028906Y-80714337D01*
X85139220Y-80773302D01*
X85258918Y-80809612D01*
X85383400Y-80821872D01*
X85972650Y-80818800D01*
X86131400Y-80660050D01*
X86131400Y-79883000D01*
X86385400Y-79883000D01*
X86385400Y-80660050D01*
X86544150Y-80818800D01*
X87133400Y-80821872D01*
X87257882Y-80809612D01*
X87377580Y-80773302D01*
X87487894Y-80714337D01*
X87580973Y-80637950D01*
X88109859Y-80990541D01*
X88114928Y-81007250D01*
X88196995Y-81160786D01*
X88265000Y-81243651D01*
X88265000Y-84328000D01*
X88267440Y-84352776D01*
X88274667Y-84376601D01*
X88286403Y-84398557D01*
X88302197Y-84417803D01*
X88321443Y-84433597D01*
X88343399Y-84445333D01*
X88367224Y-84452560D01*
X88392000Y-84455000D01*
X88730753Y-84455000D01*
X88731000Y-84617250D01*
X88889750Y-84776000D01*
X89535000Y-84776000D01*
X89535000Y-85030000D01*
X88889750Y-85030000D01*
X88731000Y-85188750D01*
X88729020Y-86487000D01*
X84201000Y-86487000D01*
X84201000Y-79883000D01*
X84748052Y-79883000D01*
X84745328Y-80183800D01*
X84745328Y-80183800D01*
G37*
X84745328Y-80183800D02*
X84757588Y-80308282D01*
X84793898Y-80427980D01*
X84852863Y-80538294D01*
X84932215Y-80634985D01*
X85028906Y-80714337D01*
X85139220Y-80773302D01*
X85258918Y-80809612D01*
X85383400Y-80821872D01*
X85972650Y-80818800D01*
X86131400Y-80660050D01*
X86131400Y-79883000D01*
X86385400Y-79883000D01*
X86385400Y-80660050D01*
X86544150Y-80818800D01*
X87133400Y-80821872D01*
X87257882Y-80809612D01*
X87377580Y-80773302D01*
X87487894Y-80714337D01*
X87580973Y-80637950D01*
X88109859Y-80990541D01*
X88114928Y-81007250D01*
X88196995Y-81160786D01*
X88265000Y-81243651D01*
X88265000Y-84328000D01*
X88267440Y-84352776D01*
X88274667Y-84376601D01*
X88286403Y-84398557D01*
X88302197Y-84417803D01*
X88321443Y-84433597D01*
X88343399Y-84445333D01*
X88367224Y-84452560D01*
X88392000Y-84455000D01*
X88730753Y-84455000D01*
X88731000Y-84617250D01*
X88889750Y-84776000D01*
X89535000Y-84776000D01*
X89535000Y-85030000D01*
X88889750Y-85030000D01*
X88731000Y-85188750D01*
X88729020Y-86487000D01*
X84201000Y-86487000D01*
X84201000Y-79883000D01*
X84748052Y-79883000D01*
X84745328Y-80183800D01*
M02*
